<?xml version="1.0" encoding="us-ascii" standalone="no"?><svg xmlns="http://www.w3.org/2000/svg" xmlns:xlink="http://www.w3.org/1999/xlink" contentStyleType="text/css" height="1018px" preserveAspectRatio="none" style="width:1422px;height:1018px;background:#FFFFFF;" version="1.1" viewBox="0 0 1422 1018" width="1422px" zoomAndPan="magnify"><defs/><g><!--class Client--><g id="elem_Client"><rect codeLine="1" fill="#F1F1F1" height="96.8906" id="Client" rx="2.5" ry="2.5" style="stroke:#181818;stroke-width:0.5;" width="220" x="1070" y="271"/><ellipse cx="1148.25" cy="287" fill="#ADD1B2" rx="11" ry="11" style="stroke:#181818;stroke-width:1.0;"/><path d="M1147.0469,287.875 L1148.5,287.875 L1148.5,287.9844 C1148.5,288.3906 1148.5313,288.5469 1148.6094,288.7031 C1148.7656,288.9531 1149.0469,289.1094 1149.3438,289.1094 C1149.5938,289.1094 1149.8594,288.9688 1150.0156,288.75 C1150.1406,288.5938 1150.1719,288.4375 1150.1719,287.9844 L1150.1719,286.0625 C1150.1719,285.9063 1150.1719,285.8594 1150.1563,285.7031 C1150.0938,285.2344 1149.7813,284.9219 1149.3281,284.9219 C1149.0781,284.9219 1148.8125,285.0625 1148.6406,285.2813 C1148.5313,285.4531 1148.5,285.6094 1148.5,286.0625 L1148.5,286.1875 L1147.0469,286.1875 L1147.0469,283.7813 L1151.0313,283.7813 L1151.0313,284.6406 C1151.0313,285.0469 1151.0625,285.2188 1151.1406,285.375 C1151.3125,285.625 1151.5938,285.7813 1151.875,285.7813 C1152.1406,285.7813 1152.4063,285.6406 1152.5781,285.4219 C1152.6875,285.25 1152.7188,285.1094 1152.7188,284.6406 L1152.7188,282.0938 L1145.0938,282.0938 C1144.6563,282.0938 1144.5313,282.1094 1144.375,282.2031 C1144.125,282.3594 1143.9688,282.6563 1143.9688,282.9375 C1143.9688,283.2188 1144.1094,283.4688 1144.3281,283.6406 C1144.4844,283.75 1144.6719,283.7813 1145.0938,283.7813 L1145.3438,283.7813 L1145.3438,290.2969 L1145.0938,290.2969 C1144.6875,290.2969 1144.5313,290.3125 1144.375,290.4219 C1144.125,290.5938 1143.9688,290.8594 1143.9688,291.1563 C1143.9688,291.4219 1144.1094,291.6719 1144.3281,291.8281 C1144.4688,291.9531 1144.7031,292 1145.0938,292 L1153.0938,292 L1153.0938,289.4219 C1153.0938,288.9844 1153.0625,288.8438 1152.9844,288.6875 C1152.8125,288.4375 1152.5313,288.2813 1152.25,288.2813 C1151.9844,288.2813 1151.7188,288.3906 1151.5469,288.6406 C1151.4375,288.7969 1151.4063,288.9375 1151.4063,289.4219 L1151.4063,290.2969 L1147.0469,290.2969 L1147.0469,287.875 Z " fill="#000000"/><text fill="#000000" font-family="sans-serif" font-size="14" lengthAdjust="spacing" textLength="55" x="1168.75" y="291.8467">&#1050;&#1083;&#1080;&#1077;&#1085;&#1090;</text><line style="stroke:#181818;stroke-width:0.5;" x1="1071" x2="1289" y1="303" y2="303"/><text fill="#000000" font-family="sans-serif" font-size="14" lengthAdjust="spacing" textLength="67" x="1076" y="319.9951">&#1058;&#1077;&#1083;&#1077;&#1092;&#1086;&#1085;</text><text fill="#000000" font-family="sans-serif" font-size="14" lengthAdjust="spacing" textLength="208" x="1076" y="336.292">&#1055;&#1088;&#1086;&#1092;&#1080;&#1083;&#1100; &#1083;&#1080;&#1095;&#1085;&#1086;&#1075;&#1086; &#1082;&#1072;&#1073;&#1080;&#1085;&#1077;&#1090;&#1072;</text><text fill="#000000" font-family="sans-serif" font-size="14" lengthAdjust="spacing" textLength="140" x="1076" y="352.5889">&#1041;&#1072;&#1083;&#1083;&#1099; &#1083;&#1086;&#1103;&#1083;&#1100;&#1085;&#1086;&#1089;&#1090;&#1080;</text><line style="stroke:#181818;stroke-width:0.5;" x1="1071" x2="1289" y1="359.8906" y2="359.8906"/></g><!--class Product--><g id="elem_Product"><rect codeLine="7" fill="#F1F1F1" height="210.9688" id="Product" rx="2.5" ry="2.5" style="stroke:#181818;stroke-width:0.5;" width="251" x="56.5" y="453"/><ellipse cx="155.25" cy="469" fill="#ADD1B2" rx="11" ry="11" style="stroke:#181818;stroke-width:1.0;"/><path d="M154.0469,469.875 L155.5,469.875 L155.5,469.9844 C155.5,470.3906 155.5313,470.5469 155.6094,470.7031 C155.7656,470.9531 156.0469,471.1094 156.3438,471.1094 C156.5938,471.1094 156.8594,470.9688 157.0156,470.75 C157.1406,470.5938 157.1719,470.4375 157.1719,469.9844 L157.1719,468.0625 C157.1719,467.9063 157.1719,467.8594 157.1563,467.7031 C157.0938,467.2344 156.7813,466.9219 156.3281,466.9219 C156.0781,466.9219 155.8125,467.0625 155.6406,467.2813 C155.5313,467.4531 155.5,467.6094 155.5,468.0625 L155.5,468.1875 L154.0469,468.1875 L154.0469,465.7813 L158.0313,465.7813 L158.0313,466.6406 C158.0313,467.0469 158.0625,467.2188 158.1406,467.375 C158.3125,467.625 158.5938,467.7813 158.875,467.7813 C159.1406,467.7813 159.4063,467.6406 159.5781,467.4219 C159.6875,467.25 159.7188,467.1094 159.7188,466.6406 L159.7188,464.0938 L152.0938,464.0938 C151.6563,464.0938 151.5313,464.1094 151.375,464.2031 C151.125,464.3594 150.9688,464.6563 150.9688,464.9375 C150.9688,465.2188 151.1094,465.4688 151.3281,465.6406 C151.4844,465.75 151.6719,465.7813 152.0938,465.7813 L152.3438,465.7813 L152.3438,472.2969 L152.0938,472.2969 C151.6875,472.2969 151.5313,472.3125 151.375,472.4219 C151.125,472.5938 150.9688,472.8594 150.9688,473.1563 C150.9688,473.4219 151.1094,473.6719 151.3281,473.8281 C151.4688,473.9531 151.7031,474 152.0938,474 L160.0938,474 L160.0938,471.4219 C160.0938,470.9844 160.0625,470.8438 159.9844,470.6875 C159.8125,470.4375 159.5313,470.2813 159.25,470.2813 C158.9844,470.2813 158.7188,470.3906 158.5469,470.6406 C158.4375,470.7969 158.4063,470.9375 158.4063,471.4219 L158.4063,472.2969 L154.0469,472.2969 L154.0469,469.875 Z " fill="#000000"/><text fill="#000000" font-family="sans-serif" font-size="14" lengthAdjust="spacing" textLength="45" x="175.75" y="473.8467">&#1058;&#1086;&#1074;&#1072;&#1088;</text><line style="stroke:#181818;stroke-width:0.5;" x1="57.5" x2="306.5" y1="485" y2="485"/><text fill="#000000" font-family="sans-serif" font-size="14" lengthAdjust="spacing" textLength="70" x="62.5" y="501.9951">&#1053;&#1072;&#1079;&#1074;&#1072;&#1085;&#1080;&#1077;</text><text fill="#000000" font-family="sans-serif" font-size="14" lengthAdjust="spacing" textLength="72" x="62.5" y="518.292">&#1054;&#1087;&#1080;&#1089;&#1072;&#1085;&#1080;&#1077;</text><text fill="#000000" font-family="sans-serif" font-size="14" lengthAdjust="spacing" textLength="46" x="62.5" y="534.5889">&#1041;&#1077;&#1083;&#1082;&#1080;</text><text fill="#000000" font-family="sans-serif" font-size="14" lengthAdjust="spacing" textLength="45" x="62.5" y="550.8857">&#1046;&#1080;&#1088;&#1099;</text><text fill="#000000" font-family="sans-serif" font-size="14" lengthAdjust="spacing" textLength="74" x="62.5" y="567.1826">&#1059;&#1075;&#1083;&#1077;&#1074;&#1086;&#1076;&#1099;</text><text fill="#000000" font-family="sans-serif" font-size="14" lengthAdjust="spacing" textLength="108" x="62.5" y="583.4795">&#1050;&#1072;&#1083;&#1086;&#1088;&#1080;&#1081;&#1085;&#1086;&#1089;&#1090;&#1100;</text><text fill="#000000" font-family="sans-serif" font-size="14" lengthAdjust="spacing" textLength="97" x="62.5" y="599.7764">&#1060;&#1086;&#1090;&#1086;&#1075;&#1088;&#1072;&#1092;&#1080;&#1103;</text><text fill="#000000" font-family="sans-serif" font-size="14" lengthAdjust="spacing" textLength="38" x="62.5" y="616.0732">&#1062;&#1077;&#1085;&#1072;</text><text fill="#000000" font-family="sans-serif" font-size="14" lengthAdjust="spacing" textLength="239" x="62.5" y="632.3701">&#1048;&#1085;&#1075;&#1088;&#1077;&#1076;&#1080;&#1077;&#1085;&#1090;&#1099; [1..*] &#1048;&#1085;&#1075;&#1088;&#1077;&#1076;&#1080;&#1077;&#1085;&#1090;</text><text fill="#000000" font-family="sans-serif" font-size="14" lengthAdjust="spacing" textLength="170" x="62.5" y="648.667">&#1042;&#1088;&#1077;&#1084;&#1103; &#1087;&#1088;&#1080;&#1075;&#1086;&#1090;&#1086;&#1074;&#1083;&#1077;&#1085;&#1080;&#1103;</text><line style="stroke:#181818;stroke-width:0.5;" x1="57.5" x2="306.5" y1="655.9688" y2="655.9688"/></g><!--class Menu--><g id="elem_Menu"><rect codeLine="20" fill="#F1F1F1" height="96.8906" id="Menu" rx="2.5" ry="2.5" style="stroke:#181818;stroke-width:0.5;" width="291" x="36.5" y="915"/><ellipse cx="156.75" cy="931" fill="#ADD1B2" rx="11" ry="11" style="stroke:#181818;stroke-width:1.0;"/><path d="M155.5469,931.875 L157,931.875 L157,931.9844 C157,932.3906 157.0313,932.5469 157.1094,932.7031 C157.2656,932.9531 157.5469,933.1094 157.8438,933.1094 C158.0938,933.1094 158.3594,932.9688 158.5156,932.75 C158.6406,932.5938 158.6719,932.4375 158.6719,931.9844 L158.6719,930.0625 C158.6719,929.9063 158.6719,929.8594 158.6563,929.7031 C158.5938,929.2344 158.2813,928.9219 157.8281,928.9219 C157.5781,928.9219 157.3125,929.0625 157.1406,929.2813 C157.0313,929.4531 157,929.6094 157,930.0625 L157,930.1875 L155.5469,930.1875 L155.5469,927.7813 L159.5313,927.7813 L159.5313,928.6406 C159.5313,929.0469 159.5625,929.2188 159.6406,929.375 C159.8125,929.625 160.0938,929.7813 160.375,929.7813 C160.6406,929.7813 160.9063,929.6406 161.0781,929.4219 C161.1875,929.25 161.2188,929.1094 161.2188,928.6406 L161.2188,926.0938 L153.5938,926.0938 C153.1563,926.0938 153.0313,926.1094 152.875,926.2031 C152.625,926.3594 152.4688,926.6563 152.4688,926.9375 C152.4688,927.2188 152.6094,927.4688 152.8281,927.6406 C152.9844,927.75 153.1719,927.7813 153.5938,927.7813 L153.8438,927.7813 L153.8438,934.2969 L153.5938,934.2969 C153.1875,934.2969 153.0313,934.3125 152.875,934.4219 C152.625,934.5938 152.4688,934.8594 152.4688,935.1563 C152.4688,935.4219 152.6094,935.6719 152.8281,935.8281 C152.9688,935.9531 153.2031,936 153.5938,936 L161.5938,936 L161.5938,933.4219 C161.5938,932.9844 161.5625,932.8438 161.4844,932.6875 C161.3125,932.4375 161.0313,932.2813 160.75,932.2813 C160.4844,932.2813 160.2188,932.3906 160.0469,932.6406 C159.9375,932.7969 159.9063,932.9375 159.9063,933.4219 L159.9063,934.2969 L155.5469,934.2969 L155.5469,931.875 Z " fill="#000000"/><text fill="#000000" font-family="sans-serif" font-size="14" lengthAdjust="spacing" textLength="42" x="177.25" y="935.8467">&#1052;&#1077;&#1085;&#1102;</text><line style="stroke:#181818;stroke-width:0.5;" x1="37.5" x2="326.5" y1="947" y2="947"/><text fill="#000000" font-family="sans-serif" font-size="14" lengthAdjust="spacing" textLength="70" x="42.5" y="963.9951">&#1053;&#1072;&#1079;&#1074;&#1072;&#1085;&#1080;&#1077;</text><text fill="#000000" font-family="sans-serif" font-size="14" lengthAdjust="spacing" textLength="72" x="42.5" y="980.292">&#1058;&#1080;&#1087; &#1084;&#1077;&#1085;&#1102;</text><text fill="#000000" font-family="sans-serif" font-size="14" lengthAdjust="spacing" textLength="279" x="42.5" y="996.5889">&#1056;&#1072;&#1079;&#1076;&#1077;&#1083;&#1099; &#1084;&#1077;&#1085;&#1102; [1..*] &#1050;&#1072;&#1090;&#1077;&#1075;&#1086;&#1088;&#1080;&#1103; &#1084;&#1077;&#1085;&#1102;</text><line style="stroke:#181818;stroke-width:0.5;" x1="37.5" x2="326.5" y1="1003.8906" y2="1003.8906"/></g><!--class MenuSection--><g id="elem_MenuSection"><rect codeLine="26" fill="#F1F1F1" height="80.5938" id="MenuSection" rx="2.5" ry="2.5" style="stroke:#181818;stroke-width:0.5;" width="158" x="103" y="749"/><ellipse cx="118" cy="765" fill="#ADD1B2" rx="11" ry="11" style="stroke:#181818;stroke-width:1.0;"/><path d="M116.7969,765.875 L118.25,765.875 L118.25,765.9844 C118.25,766.3906 118.2813,766.5469 118.3594,766.7031 C118.5156,766.9531 118.7969,767.1094 119.0938,767.1094 C119.3438,767.1094 119.6094,766.9688 119.7656,766.75 C119.8906,766.5938 119.9219,766.4375 119.9219,765.9844 L119.9219,764.0625 C119.9219,763.9063 119.9219,763.8594 119.9063,763.7031 C119.8438,763.2344 119.5313,762.9219 119.0781,762.9219 C118.8281,762.9219 118.5625,763.0625 118.3906,763.2813 C118.2813,763.4531 118.25,763.6094 118.25,764.0625 L118.25,764.1875 L116.7969,764.1875 L116.7969,761.7813 L120.7813,761.7813 L120.7813,762.6406 C120.7813,763.0469 120.8125,763.2188 120.8906,763.375 C121.0625,763.625 121.3438,763.7813 121.625,763.7813 C121.8906,763.7813 122.1563,763.6406 122.3281,763.4219 C122.4375,763.25 122.4688,763.1094 122.4688,762.6406 L122.4688,760.0938 L114.8438,760.0938 C114.4063,760.0938 114.2813,760.1094 114.125,760.2031 C113.875,760.3594 113.7188,760.6563 113.7188,760.9375 C113.7188,761.2188 113.8594,761.4688 114.0781,761.6406 C114.2344,761.75 114.4219,761.7813 114.8438,761.7813 L115.0938,761.7813 L115.0938,768.2969 L114.8438,768.2969 C114.4375,768.2969 114.2813,768.3125 114.125,768.4219 C113.875,768.5938 113.7188,768.8594 113.7188,769.1563 C113.7188,769.4219 113.8594,769.6719 114.0781,769.8281 C114.2188,769.9531 114.4531,770 114.8438,770 L122.8438,770 L122.8438,767.4219 C122.8438,766.9844 122.8125,766.8438 122.7344,766.6875 C122.5625,766.4375 122.2813,766.2813 122,766.2813 C121.7344,766.2813 121.4688,766.3906 121.2969,766.6406 C121.1875,766.7969 121.1563,766.9375 121.1563,767.4219 L121.1563,768.2969 L116.7969,768.2969 L116.7969,765.875 Z " fill="#000000"/><text fill="#000000" font-family="sans-serif" font-size="14" lengthAdjust="spacing" textLength="126" x="132" y="769.8467">&#1050;&#1072;&#1090;&#1077;&#1075;&#1086;&#1088;&#1080;&#1103; &#1084;&#1077;&#1085;&#1102;</text><line style="stroke:#181818;stroke-width:0.5;" x1="104" x2="260" y1="781" y2="781"/><text fill="#000000" font-family="sans-serif" font-size="14" lengthAdjust="spacing" textLength="70" x="109" y="797.9951">&#1053;&#1072;&#1079;&#1074;&#1072;&#1085;&#1080;&#1077;</text><text fill="#000000" font-family="sans-serif" font-size="14" lengthAdjust="spacing" textLength="134" x="109" y="814.292">&#1058;&#1086;&#1074;&#1072;&#1088; [1..*] &#1058;&#1086;&#1074;&#1072;&#1088;</text><line style="stroke:#181818;stroke-width:0.5;" x1="104" x2="260" y1="821.5938" y2="821.5938"/></g><!--class Basket--><g id="elem_Basket"><rect codeLine="31" fill="#F1F1F1" height="113.1875" id="Basket" rx="2.5" ry="2.5" style="stroke:#181818;stroke-width:0.5;" width="295" x="370.5" y="733"/><ellipse cx="482.25" cy="749" fill="#ADD1B2" rx="11" ry="11" style="stroke:#181818;stroke-width:1.0;"/><path d="M481.0469,749.875 L482.5,749.875 L482.5,749.9844 C482.5,750.3906 482.5313,750.5469 482.6094,750.7031 C482.7656,750.9531 483.0469,751.1094 483.3438,751.1094 C483.5938,751.1094 483.8594,750.9688 484.0156,750.75 C484.1406,750.5938 484.1719,750.4375 484.1719,749.9844 L484.1719,748.0625 C484.1719,747.9063 484.1719,747.8594 484.1563,747.7031 C484.0938,747.2344 483.7813,746.9219 483.3281,746.9219 C483.0781,746.9219 482.8125,747.0625 482.6406,747.2813 C482.5313,747.4531 482.5,747.6094 482.5,748.0625 L482.5,748.1875 L481.0469,748.1875 L481.0469,745.7813 L485.0313,745.7813 L485.0313,746.6406 C485.0313,747.0469 485.0625,747.2188 485.1406,747.375 C485.3125,747.625 485.5938,747.7813 485.875,747.7813 C486.1406,747.7813 486.4063,747.6406 486.5781,747.4219 C486.6875,747.25 486.7188,747.1094 486.7188,746.6406 L486.7188,744.0938 L479.0938,744.0938 C478.6563,744.0938 478.5313,744.1094 478.375,744.2031 C478.125,744.3594 477.9688,744.6563 477.9688,744.9375 C477.9688,745.2188 478.1094,745.4688 478.3281,745.6406 C478.4844,745.75 478.6719,745.7813 479.0938,745.7813 L479.3438,745.7813 L479.3438,752.2969 L479.0938,752.2969 C478.6875,752.2969 478.5313,752.3125 478.375,752.4219 C478.125,752.5938 477.9688,752.8594 477.9688,753.1563 C477.9688,753.4219 478.1094,753.6719 478.3281,753.8281 C478.4688,753.9531 478.7031,754 479.0938,754 L487.0938,754 L487.0938,751.4219 C487.0938,750.9844 487.0625,750.8438 486.9844,750.6875 C486.8125,750.4375 486.5313,750.2813 486.25,750.2813 C485.9844,750.2813 485.7188,750.3906 485.5469,750.6406 C485.4375,750.7969 485.4063,750.9375 485.4063,751.4219 L485.4063,752.2969 L481.0469,752.2969 L481.0469,749.875 Z " fill="#000000"/><text fill="#000000" font-family="sans-serif" font-size="14" lengthAdjust="spacing" textLength="63" x="502.75" y="753.8467">&#1050;&#1086;&#1088;&#1079;&#1080;&#1085;&#1072;</text><line style="stroke:#181818;stroke-width:0.5;" x1="371.5" x2="664.5" y1="765" y2="765"/><text fill="#000000" font-family="sans-serif" font-size="14" lengthAdjust="spacing" textLength="145" x="376.5" y="781.9951">&#1058;&#1086;&#1074;&#1072;&#1088; [1..50] &#1058;&#1086;&#1074;&#1072;&#1088;</text><text fill="#000000" font-family="sans-serif" font-size="14" lengthAdjust="spacing" textLength="48" x="376.5" y="798.292">&#1057;&#1091;&#1084;&#1084;&#1072;</text><text fill="#000000" font-family="sans-serif" font-size="14" lengthAdjust="spacing" textLength="283" x="376.5" y="814.5889">&#1057;&#1087;&#1086;&#1089;&#1086;&#1073; &#1087;&#1086;&#1083;&#1091;&#1095;&#1077;&#1085;&#1080;&#1103;: &#1057;&#1087;&#1086;&#1089;&#1086;&#1073; &#1087;&#1086;&#1083;&#1091;&#1095;&#1077;&#1085;&#1080;&#1103;</text><text fill="#000000" font-family="sans-serif" font-size="14" lengthAdjust="spacing" textLength="132" x="376.5" y="830.8857">&#1042;&#1088;&#1077;&#1084;&#1103; &#1087;&#1086;&#1083;&#1091;&#1095;&#1077;&#1085;&#1080;&#1103;</text><line style="stroke:#181818;stroke-width:0.5;" x1="371.5" x2="664.5" y1="838.1875" y2="838.1875"/></g><!--class Order--><g id="elem_Order"><rect codeLine="38" fill="#F1F1F1" height="145.7813" id="Order" rx="2.5" ry="2.5" style="stroke:#181818;stroke-width:0.5;" width="231" x="566.5" y="485.5"/><ellipse cx="656.75" cy="501.5" fill="#ADD1B2" rx="11" ry="11" style="stroke:#181818;stroke-width:1.0;"/><path d="M655.5469,502.375 L657,502.375 L657,502.4844 C657,502.8906 657.0313,503.0469 657.1094,503.2031 C657.2656,503.4531 657.5469,503.6094 657.8438,503.6094 C658.0938,503.6094 658.3594,503.4688 658.5156,503.25 C658.6406,503.0938 658.6719,502.9375 658.6719,502.4844 L658.6719,500.5625 C658.6719,500.4063 658.6719,500.3594 658.6563,500.2031 C658.5938,499.7344 658.2813,499.4219 657.8281,499.4219 C657.5781,499.4219 657.3125,499.5625 657.1406,499.7813 C657.0313,499.9531 657,500.1094 657,500.5625 L657,500.6875 L655.5469,500.6875 L655.5469,498.2813 L659.5313,498.2813 L659.5313,499.1406 C659.5313,499.5469 659.5625,499.7188 659.6406,499.875 C659.8125,500.125 660.0938,500.2813 660.375,500.2813 C660.6406,500.2813 660.9063,500.1406 661.0781,499.9219 C661.1875,499.75 661.2188,499.6094 661.2188,499.1406 L661.2188,496.5938 L653.5938,496.5938 C653.1563,496.5938 653.0313,496.6094 652.875,496.7031 C652.625,496.8594 652.4688,497.1563 652.4688,497.4375 C652.4688,497.7188 652.6094,497.9688 652.8281,498.1406 C652.9844,498.25 653.1719,498.2813 653.5938,498.2813 L653.8438,498.2813 L653.8438,504.7969 L653.5938,504.7969 C653.1875,504.7969 653.0313,504.8125 652.875,504.9219 C652.625,505.0938 652.4688,505.3594 652.4688,505.6563 C652.4688,505.9219 652.6094,506.1719 652.8281,506.3281 C652.9688,506.4531 653.2031,506.5 653.5938,506.5 L661.5938,506.5 L661.5938,503.9219 C661.5938,503.4844 661.5625,503.3438 661.4844,503.1875 C661.3125,502.9375 661.0313,502.7813 660.75,502.7813 C660.4844,502.7813 660.2188,502.8906 660.0469,503.1406 C659.9375,503.2969 659.9063,503.4375 659.9063,503.9219 L659.9063,504.7969 L655.5469,504.7969 L655.5469,502.375 Z " fill="#000000"/><text fill="#000000" font-family="sans-serif" font-size="14" lengthAdjust="spacing" textLength="42" x="677.25" y="506.3467">&#1047;&#1072;&#1082;&#1072;&#1079;</text><line style="stroke:#181818;stroke-width:0.5;" x1="567.5" x2="796.5" y1="517.5" y2="517.5"/><text fill="#000000" font-family="sans-serif" font-size="14" lengthAdjust="spacing" textLength="49" x="572.5" y="534.4951">&#1053;&#1086;&#1084;&#1077;&#1088;</text><text fill="#000000" font-family="sans-serif" font-size="14" lengthAdjust="spacing" textLength="36" x="572.5" y="550.792">&#1044;&#1072;&#1090;&#1072;</text><text fill="#000000" font-family="sans-serif" font-size="14" lengthAdjust="spacing" textLength="219" x="572.5" y="567.0889">&#1057;&#1090;&#1072;&#1090;&#1091;&#1089; &#1079;&#1072;&#1082;&#1072;&#1079;&#1072;: &#1057;&#1090;&#1072;&#1090;&#1091;&#1089; &#1079;&#1072;&#1082;&#1072;&#1079;&#1072;</text><text fill="#000000" font-family="sans-serif" font-size="14" lengthAdjust="spacing" textLength="174" x="572.5" y="583.3857">&#1057;&#1090;&#1072;&#1090;&#1091;&#1089; &#1086;&#1087;&#1083;&#1072;&#1090;&#1099;: &#1054;&#1087;&#1083;&#1072;&#1090;&#1072;</text><text fill="#000000" font-family="sans-serif" font-size="14" lengthAdjust="spacing" textLength="125" x="572.5" y="599.6826">&#1057;&#1082;&#1080;&#1076;&#1082;&#1072; &#1079;&#1072; &#1073;&#1072;&#1083;&#1083;&#1099;</text><text fill="#000000" font-family="sans-serif" font-size="14" lengthAdjust="spacing" textLength="170" x="572.5" y="615.9795">&#1042;&#1088;&#1077;&#1084;&#1103; &#1087;&#1088;&#1080;&#1075;&#1086;&#1090;&#1086;&#1074;&#1083;&#1077;&#1085;&#1080;&#1103;</text><line style="stroke:#181818;stroke-width:0.5;" x1="567.5" x2="796.5" y1="623.2813" y2="623.2813"/></g><!--class OrderStatus--><g id="elem_OrderStatus"><rect codeLine="47" fill="#F1F1F1" height="113.1875" id="OrderStatus" rx="2.5" ry="2.5" style="stroke:#181818;stroke-width:0.5;" width="137" x="433.5" y="263"/><ellipse cx="448.5" cy="279" fill="#EB937F" rx="11" ry="11" style="stroke:#181818;stroke-width:1.0;"/><path d="M447.2969,279.875 L448.75,279.875 L448.75,279.9844 C448.75,280.3906 448.7813,280.5469 448.8594,280.7031 C449.0156,280.9531 449.2969,281.1094 449.5938,281.1094 C449.8438,281.1094 450.1094,280.9688 450.2656,280.75 C450.3906,280.5938 450.4219,280.4375 450.4219,279.9844 L450.4219,278.0625 C450.4219,277.9063 450.4219,277.8594 450.4063,277.7031 C450.3438,277.2344 450.0313,276.9219 449.5781,276.9219 C449.3281,276.9219 449.0625,277.0625 448.8906,277.2813 C448.7813,277.4531 448.75,277.6094 448.75,278.0625 L448.75,278.1875 L447.2969,278.1875 L447.2969,275.7813 L451.2813,275.7813 L451.2813,276.6406 C451.2813,277.0469 451.3125,277.2188 451.3906,277.375 C451.5625,277.625 451.8438,277.7813 452.125,277.7813 C452.3906,277.7813 452.6563,277.6406 452.8281,277.4219 C452.9375,277.25 452.9688,277.1094 452.9688,276.6406 L452.9688,274.0938 L445.3438,274.0938 C444.9063,274.0938 444.7813,274.1094 444.625,274.2031 C444.375,274.3594 444.2188,274.6563 444.2188,274.9375 C444.2188,275.2188 444.3594,275.4688 444.5781,275.6406 C444.7344,275.75 444.9219,275.7813 445.3438,275.7813 L445.5938,275.7813 L445.5938,282.2969 L445.3438,282.2969 C444.9375,282.2969 444.7813,282.3125 444.625,282.4219 C444.375,282.5938 444.2188,282.8594 444.2188,283.1563 C444.2188,283.4219 444.3594,283.6719 444.5781,283.8281 C444.7188,283.9531 444.9531,284 445.3438,284 L453.3438,284 L453.3438,281.4219 C453.3438,280.9844 453.3125,280.8438 453.2344,280.6875 C453.0625,280.4375 452.7813,280.2813 452.5,280.2813 C452.2344,280.2813 451.9688,280.3906 451.7969,280.6406 C451.6875,280.7969 451.6563,280.9375 451.6563,281.4219 L451.6563,282.2969 L447.2969,282.2969 L447.2969,279.875 Z " fill="#000000"/><text fill="#000000" font-family="sans-serif" font-size="14" lengthAdjust="spacing" textLength="105" x="462.5" y="283.8467">&#1057;&#1090;&#1072;&#1090;&#1091;&#1089; &#1079;&#1072;&#1082;&#1072;&#1079;&#1072;</text><line style="stroke:#181818;stroke-width:0.5;" x1="434.5" x2="569.5" y1="295" y2="295"/><text fill="#000000" font-family="sans-serif" font-size="14" lengthAdjust="spacing" textLength="54" x="439.5" y="311.9951">&#1057;&#1086;&#1079;&#1076;&#1072;&#1085;</text><text fill="#000000" font-family="sans-serif" font-size="14" lengthAdjust="spacing" textLength="109" x="439.5" y="328.292">&#1055;&#1088;&#1086;&#1080;&#1079;&#1074;&#1086;&#1076;&#1080;&#1090;&#1089;&#1103;</text><text fill="#000000" font-family="sans-serif" font-size="14" lengthAdjust="spacing" textLength="45" x="439.5" y="344.5889">&#1043;&#1086;&#1090;&#1086;&#1074;</text><text fill="#000000" font-family="sans-serif" font-size="14" lengthAdjust="spacing" textLength="48" x="439.5" y="360.8857">&#1042;&#1099;&#1076;&#1072;&#1085;</text><line style="stroke:#181818;stroke-width:0.5;" x1="434.5" x2="569.5" y1="368.1875" y2="368.1875"/></g><!--class Obtaining--><g id="elem_Obtaining"><rect codeLine="54" fill="#F1F1F1" height="80.5938" id="Obtaining" rx="2.5" ry="2.5" style="stroke:#181818;stroke-width:0.5;" width="170" x="361" y="518"/><ellipse cx="376" cy="534" fill="#EB937F" rx="11" ry="11" style="stroke:#181818;stroke-width:1.0;"/><path d="M374.7969,534.875 L376.25,534.875 L376.25,534.9844 C376.25,535.3906 376.2813,535.5469 376.3594,535.7031 C376.5156,535.9531 376.7969,536.1094 377.0938,536.1094 C377.3438,536.1094 377.6094,535.9688 377.7656,535.75 C377.8906,535.5938 377.9219,535.4375 377.9219,534.9844 L377.9219,533.0625 C377.9219,532.9063 377.9219,532.8594 377.9063,532.7031 C377.8438,532.2344 377.5313,531.9219 377.0781,531.9219 C376.8281,531.9219 376.5625,532.0625 376.3906,532.2813 C376.2813,532.4531 376.25,532.6094 376.25,533.0625 L376.25,533.1875 L374.7969,533.1875 L374.7969,530.7813 L378.7813,530.7813 L378.7813,531.6406 C378.7813,532.0469 378.8125,532.2188 378.8906,532.375 C379.0625,532.625 379.3438,532.7813 379.625,532.7813 C379.8906,532.7813 380.1563,532.6406 380.3281,532.4219 C380.4375,532.25 380.4688,532.1094 380.4688,531.6406 L380.4688,529.0938 L372.8438,529.0938 C372.4063,529.0938 372.2813,529.1094 372.125,529.2031 C371.875,529.3594 371.7188,529.6563 371.7188,529.9375 C371.7188,530.2188 371.8594,530.4688 372.0781,530.6406 C372.2344,530.75 372.4219,530.7813 372.8438,530.7813 L373.0938,530.7813 L373.0938,537.2969 L372.8438,537.2969 C372.4375,537.2969 372.2813,537.3125 372.125,537.4219 C371.875,537.5938 371.7188,537.8594 371.7188,538.1563 C371.7188,538.4219 371.8594,538.6719 372.0781,538.8281 C372.2188,538.9531 372.4531,539 372.8438,539 L380.8438,539 L380.8438,536.4219 C380.8438,535.9844 380.8125,535.8438 380.7344,535.6875 C380.5625,535.4375 380.2813,535.2813 380,535.2813 C379.7344,535.2813 379.4688,535.3906 379.2969,535.6406 C379.1875,535.7969 379.1563,535.9375 379.1563,536.4219 L379.1563,537.2969 L374.7969,537.2969 L374.7969,534.875 Z " fill="#000000"/><text fill="#000000" font-family="sans-serif" font-size="14" lengthAdjust="spacing" textLength="138" x="390" y="538.8467">&#1057;&#1087;&#1086;&#1089;&#1086;&#1073; &#1055;&#1086;&#1083;&#1091;&#1095;&#1077;&#1085;&#1080;&#1103;</text><line style="stroke:#181818;stroke-width:0.5;" x1="362" x2="530" y1="550" y2="550"/><text fill="#000000" font-family="sans-serif" font-size="14" lengthAdjust="spacing" textLength="58" x="367" y="566.9951">&#1057; &#1089;&#1086;&#1073;&#1086;&#1081;</text><text fill="#000000" font-family="sans-serif" font-size="14" lengthAdjust="spacing" textLength="48" x="367" y="583.292">&#1042; &#1079;&#1072;&#1083;&#1077;</text><line style="stroke:#181818;stroke-width:0.5;" x1="362" x2="530" y1="590.5938" y2="590.5938"/></g><!--class PaymentStatus--><g id="elem_PaymentStatus"><rect codeLine="59" fill="#F1F1F1" height="80.5938" id="PaymentStatus" rx="2.5" ry="2.5" style="stroke:#181818;stroke-width:0.5;" width="96" x="606" y="279"/><ellipse cx="625.5" cy="295" fill="#EB937F" rx="11" ry="11" style="stroke:#181818;stroke-width:1.0;"/><path d="M624.2969,295.875 L625.75,295.875 L625.75,295.9844 C625.75,296.3906 625.7813,296.5469 625.8594,296.7031 C626.0156,296.9531 626.2969,297.1094 626.5938,297.1094 C626.8438,297.1094 627.1094,296.9688 627.2656,296.75 C627.3906,296.5938 627.4219,296.4375 627.4219,295.9844 L627.4219,294.0625 C627.4219,293.9063 627.4219,293.8594 627.4063,293.7031 C627.3438,293.2344 627.0313,292.9219 626.5781,292.9219 C626.3281,292.9219 626.0625,293.0625 625.8906,293.2813 C625.7813,293.4531 625.75,293.6094 625.75,294.0625 L625.75,294.1875 L624.2969,294.1875 L624.2969,291.7813 L628.2813,291.7813 L628.2813,292.6406 C628.2813,293.0469 628.3125,293.2188 628.3906,293.375 C628.5625,293.625 628.8438,293.7813 629.125,293.7813 C629.3906,293.7813 629.6563,293.6406 629.8281,293.4219 C629.9375,293.25 629.9688,293.1094 629.9688,292.6406 L629.9688,290.0938 L622.3438,290.0938 C621.9063,290.0938 621.7813,290.1094 621.625,290.2031 C621.375,290.3594 621.2188,290.6563 621.2188,290.9375 C621.2188,291.2188 621.3594,291.4688 621.5781,291.6406 C621.7344,291.75 621.9219,291.7813 622.3438,291.7813 L622.5938,291.7813 L622.5938,298.2969 L622.3438,298.2969 C621.9375,298.2969 621.7813,298.3125 621.625,298.4219 C621.375,298.5938 621.2188,298.8594 621.2188,299.1563 C621.2188,299.4219 621.3594,299.6719 621.5781,299.8281 C621.7188,299.9531 621.9531,300 622.3438,300 L630.3438,300 L630.3438,297.4219 C630.3438,296.9844 630.3125,296.8438 630.2344,296.6875 C630.0625,296.4375 629.7813,296.2813 629.5,296.2813 C629.2344,296.2813 628.9688,296.3906 628.7969,296.6406 C628.6875,296.7969 628.6563,296.9375 628.6563,297.4219 L628.6563,298.2969 L624.2969,298.2969 L624.2969,295.875 Z " fill="#000000"/><text fill="#000000" font-family="sans-serif" font-size="14" lengthAdjust="spacing" textLength="54" x="640.5" y="299.8467">&#1054;&#1087;&#1083;&#1072;&#1090;&#1072;</text><line style="stroke:#181818;stroke-width:0.5;" x1="607" x2="701" y1="311" y2="311"/><text fill="#000000" font-family="sans-serif" font-size="14" lengthAdjust="spacing" textLength="84" x="612" y="327.9951">&#1053;&#1077; &#1086;&#1087;&#1083;&#1072;&#1095;&#1077;&#1085;</text><text fill="#000000" font-family="sans-serif" font-size="14" lengthAdjust="spacing" textLength="63" x="612" y="344.292">&#1054;&#1087;&#1083;&#1072;&#1095;&#1077;&#1085;</text><line style="stroke:#181818;stroke-width:0.5;" x1="607" x2="701" y1="351.5938" y2="351.5938"/></g><!--class PaymentType--><g id="elem_PaymentType"><rect codeLine="64" fill="#F1F1F1" height="96.8906" id="PaymentType" rx="2.5" ry="2.5" style="stroke:#181818;stroke-width:0.5;" width="128" x="1132" y="510"/><ellipse cx="1147" cy="526" fill="#EB937F" rx="11" ry="11" style="stroke:#181818;stroke-width:1.0;"/><path d="M1145.7969,526.875 L1147.25,526.875 L1147.25,526.9844 C1147.25,527.3906 1147.2813,527.5469 1147.3594,527.7031 C1147.5156,527.9531 1147.7969,528.1094 1148.0938,528.1094 C1148.3438,528.1094 1148.6094,527.9688 1148.7656,527.75 C1148.8906,527.5938 1148.9219,527.4375 1148.9219,526.9844 L1148.9219,525.0625 C1148.9219,524.9063 1148.9219,524.8594 1148.9063,524.7031 C1148.8438,524.2344 1148.5313,523.9219 1148.0781,523.9219 C1147.8281,523.9219 1147.5625,524.0625 1147.3906,524.2813 C1147.2813,524.4531 1147.25,524.6094 1147.25,525.0625 L1147.25,525.1875 L1145.7969,525.1875 L1145.7969,522.7813 L1149.7813,522.7813 L1149.7813,523.6406 C1149.7813,524.0469 1149.8125,524.2188 1149.8906,524.375 C1150.0625,524.625 1150.3438,524.7813 1150.625,524.7813 C1150.8906,524.7813 1151.1563,524.6406 1151.3281,524.4219 C1151.4375,524.25 1151.4688,524.1094 1151.4688,523.6406 L1151.4688,521.0938 L1143.8438,521.0938 C1143.4063,521.0938 1143.2813,521.1094 1143.125,521.2031 C1142.875,521.3594 1142.7188,521.6563 1142.7188,521.9375 C1142.7188,522.2188 1142.8594,522.4688 1143.0781,522.6406 C1143.2344,522.75 1143.4219,522.7813 1143.8438,522.7813 L1144.0938,522.7813 L1144.0938,529.2969 L1143.8438,529.2969 C1143.4375,529.2969 1143.2813,529.3125 1143.125,529.4219 C1142.875,529.5938 1142.7188,529.8594 1142.7188,530.1563 C1142.7188,530.4219 1142.8594,530.6719 1143.0781,530.8281 C1143.2188,530.9531 1143.4531,531 1143.8438,531 L1151.8438,531 L1151.8438,528.4219 C1151.8438,527.9844 1151.8125,527.8438 1151.7344,527.6875 C1151.5625,527.4375 1151.2813,527.2813 1151,527.2813 C1150.7344,527.2813 1150.4688,527.3906 1150.2969,527.6406 C1150.1875,527.7969 1150.1563,527.9375 1150.1563,528.4219 L1150.1563,529.2969 L1145.7969,529.2969 L1145.7969,526.875 Z " fill="#000000"/><text fill="#000000" font-family="sans-serif" font-size="14" lengthAdjust="spacing" textLength="96" x="1161" y="530.8467">&#1058;&#1080;&#1087; &#1087;&#1083;&#1072;&#1090;&#1077;&#1078;&#1072;</text><line style="stroke:#181818;stroke-width:0.5;" x1="1133" x2="1259" y1="542" y2="542"/><text fill="#000000" font-family="sans-serif" font-size="14" lengthAdjust="spacing" textLength="73" x="1138" y="558.9951">&#1053;&#1072;&#1083;&#1080;&#1095;&#1085;&#1099;&#1077;</text><text fill="#000000" font-family="sans-serif" font-size="14" lengthAdjust="spacing" textLength="45" x="1138" y="575.292">&#1050;&#1072;&#1088;&#1090;&#1072;</text><text fill="#000000" font-family="sans-serif" font-size="14" lengthAdjust="spacing" textLength="55" x="1138" y="591.5889">QR-&#1082;&#1086;&#1076;</text><line style="stroke:#181818;stroke-width:0.5;" x1="1133" x2="1259" y1="598.8906" y2="598.8906"/></g><!--class PaymentState--><g id="elem_PaymentState"><rect codeLine="70" fill="#F1F1F1" height="96.8906" id="PaymentState" rx="2.5" ry="2.5" style="stroke:#181818;stroke-width:0.5;" width="153" x="737.5" y="271"/><ellipse cx="752.5" cy="287" fill="#EB937F" rx="11" ry="11" style="stroke:#181818;stroke-width:1.0;"/><path d="M751.2969,287.875 L752.75,287.875 L752.75,287.9844 C752.75,288.3906 752.7813,288.5469 752.8594,288.7031 C753.0156,288.9531 753.2969,289.1094 753.5938,289.1094 C753.8438,289.1094 754.1094,288.9688 754.2656,288.75 C754.3906,288.5938 754.4219,288.4375 754.4219,287.9844 L754.4219,286.0625 C754.4219,285.9063 754.4219,285.8594 754.4063,285.7031 C754.3438,285.2344 754.0313,284.9219 753.5781,284.9219 C753.3281,284.9219 753.0625,285.0625 752.8906,285.2813 C752.7813,285.4531 752.75,285.6094 752.75,286.0625 L752.75,286.1875 L751.2969,286.1875 L751.2969,283.7813 L755.2813,283.7813 L755.2813,284.6406 C755.2813,285.0469 755.3125,285.2188 755.3906,285.375 C755.5625,285.625 755.8438,285.7813 756.125,285.7813 C756.3906,285.7813 756.6563,285.6406 756.8281,285.4219 C756.9375,285.25 756.9688,285.1094 756.9688,284.6406 L756.9688,282.0938 L749.3438,282.0938 C748.9063,282.0938 748.7813,282.1094 748.625,282.2031 C748.375,282.3594 748.2188,282.6563 748.2188,282.9375 C748.2188,283.2188 748.3594,283.4688 748.5781,283.6406 C748.7344,283.75 748.9219,283.7813 749.3438,283.7813 L749.5938,283.7813 L749.5938,290.2969 L749.3438,290.2969 C748.9375,290.2969 748.7813,290.3125 748.625,290.4219 C748.375,290.5938 748.2188,290.8594 748.2188,291.1563 C748.2188,291.4219 748.3594,291.6719 748.5781,291.8281 C748.7188,291.9531 748.9531,292 749.3438,292 L757.3438,292 L757.3438,289.4219 C757.3438,288.9844 757.3125,288.8438 757.2344,288.6875 C757.0625,288.4375 756.7813,288.2813 756.5,288.2813 C756.2344,288.2813 755.9688,288.3906 755.7969,288.6406 C755.6875,288.7969 755.6563,288.9375 755.6563,289.4219 L755.6563,290.2969 L751.2969,290.2969 L751.2969,287.875 Z " fill="#000000"/><text fill="#000000" font-family="sans-serif" font-size="14" lengthAdjust="spacing" textLength="121" x="766.5" y="291.8467">&#1057;&#1090;&#1072;&#1090;&#1091;&#1089; &#1087;&#1083;&#1072;&#1090;&#1077;&#1078;&#1072;</text><line style="stroke:#181818;stroke-width:0.5;" x1="738.5" x2="889.5" y1="303" y2="303"/><text fill="#000000" font-family="sans-serif" font-size="14" lengthAdjust="spacing" textLength="101" x="743.5" y="319.9951">&#1048;&#1085;&#1080;&#1094;&#1080;&#1080;&#1088;&#1086;&#1074;&#1072;&#1085;</text><text fill="#000000" font-family="sans-serif" font-size="14" lengthAdjust="spacing" textLength="107" x="743.5" y="336.292">&#1055;&#1086;&#1076;&#1090;&#1074;&#1077;&#1088;&#1078;&#1076;&#1105;&#1085;</text><text fill="#000000" font-family="sans-serif" font-size="14" lengthAdjust="spacing" textLength="74" x="743.5" y="352.5889">&#1054;&#1090;&#1082;&#1083;&#1086;&#1085;&#1105;&#1085;</text><line style="stroke:#181818;stroke-width:0.5;" x1="738.5" x2="889.5" y1="359.8906" y2="359.8906"/></g><!--class ComboBurger--><g id="elem_ComboBurger"><rect codeLine="76" fill="#F1F1F1" height="96.8906" id="ComboBurger" rx="2.5" ry="2.5" style="stroke:#181818;stroke-width:0.5;" width="261" x="123.5" y="271"/><ellipse cx="198.25" cy="287" fill="#ADD1B2" rx="11" ry="11" style="stroke:#181818;stroke-width:1.0;"/><path d="M197.0469,287.875 L198.5,287.875 L198.5,287.9844 C198.5,288.3906 198.5313,288.5469 198.6094,288.7031 C198.7656,288.9531 199.0469,289.1094 199.3438,289.1094 C199.5938,289.1094 199.8594,288.9688 200.0156,288.75 C200.1406,288.5938 200.1719,288.4375 200.1719,287.9844 L200.1719,286.0625 C200.1719,285.9063 200.1719,285.8594 200.1563,285.7031 C200.0938,285.2344 199.7813,284.9219 199.3281,284.9219 C199.0781,284.9219 198.8125,285.0625 198.6406,285.2813 C198.5313,285.4531 198.5,285.6094 198.5,286.0625 L198.5,286.1875 L197.0469,286.1875 L197.0469,283.7813 L201.0313,283.7813 L201.0313,284.6406 C201.0313,285.0469 201.0625,285.2188 201.1406,285.375 C201.3125,285.625 201.5938,285.7813 201.875,285.7813 C202.1406,285.7813 202.4063,285.6406 202.5781,285.4219 C202.6875,285.25 202.7188,285.1094 202.7188,284.6406 L202.7188,282.0938 L195.0938,282.0938 C194.6563,282.0938 194.5313,282.1094 194.375,282.2031 C194.125,282.3594 193.9688,282.6563 193.9688,282.9375 C193.9688,283.2188 194.1094,283.4688 194.3281,283.6406 C194.4844,283.75 194.6719,283.7813 195.0938,283.7813 L195.3438,283.7813 L195.3438,290.2969 L195.0938,290.2969 C194.6875,290.2969 194.5313,290.3125 194.375,290.4219 C194.125,290.5938 193.9688,290.8594 193.9688,291.1563 C193.9688,291.4219 194.1094,291.6719 194.3281,291.8281 C194.4688,291.9531 194.7031,292 195.0938,292 L203.0938,292 L203.0938,289.4219 C203.0938,288.9844 203.0625,288.8438 202.9844,288.6875 C202.8125,288.4375 202.5313,288.2813 202.25,288.2813 C201.9844,288.2813 201.7188,288.3906 201.5469,288.6406 C201.4375,288.7969 201.4063,288.9375 201.4063,289.4219 L201.4063,290.2969 L197.0469,290.2969 L197.0469,287.875 Z " fill="#000000"/><text fill="#000000" font-family="sans-serif" font-size="14" lengthAdjust="spacing" textLength="103" x="218.75" y="291.8467">&#1050;&#1086;&#1084;&#1073;&#1086;&#1041;&#1091;&#1088;&#1075;&#1077;&#1088;</text><line style="stroke:#181818;stroke-width:0.5;" x1="124.5" x2="383.5" y1="303" y2="303"/><text fill="#000000" font-family="sans-serif" font-size="14" lengthAdjust="spacing" textLength="70" x="129.5" y="319.9951">&#1053;&#1072;&#1079;&#1074;&#1072;&#1085;&#1080;&#1077;</text><text fill="#000000" font-family="sans-serif" font-size="14" lengthAdjust="spacing" textLength="249" x="129.5" y="336.292">&#1048;&#1085;&#1075;&#1088;&#1077;&#1076;&#1080;&#1077;&#1085;&#1090;&#1099; [2..10] &#1048;&#1085;&#1075;&#1088;&#1077;&#1076;&#1080;&#1077;&#1085;&#1090;</text><text fill="#000000" font-family="sans-serif" font-size="14" lengthAdjust="spacing" textLength="63" x="129.5" y="352.5889">&#1053;&#1072;&#1094;&#1077;&#1085;&#1082;&#1072;</text><line style="stroke:#181818;stroke-width:0.5;" x1="124.5" x2="383.5" y1="359.8906" y2="359.8906"/></g><!--class Ingredient--><g id="elem_Ingredient"><rect codeLine="82" fill="#F1F1F1" height="194.6719" id="Ingredient" rx="2.5" ry="2.5" style="stroke:#181818;stroke-width:0.5;" width="240" x="7" y="7"/><ellipse cx="76.75" cy="23" fill="#ADD1B2" rx="11" ry="11" style="stroke:#181818;stroke-width:1.0;"/><path d="M75.5469,23.875 L77,23.875 L77,23.9844 C77,24.3906 77.0313,24.5469 77.1094,24.7031 C77.2656,24.9531 77.5469,25.1094 77.8438,25.1094 C78.0938,25.1094 78.3594,24.9688 78.5156,24.75 C78.6406,24.5938 78.6719,24.4375 78.6719,23.9844 L78.6719,22.0625 C78.6719,21.9063 78.6719,21.8594 78.6563,21.7031 C78.5938,21.2344 78.2813,20.9219 77.8281,20.9219 C77.5781,20.9219 77.3125,21.0625 77.1406,21.2813 C77.0313,21.4531 77,21.6094 77,22.0625 L77,22.1875 L75.5469,22.1875 L75.5469,19.7813 L79.5313,19.7813 L79.5313,20.6406 C79.5313,21.0469 79.5625,21.2188 79.6406,21.375 C79.8125,21.625 80.0938,21.7813 80.375,21.7813 C80.6406,21.7813 80.9063,21.6406 81.0781,21.4219 C81.1875,21.25 81.2188,21.1094 81.2188,20.6406 L81.2188,18.0938 L73.5938,18.0938 C73.1563,18.0938 73.0313,18.1094 72.875,18.2031 C72.625,18.3594 72.4688,18.6563 72.4688,18.9375 C72.4688,19.2188 72.6094,19.4688 72.8281,19.6406 C72.9844,19.75 73.1719,19.7813 73.5938,19.7813 L73.8438,19.7813 L73.8438,26.2969 L73.5938,26.2969 C73.1875,26.2969 73.0313,26.3125 72.875,26.4219 C72.625,26.5938 72.4688,26.8594 72.4688,27.1563 C72.4688,27.4219 72.6094,27.6719 72.8281,27.8281 C72.9688,27.9531 73.2031,28 73.5938,28 L81.5938,28 L81.5938,25.4219 C81.5938,24.9844 81.5625,24.8438 81.4844,24.6875 C81.3125,24.4375 81.0313,24.2813 80.75,24.2813 C80.4844,24.2813 80.2188,24.3906 80.0469,24.6406 C79.9375,24.7969 79.9063,24.9375 79.9063,25.4219 L79.9063,26.2969 L75.5469,26.2969 L75.5469,23.875 Z " fill="#000000"/><text fill="#000000" font-family="sans-serif" font-size="14" lengthAdjust="spacing" textLength="92" x="97.25" y="27.8467">&#1048;&#1085;&#1075;&#1088;&#1077;&#1076;&#1080;&#1077;&#1085;&#1090;</text><line style="stroke:#181818;stroke-width:0.5;" x1="8" x2="246" y1="39" y2="39"/><text fill="#000000" font-family="sans-serif" font-size="14" lengthAdjust="spacing" textLength="70" x="13" y="55.9951">&#1053;&#1072;&#1079;&#1074;&#1072;&#1085;&#1080;&#1077;</text><text fill="#000000" font-family="sans-serif" font-size="14" lengthAdjust="spacing" textLength="46" x="13" y="72.292">&#1041;&#1077;&#1083;&#1082;&#1080;</text><text fill="#000000" font-family="sans-serif" font-size="14" lengthAdjust="spacing" textLength="45" x="13" y="88.5889">&#1046;&#1080;&#1088;&#1099;</text><text fill="#000000" font-family="sans-serif" font-size="14" lengthAdjust="spacing" textLength="74" x="13" y="104.8857">&#1059;&#1075;&#1083;&#1077;&#1074;&#1086;&#1076;&#1099;</text><text fill="#000000" font-family="sans-serif" font-size="14" lengthAdjust="spacing" textLength="108" x="13" y="121.1826">&#1050;&#1072;&#1083;&#1086;&#1088;&#1080;&#1081;&#1085;&#1086;&#1089;&#1090;&#1100;</text><text fill="#000000" font-family="sans-serif" font-size="14" lengthAdjust="spacing" textLength="38" x="13" y="137.4795">&#1062;&#1077;&#1085;&#1072;</text><text fill="#000000" font-family="sans-serif" font-size="14" lengthAdjust="spacing" textLength="202" x="13" y="153.7764">&#1052;&#1072;&#1082;&#1089;&#1080;&#1084;&#1072;&#1083;&#1100;&#1085;&#1086;&#1077; &#1082;&#1086;&#1083;&#1080;&#1095;&#1077;&#1089;&#1090;&#1074;&#1086;</text><text fill="#000000" font-family="sans-serif" font-size="14" lengthAdjust="spacing" textLength="125" x="13" y="170.0732">&#1054;&#1073;&#1103;&#1079;&#1072;&#1090;&#1077;&#1083;&#1100;&#1085;&#1086;&#1089;&#1090;&#1100;</text><text fill="#000000" font-family="sans-serif" font-size="14" lengthAdjust="spacing" textLength="228" x="13" y="186.3701">&#1057;&#1086;&#1095;&#1077;&#1090;&#1072;&#1085;&#1080;&#1077; &#1089; [0..*] &#1048;&#1085;&#1075;&#1088;&#1077;&#1076;&#1080;&#1077;&#1085;&#1090;</text><line style="stroke:#181818;stroke-width:0.5;" x1="8" x2="246" y1="193.6719" y2="193.6719"/></g><!--class Payment--><g id="elem_Payment"><rect codeLine="94" fill="#F1F1F1" height="129.4844" id="Payment" rx="2.5" ry="2.5" style="stroke:#181818;stroke-width:0.5;" width="213" x="1089.5" y="725"/><ellipse cx="1162.75" cy="741" fill="#ADD1B2" rx="11" ry="11" style="stroke:#181818;stroke-width:1.0;"/><path d="M1161.5469,741.875 L1163,741.875 L1163,741.9844 C1163,742.3906 1163.0313,742.5469 1163.1094,742.7031 C1163.2656,742.9531 1163.5469,743.1094 1163.8438,743.1094 C1164.0938,743.1094 1164.3594,742.9688 1164.5156,742.75 C1164.6406,742.5938 1164.6719,742.4375 1164.6719,741.9844 L1164.6719,740.0625 C1164.6719,739.9063 1164.6719,739.8594 1164.6563,739.7031 C1164.5938,739.2344 1164.2813,738.9219 1163.8281,738.9219 C1163.5781,738.9219 1163.3125,739.0625 1163.1406,739.2813 C1163.0313,739.4531 1163,739.6094 1163,740.0625 L1163,740.1875 L1161.5469,740.1875 L1161.5469,737.7813 L1165.5313,737.7813 L1165.5313,738.6406 C1165.5313,739.0469 1165.5625,739.2188 1165.6406,739.375 C1165.8125,739.625 1166.0938,739.7813 1166.375,739.7813 C1166.6406,739.7813 1166.9063,739.6406 1167.0781,739.4219 C1167.1875,739.25 1167.2188,739.1094 1167.2188,738.6406 L1167.2188,736.0938 L1159.5938,736.0938 C1159.1563,736.0938 1159.0313,736.1094 1158.875,736.2031 C1158.625,736.3594 1158.4688,736.6563 1158.4688,736.9375 C1158.4688,737.2188 1158.6094,737.4688 1158.8281,737.6406 C1158.9844,737.75 1159.1719,737.7813 1159.5938,737.7813 L1159.8438,737.7813 L1159.8438,744.2969 L1159.5938,744.2969 C1159.1875,744.2969 1159.0313,744.3125 1158.875,744.4219 C1158.625,744.5938 1158.4688,744.8594 1158.4688,745.1563 C1158.4688,745.4219 1158.6094,745.6719 1158.8281,745.8281 C1158.9688,745.9531 1159.2031,746 1159.5938,746 L1167.5938,746 L1167.5938,743.4219 C1167.5938,742.9844 1167.5625,742.8438 1167.4844,742.6875 C1167.3125,742.4375 1167.0313,742.2813 1166.75,742.2813 C1166.4844,742.2813 1166.2188,742.3906 1166.0469,742.6406 C1165.9375,742.7969 1165.9063,742.9375 1165.9063,743.4219 L1165.9063,744.2969 L1161.5469,744.2969 L1161.5469,741.875 Z " fill="#000000"/><text fill="#000000" font-family="sans-serif" font-size="14" lengthAdjust="spacing" textLength="58" x="1183.25" y="745.8467">&#1055;&#1083;&#1072;&#1090;&#1105;&#1078;</text><line style="stroke:#181818;stroke-width:0.5;" x1="1090.5" x2="1301.5" y1="757" y2="757"/><text fill="#000000" font-family="sans-serif" font-size="14" lengthAdjust="spacing" textLength="102" x="1095.5" y="773.9951">&#1053;&#1086;&#1084;&#1077;&#1088; &#1079;&#1072;&#1082;&#1072;&#1079;&#1072;</text><text fill="#000000" font-family="sans-serif" font-size="14" lengthAdjust="spacing" textLength="36" x="1095.5" y="790.292">&#1044;&#1072;&#1090;&#1072;</text><text fill="#000000" font-family="sans-serif" font-size="14" lengthAdjust="spacing" textLength="48" x="1095.5" y="806.5889">&#1057;&#1091;&#1084;&#1084;&#1072;</text><text fill="#000000" font-family="sans-serif" font-size="14" lengthAdjust="spacing" textLength="201" x="1095.5" y="822.8857">&#1058;&#1080;&#1087; &#1087;&#1083;&#1072;&#1090;&#1077;&#1078;&#1072;: &#1058;&#1080;&#1087; &#1087;&#1083;&#1072;&#1090;&#1077;&#1078;&#1072;</text><text fill="#000000" font-family="sans-serif" font-size="14" lengthAdjust="spacing" textLength="177" x="1095.5" y="839.1826">&#1053;&#1086;&#1084;&#1077;&#1088; &#1087;&#1086;&#1076;&#1090;&#1074;&#1077;&#1088;&#1078;&#1076;&#1077;&#1085;&#1080;&#1103;</text><line style="stroke:#181818;stroke-width:0.5;" x1="1090.5" x2="1301.5" y1="846.4844" y2="846.4844"/></g><!--class Receipt--><g id="elem_Receipt"><rect codeLine="102" fill="#F1F1F1" height="48" id="Receipt" rx="2.5" ry="2.5" style="stroke:#181818;stroke-width:0.5;" width="59" x="1295.5" y="534.5"/><ellipse cx="1310.5" cy="550.5" fill="#ADD1B2" rx="11" ry="11" style="stroke:#181818;stroke-width:1.0;"/><path d="M1309.2969,551.375 L1310.75,551.375 L1310.75,551.4844 C1310.75,551.8906 1310.7813,552.0469 1310.8594,552.2031 C1311.0156,552.4531 1311.2969,552.6094 1311.5938,552.6094 C1311.8438,552.6094 1312.1094,552.4688 1312.2656,552.25 C1312.3906,552.0938 1312.4219,551.9375 1312.4219,551.4844 L1312.4219,549.5625 C1312.4219,549.4063 1312.4219,549.3594 1312.4063,549.2031 C1312.3438,548.7344 1312.0313,548.4219 1311.5781,548.4219 C1311.3281,548.4219 1311.0625,548.5625 1310.8906,548.7813 C1310.7813,548.9531 1310.75,549.1094 1310.75,549.5625 L1310.75,549.6875 L1309.2969,549.6875 L1309.2969,547.2813 L1313.2813,547.2813 L1313.2813,548.1406 C1313.2813,548.5469 1313.3125,548.7188 1313.3906,548.875 C1313.5625,549.125 1313.8438,549.2813 1314.125,549.2813 C1314.3906,549.2813 1314.6563,549.1406 1314.8281,548.9219 C1314.9375,548.75 1314.9688,548.6094 1314.9688,548.1406 L1314.9688,545.5938 L1307.3438,545.5938 C1306.9063,545.5938 1306.7813,545.6094 1306.625,545.7031 C1306.375,545.8594 1306.2188,546.1563 1306.2188,546.4375 C1306.2188,546.7188 1306.3594,546.9688 1306.5781,547.1406 C1306.7344,547.25 1306.9219,547.2813 1307.3438,547.2813 L1307.5938,547.2813 L1307.5938,553.7969 L1307.3438,553.7969 C1306.9375,553.7969 1306.7813,553.8125 1306.625,553.9219 C1306.375,554.0938 1306.2188,554.3594 1306.2188,554.6563 C1306.2188,554.9219 1306.3594,555.1719 1306.5781,555.3281 C1306.7188,555.4531 1306.9531,555.5 1307.3438,555.5 L1315.3438,555.5 L1315.3438,552.9219 C1315.3438,552.4844 1315.3125,552.3438 1315.2344,552.1875 C1315.0625,551.9375 1314.7813,551.7813 1314.5,551.7813 C1314.2344,551.7813 1313.9688,551.8906 1313.7969,552.1406 C1313.6875,552.2969 1313.6563,552.4375 1313.6563,552.9219 L1313.6563,553.7969 L1309.2969,553.7969 L1309.2969,551.375 Z " fill="#000000"/><text fill="#000000" font-family="sans-serif" font-size="14" lengthAdjust="spacing" textLength="27" x="1324.5" y="555.3467">&#1063;&#1077;&#1082;</text><line style="stroke:#181818;stroke-width:0.5;" x1="1296.5" x2="1353.5" y1="566.5" y2="566.5"/><line style="stroke:#181818;stroke-width:0.5;" x1="1296.5" x2="1353.5" y1="574.5" y2="574.5"/></g><!--class SmsGateway--><g id="elem_SmsGateway"><rect codeLine="105" fill="#F1F1F1" height="48" id="SmsGateway" rx="2.5" ry="2.5" style="stroke:#181818;stroke-width:0.5;" width="109" x="925.5" y="295.5"/><ellipse cx="940.5" cy="311.5" fill="#ADD1B2" rx="11" ry="11" style="stroke:#181818;stroke-width:1.0;"/><path d="M939.2969,312.375 L940.75,312.375 L940.75,312.4844 C940.75,312.8906 940.7813,313.0469 940.8594,313.2031 C941.0156,313.4531 941.2969,313.6094 941.5938,313.6094 C941.8438,313.6094 942.1094,313.4688 942.2656,313.25 C942.3906,313.0938 942.4219,312.9375 942.4219,312.4844 L942.4219,310.5625 C942.4219,310.4063 942.4219,310.3594 942.4063,310.2031 C942.3438,309.7344 942.0313,309.4219 941.5781,309.4219 C941.3281,309.4219 941.0625,309.5625 940.8906,309.7813 C940.7813,309.9531 940.75,310.1094 940.75,310.5625 L940.75,310.6875 L939.2969,310.6875 L939.2969,308.2813 L943.2813,308.2813 L943.2813,309.1406 C943.2813,309.5469 943.3125,309.7188 943.3906,309.875 C943.5625,310.125 943.8438,310.2813 944.125,310.2813 C944.3906,310.2813 944.6563,310.1406 944.8281,309.9219 C944.9375,309.75 944.9688,309.6094 944.9688,309.1406 L944.9688,306.5938 L937.3438,306.5938 C936.9063,306.5938 936.7813,306.6094 936.625,306.7031 C936.375,306.8594 936.2188,307.1563 936.2188,307.4375 C936.2188,307.7188 936.3594,307.9688 936.5781,308.1406 C936.7344,308.25 936.9219,308.2813 937.3438,308.2813 L937.5938,308.2813 L937.5938,314.7969 L937.3438,314.7969 C936.9375,314.7969 936.7813,314.8125 936.625,314.9219 C936.375,315.0938 936.2188,315.3594 936.2188,315.6563 C936.2188,315.9219 936.3594,316.1719 936.5781,316.3281 C936.7188,316.4531 936.9531,316.5 937.3438,316.5 L945.3438,316.5 L945.3438,313.9219 C945.3438,313.4844 945.3125,313.3438 945.2344,313.1875 C945.0625,312.9375 944.7813,312.7813 944.5,312.7813 C944.2344,312.7813 943.9688,312.8906 943.7969,313.1406 C943.6875,313.2969 943.6563,313.4375 943.6563,313.9219 L943.6563,314.7969 L939.2969,314.7969 L939.2969,312.375 Z " fill="#000000"/><text fill="#000000" font-family="sans-serif" font-size="14" lengthAdjust="spacing" textLength="77" x="954.5" y="316.3467">&#1057;&#1052;&#1057; &#1096;&#1083;&#1102;&#1079;</text><line style="stroke:#181818;stroke-width:0.5;" x1="926.5" x2="1033.5" y1="327.5" y2="327.5"/><line style="stroke:#181818;stroke-width:0.5;" x1="926.5" x2="1033.5" y1="335.5" y2="335.5"/></g><!--class PermitionPayment--><g id="elem_PermitionPayment"><rect codeLine="108" fill="#F1F1F1" height="145.7813" id="PermitionPayment" rx="2.5" ry="2.5" style="stroke:#181818;stroke-width:0.5;" width="263" x="948.5" y="31.5"/><ellipse cx="980.15" cy="47.5" fill="#ADD1B2" rx="11" ry="11" style="stroke:#181818;stroke-width:1.0;"/><path d="M978.9469,48.375 L980.4,48.375 L980.4,48.4844 C980.4,48.8906 980.4313,49.0469 980.5094,49.2031 C980.6656,49.4531 980.9469,49.6094 981.2438,49.6094 C981.4938,49.6094 981.7594,49.4688 981.9156,49.25 C982.0406,49.0938 982.0719,48.9375 982.0719,48.4844 L982.0719,46.5625 C982.0719,46.4063 982.0719,46.3594 982.0563,46.2031 C981.9938,45.7344 981.6813,45.4219 981.2281,45.4219 C980.9781,45.4219 980.7125,45.5625 980.5406,45.7813 C980.4313,45.9531 980.4,46.1094 980.4,46.5625 L980.4,46.6875 L978.9469,46.6875 L978.9469,44.2813 L982.9313,44.2813 L982.9313,45.1406 C982.9313,45.5469 982.9625,45.7188 983.0406,45.875 C983.2125,46.125 983.4938,46.2813 983.775,46.2813 C984.0406,46.2813 984.3063,46.1406 984.4781,45.9219 C984.5875,45.75 984.6188,45.6094 984.6188,45.1406 L984.6188,42.5938 L976.9938,42.5938 C976.5563,42.5938 976.4313,42.6094 976.275,42.7031 C976.025,42.8594 975.8688,43.1563 975.8688,43.4375 C975.8688,43.7188 976.0094,43.9688 976.2281,44.1406 C976.3844,44.25 976.5719,44.2813 976.9938,44.2813 L977.2438,44.2813 L977.2438,50.7969 L976.9938,50.7969 C976.5875,50.7969 976.4313,50.8125 976.275,50.9219 C976.025,51.0938 975.8688,51.3594 975.8688,51.6563 C975.8688,51.9219 976.0094,52.1719 976.2281,52.3281 C976.3688,52.4531 976.6031,52.5 976.9938,52.5 L984.9938,52.5 L984.9938,49.9219 C984.9938,49.4844 984.9625,49.3438 984.8844,49.1875 C984.7125,48.9375 984.4313,48.7813 984.15,48.7813 C983.8844,48.7813 983.6188,48.8906 983.4469,49.1406 C983.3375,49.2969 983.3063,49.4375 983.3063,49.9219 L983.3063,50.7969 L978.9469,50.7969 L978.9469,48.375 Z " fill="#000000"/><text fill="#000000" font-family="sans-serif" font-size="14" lengthAdjust="spacing" textLength="194" x="997.85" y="52.3467">&#1055;&#1086;&#1076;&#1090;&#1074;&#1077;&#1088;&#1078;&#1076;&#1077;&#1085;&#1080;&#1077; &#1087;&#1083;&#1072;&#1090;&#1077;&#1078;&#1072;</text><line style="stroke:#181818;stroke-width:0.5;" x1="949.5" x2="1210.5" y1="63.5" y2="63.5"/><text fill="#000000" font-family="sans-serif" font-size="14" lengthAdjust="spacing" textLength="49" x="954.5" y="80.4951">&#1053;&#1086;&#1084;&#1077;&#1088;</text><text fill="#000000" font-family="sans-serif" font-size="14" lengthAdjust="spacing" textLength="36" x="954.5" y="96.792">&#1041;&#1072;&#1085;&#1082;</text><text fill="#000000" font-family="sans-serif" font-size="14" lengthAdjust="spacing" textLength="100" x="954.5" y="113.0889">&#1053;&#1086;&#1084;&#1077;&#1088; &#1082;&#1072;&#1088;&#1090;&#1099;</text><text fill="#000000" font-family="sans-serif" font-size="14" lengthAdjust="spacing" textLength="67" x="954.5" y="129.3857">&#1058;&#1077;&#1083;&#1077;&#1092;&#1086;&#1085;</text><text fill="#000000" font-family="sans-serif" font-size="14" lengthAdjust="spacing" textLength="60" x="954.5" y="145.6826">&#1050;&#1086;&#1076; &#1089;&#1084;&#1089;</text><text fill="#000000" font-family="sans-serif" font-size="14" lengthAdjust="spacing" textLength="251" x="954.5" y="161.9795">&#1057;&#1090;&#1072;&#1090;&#1091;&#1089; &#1087;&#1083;&#1072;&#1090;&#1077;&#1078;&#1072;: &#1057;&#1090;&#1072;&#1090;&#1091;&#1089; &#1087;&#1083;&#1072;&#1090;&#1077;&#1078;&#1072;</text><line style="stroke:#181818;stroke-width:0.5;" x1="949.5" x2="1210.5" y1="169.2813" y2="169.2813"/></g><!--link Ingredient to Product--><g id="link_Ingredient_Product"><path codeLine="118" d="M106.7376,202.044 C99.0258,254.009 94.5413,318.967 106,376 C111.148,401.621 115.5279,417.0049 125.4179,441.5929 " fill="none" id="Ingredient-to-Product" style="stroke:#181818;stroke-width:1.0;"/><polygon fill="#181818" points="129.896,452.726,131.368,445.6667,125.4179,441.5929,123.9459,448.6521,129.896,452.726" style="stroke:#181818;stroke-width:1.0;"/></g><!--link Ingredient to ComboBurger--><g id="link_Ingredient_ComboBurger"><path codeLine="119" d="M184.555,202.029 C198.796,225.914 207.2943,240.1682 219.4423,260.5412 " fill="none" id="Ingredient-to-ComboBurger" style="stroke:#181818;stroke-width:1.0;"/><polygon fill="#181818" points="225.588,270.848,225.9507,263.646,219.4423,260.5412,219.0795,267.7432,225.588,270.848" style="stroke:#181818;stroke-width:1.0;"/></g><!--link Ingredient to Ingredient--><g id="link_Ingredient_Ingredient"><path codeLine="120" d="M247.231,82.095 C267.77,85.157 282,92.625 282,104.5 C282,116.375 267.77,123.843 247.231,126.905 " fill="none" id="Ingredient-Ingredient" style="stroke:#181818;stroke-width:1.0;"/></g><!--link Product to Basket--><g id="link_Product_Basket"><path codeLine="121" d="M307.592,645.097 C350.65,674.443 387.7691,699.7407 426.4271,726.0887 " fill="none" id="Product-to-Basket" style="stroke:#181818;stroke-width:1.0;"/><polygon fill="none" points="436.343,732.847,433.6378,726.1625,426.4271,726.0887,429.1323,732.7731,436.343,732.847" style="stroke:#181818;stroke-width:1.0;"/><text fill="#000000" font-family="sans-serif" font-size="13" lengthAdjust="spacing" textLength="32" x="315.3353" y="646.494">1..50</text><text fill="#000000" font-family="sans-serif" font-size="13" lengthAdjust="spacing" textLength="24" x="400.9286" y="722.0919">0..1</text></g><!--link Product to Product--><g id="link_Product_Product"><path codeLine="122" d="M307.831,534.907 C328.379,538.284 342.5,546.148 342.5,558.5 C342.5,570.852 340.2202,576.7699 319.6722,580.1469 " fill="none" id="Product-to-Product" style="stroke:#181818;stroke-width:1.0;"/><polygon fill="none" points="307.831,582.093,314.4003,585.067,319.6722,580.1469,313.1029,577.1729,307.831,582.093" style="stroke:#181818;stroke-width:1.0;"/></g><!--link Order to Basket--><g id="link_Order_Basket"><path codeLine="123" d="M630.334,631.643 C606.956,664.287 590.2286,687.6449 568.4446,718.0619 " fill="none" id="Order-to-Basket" style="stroke:#181818;stroke-width:1.0;"/><polygon fill="none" points="557.964,732.696,573.3227,721.5554,563.5666,714.5684,557.964,732.696" style="stroke:#181818;stroke-width:1.0;"/></g><!--link Order to Payment--><g id="link_Order_Payment"><path codeLine="124" d="M771.989,631.604 C789.016,643.386 807.112,654.746 825,664 C909.782,707.861 1001.684,737.8809 1077.794,758.9259 " fill="none" id="Order-to-Payment" style="stroke:#181818;stroke-width:1.0;"/><polygon fill="#181818" points="1089.36,762.124,1084.643,756.6696,1077.794,758.9259,1082.511,764.3803,1089.36,762.124" style="stroke:#181818;stroke-width:1.0;"/></g><!--link OrderStatus to Order--><g id="link_OrderStatus_Order"><path codeLine="125" d="M544.202,376.066 C568.933,408.628 600.447,450.122 627.094,485.208 " fill="none" id="OrderStatus-Order" style="stroke:#181818;stroke-width:1.0;"/></g><!--link Obtaining to Basket--><g id="link_Obtaining_Basket"><path codeLine="126" d="M458.459,599.127 C470.051,635.995 487.441,691.305 500.439,732.645 " fill="none" id="Obtaining-Basket" style="stroke:#181818;stroke-width:1.0;"/></g><!--link PaymentStatus to Order--><g id="link_PaymentStatus_Order"><path codeLine="127" d="M658.687,360.168 C662.703,394.166 668.592,444.007 673.445,485.092 " fill="none" id="PaymentStatus-Order" style="stroke:#181818;stroke-width:1.0;"/></g><!--link MenuSection to Menu--><g id="link_MenuSection_Menu"><path codeLine="128" d="M182,830.393 C182,855.599 182,876.309 182,902.8739 " fill="none" id="MenuSection-to-Menu" style="stroke:#181818;stroke-width:1.0;"/><polygon fill="#181818" points="182,914.8739,186,908.8739,182,902.8739,178,908.8739,182,914.8739" style="stroke:#181818;stroke-width:1.0;"/><text fill="#000000" font-family="sans-serif" font-size="13" lengthAdjust="spacing" textLength="23" x="157.3109" y="849.6072">1..*</text><text fill="#000000" font-family="sans-serif" font-size="13" lengthAdjust="spacing" textLength="23" x="157.3828" y="904.0652">1..*</text></g><!--link Product to MenuSection--><g id="link_Product_MenuSection"><path codeLine="129" d="M182,664.282 C182,694.314 182,713.243 182,736.727 " fill="none" id="Product-to-MenuSection" style="stroke:#181818;stroke-width:1.0;"/><polygon fill="none" points="182,748.727,186,742.727,182,736.727,178,742.727,182,748.727" style="stroke:#181818;stroke-width:1.0;"/><text fill="#000000" font-family="sans-serif" font-size="13" lengthAdjust="spacing" textLength="23" x="158.2273" y="683.9655">1..*</text><text fill="#000000" font-family="sans-serif" font-size="13" lengthAdjust="spacing" textLength="23" x="157.0953" y="737.8433">1..*</text></g><!--link ComboBurger to Product--><g id="link_ComboBurger_Product"><path codeLine="130" d="M239.516,368.175 C232.125,392.506 228.0531,405.9062 219.0961,435.3902 " fill="none" id="ComboBurger-to-Product" style="stroke:#181818;stroke-width:1.0;"/><polygon fill="none" points="213.864,452.613,224.8371,437.1343,213.3552,433.6462,213.864,452.613" style="stroke:#181818;stroke-width:1.0;"/></g><!--link Client to Basket--><g id="link_Client_Basket"><path codeLine="131" d="M1078.32,368.087 C1010.21,400.618 930.727,440.092 918,453 C844.732,527.308 890.869,592.35 815,664 C773.437,703.251 723.3237,728.931 671.3597,748.115 " fill="none" id="Client-to-Basket" style="stroke:#181818;stroke-width:1.0;"/><polygon fill="#181818" points="665.731,750.193,675.5593,750.8285,670.4216,748.4613,672.7887,743.3236,665.731,750.193" style="stroke:#181818;stroke-width:1.0;"/><text fill="#000000" font-family="sans-serif" font-size="13" lengthAdjust="spacing" textLength="75" x="919" y="563.0669">&#1060;&#1086;&#1088;&#1084;&#1080;&#1088;&#1091;&#1077;&#1090;</text><text fill="#000000" font-family="sans-serif" font-size="13" lengthAdjust="spacing" textLength="24" x="1038.3338" y="388.0582">0..1</text><text fill="#000000" font-family="sans-serif" font-size="13" lengthAdjust="spacing" textLength="23" x="673.4438" y="744.9914">0..*</text></g><!--link Client to Order--><g id="link_Client_Order"><path codeLine="132" d="M1077.56,368.074 C1069.02,371.068 1060.43,373.769 1052,376 C992.358,391.783 828.21,373.131 776,406 C746.662,424.47 727.7427,450.4395 712.6587,479.8155 " fill="none" id="Client-to-Order" style="stroke:#181818;stroke-width:1.0;"/><polygon fill="#181818" points="709.918,485.153,717.5873,478.9739,712.2019,480.7051,710.4707,475.3197,709.918,485.153" style="stroke:#181818;stroke-width:1.0;"/><text fill="#000000" font-family="sans-serif" font-size="13" lengthAdjust="spacing" textLength="64" x="777" y="419.0669">&#1055;&#1086;&#1083;&#1091;&#1095;&#1072;&#1077;&#1090;</text><text fill="#000000" font-family="sans-serif" font-size="13" lengthAdjust="spacing" textLength="24" x="1064.8419" y="388.0433">0..1</text><text fill="#000000" font-family="sans-serif" font-size="13" lengthAdjust="spacing" textLength="23" x="688.4828" y="474.5309">0..*</text></g><!--link Client to Payment--><g id="link_Client_Payment"><path codeLine="133" d="M1104.54,368.157 C1076.6,390.218 1048.08,419.097 1033,453 C994.88,538.68 991.43,579.939 1033,664 C1045.71,689.695 1061.835,707.8176 1084.425,725.6946 " fill="none" id="Client-to-Payment" style="stroke:#181818;stroke-width:1.0;"/><polygon fill="#181818" points="1089.13,729.418,1084.5548,720.6963,1085.2092,726.3152,1079.5903,726.9696,1089.13,729.418" style="stroke:#181818;stroke-width:1.0;"/><text fill="#000000" font-family="sans-serif" font-size="13" lengthAdjust="spacing" textLength="80" x="1034" y="563.0669">&#1054;&#1087;&#1083;&#1072;&#1095;&#1080;&#1074;&#1072;&#1077;&#1090;</text></g><!--link PaymentType to Payment--><g id="link_PaymentType_Payment"><path codeLine="134" d="M1196,607.227 C1196,641.308 1196,681.521 1196,718.756 " fill="none" id="PaymentType-to-Payment" style="stroke:#181818;stroke-width:1.0;"/><polygon fill="#181818" points="1196,724.756,1200,715.756,1196,719.756,1192,715.756,1196,724.756" style="stroke:#181818;stroke-width:1.0;"/></g><!--link Receipt to Payment--><g id="link_Receipt_Payment"><path codeLine="135" d="M1315.76,582.845 C1306.95,604.369 1292.85,636.978 1278,664 C1266.84,684.3 1263.3975,690.6148 1250.7175,709.7648 " fill="none" id="Receipt-to-Payment" style="stroke:#181818;stroke-width:1.0;"/><polygon fill="none" points="1240.78,724.773,1255.7203,713.0773,1245.7148,706.4523,1240.78,724.773" style="stroke:#181818;stroke-width:1.0;"/></g><!--link PermitionPayment to PaymentState--><g id="link_PermitionPayment_PaymentState"><path codeLine="136" d="M989.945,177.612 C951.511,208.388 907.718,243.455 873.437,270.906 " fill="none" id="PermitionPayment-PaymentState" style="stroke:#181818;stroke-width:1.0;"/></g><!--link PermitionPayment to SmsGateway--><g id="link_PermitionPayment_SmsGateway"><path codeLine="137" d="M1046.14,177.612 C1026.88,218.646 1004.033,267.311 990.856,295.376 " fill="none" id="PermitionPayment-SmsGateway" style="stroke:#181818;stroke-width:1.0;"/></g><!--reverse link PermitionPayment to Payment--><g id="link_PermitionPayment_Payment"><path codeLine="138" d="M1221.5335,182.1984 C1256.7635,206.0754 1282.24,228.8 1308,263 C1361.61,334.173 1357.59,365.067 1372,453 C1387.17,545.543 1415.1,580.714 1372,664 C1356.52,693.916 1330.17,718.185 1302.51,737.08 " fill="none" id="PermitionPayment-backto-Payment" style="stroke:#181818;stroke-width:1.0;"/><polygon fill="none" points="1211.6,175.466,1214.3226,182.1434,1221.5335,182.1984,1218.8109,175.521,1211.6,175.466" style="stroke:#181818;stroke-width:1.0;"/></g><!--reverse link PermitionPayment to Client--><g id="link_PermitionPayment_Client"><path codeLine="139" d="M1118.9572,188.4756 C1133.3972,219.2516 1144.77,243.455 1157.66,270.906 " fill="none" id="PermitionPayment-backto-Client" style="stroke:#181818;stroke-width:1.0;"/><polygon fill="none" points="1113.86,177.612,1112.7874,184.7429,1118.9572,188.4756,1120.0298,181.3448,1113.86,177.612" style="stroke:#181818;stroke-width:1.0;"/></g><!--SRC=[fLPDQnj94BtthsXq5CZOWLnyo25B27i8-V3UmXuKUp1YLrAG9O990hAyR1OSOhIxR8Bnnh4JaklOqKIAllmNQlvHNbLtp_ICPtPPzY0qqrLTzQhwrUkvrUeskhlwkvyRGQkhwpkwGaSqemb5j8W75VrKqHcUPnJ5lz2I5efEuZujyJAXMVnIis_yWXQmVQQbfYc5T0xR0Xi652eQOc46rmDsNSQ7l8lTuptO9-gvKhSCX7kTzbPlqs8uGxmB2kE-8FWRCSRyZer0fkWjNIBjNhem58nJ1AI_OEd71uhU0n5mOz-IHhnm952Mm3-Xhmv3_5BH1pmEk0AOGYujFbJqaLl05Rp17riY6hc-e9g7QoihrHzraLNHxx8mZmyrNKgwppR3XI1QI8Qqz3j1gsVgFfO8hughFiFVfQQvyL7qJXn6N3gtrwudo50kSaQIkyyPqwtPr1l1PhVHRhdJBzjL1igUL98tMV7ItApl_1Ga_EB8Oo59Q1dcnxY-cWb2f_4-8CpvA4vnxZWrsCurFwBmVR3FTdHT_uj3zc2kM5EuTpjRGSUWVOrIcTHZM_wIsy6m_fH6CIZ-0oVsupsDigmxXGodn9JRj0IOcRmUODDRzsOg1gbnnjWe4JIcomxKVw5PhsbgskZMkxqTKraPE2dq556OMs4oyWW_DhE4i0EC3jhvXyl7M0wiUvBmKRVUQ3LQspQTVpGd-UQRfDhOyVkAY0OLAab2tgllDg5JVXLUj-m9HMb39RnAVCnhBjWFkuy39peoNovUH5-IcA7JELGPYP90O_Y0xZ-eeMzeIX76eA3HLwE_aGxyYkGJwVE5RRh8rW2le1kSH_5GQi7Ib6KCM8Qk6gFXxUQZzirUPzjHzqZ8ojqS8dSVx8ZA1BL4uwwjhAojbeaSWW0rdn-8u-7ulhNT2RRI-wHWSp68_oVYYLuVCvL1f0bhXhjkc1LyJkOO8xbz49EvSOvBQMpFnBkSE2QcGBm73YG8gX-kbYk_TvqP6fWMdDZn7jANh8paLC7Jb4JpYbYvhWkNCu4ly_mfqBa7mMRGU6n1VeB3bE6bzetcpctG-4bzrytmCG_fR-ZJAwE8Ni51fzdWUoHNUI4AFewYEKlKTIWTdsOgcfgfOnRalacOwICMZtcyf_vXtlAIdEqUQb4UUMkrglieoIzxevOrUUHNxeEc8dTQ1TQshe0xQnLx7IOUR76PpDLJgpsxuRpSIjLnIlbIZfpogbAvnP9BaD7BnDM_z1bTjIBXxIDRC-2h5djgjfkLBpa2sLLXloTjkRNQ3Ncikier3kA33F5S1dsVPwnya-d0kdzjXFuETdMiyoxG5-3PXVNqnTvpLsu237gxU8NAw9mlwuKEwQnSDRVJ0CL6KyWt]--></g></svg>