<?xml version="1.0" encoding="us-ascii" standalone="no"?><svg xmlns="http://www.w3.org/2000/svg" xmlns:xlink="http://www.w3.org/1999/xlink" contentStyleType="text/css" height="2037px" preserveAspectRatio="none" style="width:1476px;height:2037px;background:#FFFFFF;" version="1.1" viewBox="0 0 1476 2037" width="1476px" zoomAndPan="magnify"><defs/><g><rect fill="none" height="2025.4063" style="stroke:#181818;stroke-width:0.5;" width="1209" x="230.5" y="6"/><text fill="#000000" font-family="sans-serif" font-size="13" font-weight="bold" lengthAdjust="spacing" textLength="199" x="733" y="18.0669">&#1057;&#1080;&#1089;&#1090;&#1077;&#1084;&#1072; "&#1056;&#1086;&#1073;&#1086;&#1090; &#1080; &#1058;&#1086;&#1095;&#1082;&#1072;"</text><rect fill="#FFFFFF" height="59.1328" style="stroke:#181818;stroke-width:1.0;" width="10" x="277.5" y="120.1563"/><rect fill="#FFFFFF" height="59.1328" style="stroke:#181818;stroke-width:1.0;" width="10" x="277.5" y="506.8828"/><rect fill="#FFFFFF" height="59.1328" style="stroke:#181818;stroke-width:1.0;" width="10" x="277.5" y="619.2813"/><rect fill="#FFFFFF" height="89.3984" style="stroke:#181818;stroke-width:1.0;" width="10" x="277.5" y="1146.0078"/><rect fill="#FFFFFF" height="59.1328" style="stroke:#181818;stroke-width:1.0;" width="10" x="277.5" y="1295.6719"/><rect fill="#FFFFFF" height="59.1328" style="stroke:#181818;stroke-width:1.0;" width="10" x="277.5" y="1809.0703"/><rect fill="#FFFFFF" height="387.5938" style="stroke:#181818;stroke-width:1.0;" width="10" x="465.5" y="149.2891"/><rect fill="#FFFFFF" height="89.1328" style="stroke:#181818;stroke-width:1.0;" width="10" x="465.5" y="648.4141"/><rect fill="#FFFFFF" height="89.1328" style="stroke:#181818;stroke-width:1.0;" width="10" x="465.5" y="1086.875"/><rect fill="#FFFFFF" height="89.1328" style="stroke:#181818;stroke-width:1.0;" width="10" x="465.5" y="1324.8047"/><rect fill="#FFFFFF" height="89.1328" style="stroke:#181818;stroke-width:1.0;" width="10" x="465.5" y="1749.9375"/><rect fill="#FFFFFF" height="29.1328" style="stroke:#181818;stroke-width:1.0;" width="10" x="689.5" y="247.6875"/><rect fill="#FFFFFF" height="189.5313" style="stroke:#181818;stroke-width:1.0;" width="10" x="689.5" y="927.3438"/><rect fill="#FFFFFF" height="63.2656" style="stroke:#181818;stroke-width:1.0;" width="10" x="694.5" y="994.4766"/><rect fill="#FFFFFF" height="292.7656" style="stroke:#181818;stroke-width:1.0;" width="10" x="689.5" y="1487.1719"/><rect fill="#FFFFFF" height="63.2656" style="stroke:#181818;stroke-width:1.0;" width="10" x="694.5" y="1554.3047"/><rect fill="#FFFFFF" height="29.1328" style="stroke:#181818;stroke-width:1.0;" width="10" x="896.5" y="352.2188"/><rect fill="#FFFFFF" height="29.1328" style="stroke:#181818;stroke-width:1.0;" width="10" x="1014.5" y="441.6172"/><rect fill="#FFFFFF" height="249.7969" style="stroke:#181818;stroke-width:1.0;" width="10" x="1014.5" y="707.5469"/><rect fill="#FFFFFF" height="28" style="stroke:#181818;stroke-width:1.0;" width="10" x="1019.5" y="789.8125"/><rect fill="#FFFFFF" height="133.2344" style="stroke:#181818;stroke-width:1.0;" width="10" x="1143.5" y="1383.9375"/><rect fill="#FFFFFF" height="30" style="stroke:#181818;stroke-width:1.0;" width="10" x="1294.5" y="1646.7031"/><rect fill="#FFFFFF" height="29.1328" style="stroke:#181818;stroke-width:1.0;" width="10" x="1412.5" y="869.0781"/><rect fill="#FFFFFF" height="29.1328" style="stroke:#181818;stroke-width:1.0;" width="10" x="1412.5" y="1028.6094"/><rect fill="#FFFFFF" height="29.1328" style="stroke:#181818;stroke-width:1.0;" width="10" x="1412.5" y="1588.4375"/><rect fill="none" height="90.5313" style="stroke:#000000;stroke-width:1.5;" width="330.5" x="425.5" y="194.2891"/><rect fill="none" height="90.5313" style="stroke:#000000;stroke-width:1.5;" width="542.5" x="425.5" y="298.8203"/><rect fill="none" height="75.3984" style="stroke:#000000;stroke-width:1.5;" width="655.5" x="425.5" y="403.3516"/><rect fill="none" height="662.3906" style="stroke:#000000;stroke-width:1.5;" width="1435.5" x="10" y="581.0156"/><rect fill="none" height="677.7031" style="stroke:#000000;stroke-width:1.5;" width="1459" x="10" y="1257.4063"/><line style="stroke:#181818;stroke-width:0.5;stroke-dasharray:5.0,5.0;" x1="50" x2="50" y1="89.0234" y2="1952.1094"/><line style="stroke:#181818;stroke-width:0.5;stroke-dasharray:5.0,5.0;" x1="282.5" x2="282.5" y1="89.0234" y2="1952.1094"/><line style="stroke:#181818;stroke-width:0.5;stroke-dasharray:5.0,5.0;" x1="470.5" x2="470.5" y1="89.0234" y2="1952.1094"/><line style="stroke:#181818;stroke-width:0.5;stroke-dasharray:5.0,5.0;" x1="694" x2="694" y1="89.0234" y2="1952.1094"/><line style="stroke:#181818;stroke-width:0.5;stroke-dasharray:5.0,5.0;" x1="901" x2="901" y1="89.0234" y2="1952.1094"/><line style="stroke:#181818;stroke-width:0.5;stroke-dasharray:5.0,5.0;" x1="1019" x2="1019" y1="89.0234" y2="1952.1094"/><line style="stroke:#181818;stroke-width:0.5;stroke-dasharray:5.0,5.0;" x1="1148" x2="1148" y1="89.0234" y2="1952.1094"/><line style="stroke:#181818;stroke-width:0.5;stroke-dasharray:5.0,5.0;" x1="1299" x2="1299" y1="89.0234" y2="1952.1094"/><line style="stroke:#181818;stroke-width:0.5;stroke-dasharray:5.0,5.0;" x1="1417.5" x2="1417.5" y1="89.0234" y2="1952.1094"/><text fill="#000000" font-family="sans-serif" font-size="14" lengthAdjust="spacing" textLength="55" x="20" y="85.7217">&#1050;&#1083;&#1080;&#1077;&#1085;&#1090;</text><ellipse cx="50.5" cy="21.2266" fill="#E2E2F0" rx="8" ry="8" style="stroke:#181818;stroke-width:0.5;"/><path d="M50.5,29.2266 L50.5,56.2266 M37.5,37.2266 L63.5,37.2266 M50.5,56.2266 L37.5,71.2266 M50.5,56.2266 L63.5,71.2266 " fill="none" style="stroke:#181818;stroke-width:0.5;"/><text fill="#000000" font-family="sans-serif" font-size="14" lengthAdjust="spacing" textLength="55" x="20" y="1964.1045">&#1050;&#1083;&#1080;&#1077;&#1085;&#1090;</text><ellipse cx="50.5" cy="1975.9063" fill="#E2E2F0" rx="8" ry="8" style="stroke:#181818;stroke-width:0.5;"/><path d="M50.5,1983.9063 L50.5,2010.9063 M37.5,1991.9063 L63.5,1991.9063 M50.5,2010.9063 L37.5,2025.9063 M50.5,2010.9063 L63.5,2025.9063 " fill="none" style="stroke:#181818;stroke-width:0.5;"/><rect fill="#E2E2F0" height="30.2969" rx="2.5" ry="2.5" style="stroke:#181818;stroke-width:0.5;" width="96" x="234.5" y="57.7266"/><text fill="#000000" font-family="sans-serif" font-size="14" lengthAdjust="spacing" textLength="82" x="241.5" y="77.7217">mobile app</text><rect fill="#E2E2F0" height="30.2969" rx="2.5" ry="2.5" style="stroke:#181818;stroke-width:0.5;" width="96" x="234.5" y="1951.1094"/><text fill="#000000" font-family="sans-serif" font-size="14" lengthAdjust="spacing" textLength="82" x="241.5" y="1971.1045">mobile app</text><text fill="#000000" font-family="sans-serif" font-size="14" lengthAdjust="spacing" textLength="64" x="435.5" y="85.7217">REST API</text><path d="M450,44.7266 L450,68.7266 M450,56.7266 L467,56.7266 " fill="none" style="stroke:#181818;stroke-width:0.5;"/><ellipse cx="479" cy="56.7266" fill="#E2E2F0" rx="12" ry="12" style="stroke:#181818;stroke-width:0.5;"/><text fill="#000000" font-family="sans-serif" font-size="14" lengthAdjust="spacing" textLength="64" x="435.5" y="1964.1045">REST API</text><path d="M450,1971.4063 L450,1995.4063 M450,1983.4063 L467,1983.4063 " fill="none" style="stroke:#181818;stroke-width:0.5;"/><ellipse cx="479" cy="1983.4063" fill="#E2E2F0" rx="12" ry="12" style="stroke:#181818;stroke-width:0.5;"/><rect fill="#E2E2F0" height="62.8906" rx="2.5" ry="2.5" style="stroke:#181818;stroke-width:0.5;" width="103" x="643" y="25.1328"/><text fill="#000000" font-family="sans-serif" font-size="14" lengthAdjust="spacing" textLength="57" x="666" y="45.1279">&#1052;&#1086;&#1076;&#1091;&#1083;&#1100;</text><text fill="#000000" font-family="sans-serif" font-size="14" lengthAdjust="spacing" textLength="89" x="650" y="61.4248">&#1091;&#1087;&#1088;&#1072;&#1074;&#1083;&#1077;&#1085;&#1080;&#1103;</text><text fill="#000000" font-family="sans-serif" font-size="14" lengthAdjust="spacing" textLength="61" x="664" y="77.7217">&#1079;&#1072;&#1082;&#1072;&#1079;&#1086;&#1084;</text><rect fill="#E2E2F0" height="62.8906" rx="2.5" ry="2.5" style="stroke:#181818;stroke-width:0.5;" width="103" x="643" y="1951.1094"/><text fill="#000000" font-family="sans-serif" font-size="14" lengthAdjust="spacing" textLength="57" x="666" y="1971.1045">&#1052;&#1086;&#1076;&#1091;&#1083;&#1100;</text><text fill="#000000" font-family="sans-serif" font-size="14" lengthAdjust="spacing" textLength="89" x="650" y="1987.4014">&#1091;&#1087;&#1088;&#1072;&#1074;&#1083;&#1077;&#1085;&#1080;&#1103;</text><text fill="#000000" font-family="sans-serif" font-size="14" lengthAdjust="spacing" textLength="61" x="664" y="2003.6982">&#1079;&#1072;&#1082;&#1072;&#1079;&#1086;&#1084;</text><rect fill="#E2E2F0" height="46.5938" rx="2.5" ry="2.5" style="stroke:#181818;stroke-width:0.5;" width="113" x="845" y="41.4297"/><text fill="#000000" font-family="sans-serif" font-size="14" lengthAdjust="spacing" textLength="57" x="873" y="61.4248">&#1052;&#1086;&#1076;&#1091;&#1083;&#1100;</text><text fill="#000000" font-family="sans-serif" font-size="14" lengthAdjust="spacing" textLength="99" x="852" y="77.7217">&#1088;&#1077;&#1075;&#1080;&#1089;&#1090;&#1088;&#1072;&#1094;&#1080;&#1080;</text><rect fill="#E2E2F0" height="46.5938" rx="2.5" ry="2.5" style="stroke:#181818;stroke-width:0.5;" width="113" x="845" y="1951.1094"/><text fill="#000000" font-family="sans-serif" font-size="14" lengthAdjust="spacing" textLength="57" x="873" y="1971.1045">&#1052;&#1086;&#1076;&#1091;&#1083;&#1100;</text><text fill="#000000" font-family="sans-serif" font-size="14" lengthAdjust="spacing" textLength="99" x="852" y="1987.4014">&#1088;&#1077;&#1075;&#1080;&#1089;&#1090;&#1088;&#1072;&#1094;&#1080;&#1080;</text><rect fill="#E2E2F0" height="46.5938" rx="2.5" ry="2.5" style="stroke:#181818;stroke-width:0.5;" width="103" x="968" y="41.4297"/><text fill="#000000" font-family="sans-serif" font-size="14" lengthAdjust="spacing" textLength="57" x="991" y="61.4248">&#1052;&#1086;&#1076;&#1091;&#1083;&#1100;</text><text fill="#000000" font-family="sans-serif" font-size="14" lengthAdjust="spacing" textLength="89" x="975" y="77.7217">&#1083;&#1086;&#1103;&#1083;&#1100;&#1085;&#1086;&#1089;&#1090;&#1080;</text><rect fill="#E2E2F0" height="46.5938" rx="2.5" ry="2.5" style="stroke:#181818;stroke-width:0.5;" width="103" x="968" y="1951.1094"/><text fill="#000000" font-family="sans-serif" font-size="14" lengthAdjust="spacing" textLength="57" x="991" y="1971.1045">&#1052;&#1086;&#1076;&#1091;&#1083;&#1100;</text><text fill="#000000" font-family="sans-serif" font-size="14" lengthAdjust="spacing" textLength="89" x="975" y="1987.4014">&#1083;&#1086;&#1103;&#1083;&#1100;&#1085;&#1086;&#1089;&#1090;&#1080;</text><rect fill="#E2E2F0" height="46.5938" rx="2.5" ry="2.5" style="stroke:#181818;stroke-width:0.5;" width="71" x="1113" y="41.4297"/><text fill="#000000" font-family="sans-serif" font-size="14" lengthAdjust="spacing" textLength="57" x="1120" y="61.4248">&#1052;&#1086;&#1076;&#1091;&#1083;&#1100;</text><text fill="#000000" font-family="sans-serif" font-size="14" lengthAdjust="spacing" textLength="55" x="1121" y="77.7217">&#1086;&#1087;&#1083;&#1072;&#1090;&#1099;</text><rect fill="#E2E2F0" height="46.5938" rx="2.5" ry="2.5" style="stroke:#181818;stroke-width:0.5;" width="71" x="1113" y="1951.1094"/><text fill="#000000" font-family="sans-serif" font-size="14" lengthAdjust="spacing" textLength="57" x="1120" y="1971.1045">&#1052;&#1086;&#1076;&#1091;&#1083;&#1100;</text><text fill="#000000" font-family="sans-serif" font-size="14" lengthAdjust="spacing" textLength="55" x="1121" y="1987.4014">&#1086;&#1087;&#1083;&#1072;&#1090;&#1099;</text><rect fill="#E2E2F0" height="62.8906" rx="2.5" ry="2.5" style="stroke:#181818;stroke-width:0.5;" width="103" x="1248" y="25.1328"/><text fill="#000000" font-family="sans-serif" font-size="14" lengthAdjust="spacing" textLength="57" x="1271" y="45.1279">&#1052;&#1086;&#1076;&#1091;&#1083;&#1100;</text><text fill="#000000" font-family="sans-serif" font-size="14" lengthAdjust="spacing" textLength="89" x="1255" y="61.4248">&#1091;&#1087;&#1088;&#1072;&#1074;&#1083;&#1077;&#1085;&#1080;&#1103;</text><text fill="#000000" font-family="sans-serif" font-size="14" lengthAdjust="spacing" textLength="74" x="1262.5" y="77.7217">&#1088;&#1086;&#1073;&#1086;&#1090;&#1072;&#1084;&#1080;</text><rect fill="#E2E2F0" height="62.8906" rx="2.5" ry="2.5" style="stroke:#181818;stroke-width:0.5;" width="103" x="1248" y="1951.1094"/><text fill="#000000" font-family="sans-serif" font-size="14" lengthAdjust="spacing" textLength="57" x="1271" y="1971.1045">&#1052;&#1086;&#1076;&#1091;&#1083;&#1100;</text><text fill="#000000" font-family="sans-serif" font-size="14" lengthAdjust="spacing" textLength="89" x="1255" y="1987.4014">&#1091;&#1087;&#1088;&#1072;&#1074;&#1083;&#1077;&#1085;&#1080;&#1103;</text><text fill="#000000" font-family="sans-serif" font-size="14" lengthAdjust="spacing" textLength="74" x="1262.5" y="2003.6982">&#1088;&#1086;&#1073;&#1086;&#1090;&#1072;&#1084;&#1080;</text><text fill="#000000" font-family="sans-serif" font-size="14" lengthAdjust="spacing" textLength="21" x="1404" y="85.7217">DB</text><path d="M1399.5,36.7266 C1399.5,26.7266 1417.5,26.7266 1417.5,26.7266 C1417.5,26.7266 1435.5,26.7266 1435.5,36.7266 L1435.5,62.7266 C1435.5,72.7266 1417.5,72.7266 1417.5,72.7266 C1417.5,72.7266 1399.5,72.7266 1399.5,62.7266 L1399.5,36.7266 " fill="#E2E2F0" style="stroke:#181818;stroke-width:1.5;"/><path d="M1399.5,36.7266 C1399.5,46.7266 1417.5,46.7266 1417.5,46.7266 C1417.5,46.7266 1435.5,46.7266 1435.5,36.7266 " fill="none" style="stroke:#181818;stroke-width:1.5;"/><text fill="#000000" font-family="sans-serif" font-size="14" lengthAdjust="spacing" textLength="21" x="1404" y="1964.1045">DB</text><path d="M1399.5,1977.4063 C1399.5,1967.4063 1417.5,1967.4063 1417.5,1967.4063 C1417.5,1967.4063 1435.5,1967.4063 1435.5,1977.4063 L1435.5,2003.4063 C1435.5,2013.4063 1417.5,2013.4063 1417.5,2013.4063 C1417.5,2013.4063 1399.5,2013.4063 1399.5,2003.4063 L1399.5,1977.4063 " fill="#E2E2F0" style="stroke:#181818;stroke-width:1.5;"/><path d="M1399.5,1977.4063 C1399.5,1987.4063 1417.5,1987.4063 1417.5,1987.4063 C1417.5,1987.4063 1435.5,1987.4063 1435.5,1977.4063 " fill="none" style="stroke:#181818;stroke-width:1.5;"/><rect fill="#FFFFFF" height="59.1328" style="stroke:#181818;stroke-width:1.0;" width="10" x="277.5" y="120.1563"/><rect fill="#FFFFFF" height="59.1328" style="stroke:#181818;stroke-width:1.0;" width="10" x="277.5" y="506.8828"/><rect fill="#FFFFFF" height="59.1328" style="stroke:#181818;stroke-width:1.0;" width="10" x="277.5" y="619.2813"/><rect fill="#FFFFFF" height="89.3984" style="stroke:#181818;stroke-width:1.0;" width="10" x="277.5" y="1146.0078"/><rect fill="#FFFFFF" height="59.1328" style="stroke:#181818;stroke-width:1.0;" width="10" x="277.5" y="1295.6719"/><rect fill="#FFFFFF" height="59.1328" style="stroke:#181818;stroke-width:1.0;" width="10" x="277.5" y="1809.0703"/><rect fill="#FFFFFF" height="387.5938" style="stroke:#181818;stroke-width:1.0;" width="10" x="465.5" y="149.2891"/><rect fill="#FFFFFF" height="89.1328" style="stroke:#181818;stroke-width:1.0;" width="10" x="465.5" y="648.4141"/><rect fill="#FFFFFF" height="89.1328" style="stroke:#181818;stroke-width:1.0;" width="10" x="465.5" y="1086.875"/><rect fill="#FFFFFF" height="89.1328" style="stroke:#181818;stroke-width:1.0;" width="10" x="465.5" y="1324.8047"/><rect fill="#FFFFFF" height="89.1328" style="stroke:#181818;stroke-width:1.0;" width="10" x="465.5" y="1749.9375"/><rect fill="#FFFFFF" height="29.1328" style="stroke:#181818;stroke-width:1.0;" width="10" x="689.5" y="247.6875"/><rect fill="#FFFFFF" height="189.5313" style="stroke:#181818;stroke-width:1.0;" width="10" x="689.5" y="927.3438"/><rect fill="#FFFFFF" height="63.2656" style="stroke:#181818;stroke-width:1.0;" width="10" x="694.5" y="994.4766"/><rect fill="#FFFFFF" height="292.7656" style="stroke:#181818;stroke-width:1.0;" width="10" x="689.5" y="1487.1719"/><rect fill="#FFFFFF" height="63.2656" style="stroke:#181818;stroke-width:1.0;" width="10" x="694.5" y="1554.3047"/><rect fill="#FFFFFF" height="29.1328" style="stroke:#181818;stroke-width:1.0;" width="10" x="896.5" y="352.2188"/><rect fill="#FFFFFF" height="29.1328" style="stroke:#181818;stroke-width:1.0;" width="10" x="1014.5" y="441.6172"/><rect fill="#FFFFFF" height="249.7969" style="stroke:#181818;stroke-width:1.0;" width="10" x="1014.5" y="707.5469"/><rect fill="#FFFFFF" height="28" style="stroke:#181818;stroke-width:1.0;" width="10" x="1019.5" y="789.8125"/><rect fill="#FFFFFF" height="133.2344" style="stroke:#181818;stroke-width:1.0;" width="10" x="1143.5" y="1383.9375"/><rect fill="#FFFFFF" height="30" style="stroke:#181818;stroke-width:1.0;" width="10" x="1294.5" y="1646.7031"/><rect fill="#FFFFFF" height="29.1328" style="stroke:#181818;stroke-width:1.0;" width="10" x="1412.5" y="869.0781"/><rect fill="#FFFFFF" height="29.1328" style="stroke:#181818;stroke-width:1.0;" width="10" x="1412.5" y="1028.6094"/><rect fill="#FFFFFF" height="29.1328" style="stroke:#181818;stroke-width:1.0;" width="10" x="1412.5" y="1588.4375"/><polygon fill="#181818" points="265.5,116.1563,275.5,120.1563,265.5,124.1563,269.5,120.1563" style="stroke:#181818;stroke-width:1.0;"/><line style="stroke:#181818;stroke-width:1.0;" x1="50.5" x2="271.5" y1="120.1563" y2="120.1563"/><text fill="#000000" font-family="sans-serif" font-size="13" font-weight="bold" lengthAdjust="spacing" textLength="21" x="57.5" y="115.0903">[1]</text><text fill="#000000" font-family="sans-serif" font-size="13" lengthAdjust="spacing" textLength="110" x="82.5" y="115.0903">&#1054;&#1092;&#1086;&#1088;&#1084;&#1080;&#1090;&#1100; &#1079;&#1072;&#1082;&#1072;&#1079;</text><polygon fill="#181818" points="453.5,145.2891,463.5,149.2891,453.5,153.2891,457.5,149.2891" style="stroke:#181818;stroke-width:1.0;"/><line style="stroke:#181818;stroke-width:1.0;" x1="287.5" x2="459.5" y1="149.2891" y2="149.2891"/><text fill="#000000" font-family="sans-serif" font-size="13" font-weight="bold" lengthAdjust="spacing" textLength="21" x="294.5" y="144.2231">[2]</text><text fill="#000000" font-family="sans-serif" font-size="13" lengthAdjust="spacing" textLength="4" x="319.5" y="144.2231">&#160;</text><path d="M425.5,194.2891 L497.5,194.2891 L497.5,201.4219 L487.5,211.4219 L425.5,211.4219 L425.5,194.2891 " fill="#EEEEEE" style="stroke:#000000;stroke-width:1.5;"/><rect fill="none" height="90.5313" style="stroke:#000000;stroke-width:1.5;" width="330.5" x="425.5" y="194.2891"/><text fill="#000000" font-family="sans-serif" font-size="13" font-weight="bold" lengthAdjust="spacing" textLength="27" x="440.5" y="207.356">opt</text><polygon fill="#181818" points="677.5,243.6875,687.5,247.6875,677.5,251.6875,681.5,247.6875" style="stroke:#181818;stroke-width:1.0;"/><line style="stroke:#181818;stroke-width:1.0;" x1="475.5" x2="683.5" y1="247.6875" y2="247.6875"/><text fill="#000000" font-family="sans-serif" font-size="13" font-weight="bold" lengthAdjust="spacing" textLength="20" x="482.5" y="235.0552">[3]</text><text fill="#000000" font-family="sans-serif" font-size="13" lengthAdjust="spacing" textLength="121" x="506.5" y="227.4888">&#1089;&#1087;&#1086;&#1089;&#1086;&#1073; &#1087;&#1086;&#1083;&#1091;&#1095;&#1077;&#1085;&#1080;&#1103;</text><text fill="#000000" font-family="sans-serif" font-size="13" lengthAdjust="spacing" textLength="56" x="506.5" y="242.6216">&#1074;&#1099;&#1073;&#1088;&#1072;&#1085;?</text><polygon fill="#181818" points="486.5,272.8203,476.5,276.8203,486.5,280.8203,482.5,276.8203" style="stroke:#181818;stroke-width:1.0;"/><line style="stroke:#181818;stroke-width:1.0;stroke-dasharray:2.0,2.0;" x1="480.5" x2="693.5" y1="276.8203" y2="276.8203"/><text fill="#000000" font-family="sans-serif" font-size="13" font-weight="bold" lengthAdjust="spacing" textLength="21" x="492.5" y="271.7544">[4]</text><text fill="#000000" font-family="sans-serif" font-size="13" lengthAdjust="spacing" textLength="18" x="517.5" y="271.7544">&#1076;&#1072;</text><path d="M425.5,298.8203 L497.5,298.8203 L497.5,305.9531 L487.5,315.9531 L425.5,315.9531 L425.5,298.8203 " fill="#EEEEEE" style="stroke:#000000;stroke-width:1.5;"/><rect fill="none" height="90.5313" style="stroke:#000000;stroke-width:1.5;" width="542.5" x="425.5" y="298.8203"/><text fill="#000000" font-family="sans-serif" font-size="13" font-weight="bold" lengthAdjust="spacing" textLength="27" x="440.5" y="311.8872">opt</text><polygon fill="#181818" points="884.5,348.2188,894.5,352.2188,884.5,356.2188,888.5,352.2188" style="stroke:#181818;stroke-width:1.0;"/><line style="stroke:#181818;stroke-width:1.0;" x1="475.5" x2="890.5" y1="352.2188" y2="352.2188"/><text fill="#000000" font-family="sans-serif" font-size="13" font-weight="bold" lengthAdjust="spacing" textLength="21" x="482.5" y="339.5864">[5]</text><text fill="#000000" font-family="sans-serif" font-size="13" lengthAdjust="spacing" textLength="93" x="507.5" y="332.02">&#1087;&#1086;&#1083;&#1100;&#1079;&#1086;&#1074;&#1072;&#1090;&#1077;&#1083;&#1100;</text><text fill="#000000" font-family="sans-serif" font-size="13" lengthAdjust="spacing" textLength="136" x="507.5" y="347.1528">&#1072;&#1091;&#1090;&#1077;&#1085;&#1090;&#1080;&#1092;&#1080;&#1094;&#1080;&#1088;&#1086;&#1074;&#1072;&#1085;?</text><polygon fill="#181818" points="486.5,377.3516,476.5,381.3516,486.5,385.3516,482.5,381.3516" style="stroke:#181818;stroke-width:1.0;"/><line style="stroke:#181818;stroke-width:1.0;stroke-dasharray:2.0,2.0;" x1="480.5" x2="900.5" y1="381.3516" y2="381.3516"/><text fill="#000000" font-family="sans-serif" font-size="13" font-weight="bold" lengthAdjust="spacing" textLength="21" x="492.5" y="376.2856">[6]</text><text fill="#000000" font-family="sans-serif" font-size="13" lengthAdjust="spacing" textLength="18" x="517.5" y="376.2856">&#1076;&#1072;</text><path d="M425.5,403.3516 L497.5,403.3516 L497.5,410.4844 L487.5,420.4844 L425.5,420.4844 L425.5,403.3516 " fill="#EEEEEE" style="stroke:#000000;stroke-width:1.5;"/><rect fill="none" height="75.3984" style="stroke:#000000;stroke-width:1.5;" width="655.5" x="425.5" y="403.3516"/><text fill="#000000" font-family="sans-serif" font-size="13" font-weight="bold" lengthAdjust="spacing" textLength="27" x="440.5" y="416.4185">opt</text><polygon fill="#181818" points="1002.5,437.6172,1012.5,441.6172,1002.5,445.6172,1006.5,441.6172" style="stroke:#181818;stroke-width:1.0;"/><line style="stroke:#181818;stroke-width:1.0;" x1="475.5" x2="1008.5" y1="441.6172" y2="441.6172"/><text fill="#000000" font-family="sans-serif" font-size="13" font-weight="bold" lengthAdjust="spacing" textLength="21" x="482.5" y="436.5513">[7]</text><text fill="#000000" font-family="sans-serif" font-size="13" lengthAdjust="spacing" textLength="108" x="507.5" y="436.5513">&#1073;&#1072;&#1083;&#1072;&#1085;&#1089; &#1073;&#1072;&#1083;&#1083;&#1086;&#1074;?</text><polygon fill="#181818" points="486.5,466.75,476.5,470.75,486.5,474.75,482.5,470.75" style="stroke:#181818;stroke-width:1.0;"/><line style="stroke:#181818;stroke-width:1.0;stroke-dasharray:2.0,2.0;" x1="480.5" x2="1018.5" y1="470.75" y2="470.75"/><text fill="#000000" font-family="sans-serif" font-size="13" font-weight="bold" lengthAdjust="spacing" textLength="21" x="492.5" y="465.6841">[8]</text><text fill="#000000" font-family="sans-serif" font-size="13" lengthAdjust="spacing" textLength="130" x="517.5" y="465.6841">&#1082;&#1086;&#1083;&#1080;&#1095;&#1077;&#1089;&#1090;&#1074;&#1086; &#1073;&#1072;&#1083;&#1083;&#1086;&#1074;</text><polygon fill="#181818" points="298.5,502.8828,288.5,506.8828,298.5,510.8828,294.5,506.8828" style="stroke:#181818;stroke-width:1.0;"/><line style="stroke:#181818;stroke-width:1.0;" x1="292.5" x2="464.5" y1="506.8828" y2="506.8828"/><text fill="#000000" font-family="sans-serif" font-size="13" font-weight="bold" lengthAdjust="spacing" textLength="21" x="304.5" y="501.8169">[9]</text><text fill="#000000" font-family="sans-serif" font-size="13" lengthAdjust="spacing" textLength="4" x="329.5" y="501.8169">&#160;</text><polygon fill="#181818" points="61.5,562.0156,51.5,566.0156,61.5,570.0156,57.5,566.0156" style="stroke:#181818;stroke-width:1.0;"/><line style="stroke:#181818;stroke-width:1.0;" x1="55.5" x2="281.5" y1="566.0156" y2="566.0156"/><text fill="#000000" font-family="sans-serif" font-size="13" font-weight="bold" lengthAdjust="spacing" textLength="31" x="67.5" y="560.9497">[10]</text><text fill="#000000" font-family="sans-serif" font-size="13" lengthAdjust="spacing" textLength="168" x="102.5" y="560.9497">&#1074;&#1099;&#1073;&#1077;&#1088;&#1077;&#1090;&#1077; &#1089;&#1087;&#1086;&#1089;&#1086;&#1073; &#1086;&#1087;&#1083;&#1072;&#1090;&#1099;</text><path d="M10,581.0156 L82,581.0156 L82,588.1484 L72,598.1484 L10,598.1484 L10,581.0156 " fill="#EEEEEE" style="stroke:#000000;stroke-width:1.5;"/><rect fill="none" height="662.3906" style="stroke:#000000;stroke-width:1.5;" width="1435.5" x="10" y="581.0156"/><text fill="#000000" font-family="sans-serif" font-size="13" font-weight="bold" lengthAdjust="spacing" textLength="27" x="25" y="594.0825">opt</text><text fill="#000000" font-family="sans-serif" font-size="11" font-weight="bold" lengthAdjust="spacing" textLength="110" x="97" y="593.2261">[&#1089;&#1087;&#1080;&#1089;&#1072;&#1090;&#1100; &#1073;&#1072;&#1083;&#1083;&#1099;]</text><polygon fill="#181818" points="265.5,615.2813,275.5,619.2813,265.5,623.2813,269.5,619.2813" style="stroke:#181818;stroke-width:1.0;"/><line style="stroke:#181818;stroke-width:1.0;" x1="50.5" x2="271.5" y1="619.2813" y2="619.2813"/><text fill="#000000" font-family="sans-serif" font-size="13" font-weight="bold" lengthAdjust="spacing" textLength="30" x="57.5" y="614.2153">[11]</text><text fill="#000000" font-family="sans-serif" font-size="13" lengthAdjust="spacing" textLength="100" x="91.5" y="614.2153">&#1089;&#1087;&#1080;&#1089;&#1072;&#1090;&#1100; &#1073;&#1072;&#1083;&#1083;&#1099;</text><polygon fill="#181818" points="453.5,644.4141,463.5,648.4141,453.5,652.4141,457.5,648.4141" style="stroke:#181818;stroke-width:1.0;"/><line style="stroke:#181818;stroke-width:1.0;" x1="287.5" x2="459.5" y1="648.4141" y2="648.4141"/><text fill="#000000" font-family="sans-serif" font-size="13" font-weight="bold" lengthAdjust="spacing" textLength="30" x="294.5" y="643.3481">[12]</text><text fill="#000000" font-family="sans-serif" font-size="13" lengthAdjust="spacing" textLength="100" x="328.5" y="643.3481">&#1089;&#1087;&#1080;&#1089;&#1072;&#1090;&#1100; &#1073;&#1072;&#1083;&#1083;&#1099;</text><polygon fill="#181818" points="1002.5,703.5469,1012.5,707.5469,1002.5,711.5469,1006.5,707.5469" style="stroke:#181818;stroke-width:1.0;"/><line style="stroke:#181818;stroke-width:1.0;" x1="475.5" x2="1008.5" y1="707.5469" y2="707.5469"/><text fill="#000000" font-family="sans-serif" font-size="13" font-weight="bold" lengthAdjust="spacing" textLength="29" x="482.5" y="702.481">[13]</text><text fill="#000000" font-family="sans-serif" font-size="13" lengthAdjust="spacing" textLength="185" x="515.5" y="702.481">&#1079;&#1072;&#1087;&#1088;&#1086;&#1089; &#1085;&#1072; &#1089;&#1087;&#1080;&#1089;&#1072;&#1085;&#1080;&#1077; &#1073;&#1072;&#1083;&#1083;&#1086;&#1074;</text><line style="stroke:#181818;stroke-width:1.0;" x1="1029.5" x2="1071.5" y1="781.8125" y2="781.8125"/><line style="stroke:#181818;stroke-width:1.0;" x1="1071.5" x2="1071.5" y1="781.8125" y2="794.8125"/><line style="stroke:#181818;stroke-width:1.0;" x1="1030.5" x2="1071.5" y1="794.8125" y2="794.8125"/><polygon fill="#181818" points="1040.5,790.8125,1030.5,794.8125,1040.5,798.8125,1036.5,794.8125" style="stroke:#181818;stroke-width:1.0;"/><text fill="#000000" font-family="sans-serif" font-size="13" font-weight="bold" lengthAdjust="spacing" textLength="30" x="1036.5" y="769.1802">[14]</text><text fill="#000000" font-family="sans-serif" font-size="13" lengthAdjust="spacing" textLength="71" x="1070.5" y="761.6138">&#1086;&#1073;&#1088;&#1072;&#1073;&#1086;&#1090;&#1082;&#1072;</text><text fill="#000000" font-family="sans-serif" font-size="13" lengthAdjust="spacing" textLength="54" x="1070.5" y="776.7466">&#1079;&#1072;&#1087;&#1088;&#1086;&#1089;&#1072;</text><polygon fill="#181818" points="1400.5,865.0781,1410.5,869.0781,1400.5,873.0781,1404.5,869.0781" style="stroke:#181818;stroke-width:1.0;"/><line style="stroke:#181818;stroke-width:1.0;" x1="1024.5" x2="1406.5" y1="869.0781" y2="869.0781"/><text fill="#000000" font-family="sans-serif" font-size="13" font-weight="bold" lengthAdjust="spacing" textLength="30" x="1031.5" y="856.4458">[15]</text><text fill="#000000" font-family="sans-serif" font-size="13" lengthAdjust="spacing" textLength="122" x="1065.5" y="848.8794">&#1079;&#1072;&#1087;&#1088;&#1086;&#1089; &#1080;&#1079;&#1084;&#1077;&#1085;&#1077;&#1085;&#1080;&#1077;</text><text fill="#000000" font-family="sans-serif" font-size="13" lengthAdjust="spacing" textLength="109" x="1065.5" y="864.0122">&#1073;&#1072;&#1083;&#1072;&#1085;&#1089;&#1072; &#1073;&#1072;&#1083;&#1083;&#1086;&#1074;</text><polygon fill="#181818" points="1035.5,894.2109,1025.5,898.2109,1035.5,902.2109,1031.5,898.2109" style="stroke:#181818;stroke-width:1.0;"/><line style="stroke:#181818;stroke-width:1.0;stroke-dasharray:2.0,2.0;" x1="1029.5" x2="1416.5" y1="898.2109" y2="898.2109"/><text fill="#000000" font-family="sans-serif" font-size="13" font-weight="bold" lengthAdjust="spacing" textLength="30" x="1041.5" y="893.145">[16]</text><text fill="#000000" font-family="sans-serif" font-size="13" lengthAdjust="spacing" textLength="37" x="1075.5" y="893.145">&#1086;&#1090;&#1074;&#1077;&#1090;</text><polygon fill="#181818" points="710.5,923.3438,700.5,927.3438,710.5,931.3438,706.5,927.3438" style="stroke:#181818;stroke-width:1.0;"/><line style="stroke:#181818;stroke-width:1.0;" x1="704.5" x2="1013.5" y1="927.3438" y2="927.3438"/><text fill="#000000" font-family="sans-serif" font-size="13" font-weight="bold" lengthAdjust="spacing" textLength="30" x="716.5" y="922.2778">[17]</text><text fill="#000000" font-family="sans-serif" font-size="13" lengthAdjust="spacing" textLength="161" x="750.5" y="922.2778">&#1080;&#1079;&#1084;&#1077;&#1085;&#1077;&#1085;&#1080;&#1077; &#1094;&#1077;&#1085;&#1099; &#1079;&#1072;&#1082;&#1072;&#1079;&#1072;</text><line style="stroke:#181818;stroke-width:1.0;" x1="699.5" x2="746.5" y1="981.4766" y2="981.4766"/><line style="stroke:#181818;stroke-width:1.0;" x1="746.5" x2="746.5" y1="981.4766" y2="994.4766"/><line style="stroke:#181818;stroke-width:1.0;" x1="705.5" x2="746.5" y1="994.4766" y2="994.4766"/><polygon fill="#181818" points="715.5,990.4766,705.5,994.4766,715.5,998.4766,711.5,994.4766" style="stroke:#181818;stroke-width:1.0;"/><text fill="#000000" font-family="sans-serif" font-size="13" font-weight="bold" lengthAdjust="spacing" textLength="30" x="711.5" y="976.4106">[18]</text><text fill="#000000" font-family="sans-serif" font-size="13" lengthAdjust="spacing" textLength="129" x="745.5" y="976.4106">&#1086;&#1073;&#1088;&#1072;&#1073;&#1086;&#1090;&#1082;&#1072; &#1079;&#1072;&#1087;&#1088;&#1086;&#1089;&#1072;</text><polygon fill="#181818" points="1400.5,1024.6094,1410.5,1028.6094,1400.5,1032.6094,1404.5,1028.6094" style="stroke:#181818;stroke-width:1.0;"/><line style="stroke:#181818;stroke-width:1.0;" x1="704.5" x2="1406.5" y1="1028.6094" y2="1028.6094"/><text fill="#000000" font-family="sans-serif" font-size="13" font-weight="bold" lengthAdjust="spacing" textLength="30" x="711.5" y="1023.5435">[19]</text><text fill="#000000" font-family="sans-serif" font-size="13" lengthAdjust="spacing" textLength="211" x="745.5" y="1023.5435">&#1079;&#1072;&#1087;&#1088;&#1086;&#1089; &#1080;&#1079;&#1084;&#1077;&#1085;&#1077;&#1085;&#1080;&#1077; &#1094;&#1077;&#1085;&#1099; &#1079;&#1072;&#1082;&#1072;&#1079;&#1072;</text><polygon fill="#181818" points="710.5,1053.7422,700.5,1057.7422,710.5,1061.7422,706.5,1057.7422" style="stroke:#181818;stroke-width:1.0;"/><line style="stroke:#181818;stroke-width:1.0;stroke-dasharray:2.0,2.0;" x1="704.5" x2="1416.5" y1="1057.7422" y2="1057.7422"/><text fill="#000000" font-family="sans-serif" font-size="13" font-weight="bold" lengthAdjust="spacing" textLength="31" x="716.5" y="1052.6763">[20]</text><text fill="#000000" font-family="sans-serif" font-size="13" lengthAdjust="spacing" textLength="37" x="751.5" y="1052.6763">&#1086;&#1090;&#1074;&#1077;&#1090;</text><polygon fill="#181818" points="486.5,1082.875,476.5,1086.875,486.5,1090.875,482.5,1086.875" style="stroke:#181818;stroke-width:1.0;"/><line style="stroke:#181818;stroke-width:1.0;" x1="480.5" x2="688.5" y1="1086.875" y2="1086.875"/><text fill="#000000" font-family="sans-serif" font-size="13" font-weight="bold" lengthAdjust="spacing" textLength="30" x="492.5" y="1081.8091">[21]</text><text fill="#000000" font-family="sans-serif" font-size="13" lengthAdjust="spacing" textLength="161" x="526.5" y="1081.8091">&#1080;&#1079;&#1084;&#1077;&#1085;&#1077;&#1085;&#1080;&#1077; &#1094;&#1077;&#1085;&#1099; &#1079;&#1072;&#1082;&#1072;&#1079;&#1072;</text><polygon fill="#181818" points="298.5,1142.0078,288.5,1146.0078,298.5,1150.0078,294.5,1146.0078" style="stroke:#181818;stroke-width:1.0;"/><line style="stroke:#181818;stroke-width:1.0;" x1="292.5" x2="464.5" y1="1146.0078" y2="1146.0078"/><text fill="#000000" font-family="sans-serif" font-size="13" font-weight="bold" lengthAdjust="spacing" textLength="30" x="304.5" y="1140.9419">[22]</text><text fill="#000000" font-family="sans-serif" font-size="13" lengthAdjust="spacing" textLength="125" x="338.5" y="1140.9419">&#1085;&#1086;&#1074;&#1072;&#1103; &#1094;&#1077;&#1085;&#1072; &#1079;&#1072;&#1082;&#1072;&#1079;&#1072;</text><polygon fill="#181818" points="61.5,1231.4063,51.5,1235.4063,61.5,1239.4063,57.5,1235.4063" style="stroke:#181818;stroke-width:1.0;"/><line style="stroke:#181818;stroke-width:1.0;" x1="55.5" x2="281.5" y1="1235.4063" y2="1235.4063"/><text fill="#000000" font-family="sans-serif" font-size="13" font-weight="bold" lengthAdjust="spacing" textLength="29" x="67.5" y="1215.2075">[23]</text><text fill="#000000" font-family="sans-serif" font-size="13" lengthAdjust="spacing" textLength="61" x="100.5" y="1200.0747">&#1087;&#1086;&#1082;&#1072;&#1079;&#1072;&#1090;&#1100;</text><text fill="#000000" font-family="sans-serif" font-size="13" lengthAdjust="spacing" textLength="129" x="100.5" y="1215.2075">&#1085;&#1086;&#1074;&#1091;&#1102; &#1094;&#1077;&#1085;&#1091; &#1079;&#1072;&#1082;&#1072;&#1079;&#1072;</text><text fill="#000000" font-family="sans-serif" font-size="13" lengthAdjust="spacing" textLength="113" x="100.5" y="1230.3403">&#1080; &#1073;&#1072;&#1083;&#1072;&#1085;&#1089; &#1073;&#1072;&#1083;&#1083;&#1086;&#1074;</text><path d="M10,1257.4063 L76,1257.4063 L76,1264.5391 L66,1274.5391 L10,1274.5391 L10,1257.4063 " fill="#EEEEEE" style="stroke:#000000;stroke-width:1.5;"/><rect fill="none" height="677.7031" style="stroke:#000000;stroke-width:1.5;" width="1459" x="10" y="1257.4063"/><text fill="#000000" font-family="sans-serif" font-size="13" font-weight="bold" lengthAdjust="spacing" textLength="21" x="25" y="1270.4731">alt</text><text fill="#000000" font-family="sans-serif" font-size="11" font-weight="bold" lengthAdjust="spacing" textLength="124" x="91" y="1269.6167">[&#1086;&#1087;&#1083;&#1072;&#1090;&#1072; &#1087;&#1086; &#1082;&#1072;&#1088;&#1090;&#1077;]</text><polygon fill="#181818" points="265.5,1291.6719,275.5,1295.6719,265.5,1299.6719,269.5,1295.6719" style="stroke:#181818;stroke-width:1.0;"/><line style="stroke:#181818;stroke-width:1.0;" x1="50.5" x2="271.5" y1="1295.6719" y2="1295.6719"/><text fill="#000000" font-family="sans-serif" font-size="13" font-weight="bold" lengthAdjust="spacing" textLength="30" x="57.5" y="1290.606">[24]</text><text fill="#000000" font-family="sans-serif" font-size="13" lengthAdjust="spacing" textLength="111" x="91.5" y="1290.606">&#1086;&#1087;&#1083;&#1072;&#1090;&#1072; &#1087;&#1086; &#1082;&#1072;&#1088;&#1090;&#1077;</text><polygon fill="#181818" points="453.5,1320.8047,463.5,1324.8047,453.5,1328.8047,457.5,1324.8047" style="stroke:#181818;stroke-width:1.0;"/><line style="stroke:#181818;stroke-width:1.0;" x1="287.5" x2="459.5" y1="1324.8047" y2="1324.8047"/><text fill="#000000" font-family="sans-serif" font-size="13" font-weight="bold" lengthAdjust="spacing" textLength="30" x="294.5" y="1319.7388">[25]</text><text fill="#000000" font-family="sans-serif" font-size="13" lengthAdjust="spacing" textLength="111" x="328.5" y="1319.7388">&#1086;&#1087;&#1083;&#1072;&#1090;&#1072; &#1087;&#1086; &#1082;&#1072;&#1088;&#1090;&#1077;</text><polygon fill="#181818" points="1131.5,1379.9375,1141.5,1383.9375,1131.5,1387.9375,1135.5,1383.9375" style="stroke:#181818;stroke-width:1.0;"/><line style="stroke:#181818;stroke-width:1.0;" x1="475.5" x2="1137.5" y1="1383.9375" y2="1383.9375"/><text fill="#000000" font-family="sans-serif" font-size="13" font-weight="bold" lengthAdjust="spacing" textLength="30" x="482.5" y="1378.8716">[26]</text><text fill="#000000" font-family="sans-serif" font-size="13" lengthAdjust="spacing" textLength="4" x="516.5" y="1378.8716">&#160;</text><rect fill="none" height="39.1016" style="stroke:#000000;stroke-width:1.5;" width="218" x="1110" y="1421.9375"/><path d="M1110,1421.9375 L1178,1421.9375 L1178,1428.9375 L1168,1438.9375 L1110,1438.9375 L1110,1421.9375 " fill="#EEEEEE" style="stroke:#000000;stroke-width:2.0;"/><text fill="#000000" font-family="sans-serif" font-size="13" font-weight="bold" lengthAdjust="spacing" textLength="23" x="1123" y="1436.0044">ref</text><text fill="#000000" font-family="sans-serif" font-size="12" lengthAdjust="spacing" textLength="210" x="1114" y="1454.0762">&#1047;&#1072;&#1087;&#1088;&#1086;&#1089; &#1074;&#1085;&#1077;&#1096;&#1085;&#1077;&#1075;&#1086; &#1096;&#1083;&#1102;&#1079;&#1072; &#1086;&#1087;&#1083;&#1072;&#1090;&#1099;</text><polygon fill="#181818" points="710.5,1483.1719,700.5,1487.1719,710.5,1491.1719,706.5,1487.1719" style="stroke:#181818;stroke-width:1.0;"/><line style="stroke:#181818;stroke-width:1.0;" x1="704.5" x2="1142.5" y1="1487.1719" y2="1487.1719"/><text fill="#000000" font-family="sans-serif" font-size="13" font-weight="bold" lengthAdjust="spacing" textLength="30" x="716.5" y="1482.106">[27]</text><text fill="#000000" font-family="sans-serif" font-size="13" lengthAdjust="spacing" textLength="98" x="750.5" y="1482.106">&#1079;&#1072;&#1082;&#1072;&#1079; &#1086;&#1087;&#1083;&#1072;&#1095;&#1077;&#1085;</text><line style="stroke:#181818;stroke-width:1.0;" x1="699.5" x2="746.5" y1="1541.3047" y2="1541.3047"/><line style="stroke:#181818;stroke-width:1.0;" x1="746.5" x2="746.5" y1="1541.3047" y2="1554.3047"/><line style="stroke:#181818;stroke-width:1.0;" x1="705.5" x2="746.5" y1="1554.3047" y2="1554.3047"/><polygon fill="#181818" points="715.5,1550.3047,705.5,1554.3047,715.5,1558.3047,711.5,1554.3047" style="stroke:#181818;stroke-width:1.0;"/><text fill="#000000" font-family="sans-serif" font-size="13" font-weight="bold" lengthAdjust="spacing" textLength="30" x="711.5" y="1536.2388">[28]</text><text fill="#000000" font-family="sans-serif" font-size="13" lengthAdjust="spacing" textLength="149" x="745.5" y="1536.2388">&#1086;&#1073;&#1088;&#1072;&#1073;&#1086;&#1090;&#1082;&#1072; &#1089;&#1086;&#1086;&#1073;&#1097;&#1077;&#1085;&#1080;&#1103;</text><polygon fill="#181818" points="1400.5,1584.4375,1410.5,1588.4375,1400.5,1592.4375,1404.5,1588.4375" style="stroke:#181818;stroke-width:1.0;"/><line style="stroke:#181818;stroke-width:1.0;" x1="704.5" x2="1406.5" y1="1588.4375" y2="1588.4375"/><text fill="#000000" font-family="sans-serif" font-size="13" font-weight="bold" lengthAdjust="spacing" textLength="30" x="711.5" y="1583.3716">[29]</text><text fill="#000000" font-family="sans-serif" font-size="13" lengthAdjust="spacing" textLength="45" x="745.5" y="1583.3716">update</text><polygon fill="#181818" points="710.5,1613.5703,700.5,1617.5703,710.5,1621.5703,706.5,1617.5703" style="stroke:#181818;stroke-width:1.0;"/><line style="stroke:#181818;stroke-width:1.0;stroke-dasharray:2.0,2.0;" x1="704.5" x2="1416.5" y1="1617.5703" y2="1617.5703"/><text fill="#000000" font-family="sans-serif" font-size="13" font-weight="bold" lengthAdjust="spacing" textLength="30" x="716.5" y="1612.5044">[30]</text><text fill="#000000" font-family="sans-serif" font-size="13" lengthAdjust="spacing" textLength="37" x="750.5" y="1612.5044">&#1086;&#1090;&#1074;&#1077;&#1090;</text><polygon fill="#181818" points="1282.5,1642.7031,1292.5,1646.7031,1282.5,1650.7031,1286.5,1646.7031" style="stroke:#181818;stroke-width:1.0;"/><line style="stroke:#181818;stroke-width:1.0;" x1="699.5" x2="1288.5" y1="1646.7031" y2="1646.7031"/><text fill="#000000" font-family="sans-serif" font-size="13" font-weight="bold" lengthAdjust="spacing" textLength="29" x="706.5" y="1641.6372">[31]</text><text fill="#000000" font-family="sans-serif" font-size="13" lengthAdjust="spacing" textLength="155" x="739.5" y="1641.6372">&#1079;&#1072;&#1082;&#1072;&#1079; &#1085;&#1072; &#1087;&#1088;&#1086;&#1080;&#1079;&#1074;&#1086;&#1076;&#1089;&#1090;&#1074;&#1086;</text><rect fill="none" height="39.1016" style="stroke:#000000;stroke-width:1.5;" width="217" x="1245" y="1684.7031"/><path d="M1245,1684.7031 L1313,1684.7031 L1313,1691.7031 L1303,1701.7031 L1245,1701.7031 L1245,1684.7031 " fill="#EEEEEE" style="stroke:#000000;stroke-width:2.0;"/><text fill="#000000" font-family="sans-serif" font-size="13" font-weight="bold" lengthAdjust="spacing" textLength="23" x="1258" y="1698.77">ref</text><text fill="#000000" font-family="sans-serif" font-size="12" lengthAdjust="spacing" textLength="209" x="1249" y="1716.8418">&#1060;&#1086;&#1088;&#1084;&#1080;&#1088;&#1091;&#1077;&#1084; &#1079;&#1072;&#1076;&#1072;&#1095;&#1091; &#1076;&#1083;&#1103; &#1088;&#1086;&#1073;&#1086;&#1090;&#1086;&#1074;</text><polygon fill="#181818" points="486.5,1745.9375,476.5,1749.9375,486.5,1753.9375,482.5,1749.9375" style="stroke:#181818;stroke-width:1.0;"/><line style="stroke:#181818;stroke-width:1.0;" x1="480.5" x2="688.5" y1="1749.9375" y2="1749.9375"/><text fill="#000000" font-family="sans-serif" font-size="13" font-weight="bold" lengthAdjust="spacing" textLength="29" x="492.5" y="1744.8716">[32]</text><text fill="#000000" font-family="sans-serif" font-size="13" lengthAdjust="spacing" textLength="98" x="525.5" y="1744.8716">&#1079;&#1072;&#1082;&#1072;&#1079; &#1086;&#1087;&#1083;&#1072;&#1095;&#1077;&#1085;</text><polygon fill="#181818" points="298.5,1805.0703,288.5,1809.0703,298.5,1813.0703,294.5,1809.0703" style="stroke:#181818;stroke-width:1.0;"/><line style="stroke:#181818;stroke-width:1.0;" x1="292.5" x2="464.5" y1="1809.0703" y2="1809.0703"/><text fill="#000000" font-family="sans-serif" font-size="13" font-weight="bold" lengthAdjust="spacing" textLength="28" x="304.5" y="1804.0044">[33]</text><text fill="#000000" font-family="sans-serif" font-size="13" lengthAdjust="spacing" textLength="117" x="336.5" y="1804.0044">&#1091;&#1089;&#1087;&#1077;&#1096;&#1085;&#1072;&#1103; &#1086;&#1087;&#1083;&#1072;&#1090;&#1072;</text><polygon fill="#181818" points="61.5,1864.2031,51.5,1868.2031,61.5,1872.2031,57.5,1868.2031" style="stroke:#181818;stroke-width:1.0;"/><line style="stroke:#181818;stroke-width:1.0;" x1="55.5" x2="281.5" y1="1868.2031" y2="1868.2031"/><text fill="#000000" font-family="sans-serif" font-size="13" font-weight="bold" lengthAdjust="spacing" textLength="29" x="67.5" y="1863.1372">[34]</text><text fill="#000000" font-family="sans-serif" font-size="13" lengthAdjust="spacing" textLength="159" x="100.5" y="1863.1372">&#1055;&#1086;&#1082;&#1072;&#1079;&#1072;&#1090;&#1100; &#1085;&#1086;&#1084;&#1077;&#1088; &#1090;&#1072;&#1083;&#1086;&#1085;&#1072;</text><line style="stroke:#000000;stroke-width:1.0;stroke-dasharray:2.0,2.0;" x1="10" x2="1469" y1="1877.2031" y2="1877.2031"/><text fill="#000000" font-family="sans-serif" font-size="11" font-weight="bold" lengthAdjust="spacing" textLength="133" x="15" y="1887.4136">[&#1086;&#1087;&#1083;&#1072;&#1090;&#1072; &#1095;&#1077;&#1088;&#1077;&#1079; &#1057;&#1041;&#1055;]</text><rect fill="none" height="39.1016" style="stroke:#000000;stroke-width:1.5;" width="125" x="17" y="1891.0078"/><path d="M17,1891.0078 L85,1891.0078 L85,1898.0078 L75,1908.0078 L17,1908.0078 L17,1891.0078 " fill="#EEEEEE" style="stroke:#000000;stroke-width:2.0;"/><text fill="#000000" font-family="sans-serif" font-size="13" font-weight="bold" lengthAdjust="spacing" textLength="23" x="30" y="1905.0747">ref</text><text fill="#000000" font-family="sans-serif" font-size="12" lengthAdjust="spacing" textLength="117" x="21" y="1923.1465">&#1054;&#1087;&#1083;&#1072;&#1090;&#1072; &#1095;&#1077;&#1088;&#1077;&#1079; &#1057;&#1055;&#1041;</text><!--SRC=[bLRBRjDG4DtxAwxCigh46g4YAbYmGy2Eid0IWoobjkKwYEpIjEAXHgswGaAefOWFIDDKZPh4_OMvVyIPkNx6JGYBo8_Cd9avSsQkdMOSHCgc7pIb2LtJNFTjvUofPjjp_TXg19yKNT14x-i-_ftH4BQ_AA5BIdHVqKJHRznzeLiQskf173d-NkX4x8fBx3MzqF5ZfUpTeE6rNUM4eS3Z2koEttAYhh9VFN_zHZrz-IBzowluslGJySRwWAPwiEFZUgTxDAGHCaQ-oEranwSRl44Ek2Oq4vmWQhdHIgGU_AzCROoeFuE1YVX6xeTLdeYSw1E-H_n4k35-xQ3hjBsukz8veJi0317qI9n2f_l_1UDDsWJyCylIRaPjg-N4phQpvohxsRQyRJKirsyfjD9oEd7WTtORBbh-kB7rzk4xsx9CgzNc5dTbO-EHeZDz2EGUuoBBWIhOjM1YB3rOyjFcfXM4CUuyVY-aCuRUHvMWXhDKV8jY3g2JecCZVKINKjZyYHMvSIVo5OrfACaoP0aM_P343Cv0kZnY2e5dI1q2lM_q2_n3_D1D8McqLeIiSnBc4YvJTjFxsSEKaGgKMqu40L2Gj7z4ISKo3v726sRv2Nob71hU4KwO013qo3KiS5UIIy6tiO5qvOz17XisjNOkDwqqSxMTf5rdYeN1waoOgJcsGm72ZKOn5LPC_Hb23Ir91M5q3S6bWvr6GESoymMKLgEUpGIFCz7RjKa5OAN68jTAQbbd4-ac6c6r6WjHSd7NiHNank8xAirADLrnhgBKobKBrUO-QzMt98TwOG9RJYaLmDgG6K15tDn_CvKdgLjMKEPsl_fvfbCBrXsw93YOv-Ci_4451nQJvJEQYZMVltPS6Y7Ew8v75L2wnyDsp_PRPLsTc7-P5XHXnnVp7xdlLV0HrFFcf-_bfewOU_rLEd05FDnEzJ5NNLq4N1vWS6uiA3FdgR2NfSkMwwfGDW-__fQjwqKbTaASCkwocQdfYy-bnUn47LAto6uaHrwwIWk6v4IZF_bfrCDfYCyGWpJcubWSOv04qHL7OhQ1cIA6k4_iIvdAqayfgueSikGDPth4KYzhO8d2pwiADuCouuMlvFXctSx5cnLZkMqStXLfoJ73Noit_35sIkS5GUbt6fqjDJ-dqvmBlc8Y_W80]--></g></svg>