<?xml version="1.0" encoding="us-ascii" standalone="no"?><svg xmlns="http://www.w3.org/2000/svg" xmlns:xlink="http://www.w3.org/1999/xlink" contentStyleType="text/css" height="1088px" preserveAspectRatio="none" style="width:1302px;height:1088px;background:#FFFFFF;" version="1.1" viewBox="0 0 1302 1088" width="1302px" zoomAndPan="magnify"><defs/><g><rect fill="none" height="1069.4844" style="stroke:#181818;stroke-width:0.5;" width="967" x="322.5" y="6"/><text fill="#000000" font-family="sans-serif" font-size="13" font-weight="bold" lengthAdjust="spacing" textLength="199" x="704" y="18.0669">&#1057;&#1080;&#1089;&#1090;&#1077;&#1084;&#1072; "&#1056;&#1086;&#1073;&#1086;&#1090; &#1080; &#1058;&#1086;&#1095;&#1082;&#1072;"</text><rect fill="#FFFFFF" height="59.1328" style="stroke:#181818;stroke-width:1.0;" width="10" x="369.5" y="118.5625"/><rect fill="#FFFFFF" height="59.1328" style="stroke:#181818;stroke-width:1.0;" width="10" x="369.5" y="521.7578"/><rect fill="#FFFFFF" height="59.1328" style="stroke:#181818;stroke-width:1.0;" width="10" x="369.5" y="699.4219"/><rect fill="#FFFFFF" height="59.1328" style="stroke:#181818;stroke-width:1.0;" width="10" x="369.5" y="877.9531"/><rect fill="#FFFFFF" height="75.1328" style="stroke:#181818;stroke-width:1.0;" width="10" x="369.5" y="997.3516"/><rect fill="#FFFFFF" height="89.1328" style="stroke:#181818;stroke-width:1.0;" width="10" x="737.5" y="147.6953"/><rect fill="#FFFFFF" height="89.1328" style="stroke:#181818;stroke-width:1.0;" width="10" x="737.5" y="462.625"/><rect fill="#FFFFFF" height="59.1328" style="stroke:#181818;stroke-width:1.0;" width="10" x="737.5" y="670.2891"/><rect fill="#FFFFFF" height="89.1328" style="stroke:#181818;stroke-width:1.0;" width="10" x="737.5" y="818.8203"/><rect fill="#FFFFFF" height="59.1328" style="stroke:#181818;stroke-width:1.0;" width="10" x="737.5" y="968.2188"/><rect fill="#FFFFFF" height="285.7969" style="stroke:#181818;stroke-width:1.0;" width="10" x="980.5" y="206.8281"/><rect fill="#FFFFFF" height="28" style="stroke:#181818;stroke-width:1.0;" width="10" x="985.5" y="374.3594"/><rect fill="#FFFFFF" height="267.9297" style="stroke:#181818;stroke-width:1.0;" width="10" x="980.5" y="580.8906"/><rect fill="#FFFFFF" height="135.3984" style="stroke:#181818;stroke-width:1.0;" width="10" x="980.5" y="937.0859"/><rect fill="#FFFFFF" height="29.1328" style="stroke:#181818;stroke-width:1.0;" width="10" x="1262.5" y="308.0938"/><rect fill="#FFFFFF" height="29.1328" style="stroke:#181818;stroke-width:1.0;" width="10" x="1262.5" y="612.0234"/><rect fill="none" height="342.1953" style="stroke:#000000;stroke-width:1.5;" width="1285.5" x="10" y="424.3594"/><rect fill="none" height="283.9297" style="stroke:#000000;stroke-width:1.5;" width="1100" x="10" y="780.5547"/><line style="stroke:#181818;stroke-width:0.5;stroke-dasharray:5.0,5.0;" x1="50" x2="50" y1="87.4297" y2="1081.4844"/><line style="stroke:#181818;stroke-width:0.5;stroke-dasharray:5.0,5.0;" x1="374.5" x2="374.5" y1="87.4297" y2="1081.4844"/><line style="stroke:#181818;stroke-width:0.5;stroke-dasharray:5.0,5.0;" x1="742.5" x2="742.5" y1="87.4297" y2="1081.4844"/><line style="stroke:#181818;stroke-width:0.5;stroke-dasharray:5.0,5.0;" x1="985" x2="985" y1="87.4297" y2="1081.4844"/><line style="stroke:#181818;stroke-width:0.5;stroke-dasharray:5.0,5.0;" x1="1267.5" x2="1267.5" y1="87.4297" y2="1081.4844"/><text fill="#000000" font-family="sans-serif" font-size="14" lengthAdjust="spacing" textLength="55" x="20" y="84.1279">&#1050;&#1083;&#1080;&#1077;&#1085;&#1090;</text><ellipse cx="50.5" cy="19.6328" fill="#E2E2F0" rx="8" ry="8" style="stroke:#181818;stroke-width:0.5;"/><path d="M50.5,27.6328 L50.5,54.6328 M37.5,35.6328 L63.5,35.6328 M50.5,54.6328 L37.5,69.6328 M50.5,54.6328 L63.5,69.6328 " fill="none" style="stroke:#181818;stroke-width:0.5;"/><rect fill="#E2E2F0" height="30.2969" rx="2.5" ry="2.5" style="stroke:#181818;stroke-width:0.5;" width="96" x="326.5" y="56.1328"/><text fill="#000000" font-family="sans-serif" font-size="14" lengthAdjust="spacing" textLength="82" x="333.5" y="76.1279">mobile app</text><text fill="#000000" font-family="sans-serif" font-size="14" lengthAdjust="spacing" textLength="64" x="707.5" y="84.1279">REST API</text><path d="M722,43.1328 L722,67.1328 M722,55.1328 L739,55.1328 " fill="none" style="stroke:#181818;stroke-width:0.5;"/><ellipse cx="751" cy="55.1328" fill="#E2E2F0" rx="12" ry="12" style="stroke:#181818;stroke-width:0.5;"/><rect fill="#E2E2F0" height="30.2969" rx="2.5" ry="2.5" style="stroke:#181818;stroke-width:0.5;" width="229" x="871" y="56.1328"/><text fill="#000000" font-family="sans-serif" font-size="14" lengthAdjust="spacing" textLength="215" x="878" y="76.1279">&#1052;&#1086;&#1076;&#1091;&#1083;&#1100; &#1091;&#1087;&#1088;&#1072;&#1074;&#1083;&#1077;&#1085;&#1080;&#1103; &#1079;&#1072;&#1082;&#1072;&#1079;&#1086;&#1084;</text><text fill="#000000" font-family="sans-serif" font-size="14" lengthAdjust="spacing" textLength="21" x="1254" y="84.1279">DB</text><path d="M1249.5,35.1328 C1249.5,25.1328 1267.5,25.1328 1267.5,25.1328 C1267.5,25.1328 1285.5,25.1328 1285.5,35.1328 L1285.5,61.1328 C1285.5,71.1328 1267.5,71.1328 1267.5,71.1328 C1267.5,71.1328 1249.5,71.1328 1249.5,61.1328 L1249.5,35.1328 " fill="#E2E2F0" style="stroke:#181818;stroke-width:1.5;"/><path d="M1249.5,35.1328 C1249.5,45.1328 1267.5,45.1328 1267.5,45.1328 C1267.5,45.1328 1285.5,45.1328 1285.5,35.1328 " fill="none" style="stroke:#181818;stroke-width:1.5;"/><rect fill="#FFFFFF" height="59.1328" style="stroke:#181818;stroke-width:1.0;" width="10" x="369.5" y="118.5625"/><rect fill="#FFFFFF" height="59.1328" style="stroke:#181818;stroke-width:1.0;" width="10" x="369.5" y="521.7578"/><rect fill="#FFFFFF" height="59.1328" style="stroke:#181818;stroke-width:1.0;" width="10" x="369.5" y="699.4219"/><rect fill="#FFFFFF" height="59.1328" style="stroke:#181818;stroke-width:1.0;" width="10" x="369.5" y="877.9531"/><rect fill="#FFFFFF" height="75.1328" style="stroke:#181818;stroke-width:1.0;" width="10" x="369.5" y="997.3516"/><rect fill="#FFFFFF" height="89.1328" style="stroke:#181818;stroke-width:1.0;" width="10" x="737.5" y="147.6953"/><rect fill="#FFFFFF" height="89.1328" style="stroke:#181818;stroke-width:1.0;" width="10" x="737.5" y="462.625"/><rect fill="#FFFFFF" height="59.1328" style="stroke:#181818;stroke-width:1.0;" width="10" x="737.5" y="670.2891"/><rect fill="#FFFFFF" height="89.1328" style="stroke:#181818;stroke-width:1.0;" width="10" x="737.5" y="818.8203"/><rect fill="#FFFFFF" height="59.1328" style="stroke:#181818;stroke-width:1.0;" width="10" x="737.5" y="968.2188"/><rect fill="#FFFFFF" height="285.7969" style="stroke:#181818;stroke-width:1.0;" width="10" x="980.5" y="206.8281"/><rect fill="#FFFFFF" height="28" style="stroke:#181818;stroke-width:1.0;" width="10" x="985.5" y="374.3594"/><rect fill="#FFFFFF" height="267.9297" style="stroke:#181818;stroke-width:1.0;" width="10" x="980.5" y="580.8906"/><rect fill="#FFFFFF" height="135.3984" style="stroke:#181818;stroke-width:1.0;" width="10" x="980.5" y="937.0859"/><rect fill="#FFFFFF" height="29.1328" style="stroke:#181818;stroke-width:1.0;" width="10" x="1262.5" y="308.0938"/><rect fill="#FFFFFF" height="29.1328" style="stroke:#181818;stroke-width:1.0;" width="10" x="1262.5" y="612.0234"/><polygon fill="#181818" points="357.5,114.5625,367.5,118.5625,357.5,122.5625,361.5,118.5625" style="stroke:#181818;stroke-width:1.0;"/><line style="stroke:#181818;stroke-width:1.0;" x1="50.5" x2="363.5" y1="118.5625" y2="118.5625"/><text fill="#000000" font-family="sans-serif" font-size="13" font-weight="bold" lengthAdjust="spacing" textLength="21" x="57.5" y="113.4966">[1]</text><text fill="#000000" font-family="sans-serif" font-size="13" lengthAdjust="spacing" textLength="184" x="82.5" y="113.4966">&#1044;&#1086;&#1073;&#1072;&#1074;&#1080;&#1090;&#1100; &#1074; &#1082;&#1086;&#1088;&#1079;&#1080;&#1085;&#1091; &#1073;&#1083;&#1102;&#1076;&#1086;</text><polygon fill="#181818" points="725.5,143.6953,735.5,147.6953,725.5,151.6953,729.5,147.6953" style="stroke:#181818;stroke-width:1.0;"/><line style="stroke:#181818;stroke-width:1.0;" x1="379.5" x2="731.5" y1="147.6953" y2="147.6953"/><text fill="#000000" font-family="sans-serif" font-size="13" font-weight="bold" lengthAdjust="spacing" textLength="21" x="386.5" y="142.6294">[2]</text><text fill="#000000" font-family="sans-serif" font-size="13" lengthAdjust="spacing" textLength="144" x="411.5" y="142.6294">HTTP POST /cart/items</text><polygon fill="#181818" points="968.5,202.8281,978.5,206.8281,968.5,210.8281,972.5,206.8281" style="stroke:#181818;stroke-width:1.0;"/><line style="stroke:#181818;stroke-width:1.0;" x1="747.5" x2="974.5" y1="206.8281" y2="206.8281"/><text fill="#000000" font-family="sans-serif" font-size="13" font-weight="bold" lengthAdjust="spacing" textLength="20" x="754.5" y="201.7622">[3]</text><text fill="#000000" font-family="sans-serif" font-size="13" lengthAdjust="spacing" textLength="87" x="778.5" y="201.7622">createOrder()</text><line style="stroke:#181818;stroke-width:1.0;" x1="990.5" x2="1032.5" y1="265.9609" y2="265.9609"/><line style="stroke:#181818;stroke-width:1.0;" x1="1032.5" x2="1032.5" y1="265.9609" y2="278.9609"/><line style="stroke:#181818;stroke-width:1.0;" x1="991.5" x2="1032.5" y1="278.9609" y2="278.9609"/><polygon fill="#181818" points="1001.5,274.9609,991.5,278.9609,1001.5,282.9609,997.5,278.9609" style="stroke:#181818;stroke-width:1.0;"/><text fill="#000000" font-family="sans-serif" font-size="13" font-weight="bold" lengthAdjust="spacing" textLength="21" x="997.5" y="260.895">[4]</text><text fill="#000000" font-family="sans-serif" font-size="13" lengthAdjust="spacing" textLength="78" x="1022.5" y="260.895">createCart()</text><polygon fill="#181818" points="1250.5,304.0938,1260.5,308.0938,1250.5,312.0938,1254.5,308.0938" style="stroke:#181818;stroke-width:1.0;"/><line style="stroke:#181818;stroke-width:1.0;" x1="990.5" x2="1256.5" y1="308.0938" y2="308.0938"/><text fill="#000000" font-family="sans-serif" font-size="13" font-weight="bold" lengthAdjust="spacing" textLength="21" x="997.5" y="303.0278">[5]</text><text fill="#000000" font-family="sans-serif" font-size="13" lengthAdjust="spacing" textLength="228" x="1022.5" y="303.0278">&#1047;&#1072;&#1087;&#1088;&#1086;&#1089;: &#1087;&#1088;&#1086;&#1074;&#1077;&#1088;&#1082;&#1072; &#1085;&#1072;&#1083;&#1080;&#1095;&#1080;&#1103; &#1073;&#1083;&#1102;&#1076;&#1072;</text><polygon fill="#181818" points="1001.5,333.2266,991.5,337.2266,1001.5,341.2266,997.5,337.2266" style="stroke:#181818;stroke-width:1.0;"/><line style="stroke:#181818;stroke-width:1.0;stroke-dasharray:2.0,2.0;" x1="995.5" x2="1266.5" y1="337.2266" y2="337.2266"/><text fill="#000000" font-family="sans-serif" font-size="13" font-weight="bold" lengthAdjust="spacing" textLength="21" x="1007.5" y="332.1606">[6]</text><text fill="#000000" font-family="sans-serif" font-size="13" lengthAdjust="spacing" textLength="39" x="1032.5" y="332.1606">&#1054;&#1090;&#1074;&#1077;&#1090;</text><line style="stroke:#181818;stroke-width:1.0;" x1="995.5" x2="1037.5" y1="366.3594" y2="366.3594"/><line style="stroke:#181818;stroke-width:1.0;" x1="1037.5" x2="1037.5" y1="366.3594" y2="379.3594"/><line style="stroke:#181818;stroke-width:1.0;" x1="996.5" x2="1037.5" y1="379.3594" y2="379.3594"/><polygon fill="#181818" points="1006.5,375.3594,996.5,379.3594,1006.5,383.3594,1002.5,379.3594" style="stroke:#181818;stroke-width:1.0;"/><text fill="#000000" font-family="sans-serif" font-size="13" font-weight="bold" lengthAdjust="spacing" textLength="21" x="1002.5" y="361.2935">[7]</text><text fill="#000000" font-family="sans-serif" font-size="13" lengthAdjust="spacing" textLength="122" x="1027.5" y="361.2935">&#1054;&#1073;&#1088;&#1072;&#1073;&#1086;&#1090;&#1082;&#1072; &#1086;&#1090;&#1074;&#1077;&#1090;&#1072;</text><path d="M10,424.3594 L76,424.3594 L76,431.4922 L66,441.4922 L10,441.4922 L10,424.3594 " fill="#EEEEEE" style="stroke:#000000;stroke-width:1.5;"/><rect fill="none" height="342.1953" style="stroke:#000000;stroke-width:1.5;" width="1285.5" x="10" y="424.3594"/><text fill="#000000" font-family="sans-serif" font-size="13" font-weight="bold" lengthAdjust="spacing" textLength="21" x="25" y="437.4263">alt</text><polygon fill="#181818" points="758.5,458.625,748.5,462.625,758.5,466.625,754.5,462.625" style="stroke:#181818;stroke-width:1.0;"/><line style="stroke:#181818;stroke-width:1.0;" x1="752.5" x2="979.5" y1="462.625" y2="462.625"/><text fill="#000000" font-family="sans-serif" font-size="13" font-weight="bold" lengthAdjust="spacing" textLength="21" x="764.5" y="457.5591">[8]</text><text fill="#000000" font-family="sans-serif" font-size="13" lengthAdjust="spacing" textLength="180" x="789.5" y="457.5591">&#1050;&#1086;&#1083;&#1080;&#1095;&#1077;&#1089;&#1090;&#1074;&#1086; &#1085;&#1077; &#1076;&#1086;&#1089;&#1090;&#1072;&#1090;&#1086;&#1095;&#1085;&#1086;</text><polygon fill="#181818" points="390.5,517.7578,380.5,521.7578,390.5,525.7578,386.5,521.7578" style="stroke:#181818;stroke-width:1.0;"/><line style="stroke:#181818;stroke-width:1.0;" x1="384.5" x2="736.5" y1="521.7578" y2="521.7578"/><text fill="#000000" font-family="sans-serif" font-size="13" font-weight="bold" lengthAdjust="spacing" textLength="21" x="396.5" y="516.6919">[9]</text><text fill="#000000" font-family="sans-serif" font-size="13" lengthAdjust="spacing" textLength="304" x="421.5" y="516.6919">HTTP 400 &#1054;&#1090;&#1089;&#1091;&#1090;&#1089;&#1090;&#1074;&#1091;&#1077;&#1090; &#1091;&#1082;&#1072;&#1079;&#1072;&#1085;&#1085;&#1086;&#1077; &#1082;&#1086;&#1083;&#1080;&#1095;&#1077;&#1089;&#1090;&#1074;&#1086;</text><polygon fill="#181818" points="61.5,576.8906,51.5,580.8906,61.5,584.8906,57.5,580.8906" style="stroke:#181818;stroke-width:1.0;"/><line style="stroke:#181818;stroke-width:1.0;" x1="55.5" x2="373.5" y1="580.8906" y2="580.8906"/><text fill="#000000" font-family="sans-serif" font-size="13" font-weight="bold" lengthAdjust="spacing" textLength="31" x="67.5" y="575.8247">[10]</text><text fill="#000000" font-family="sans-serif" font-size="13" lengthAdjust="spacing" textLength="260" x="102.5" y="575.8247">&#1041;&#1083;&#1102;&#1076;&#1086; &#1079;&#1072;&#1082;&#1086;&#1085;&#1095;&#1080;&#1083;&#1086;&#1089;&#1100;, &#1074;&#1099;&#1073;&#1077;&#1088;&#1077;&#1090;&#1077; &#1076;&#1088;&#1091;&#1075;&#1086;&#1077;</text><line style="stroke:#000000;stroke-width:1.0;stroke-dasharray:2.0,2.0;" x1="10" x2="1295.5" y1="589.8906" y2="589.8906"/><polygon fill="#181818" points="1250.5,608.0234,1260.5,612.0234,1250.5,616.0234,1254.5,612.0234" style="stroke:#181818;stroke-width:1.0;"/><line style="stroke:#181818;stroke-width:1.0;" x1="990.5" x2="1256.5" y1="612.0234" y2="612.0234"/><text fill="#000000" font-family="sans-serif" font-size="13" font-weight="bold" lengthAdjust="spacing" textLength="30" x="997.5" y="606.9575">[11]</text><text fill="#000000" font-family="sans-serif" font-size="13" lengthAdjust="spacing" textLength="212" x="1031.5" y="606.9575">&#1047;&#1072;&#1087;&#1088;&#1086;&#1089; &#1085;&#1072; &#1086;&#1073;&#1085;&#1086;&#1074;&#1083;&#1077;&#1085;&#1080;&#1077; &#1082;&#1086;&#1088;&#1079;&#1080;&#1085;&#1099;</text><polygon fill="#181818" points="1001.5,637.1563,991.5,641.1563,1001.5,645.1563,997.5,641.1563" style="stroke:#181818;stroke-width:1.0;"/><line style="stroke:#181818;stroke-width:1.0;stroke-dasharray:2.0,2.0;" x1="995.5" x2="1266.5" y1="641.1563" y2="641.1563"/><text fill="#000000" font-family="sans-serif" font-size="13" font-weight="bold" lengthAdjust="spacing" textLength="30" x="1007.5" y="636.0903">[12]</text><text fill="#000000" font-family="sans-serif" font-size="13" lengthAdjust="spacing" textLength="59" x="1041.5" y="636.0903">&#1054;&#1090;&#1074;&#1077;&#1090; &#1086;&#1082;</text><polygon fill="#181818" points="758.5,666.2891,748.5,670.2891,758.5,674.2891,754.5,670.2891" style="stroke:#181818;stroke-width:1.0;"/><line style="stroke:#181818;stroke-width:1.0;" x1="752.5" x2="979.5" y1="670.2891" y2="670.2891"/><text fill="#000000" font-family="sans-serif" font-size="13" font-weight="bold" lengthAdjust="spacing" textLength="29" x="764.5" y="665.2231">[13]</text><text fill="#000000" font-family="sans-serif" font-size="13" lengthAdjust="spacing" textLength="134" x="797.5" y="665.2231">&#1044;&#1086;&#1073;&#1072;&#1074;&#1080;&#1090;&#1100; &#1074; &#1082;&#1086;&#1088;&#1079;&#1080;&#1085;&#1091;</text><polygon fill="#181818" points="390.5,695.4219,380.5,699.4219,390.5,703.4219,386.5,699.4219" style="stroke:#181818;stroke-width:1.0;"/><line style="stroke:#181818;stroke-width:1.0;" x1="384.5" x2="736.5" y1="699.4219" y2="699.4219"/><text fill="#000000" font-family="sans-serif" font-size="13" font-weight="bold" lengthAdjust="spacing" textLength="30" x="396.5" y="694.356">[14]</text><text fill="#000000" font-family="sans-serif" font-size="13" lengthAdjust="spacing" textLength="259" x="430.5" y="694.356">HTTP 201 &#1041;&#1083;&#1102;&#1076;&#1086; &#1076;&#1086;&#1073;&#1072;&#1074;&#1083;&#1077;&#1085;&#1086; &#1074; &#1082;&#1086;&#1088;&#1079;&#1080;&#1085;&#1091;</text><polygon fill="#181818" points="61.5,754.5547,51.5,758.5547,61.5,762.5547,57.5,758.5547" style="stroke:#181818;stroke-width:1.0;"/><line style="stroke:#181818;stroke-width:1.0;" x1="55.5" x2="373.5" y1="758.5547" y2="758.5547"/><text fill="#000000" font-family="sans-serif" font-size="13" font-weight="bold" lengthAdjust="spacing" textLength="30" x="67.5" y="753.4888">[15]</text><text fill="#000000" font-family="sans-serif" font-size="13" lengthAdjust="spacing" textLength="116" x="101.5" y="753.4888">&#1041;&#1083;&#1102;&#1076;&#1086; &#1074; &#1082;&#1086;&#1088;&#1079;&#1080;&#1085;&#1077;</text><path d="M10,780.5547 L76,780.5547 L76,787.6875 L66,797.6875 L10,797.6875 L10,780.5547 " fill="#EEEEEE" style="stroke:#000000;stroke-width:1.5;"/><rect fill="none" height="283.9297" style="stroke:#000000;stroke-width:1.5;" width="1100" x="10" y="780.5547"/><text fill="#000000" font-family="sans-serif" font-size="13" font-weight="bold" lengthAdjust="spacing" textLength="21" x="25" y="793.6216">alt</text><polygon fill="#181818" points="758.5,814.8203,748.5,818.8203,758.5,822.8203,754.5,818.8203" style="stroke:#181818;stroke-width:1.0;"/><line style="stroke:#181818;stroke-width:1.0;" x1="752.5" x2="979.5" y1="818.8203" y2="818.8203"/><text fill="#000000" font-family="sans-serif" font-size="13" font-weight="bold" lengthAdjust="spacing" textLength="30" x="764.5" y="813.7544">[16]</text><text fill="#000000" font-family="sans-serif" font-size="13" lengthAdjust="spacing" textLength="134" x="798.5" y="813.7544">&#1044;&#1086;&#1073;&#1072;&#1074;&#1080;&#1090;&#1100; &#1074; &#1082;&#1086;&#1088;&#1079;&#1080;&#1085;&#1091;</text><polygon fill="#181818" points="390.5,873.9531,380.5,877.9531,390.5,881.9531,386.5,877.9531" style="stroke:#181818;stroke-width:1.0;"/><line style="stroke:#181818;stroke-width:1.0;" x1="384.5" x2="736.5" y1="877.9531" y2="877.9531"/><text fill="#000000" font-family="sans-serif" font-size="13" font-weight="bold" lengthAdjust="spacing" textLength="30" x="396.5" y="872.8872">[17]</text><text fill="#000000" font-family="sans-serif" font-size="13" lengthAdjust="spacing" textLength="259" x="430.5" y="872.8872">HTTP 201 &#1041;&#1083;&#1102;&#1076;&#1086; &#1076;&#1086;&#1073;&#1072;&#1074;&#1083;&#1077;&#1085;&#1086; &#1074; &#1082;&#1086;&#1088;&#1079;&#1080;&#1085;&#1091;</text><polygon fill="#181818" points="61.5,933.0859,51.5,937.0859,61.5,941.0859,57.5,937.0859" style="stroke:#181818;stroke-width:1.0;"/><line style="stroke:#181818;stroke-width:1.0;" x1="55.5" x2="373.5" y1="937.0859" y2="937.0859"/><text fill="#000000" font-family="sans-serif" font-size="13" font-weight="bold" lengthAdjust="spacing" textLength="30" x="67.5" y="932.02">[18]</text><text fill="#000000" font-family="sans-serif" font-size="13" lengthAdjust="spacing" textLength="116" x="101.5" y="932.02">&#1041;&#1083;&#1102;&#1076;&#1086; &#1074; &#1082;&#1086;&#1088;&#1079;&#1080;&#1085;&#1077;</text><line style="stroke:#000000;stroke-width:1.0;stroke-dasharray:2.0,2.0;" x1="10" x2="1110" y1="946.0859" y2="946.0859"/><polygon fill="#181818" points="758.5,964.2188,748.5,968.2188,758.5,972.2188,754.5,968.2188" style="stroke:#181818;stroke-width:1.0;"/><line style="stroke:#181818;stroke-width:1.0;" x1="752.5" x2="979.5" y1="968.2188" y2="968.2188"/><text fill="#000000" font-family="sans-serif" font-size="13" font-weight="bold" lengthAdjust="spacing" textLength="30" x="764.5" y="963.1528">[19]</text><text fill="#000000" font-family="sans-serif" font-size="13" lengthAdjust="spacing" textLength="180" x="798.5" y="963.1528">&#1050;&#1086;&#1083;&#1080;&#1095;&#1077;&#1089;&#1090;&#1074;&#1086; &#1085;&#1077; &#1076;&#1086;&#1089;&#1090;&#1072;&#1090;&#1086;&#1095;&#1085;&#1086;</text><polygon fill="#181818" points="390.5,993.3516,380.5,997.3516,390.5,1001.3516,386.5,997.3516" style="stroke:#181818;stroke-width:1.0;"/><line style="stroke:#181818;stroke-width:1.0;" x1="384.5" x2="736.5" y1="997.3516" y2="997.3516"/><text fill="#000000" font-family="sans-serif" font-size="13" font-weight="bold" lengthAdjust="spacing" textLength="31" x="396.5" y="992.2856">[20]</text><text fill="#000000" font-family="sans-serif" font-size="13" lengthAdjust="spacing" textLength="304" x="431.5" y="992.2856">HTTP 400 &#1054;&#1090;&#1089;&#1091;&#1090;&#1089;&#1090;&#1074;&#1091;&#1077;&#1090; &#1091;&#1082;&#1072;&#1079;&#1072;&#1085;&#1085;&#1086;&#1077; &#1082;&#1086;&#1083;&#1080;&#1095;&#1077;&#1089;&#1090;&#1074;&#1086;</text><polygon fill="#181818" points="61.5,1052.4844,51.5,1056.4844,61.5,1060.4844,57.5,1056.4844" style="stroke:#181818;stroke-width:1.0;"/><line style="stroke:#181818;stroke-width:1.0;" x1="55.5" x2="368.5" y1="1056.4844" y2="1056.4844"/><text fill="#000000" font-family="sans-serif" font-size="13" font-weight="bold" lengthAdjust="spacing" textLength="30" x="67.5" y="1051.4185">[21]</text><text fill="#000000" font-family="sans-serif" font-size="13" lengthAdjust="spacing" textLength="260" x="101.5" y="1051.4185">&#1041;&#1083;&#1102;&#1076;&#1086; &#1079;&#1072;&#1082;&#1086;&#1085;&#1095;&#1080;&#1083;&#1086;&#1089;&#1100;, &#1074;&#1099;&#1073;&#1077;&#1088;&#1077;&#1090;&#1077; &#1076;&#1088;&#1091;&#1075;&#1086;&#1077;</text><!--SRC=[rLB1YjDG5Ds_hxZ4ZJAMgU9APC1HGLTJj3jnyT8yCT0c9Kr1TpFjmiKCYY088eFw1PdQCgMTnb-uxuyyzoLfgQqpu49mqRuaxzvppptdw5OQ9-JnPvxpb2Uyi0EFT8zQxT14gVBZryJVU6gFx02t5voXzYldVCQv7H1FYR_ZwItFEFFeMfhegDVLYRJYICDMsDLHIkHrOZzi6zBTheF72Un-5EZa3NbF7prhqlt6a_8gNElr-0lcZUsGv_Q4SFoqXvpn28H15zJU4v_Z0nZWpFd2eSH9O18Lw5JlwvuXx-6- -npuoaG1OItrAWmClOpZL5vqFusZViStqEAUl_Uy_i9Jgj20Qdj2TsVdBl57jxaCdze1sF28C3S7eNEejx13mlNSlkCnvmfDHMyelO-RpGOr3h3eRWlRxOQfwVIafbR3VoYLZhFKjXAZKtCWhzTlo2rgtEMoggfv02YKk6-u2tn7ynCeYagvFSARUmBb2Kw8H10j4xVXcXElOfofnAJz928-XTbIF_XjgWC_vJDdW4j00PXNzS0egDIKqkrqrLwAW9ZbvUY9YzI8S-4p8L7CVSdmaq0je625LUfJkk2Kl5ElEvxe6Rf_O24Ru20HARAG0GGmWZxRd5lgMhfKU0s67oh_gbJby1LAeLq8djo4wVOOsukSih9mjuSO-aD6bOwQTi-eKhEL2flsE3F8fMhXJ2f3NN9U1kjuqnlfccqgV6L4jwbvktvhRVFn4gJWas-7kLo-zOwLD56Wr1_YSJNvIoBnJvVOwk_VfVn_IZVC-mK0]--></g></svg>