<?xml version="1.0" encoding="us-ascii" standalone="no"?><svg xmlns="http://www.w3.org/2000/svg" xmlns:xlink="http://www.w3.org/1999/xlink" contentStyleType="text/css" height="790px" preserveAspectRatio="none" style="width:1283px;height:790px;background:#FFFFFF;" version="1.1" viewBox="0 0 1283 790" width="1283px" zoomAndPan="magnify"><defs/><g><rect fill="none" height="771.5547" style="stroke:#181818;stroke-width:0.5;" width="948" x="322.5" y="6"/><text fill="#000000" font-family="sans-serif" font-size="13" font-weight="bold" lengthAdjust="spacing" textLength="199" x="694.5" y="18.0669">&#1057;&#1080;&#1089;&#1090;&#1077;&#1084;&#1072; "&#1056;&#1086;&#1073;&#1086;&#1090; &#1080; &#1058;&#1086;&#1095;&#1082;&#1072;"</text><rect fill="#FFFFFF" height="59.1328" style="stroke:#181818;stroke-width:1.0;" width="10" x="369.5" y="118.5625"/><rect fill="#FFFFFF" height="59.1328" style="stroke:#181818;stroke-width:1.0;" width="10" x="369.5" y="521.7578"/><rect fill="#FFFFFF" height="59.1328" style="stroke:#181818;stroke-width:1.0;" width="10" x="369.5" y="699.4219"/><rect fill="#FFFFFF" height="89.1328" style="stroke:#181818;stroke-width:1.0;" width="10" x="727.5" y="147.6953"/><rect fill="#FFFFFF" height="89.1328" style="stroke:#181818;stroke-width:1.0;" width="10" x="727.5" y="462.625"/><rect fill="#FFFFFF" height="59.1328" style="stroke:#181818;stroke-width:1.0;" width="10" x="727.5" y="670.2891"/><rect fill="#FFFFFF" height="285.7969" style="stroke:#181818;stroke-width:1.0;" width="10" x="961.5" y="206.8281"/><rect fill="#FFFFFF" height="28" style="stroke:#181818;stroke-width:1.0;" width="10" x="966.5" y="374.3594"/><rect fill="#FFFFFF" height="193.6641" style="stroke:#181818;stroke-width:1.0;" width="10" x="961.5" y="580.8906"/><rect fill="#FFFFFF" height="29.1328" style="stroke:#181818;stroke-width:1.0;" width="10" x="1243.5" y="308.0938"/><rect fill="#FFFFFF" height="29.1328" style="stroke:#181818;stroke-width:1.0;" width="10" x="1243.5" y="612.0234"/><rect fill="none" height="342.1953" style="stroke:#000000;stroke-width:1.5;" width="1266.5" x="10" y="424.3594"/><line style="stroke:#181818;stroke-width:0.5;stroke-dasharray:5.0,5.0;" x1="50" x2="50" y1="87.4297" y2="783.5547"/><line style="stroke:#181818;stroke-width:0.5;stroke-dasharray:5.0,5.0;" x1="374.5" x2="374.5" y1="87.4297" y2="783.5547"/><line style="stroke:#181818;stroke-width:0.5;stroke-dasharray:5.0,5.0;" x1="732.5" x2="732.5" y1="87.4297" y2="783.5547"/><line style="stroke:#181818;stroke-width:0.5;stroke-dasharray:5.0,5.0;" x1="966" x2="966" y1="87.4297" y2="783.5547"/><line style="stroke:#181818;stroke-width:0.5;stroke-dasharray:5.0,5.0;" x1="1248.5" x2="1248.5" y1="87.4297" y2="783.5547"/><text fill="#000000" font-family="sans-serif" font-size="14" lengthAdjust="spacing" textLength="55" x="20" y="84.1279">&#1050;&#1083;&#1080;&#1077;&#1085;&#1090;</text><ellipse cx="50.5" cy="19.6328" fill="#E2E2F0" rx="8" ry="8" style="stroke:#181818;stroke-width:0.5;"/><path d="M50.5,27.6328 L50.5,54.6328 M37.5,35.6328 L63.5,35.6328 M50.5,54.6328 L37.5,69.6328 M50.5,54.6328 L63.5,69.6328 " fill="none" style="stroke:#181818;stroke-width:0.5;"/><rect fill="#E2E2F0" height="30.2969" rx="2.5" ry="2.5" style="stroke:#181818;stroke-width:0.5;" width="96" x="326.5" y="56.1328"/><text fill="#000000" font-family="sans-serif" font-size="14" lengthAdjust="spacing" textLength="82" x="333.5" y="76.1279">mobile app</text><text fill="#000000" font-family="sans-serif" font-size="14" lengthAdjust="spacing" textLength="64" x="697.5" y="84.1279">REST API</text><path d="M712,43.1328 L712,67.1328 M712,55.1328 L729,55.1328 " fill="none" style="stroke:#181818;stroke-width:0.5;"/><ellipse cx="741" cy="55.1328" fill="#E2E2F0" rx="12" ry="12" style="stroke:#181818;stroke-width:0.5;"/><rect fill="#E2E2F0" height="30.2969" rx="2.5" ry="2.5" style="stroke:#181818;stroke-width:0.5;" width="229" x="852" y="56.1328"/><text fill="#000000" font-family="sans-serif" font-size="14" lengthAdjust="spacing" textLength="215" x="859" y="76.1279">&#1052;&#1086;&#1076;&#1091;&#1083;&#1100; &#1091;&#1087;&#1088;&#1072;&#1074;&#1083;&#1077;&#1085;&#1080;&#1103; &#1079;&#1072;&#1082;&#1072;&#1079;&#1086;&#1084;</text><text fill="#000000" font-family="sans-serif" font-size="14" lengthAdjust="spacing" textLength="21" x="1235" y="84.1279">DB</text><path d="M1230.5,35.1328 C1230.5,25.1328 1248.5,25.1328 1248.5,25.1328 C1248.5,25.1328 1266.5,25.1328 1266.5,35.1328 L1266.5,61.1328 C1266.5,71.1328 1248.5,71.1328 1248.5,71.1328 C1248.5,71.1328 1230.5,71.1328 1230.5,61.1328 L1230.5,35.1328 " fill="#E2E2F0" style="stroke:#181818;stroke-width:1.5;"/><path d="M1230.5,35.1328 C1230.5,45.1328 1248.5,45.1328 1248.5,45.1328 C1248.5,45.1328 1266.5,45.1328 1266.5,35.1328 " fill="none" style="stroke:#181818;stroke-width:1.5;"/><rect fill="#FFFFFF" height="59.1328" style="stroke:#181818;stroke-width:1.0;" width="10" x="369.5" y="118.5625"/><rect fill="#FFFFFF" height="59.1328" style="stroke:#181818;stroke-width:1.0;" width="10" x="369.5" y="521.7578"/><rect fill="#FFFFFF" height="59.1328" style="stroke:#181818;stroke-width:1.0;" width="10" x="369.5" y="699.4219"/><rect fill="#FFFFFF" height="89.1328" style="stroke:#181818;stroke-width:1.0;" width="10" x="727.5" y="147.6953"/><rect fill="#FFFFFF" height="89.1328" style="stroke:#181818;stroke-width:1.0;" width="10" x="727.5" y="462.625"/><rect fill="#FFFFFF" height="59.1328" style="stroke:#181818;stroke-width:1.0;" width="10" x="727.5" y="670.2891"/><rect fill="#FFFFFF" height="285.7969" style="stroke:#181818;stroke-width:1.0;" width="10" x="961.5" y="206.8281"/><rect fill="#FFFFFF" height="28" style="stroke:#181818;stroke-width:1.0;" width="10" x="966.5" y="374.3594"/><rect fill="#FFFFFF" height="193.6641" style="stroke:#181818;stroke-width:1.0;" width="10" x="961.5" y="580.8906"/><rect fill="#FFFFFF" height="29.1328" style="stroke:#181818;stroke-width:1.0;" width="10" x="1243.5" y="308.0938"/><rect fill="#FFFFFF" height="29.1328" style="stroke:#181818;stroke-width:1.0;" width="10" x="1243.5" y="612.0234"/><polygon fill="#181818" points="357.5,114.5625,367.5,118.5625,357.5,122.5625,361.5,118.5625" style="stroke:#181818;stroke-width:1.0;"/><line style="stroke:#181818;stroke-width:1.0;" x1="50.5" x2="363.5" y1="118.5625" y2="118.5625"/><text fill="#000000" font-family="sans-serif" font-size="13" font-weight="bold" lengthAdjust="spacing" textLength="21" x="57.5" y="113.4966">[1]</text><text fill="#000000" font-family="sans-serif" font-size="13" lengthAdjust="spacing" textLength="184" x="82.5" y="113.4966">&#1044;&#1086;&#1073;&#1072;&#1074;&#1080;&#1090;&#1100; &#1074; &#1082;&#1086;&#1088;&#1079;&#1080;&#1085;&#1091; &#1073;&#1083;&#1102;&#1076;&#1086;</text><polygon fill="#181818" points="715.5,143.6953,725.5,147.6953,715.5,151.6953,719.5,147.6953" style="stroke:#181818;stroke-width:1.0;"/><line style="stroke:#181818;stroke-width:1.0;" x1="379.5" x2="721.5" y1="147.6953" y2="147.6953"/><text fill="#000000" font-family="sans-serif" font-size="13" font-weight="bold" lengthAdjust="spacing" textLength="21" x="386.5" y="142.6294">[2]</text><text fill="#000000" font-family="sans-serif" font-size="13" lengthAdjust="spacing" textLength="144" x="411.5" y="142.6294">HTTP POST /cart/items</text><polygon fill="#181818" points="949.5,202.8281,959.5,206.8281,949.5,210.8281,953.5,206.8281" style="stroke:#181818;stroke-width:1.0;"/><line style="stroke:#181818;stroke-width:1.0;" x1="737.5" x2="955.5" y1="206.8281" y2="206.8281"/><text fill="#000000" font-family="sans-serif" font-size="13" font-weight="bold" lengthAdjust="spacing" textLength="20" x="744.5" y="201.7622">[3]</text><text fill="#000000" font-family="sans-serif" font-size="13" lengthAdjust="spacing" textLength="87" x="768.5" y="201.7622">createOrder()</text><line style="stroke:#181818;stroke-width:1.0;" x1="971.5" x2="1013.5" y1="265.9609" y2="265.9609"/><line style="stroke:#181818;stroke-width:1.0;" x1="1013.5" x2="1013.5" y1="265.9609" y2="278.9609"/><line style="stroke:#181818;stroke-width:1.0;" x1="972.5" x2="1013.5" y1="278.9609" y2="278.9609"/><polygon fill="#181818" points="982.5,274.9609,972.5,278.9609,982.5,282.9609,978.5,278.9609" style="stroke:#181818;stroke-width:1.0;"/><text fill="#000000" font-family="sans-serif" font-size="13" font-weight="bold" lengthAdjust="spacing" textLength="21" x="978.5" y="260.895">[4]</text><text fill="#000000" font-family="sans-serif" font-size="13" lengthAdjust="spacing" textLength="78" x="1003.5" y="260.895">createCart()</text><polygon fill="#181818" points="1231.5,304.0938,1241.5,308.0938,1231.5,312.0938,1235.5,308.0938" style="stroke:#181818;stroke-width:1.0;"/><line style="stroke:#181818;stroke-width:1.0;" x1="971.5" x2="1237.5" y1="308.0938" y2="308.0938"/><text fill="#000000" font-family="sans-serif" font-size="13" font-weight="bold" lengthAdjust="spacing" textLength="21" x="978.5" y="303.0278">[5]</text><text fill="#000000" font-family="sans-serif" font-size="13" lengthAdjust="spacing" textLength="228" x="1003.5" y="303.0278">&#1047;&#1072;&#1087;&#1088;&#1086;&#1089;: &#1087;&#1088;&#1086;&#1074;&#1077;&#1088;&#1082;&#1072; &#1085;&#1072;&#1083;&#1080;&#1095;&#1080;&#1103; &#1073;&#1083;&#1102;&#1076;&#1072;</text><polygon fill="#181818" points="982.5,333.2266,972.5,337.2266,982.5,341.2266,978.5,337.2266" style="stroke:#181818;stroke-width:1.0;"/><line style="stroke:#181818;stroke-width:1.0;stroke-dasharray:2.0,2.0;" x1="976.5" x2="1247.5" y1="337.2266" y2="337.2266"/><text fill="#000000" font-family="sans-serif" font-size="13" font-weight="bold" lengthAdjust="spacing" textLength="21" x="988.5" y="332.1606">[6]</text><text fill="#000000" font-family="sans-serif" font-size="13" lengthAdjust="spacing" textLength="39" x="1013.5" y="332.1606">&#1054;&#1090;&#1074;&#1077;&#1090;</text><line style="stroke:#181818;stroke-width:1.0;" x1="976.5" x2="1018.5" y1="366.3594" y2="366.3594"/><line style="stroke:#181818;stroke-width:1.0;" x1="1018.5" x2="1018.5" y1="366.3594" y2="379.3594"/><line style="stroke:#181818;stroke-width:1.0;" x1="977.5" x2="1018.5" y1="379.3594" y2="379.3594"/><polygon fill="#181818" points="987.5,375.3594,977.5,379.3594,987.5,383.3594,983.5,379.3594" style="stroke:#181818;stroke-width:1.0;"/><text fill="#000000" font-family="sans-serif" font-size="13" font-weight="bold" lengthAdjust="spacing" textLength="21" x="983.5" y="361.2935">[7]</text><text fill="#000000" font-family="sans-serif" font-size="13" lengthAdjust="spacing" textLength="122" x="1008.5" y="361.2935">&#1054;&#1073;&#1088;&#1072;&#1073;&#1086;&#1090;&#1082;&#1072; &#1086;&#1090;&#1074;&#1077;&#1090;&#1072;</text><path d="M10,424.3594 L76,424.3594 L76,431.4922 L66,441.4922 L10,441.4922 L10,424.3594 " fill="#EEEEEE" style="stroke:#000000;stroke-width:1.5;"/><rect fill="none" height="342.1953" style="stroke:#000000;stroke-width:1.5;" width="1266.5" x="10" y="424.3594"/><text fill="#000000" font-family="sans-serif" font-size="13" font-weight="bold" lengthAdjust="spacing" textLength="21" x="25" y="437.4263">alt</text><polygon fill="#181818" points="748.5,458.625,738.5,462.625,748.5,466.625,744.5,462.625" style="stroke:#181818;stroke-width:1.0;"/><line style="stroke:#181818;stroke-width:1.0;" x1="742.5" x2="960.5" y1="462.625" y2="462.625"/><text fill="#000000" font-family="sans-serif" font-size="13" font-weight="bold" lengthAdjust="spacing" textLength="21" x="754.5" y="457.5591">[8]</text><text fill="#000000" font-family="sans-serif" font-size="13" lengthAdjust="spacing" textLength="180" x="779.5" y="457.5591">&#1050;&#1086;&#1083;&#1080;&#1095;&#1077;&#1089;&#1090;&#1074;&#1086; &#1085;&#1077; &#1076;&#1086;&#1089;&#1090;&#1072;&#1090;&#1086;&#1095;&#1085;&#1086;</text><polygon fill="#181818" points="390.5,517.7578,380.5,521.7578,390.5,525.7578,386.5,521.7578" style="stroke:#181818;stroke-width:1.0;"/><line style="stroke:#181818;stroke-width:1.0;" x1="384.5" x2="726.5" y1="521.7578" y2="521.7578"/><text fill="#000000" font-family="sans-serif" font-size="13" font-weight="bold" lengthAdjust="spacing" textLength="21" x="396.5" y="516.6919">[9]</text><text fill="#000000" font-family="sans-serif" font-size="13" lengthAdjust="spacing" textLength="304" x="421.5" y="516.6919">HTTP 400 &#1054;&#1090;&#1089;&#1091;&#1090;&#1089;&#1090;&#1074;&#1091;&#1077;&#1090; &#1091;&#1082;&#1072;&#1079;&#1072;&#1085;&#1085;&#1086;&#1077; &#1082;&#1086;&#1083;&#1080;&#1095;&#1077;&#1089;&#1090;&#1074;&#1086;</text><polygon fill="#181818" points="61.5,576.8906,51.5,580.8906,61.5,584.8906,57.5,580.8906" style="stroke:#181818;stroke-width:1.0;"/><line style="stroke:#181818;stroke-width:1.0;" x1="55.5" x2="373.5" y1="580.8906" y2="580.8906"/><text fill="#000000" font-family="sans-serif" font-size="13" font-weight="bold" lengthAdjust="spacing" textLength="31" x="67.5" y="575.8247">[10]</text><text fill="#000000" font-family="sans-serif" font-size="13" lengthAdjust="spacing" textLength="260" x="102.5" y="575.8247">&#1041;&#1083;&#1102;&#1076;&#1086; &#1079;&#1072;&#1082;&#1086;&#1085;&#1095;&#1080;&#1083;&#1086;&#1089;&#1100;, &#1074;&#1099;&#1073;&#1077;&#1088;&#1077;&#1090;&#1077; &#1076;&#1088;&#1091;&#1075;&#1086;&#1077;</text><line style="stroke:#000000;stroke-width:1.0;stroke-dasharray:2.0,2.0;" x1="10" x2="1276.5" y1="589.8906" y2="589.8906"/><polygon fill="#181818" points="1231.5,608.0234,1241.5,612.0234,1231.5,616.0234,1235.5,612.0234" style="stroke:#181818;stroke-width:1.0;"/><line style="stroke:#181818;stroke-width:1.0;" x1="971.5" x2="1237.5" y1="612.0234" y2="612.0234"/><text fill="#000000" font-family="sans-serif" font-size="13" font-weight="bold" lengthAdjust="spacing" textLength="30" x="978.5" y="606.9575">[11]</text><text fill="#000000" font-family="sans-serif" font-size="13" lengthAdjust="spacing" textLength="212" x="1012.5" y="606.9575">&#1047;&#1072;&#1087;&#1088;&#1086;&#1089; &#1085;&#1072; &#1086;&#1073;&#1085;&#1086;&#1074;&#1083;&#1077;&#1085;&#1080;&#1077; &#1082;&#1086;&#1088;&#1079;&#1080;&#1085;&#1099;</text><polygon fill="#181818" points="982.5,637.1563,972.5,641.1563,982.5,645.1563,978.5,641.1563" style="stroke:#181818;stroke-width:1.0;"/><line style="stroke:#181818;stroke-width:1.0;stroke-dasharray:2.0,2.0;" x1="976.5" x2="1247.5" y1="641.1563" y2="641.1563"/><text fill="#000000" font-family="sans-serif" font-size="13" font-weight="bold" lengthAdjust="spacing" textLength="30" x="988.5" y="636.0903">[12]</text><text fill="#000000" font-family="sans-serif" font-size="13" lengthAdjust="spacing" textLength="59" x="1022.5" y="636.0903">&#1054;&#1090;&#1074;&#1077;&#1090; &#1086;&#1082;</text><polygon fill="#181818" points="748.5,666.2891,738.5,670.2891,748.5,674.2891,744.5,670.2891" style="stroke:#181818;stroke-width:1.0;"/><line style="stroke:#181818;stroke-width:1.0;" x1="742.5" x2="960.5" y1="670.2891" y2="670.2891"/><text fill="#000000" font-family="sans-serif" font-size="13" font-weight="bold" lengthAdjust="spacing" textLength="29" x="754.5" y="665.2231">[13]</text><text fill="#000000" font-family="sans-serif" font-size="13" lengthAdjust="spacing" textLength="134" x="787.5" y="665.2231">&#1044;&#1086;&#1073;&#1072;&#1074;&#1080;&#1090;&#1100; &#1074; &#1082;&#1086;&#1088;&#1079;&#1080;&#1085;&#1091;</text><polygon fill="#181818" points="390.5,695.4219,380.5,699.4219,390.5,703.4219,386.5,699.4219" style="stroke:#181818;stroke-width:1.0;"/><line style="stroke:#181818;stroke-width:1.0;" x1="384.5" x2="726.5" y1="699.4219" y2="699.4219"/><text fill="#000000" font-family="sans-serif" font-size="13" font-weight="bold" lengthAdjust="spacing" textLength="30" x="396.5" y="694.356">[14]</text><text fill="#000000" font-family="sans-serif" font-size="13" lengthAdjust="spacing" textLength="259" x="430.5" y="694.356">HTTP 201 &#1041;&#1083;&#1102;&#1076;&#1086; &#1076;&#1086;&#1073;&#1072;&#1074;&#1083;&#1077;&#1085;&#1086; &#1074; &#1082;&#1086;&#1088;&#1079;&#1080;&#1085;&#1091;</text><polygon fill="#181818" points="61.5,754.5547,51.5,758.5547,61.5,762.5547,57.5,758.5547" style="stroke:#181818;stroke-width:1.0;"/><line style="stroke:#181818;stroke-width:1.0;" x1="55.5" x2="373.5" y1="758.5547" y2="758.5547"/><text fill="#000000" font-family="sans-serif" font-size="13" font-weight="bold" lengthAdjust="spacing" textLength="30" x="67.5" y="753.4888">[15]</text><text fill="#000000" font-family="sans-serif" font-size="13" lengthAdjust="spacing" textLength="116" x="101.5" y="753.4888">&#1041;&#1083;&#1102;&#1076;&#1086; &#1074; &#1082;&#1086;&#1088;&#1079;&#1080;&#1085;&#1077;</text><!--SRC=[XLB1YXD14BttLnJZHLd3Hl4aik2geASDcfjuwCcqE93CX4a7zBQR73pieWY28BAeNp0R4pOac_4Ngl_8Lpqp2J6B7cPwfglgrQltIdTicb70Ntd9Svxnoeq2qWFgT6EJM1McRub_yDoTk16YLvmZzpiNVC656n7FYN_YwpqlE0_eXirqCkZhJ4fnsBWJztLYYO9U6iPTGxhVz_0uWJrC8fsze-3vanTjUjXwLeNYhTg0lw7Vr8rvwSu8nsztp3bFG1XqGUqZyIKkm01dmLSU9SqYawb8Mtse1uQ2nuV-EWgLIIB2MEfD71bwdQPMVlJGficm5nfeyI0yUDby5IXLQa2D0w6xjtUV-BEVN9hFtGXiU4BeMu3G9THRkJ4Xl7GVUCg5Gb5P6qljqtQxHQqZ3BhVmNJxiJMzWUGq6dZ7akavIsudCzgQ8_czUKkYoF71TLQTymXGIF5tY4MXf_a554MbmftWpt-1yWmdH2A8belRSCsBLpFELMRiC4k8ps6sv8_-wkh1p_d26-0te0GiwdnWb5GQIkcktPHN8c3DYghrpA_KX0lXCoDHpD_aU6IXLb2mnghqgLpmIjvhDZrFr8pz6rZO3N2G5Ibt8GS8O0HziTktqhLogVGQ33_L_jLRLS1NA8Lo8NXs6wQxKqmlSih8mjqTe-alQLKvQhe3eohDDYhiskFD8BzLAszIjTGLv_LYdUvw8rMBNON_kwBNgNctUMThykaQfEHJN0_pR_csApRI9D4V]--></g></svg>