<?xml version="1.0" encoding="us-ascii" standalone="no"?><svg xmlns="http://www.w3.org/2000/svg" xmlns:xlink="http://www.w3.org/1999/xlink" contentStyleType="text/css" height="1015px" preserveAspectRatio="none" style="width:1700px;height:1015px;background:#FFFFFF;" version="1.1" viewBox="0 0 1700 1015" width="1700px" zoomAndPan="magnify"><defs/><g><!--class Client--><g id="elem_Client"><rect codeLine="3" fill="#F1F1F1" height="96.8906" id="Client" rx="2.5" ry="2.5" style="stroke:#181818;stroke-width:0.5;" width="220" x="680.5" y="295"/><ellipse cx="758.75" cy="311" fill="#ADD1B2" rx="11" ry="11" style="stroke:#181818;stroke-width:1.0;"/><path d="M757.5469,311.875 L759,311.875 L759,311.9844 C759,312.3906 759.0313,312.5469 759.1094,312.7031 C759.2656,312.9531 759.5469,313.1094 759.8438,313.1094 C760.0938,313.1094 760.3594,312.9688 760.5156,312.75 C760.6406,312.5938 760.6719,312.4375 760.6719,311.9844 L760.6719,310.0625 C760.6719,309.9063 760.6719,309.8594 760.6563,309.7031 C760.5938,309.2344 760.2813,308.9219 759.8281,308.9219 C759.5781,308.9219 759.3125,309.0625 759.1406,309.2813 C759.0313,309.4531 759,309.6094 759,310.0625 L759,310.1875 L757.5469,310.1875 L757.5469,307.7813 L761.5313,307.7813 L761.5313,308.6406 C761.5313,309.0469 761.5625,309.2188 761.6406,309.375 C761.8125,309.625 762.0938,309.7813 762.375,309.7813 C762.6406,309.7813 762.9063,309.6406 763.0781,309.4219 C763.1875,309.25 763.2188,309.1094 763.2188,308.6406 L763.2188,306.0938 L755.5938,306.0938 C755.1563,306.0938 755.0313,306.1094 754.875,306.2031 C754.625,306.3594 754.4688,306.6563 754.4688,306.9375 C754.4688,307.2188 754.6094,307.4688 754.8281,307.6406 C754.9844,307.75 755.1719,307.7813 755.5938,307.7813 L755.8438,307.7813 L755.8438,314.2969 L755.5938,314.2969 C755.1875,314.2969 755.0313,314.3125 754.875,314.4219 C754.625,314.5938 754.4688,314.8594 754.4688,315.1563 C754.4688,315.4219 754.6094,315.6719 754.8281,315.8281 C754.9688,315.9531 755.2031,316 755.5938,316 L763.5938,316 L763.5938,313.4219 C763.5938,312.9844 763.5625,312.8438 763.4844,312.6875 C763.3125,312.4375 763.0313,312.2813 762.75,312.2813 C762.4844,312.2813 762.2188,312.3906 762.0469,312.6406 C761.9375,312.7969 761.9063,312.9375 761.9063,313.4219 L761.9063,314.2969 L757.5469,314.2969 L757.5469,311.875 Z " fill="#000000"/><text fill="#000000" font-family="sans-serif" font-size="14" lengthAdjust="spacing" textLength="55" x="779.25" y="315.8467">&#1050;&#1083;&#1080;&#1077;&#1085;&#1090;</text><line style="stroke:#181818;stroke-width:0.5;" x1="681.5" x2="899.5" y1="327" y2="327"/><text fill="#000000" font-family="sans-serif" font-size="14" lengthAdjust="spacing" textLength="67" x="686.5" y="343.9951">&#1058;&#1077;&#1083;&#1077;&#1092;&#1086;&#1085;</text><text fill="#000000" font-family="sans-serif" font-size="14" lengthAdjust="spacing" textLength="208" x="686.5" y="360.292">&#1055;&#1088;&#1086;&#1092;&#1080;&#1083;&#1100; &#1083;&#1080;&#1095;&#1085;&#1086;&#1075;&#1086; &#1082;&#1072;&#1073;&#1080;&#1085;&#1077;&#1090;&#1072;</text><text fill="#000000" font-family="sans-serif" font-size="14" lengthAdjust="spacing" textLength="140" x="686.5" y="376.5889">&#1041;&#1072;&#1083;&#1083;&#1099; &#1083;&#1086;&#1103;&#1083;&#1100;&#1085;&#1086;&#1089;&#1090;&#1080;</text><line style="stroke:#181818;stroke-width:0.5;" x1="681.5" x2="899.5" y1="383.8906" y2="383.8906"/></g><!--class Product--><g id="elem_Product"><rect codeLine="9" fill="#F1F1F1" height="210.9688" id="Product" rx="2.5" ry="2.5" style="stroke:#181818;stroke-width:0.5;" width="251" x="61" y="468"/><ellipse cx="159.75" cy="484" fill="#ADD1B2" rx="11" ry="11" style="stroke:#181818;stroke-width:1.0;"/><path d="M158.5469,484.875 L160,484.875 L160,484.9844 C160,485.3906 160.0313,485.5469 160.1094,485.7031 C160.2656,485.9531 160.5469,486.1094 160.8438,486.1094 C161.0938,486.1094 161.3594,485.9688 161.5156,485.75 C161.6406,485.5938 161.6719,485.4375 161.6719,484.9844 L161.6719,483.0625 C161.6719,482.9063 161.6719,482.8594 161.6563,482.7031 C161.5938,482.2344 161.2813,481.9219 160.8281,481.9219 C160.5781,481.9219 160.3125,482.0625 160.1406,482.2813 C160.0313,482.4531 160,482.6094 160,483.0625 L160,483.1875 L158.5469,483.1875 L158.5469,480.7813 L162.5313,480.7813 L162.5313,481.6406 C162.5313,482.0469 162.5625,482.2188 162.6406,482.375 C162.8125,482.625 163.0938,482.7813 163.375,482.7813 C163.6406,482.7813 163.9063,482.6406 164.0781,482.4219 C164.1875,482.25 164.2188,482.1094 164.2188,481.6406 L164.2188,479.0938 L156.5938,479.0938 C156.1563,479.0938 156.0313,479.1094 155.875,479.2031 C155.625,479.3594 155.4688,479.6563 155.4688,479.9375 C155.4688,480.2188 155.6094,480.4688 155.8281,480.6406 C155.9844,480.75 156.1719,480.7813 156.5938,480.7813 L156.8438,480.7813 L156.8438,487.2969 L156.5938,487.2969 C156.1875,487.2969 156.0313,487.3125 155.875,487.4219 C155.625,487.5938 155.4688,487.8594 155.4688,488.1563 C155.4688,488.4219 155.6094,488.6719 155.8281,488.8281 C155.9688,488.9531 156.2031,489 156.5938,489 L164.5938,489 L164.5938,486.4219 C164.5938,485.9844 164.5625,485.8438 164.4844,485.6875 C164.3125,485.4375 164.0313,485.2813 163.75,485.2813 C163.4844,485.2813 163.2188,485.3906 163.0469,485.6406 C162.9375,485.7969 162.9063,485.9375 162.9063,486.4219 L162.9063,487.2969 L158.5469,487.2969 L158.5469,484.875 Z " fill="#000000"/><text fill="#000000" font-family="sans-serif" font-size="14" lengthAdjust="spacing" textLength="45" x="180.25" y="488.8467">&#1058;&#1086;&#1074;&#1072;&#1088;</text><line style="stroke:#181818;stroke-width:0.5;" x1="62" x2="311" y1="500" y2="500"/><text fill="#000000" font-family="sans-serif" font-size="14" lengthAdjust="spacing" textLength="70" x="67" y="516.9951">&#1053;&#1072;&#1079;&#1074;&#1072;&#1085;&#1080;&#1077;</text><text fill="#000000" font-family="sans-serif" font-size="14" lengthAdjust="spacing" textLength="72" x="67" y="533.292">&#1054;&#1087;&#1080;&#1089;&#1072;&#1085;&#1080;&#1077;</text><text fill="#000000" font-family="sans-serif" font-size="14" lengthAdjust="spacing" textLength="46" x="67" y="549.5889">&#1041;&#1077;&#1083;&#1082;&#1080;</text><text fill="#000000" font-family="sans-serif" font-size="14" lengthAdjust="spacing" textLength="45" x="67" y="565.8857">&#1046;&#1080;&#1088;&#1099;</text><text fill="#000000" font-family="sans-serif" font-size="14" lengthAdjust="spacing" textLength="74" x="67" y="582.1826">&#1059;&#1075;&#1083;&#1077;&#1074;&#1086;&#1076;&#1099;</text><text fill="#000000" font-family="sans-serif" font-size="14" lengthAdjust="spacing" textLength="108" x="67" y="598.4795">&#1050;&#1072;&#1083;&#1086;&#1088;&#1080;&#1081;&#1085;&#1086;&#1089;&#1090;&#1100;</text><text fill="#000000" font-family="sans-serif" font-size="14" lengthAdjust="spacing" textLength="97" x="67" y="614.7764">&#1060;&#1086;&#1090;&#1086;&#1075;&#1088;&#1072;&#1092;&#1080;&#1103;</text><text fill="#000000" font-family="sans-serif" font-size="14" lengthAdjust="spacing" textLength="38" x="67" y="631.0732">&#1062;&#1077;&#1085;&#1072;</text><text fill="#000000" font-family="sans-serif" font-size="14" lengthAdjust="spacing" textLength="239" x="67" y="647.3701">&#1048;&#1085;&#1075;&#1088;&#1077;&#1076;&#1080;&#1077;&#1085;&#1090;&#1099; [1..*] &#1048;&#1085;&#1075;&#1088;&#1077;&#1076;&#1080;&#1077;&#1085;&#1090;</text><text fill="#000000" font-family="sans-serif" font-size="14" lengthAdjust="spacing" textLength="170" x="67" y="663.667">&#1042;&#1088;&#1077;&#1084;&#1103; &#1087;&#1088;&#1080;&#1075;&#1086;&#1090;&#1086;&#1074;&#1083;&#1077;&#1085;&#1080;&#1103;</text><line style="stroke:#181818;stroke-width:0.5;" x1="62" x2="311" y1="670.9688" y2="670.9688"/></g><!--class Menu--><g id="elem_Menu"><rect codeLine="22" fill="#F1F1F1" height="96.8906" id="Menu" rx="2.5" ry="2.5" style="stroke:#181818;stroke-width:0.5;" width="291" x="41" y="912"/><ellipse cx="161.25" cy="928" fill="#ADD1B2" rx="11" ry="11" style="stroke:#181818;stroke-width:1.0;"/><path d="M160.0469,928.875 L161.5,928.875 L161.5,928.9844 C161.5,929.3906 161.5313,929.5469 161.6094,929.7031 C161.7656,929.9531 162.0469,930.1094 162.3438,930.1094 C162.5938,930.1094 162.8594,929.9688 163.0156,929.75 C163.1406,929.5938 163.1719,929.4375 163.1719,928.9844 L163.1719,927.0625 C163.1719,926.9063 163.1719,926.8594 163.1563,926.7031 C163.0938,926.2344 162.7813,925.9219 162.3281,925.9219 C162.0781,925.9219 161.8125,926.0625 161.6406,926.2813 C161.5313,926.4531 161.5,926.6094 161.5,927.0625 L161.5,927.1875 L160.0469,927.1875 L160.0469,924.7813 L164.0313,924.7813 L164.0313,925.6406 C164.0313,926.0469 164.0625,926.2188 164.1406,926.375 C164.3125,926.625 164.5938,926.7813 164.875,926.7813 C165.1406,926.7813 165.4063,926.6406 165.5781,926.4219 C165.6875,926.25 165.7188,926.1094 165.7188,925.6406 L165.7188,923.0938 L158.0938,923.0938 C157.6563,923.0938 157.5313,923.1094 157.375,923.2031 C157.125,923.3594 156.9688,923.6563 156.9688,923.9375 C156.9688,924.2188 157.1094,924.4688 157.3281,924.6406 C157.4844,924.75 157.6719,924.7813 158.0938,924.7813 L158.3438,924.7813 L158.3438,931.2969 L158.0938,931.2969 C157.6875,931.2969 157.5313,931.3125 157.375,931.4219 C157.125,931.5938 156.9688,931.8594 156.9688,932.1563 C156.9688,932.4219 157.1094,932.6719 157.3281,932.8281 C157.4688,932.9531 157.7031,933 158.0938,933 L166.0938,933 L166.0938,930.4219 C166.0938,929.9844 166.0625,929.8438 165.9844,929.6875 C165.8125,929.4375 165.5313,929.2813 165.25,929.2813 C164.9844,929.2813 164.7188,929.3906 164.5469,929.6406 C164.4375,929.7969 164.4063,929.9375 164.4063,930.4219 L164.4063,931.2969 L160.0469,931.2969 L160.0469,928.875 Z " fill="#000000"/><text fill="#000000" font-family="sans-serif" font-size="14" lengthAdjust="spacing" textLength="42" x="181.75" y="932.8467">&#1052;&#1077;&#1085;&#1102;</text><line style="stroke:#181818;stroke-width:0.5;" x1="42" x2="331" y1="944" y2="944"/><text fill="#000000" font-family="sans-serif" font-size="14" lengthAdjust="spacing" textLength="70" x="47" y="960.9951">&#1053;&#1072;&#1079;&#1074;&#1072;&#1085;&#1080;&#1077;</text><text fill="#000000" font-family="sans-serif" font-size="14" lengthAdjust="spacing" textLength="72" x="47" y="977.292">&#1058;&#1080;&#1087; &#1084;&#1077;&#1085;&#1102;</text><text fill="#000000" font-family="sans-serif" font-size="14" lengthAdjust="spacing" textLength="279" x="47" y="993.5889">&#1056;&#1072;&#1079;&#1076;&#1077;&#1083;&#1099; &#1084;&#1077;&#1085;&#1102; [1..*] &#1050;&#1072;&#1090;&#1077;&#1075;&#1086;&#1088;&#1080;&#1103; &#1084;&#1077;&#1085;&#1102;</text><line style="stroke:#181818;stroke-width:0.5;" x1="42" x2="331" y1="1000.8906" y2="1000.8906"/></g><!--class MenuSection--><g id="elem_MenuSection"><rect codeLine="28" fill="#F1F1F1" height="80.5938" id="MenuSection" rx="2.5" ry="2.5" style="stroke:#181818;stroke-width:0.5;" width="158" x="107.5" y="755"/><ellipse cx="122.5" cy="771" fill="#ADD1B2" rx="11" ry="11" style="stroke:#181818;stroke-width:1.0;"/><path d="M121.2969,771.875 L122.75,771.875 L122.75,771.9844 C122.75,772.3906 122.7813,772.5469 122.8594,772.7031 C123.0156,772.9531 123.2969,773.1094 123.5938,773.1094 C123.8438,773.1094 124.1094,772.9688 124.2656,772.75 C124.3906,772.5938 124.4219,772.4375 124.4219,771.9844 L124.4219,770.0625 C124.4219,769.9063 124.4219,769.8594 124.4063,769.7031 C124.3438,769.2344 124.0313,768.9219 123.5781,768.9219 C123.3281,768.9219 123.0625,769.0625 122.8906,769.2813 C122.7813,769.4531 122.75,769.6094 122.75,770.0625 L122.75,770.1875 L121.2969,770.1875 L121.2969,767.7813 L125.2813,767.7813 L125.2813,768.6406 C125.2813,769.0469 125.3125,769.2188 125.3906,769.375 C125.5625,769.625 125.8438,769.7813 126.125,769.7813 C126.3906,769.7813 126.6563,769.6406 126.8281,769.4219 C126.9375,769.25 126.9688,769.1094 126.9688,768.6406 L126.9688,766.0938 L119.3438,766.0938 C118.9063,766.0938 118.7813,766.1094 118.625,766.2031 C118.375,766.3594 118.2188,766.6563 118.2188,766.9375 C118.2188,767.2188 118.3594,767.4688 118.5781,767.6406 C118.7344,767.75 118.9219,767.7813 119.3438,767.7813 L119.5938,767.7813 L119.5938,774.2969 L119.3438,774.2969 C118.9375,774.2969 118.7813,774.3125 118.625,774.4219 C118.375,774.5938 118.2188,774.8594 118.2188,775.1563 C118.2188,775.4219 118.3594,775.6719 118.5781,775.8281 C118.7188,775.9531 118.9531,776 119.3438,776 L127.3438,776 L127.3438,773.4219 C127.3438,772.9844 127.3125,772.8438 127.2344,772.6875 C127.0625,772.4375 126.7813,772.2813 126.5,772.2813 C126.2344,772.2813 125.9688,772.3906 125.7969,772.6406 C125.6875,772.7969 125.6563,772.9375 125.6563,773.4219 L125.6563,774.2969 L121.2969,774.2969 L121.2969,771.875 Z " fill="#000000"/><text fill="#000000" font-family="sans-serif" font-size="14" lengthAdjust="spacing" textLength="126" x="136.5" y="775.8467">&#1050;&#1072;&#1090;&#1077;&#1075;&#1086;&#1088;&#1080;&#1103; &#1084;&#1077;&#1085;&#1102;</text><line style="stroke:#181818;stroke-width:0.5;" x1="108.5" x2="264.5" y1="787" y2="787"/><text fill="#000000" font-family="sans-serif" font-size="14" lengthAdjust="spacing" textLength="70" x="113.5" y="803.9951">&#1053;&#1072;&#1079;&#1074;&#1072;&#1085;&#1080;&#1077;</text><text fill="#000000" font-family="sans-serif" font-size="14" lengthAdjust="spacing" textLength="134" x="113.5" y="820.292">&#1058;&#1086;&#1074;&#1072;&#1088; [1..*] &#1058;&#1086;&#1074;&#1072;&#1088;</text><line style="stroke:#181818;stroke-width:0.5;" x1="108.5" x2="264.5" y1="827.5938" y2="827.5938"/></g><!--class Cart--><g id="elem_Cart"><rect codeLine="33" fill="#F1F1F1" height="113.1875" id="Cart" rx="2.5" ry="2.5" style="stroke:#181818;stroke-width:0.5;" width="263" x="429" y="739"/><ellipse cx="524.75" cy="755" fill="#ADD1B2" rx="11" ry="11" style="stroke:#181818;stroke-width:1.0;"/><path d="M523.5469,755.875 L525,755.875 L525,755.9844 C525,756.3906 525.0313,756.5469 525.1094,756.7031 C525.2656,756.9531 525.5469,757.1094 525.8438,757.1094 C526.0938,757.1094 526.3594,756.9688 526.5156,756.75 C526.6406,756.5938 526.6719,756.4375 526.6719,755.9844 L526.6719,754.0625 C526.6719,753.9063 526.6719,753.8594 526.6563,753.7031 C526.5938,753.2344 526.2813,752.9219 525.8281,752.9219 C525.5781,752.9219 525.3125,753.0625 525.1406,753.2813 C525.0313,753.4531 525,753.6094 525,754.0625 L525,754.1875 L523.5469,754.1875 L523.5469,751.7813 L527.5313,751.7813 L527.5313,752.6406 C527.5313,753.0469 527.5625,753.2188 527.6406,753.375 C527.8125,753.625 528.0938,753.7813 528.375,753.7813 C528.6406,753.7813 528.9063,753.6406 529.0781,753.4219 C529.1875,753.25 529.2188,753.1094 529.2188,752.6406 L529.2188,750.0938 L521.5938,750.0938 C521.1563,750.0938 521.0313,750.1094 520.875,750.2031 C520.625,750.3594 520.4688,750.6563 520.4688,750.9375 C520.4688,751.2188 520.6094,751.4688 520.8281,751.6406 C520.9844,751.75 521.1719,751.7813 521.5938,751.7813 L521.8438,751.7813 L521.8438,758.2969 L521.5938,758.2969 C521.1875,758.2969 521.0313,758.3125 520.875,758.4219 C520.625,758.5938 520.4688,758.8594 520.4688,759.1563 C520.4688,759.4219 520.6094,759.6719 520.8281,759.8281 C520.9688,759.9531 521.2031,760 521.5938,760 L529.5938,760 L529.5938,757.4219 C529.5938,756.9844 529.5625,756.8438 529.4844,756.6875 C529.3125,756.4375 529.0313,756.2813 528.75,756.2813 C528.4844,756.2813 528.2188,756.3906 528.0469,756.6406 C527.9375,756.7969 527.9063,756.9375 527.9063,757.4219 L527.9063,758.2969 L523.5469,758.2969 L523.5469,755.875 Z " fill="#000000"/><text fill="#000000" font-family="sans-serif" font-size="14" lengthAdjust="spacing" textLength="63" x="545.25" y="759.8467">&#1050;&#1086;&#1088;&#1079;&#1080;&#1085;&#1072;</text><line style="stroke:#181818;stroke-width:0.5;" x1="430" x2="691" y1="771" y2="771"/><text fill="#000000" font-family="sans-serif" font-size="14" lengthAdjust="spacing" textLength="145" x="435" y="787.9951">&#1058;&#1086;&#1074;&#1072;&#1088; [1..50] &#1058;&#1086;&#1074;&#1072;&#1088;</text><text fill="#000000" font-family="sans-serif" font-size="14" lengthAdjust="spacing" textLength="48" x="435" y="804.292">&#1057;&#1091;&#1084;&#1084;&#1072;</text><text fill="#000000" font-family="sans-serif" font-size="14" lengthAdjust="spacing" textLength="132" x="435" y="820.5889">&#1042;&#1088;&#1077;&#1084;&#1103; &#1087;&#1086;&#1083;&#1091;&#1095;&#1077;&#1085;&#1080;&#1103;</text><text fill="#000000" font-family="sans-serif" font-size="14" lengthAdjust="spacing" textLength="251" x="435" y="836.8857">&#1057;&#1090;&#1072;&#1090;&#1091;&#1089; &#1082;&#1086;&#1088;&#1079;&#1080;&#1085;&#1099;: &#1057;&#1090;&#1072;&#1090;&#1091;&#1089; &#1082;&#1086;&#1088;&#1079;&#1080;&#1085;&#1099;</text><line style="stroke:#181818;stroke-width:0.5;" x1="430" x2="691" y1="844.1875" y2="844.1875"/></g><!--class Order--><g id="elem_Order"><rect codeLine="40" fill="#F1F1F1" height="145.7813" id="Order" rx="2.5" ry="2.5" style="stroke:#181818;stroke-width:0.5;" width="295" x="413" y="500.5"/><ellipse cx="535.25" cy="516.5" fill="#ADD1B2" rx="11" ry="11" style="stroke:#181818;stroke-width:1.0;"/><path d="M534.0469,517.375 L535.5,517.375 L535.5,517.4844 C535.5,517.8906 535.5313,518.0469 535.6094,518.2031 C535.7656,518.4531 536.0469,518.6094 536.3438,518.6094 C536.5938,518.6094 536.8594,518.4688 537.0156,518.25 C537.1406,518.0938 537.1719,517.9375 537.1719,517.4844 L537.1719,515.5625 C537.1719,515.4063 537.1719,515.3594 537.1563,515.2031 C537.0938,514.7344 536.7813,514.4219 536.3281,514.4219 C536.0781,514.4219 535.8125,514.5625 535.6406,514.7813 C535.5313,514.9531 535.5,515.1094 535.5,515.5625 L535.5,515.6875 L534.0469,515.6875 L534.0469,513.2813 L538.0313,513.2813 L538.0313,514.1406 C538.0313,514.5469 538.0625,514.7188 538.1406,514.875 C538.3125,515.125 538.5938,515.2813 538.875,515.2813 C539.1406,515.2813 539.4063,515.1406 539.5781,514.9219 C539.6875,514.75 539.7188,514.6094 539.7188,514.1406 L539.7188,511.5938 L532.0938,511.5938 C531.6563,511.5938 531.5313,511.6094 531.375,511.7031 C531.125,511.8594 530.9688,512.1563 530.9688,512.4375 C530.9688,512.7188 531.1094,512.9688 531.3281,513.1406 C531.4844,513.25 531.6719,513.2813 532.0938,513.2813 L532.3438,513.2813 L532.3438,519.7969 L532.0938,519.7969 C531.6875,519.7969 531.5313,519.8125 531.375,519.9219 C531.125,520.0938 530.9688,520.3594 530.9688,520.6563 C530.9688,520.9219 531.1094,521.1719 531.3281,521.3281 C531.4688,521.4531 531.7031,521.5 532.0938,521.5 L540.0938,521.5 L540.0938,518.9219 C540.0938,518.4844 540.0625,518.3438 539.9844,518.1875 C539.8125,517.9375 539.5313,517.7813 539.25,517.7813 C538.9844,517.7813 538.7188,517.8906 538.5469,518.1406 C538.4375,518.2969 538.4063,518.4375 538.4063,518.9219 L538.4063,519.7969 L534.0469,519.7969 L534.0469,517.375 Z " fill="#000000"/><text fill="#000000" font-family="sans-serif" font-size="14" lengthAdjust="spacing" textLength="42" x="555.75" y="521.3467">&#1047;&#1072;&#1082;&#1072;&#1079;</text><line style="stroke:#181818;stroke-width:0.5;" x1="414" x2="707" y1="532.5" y2="532.5"/><text fill="#000000" font-family="sans-serif" font-size="14" lengthAdjust="spacing" textLength="49" x="419" y="549.4951">&#1053;&#1086;&#1084;&#1077;&#1088;</text><text fill="#000000" font-family="sans-serif" font-size="14" lengthAdjust="spacing" textLength="36" x="419" y="565.792">&#1044;&#1072;&#1090;&#1072;</text><text fill="#000000" font-family="sans-serif" font-size="14" lengthAdjust="spacing" textLength="219" x="419" y="582.0889">&#1057;&#1090;&#1072;&#1090;&#1091;&#1089; &#1079;&#1072;&#1082;&#1072;&#1079;&#1072;: &#1057;&#1090;&#1072;&#1090;&#1091;&#1089; &#1079;&#1072;&#1082;&#1072;&#1079;&#1072;</text><text fill="#000000" font-family="sans-serif" font-size="14" lengthAdjust="spacing" textLength="283" x="419" y="598.3857">&#1057;&#1087;&#1086;&#1089;&#1086;&#1073; &#1087;&#1086;&#1083;&#1091;&#1095;&#1077;&#1085;&#1080;&#1103;: &#1057;&#1087;&#1086;&#1089;&#1086;&#1073; &#1087;&#1086;&#1083;&#1091;&#1095;&#1077;&#1085;&#1080;&#1103;</text><text fill="#000000" font-family="sans-serif" font-size="14" lengthAdjust="spacing" textLength="125" x="419" y="614.6826">&#1057;&#1082;&#1080;&#1076;&#1082;&#1072; &#1079;&#1072; &#1073;&#1072;&#1083;&#1083;&#1099;</text><text fill="#000000" font-family="sans-serif" font-size="14" lengthAdjust="spacing" textLength="170" x="419" y="630.9795">&#1042;&#1088;&#1077;&#1084;&#1103; &#1087;&#1088;&#1080;&#1075;&#1086;&#1090;&#1086;&#1074;&#1083;&#1077;&#1085;&#1080;&#1103;</text><line style="stroke:#181818;stroke-width:0.5;" x1="414" x2="707" y1="638.2813" y2="638.2813"/></g><!--class CartStatus--><g id="elem_CartStatus"><rect codeLine="49" fill="#F1F1F1" height="80.5938" id="CartStatus" rx="2.5" ry="2.5" style="stroke:#181818;stroke-width:0.5;" width="153" x="484" y="920"/><ellipse cx="499" cy="936" fill="#EB937F" rx="11" ry="11" style="stroke:#181818;stroke-width:1.0;"/><path d="M497.7969,936.875 L499.25,936.875 L499.25,936.9844 C499.25,937.3906 499.2813,937.5469 499.3594,937.7031 C499.5156,937.9531 499.7969,938.1094 500.0938,938.1094 C500.3438,938.1094 500.6094,937.9688 500.7656,937.75 C500.8906,937.5938 500.9219,937.4375 500.9219,936.9844 L500.9219,935.0625 C500.9219,934.9063 500.9219,934.8594 500.9063,934.7031 C500.8438,934.2344 500.5313,933.9219 500.0781,933.9219 C499.8281,933.9219 499.5625,934.0625 499.3906,934.2813 C499.2813,934.4531 499.25,934.6094 499.25,935.0625 L499.25,935.1875 L497.7969,935.1875 L497.7969,932.7813 L501.7813,932.7813 L501.7813,933.6406 C501.7813,934.0469 501.8125,934.2188 501.8906,934.375 C502.0625,934.625 502.3438,934.7813 502.625,934.7813 C502.8906,934.7813 503.1563,934.6406 503.3281,934.4219 C503.4375,934.25 503.4688,934.1094 503.4688,933.6406 L503.4688,931.0938 L495.8438,931.0938 C495.4063,931.0938 495.2813,931.1094 495.125,931.2031 C494.875,931.3594 494.7188,931.6563 494.7188,931.9375 C494.7188,932.2188 494.8594,932.4688 495.0781,932.6406 C495.2344,932.75 495.4219,932.7813 495.8438,932.7813 L496.0938,932.7813 L496.0938,939.2969 L495.8438,939.2969 C495.4375,939.2969 495.2813,939.3125 495.125,939.4219 C494.875,939.5938 494.7188,939.8594 494.7188,940.1563 C494.7188,940.4219 494.8594,940.6719 495.0781,940.8281 C495.2188,940.9531 495.4531,941 495.8438,941 L503.8438,941 L503.8438,938.4219 C503.8438,937.9844 503.8125,937.8438 503.7344,937.6875 C503.5625,937.4375 503.2813,937.2813 503,937.2813 C502.7344,937.2813 502.4688,937.3906 502.2969,937.6406 C502.1875,937.7969 502.1563,937.9375 502.1563,938.4219 L502.1563,939.2969 L497.7969,939.2969 L497.7969,936.875 Z " fill="#000000"/><text fill="#000000" font-family="sans-serif" font-size="14" lengthAdjust="spacing" textLength="121" x="513" y="940.8467">&#1057;&#1090;&#1072;&#1090;&#1091;&#1089; &#1082;&#1086;&#1088;&#1079;&#1080;&#1085;&#1099;</text><line style="stroke:#181818;stroke-width:0.5;" x1="485" x2="636" y1="952" y2="952"/><text fill="#000000" font-family="sans-serif" font-size="14" lengthAdjust="spacing" textLength="105" x="490" y="968.9951">&#1060;&#1086;&#1088;&#1084;&#1080;&#1088;&#1091;&#1077;&#1090;&#1089;&#1103;</text><text fill="#000000" font-family="sans-serif" font-size="14" lengthAdjust="spacing" textLength="115" x="490" y="985.292">&#1057;&#1092;&#1086;&#1088;&#1084;&#1080;&#1088;&#1086;&#1074;&#1072;&#1085;&#1072;</text><line style="stroke:#181818;stroke-width:0.5;" x1="485" x2="636" y1="992.5938" y2="992.5938"/></g><!--class OrderStatus--><g id="elem_OrderStatus"><rect codeLine="54" fill="#F1F1F1" height="129.4844" id="OrderStatus" rx="2.5" ry="2.5" style="stroke:#181818;stroke-width:0.5;" width="137" x="303" y="279"/><ellipse cx="318" cy="295" fill="#EB937F" rx="11" ry="11" style="stroke:#181818;stroke-width:1.0;"/><path d="M316.7969,295.875 L318.25,295.875 L318.25,295.9844 C318.25,296.3906 318.2813,296.5469 318.3594,296.7031 C318.5156,296.9531 318.7969,297.1094 319.0938,297.1094 C319.3438,297.1094 319.6094,296.9688 319.7656,296.75 C319.8906,296.5938 319.9219,296.4375 319.9219,295.9844 L319.9219,294.0625 C319.9219,293.9063 319.9219,293.8594 319.9063,293.7031 C319.8438,293.2344 319.5313,292.9219 319.0781,292.9219 C318.8281,292.9219 318.5625,293.0625 318.3906,293.2813 C318.2813,293.4531 318.25,293.6094 318.25,294.0625 L318.25,294.1875 L316.7969,294.1875 L316.7969,291.7813 L320.7813,291.7813 L320.7813,292.6406 C320.7813,293.0469 320.8125,293.2188 320.8906,293.375 C321.0625,293.625 321.3438,293.7813 321.625,293.7813 C321.8906,293.7813 322.1563,293.6406 322.3281,293.4219 C322.4375,293.25 322.4688,293.1094 322.4688,292.6406 L322.4688,290.0938 L314.8438,290.0938 C314.4063,290.0938 314.2813,290.1094 314.125,290.2031 C313.875,290.3594 313.7188,290.6563 313.7188,290.9375 C313.7188,291.2188 313.8594,291.4688 314.0781,291.6406 C314.2344,291.75 314.4219,291.7813 314.8438,291.7813 L315.0938,291.7813 L315.0938,298.2969 L314.8438,298.2969 C314.4375,298.2969 314.2813,298.3125 314.125,298.4219 C313.875,298.5938 313.7188,298.8594 313.7188,299.1563 C313.7188,299.4219 313.8594,299.6719 314.0781,299.8281 C314.2188,299.9531 314.4531,300 314.8438,300 L322.8438,300 L322.8438,297.4219 C322.8438,296.9844 322.8125,296.8438 322.7344,296.6875 C322.5625,296.4375 322.2813,296.2813 322,296.2813 C321.7344,296.2813 321.4688,296.3906 321.2969,296.6406 C321.1875,296.7969 321.1563,296.9375 321.1563,297.4219 L321.1563,298.2969 L316.7969,298.2969 L316.7969,295.875 Z " fill="#000000"/><text fill="#000000" font-family="sans-serif" font-size="14" lengthAdjust="spacing" textLength="105" x="332" y="299.8467">&#1057;&#1090;&#1072;&#1090;&#1091;&#1089; &#1079;&#1072;&#1082;&#1072;&#1079;&#1072;</text><line style="stroke:#181818;stroke-width:0.5;" x1="304" x2="439" y1="311" y2="311"/><text fill="#000000" font-family="sans-serif" font-size="14" lengthAdjust="spacing" textLength="54" x="309" y="327.9951">&#1057;&#1086;&#1079;&#1076;&#1072;&#1085;</text><text fill="#000000" font-family="sans-serif" font-size="14" lengthAdjust="spacing" textLength="109" x="309" y="344.292">&#1055;&#1088;&#1086;&#1080;&#1079;&#1074;&#1086;&#1076;&#1080;&#1090;&#1089;&#1103;</text><text fill="#000000" font-family="sans-serif" font-size="14" lengthAdjust="spacing" textLength="45" x="309" y="360.5889">&#1043;&#1086;&#1090;&#1086;&#1074;</text><text fill="#000000" font-family="sans-serif" font-size="14" lengthAdjust="spacing" textLength="48" x="309" y="376.8857">&#1042;&#1099;&#1076;&#1072;&#1085;</text><text fill="#000000" font-family="sans-serif" font-size="14" lengthAdjust="spacing" textLength="67" x="309" y="393.1826">&#1054;&#1090;&#1084;&#1077;&#1085;&#1105;&#1085;</text><line style="stroke:#181818;stroke-width:0.5;" x1="304" x2="439" y1="400.4844" y2="400.4844"/></g><!--class Obtaining--><g id="elem_Obtaining"><rect codeLine="62" fill="#F1F1F1" height="80.5938" id="Obtaining" rx="2.5" ry="2.5" style="stroke:#181818;stroke-width:0.5;" width="170" x="475.5" y="303"/><ellipse cx="490.5" cy="319" fill="#EB937F" rx="11" ry="11" style="stroke:#181818;stroke-width:1.0;"/><path d="M489.2969,319.875 L490.75,319.875 L490.75,319.9844 C490.75,320.3906 490.7813,320.5469 490.8594,320.7031 C491.0156,320.9531 491.2969,321.1094 491.5938,321.1094 C491.8438,321.1094 492.1094,320.9688 492.2656,320.75 C492.3906,320.5938 492.4219,320.4375 492.4219,319.9844 L492.4219,318.0625 C492.4219,317.9063 492.4219,317.8594 492.4063,317.7031 C492.3438,317.2344 492.0313,316.9219 491.5781,316.9219 C491.3281,316.9219 491.0625,317.0625 490.8906,317.2813 C490.7813,317.4531 490.75,317.6094 490.75,318.0625 L490.75,318.1875 L489.2969,318.1875 L489.2969,315.7813 L493.2813,315.7813 L493.2813,316.6406 C493.2813,317.0469 493.3125,317.2188 493.3906,317.375 C493.5625,317.625 493.8438,317.7813 494.125,317.7813 C494.3906,317.7813 494.6563,317.6406 494.8281,317.4219 C494.9375,317.25 494.9688,317.1094 494.9688,316.6406 L494.9688,314.0938 L487.3438,314.0938 C486.9063,314.0938 486.7813,314.1094 486.625,314.2031 C486.375,314.3594 486.2188,314.6563 486.2188,314.9375 C486.2188,315.2188 486.3594,315.4688 486.5781,315.6406 C486.7344,315.75 486.9219,315.7813 487.3438,315.7813 L487.5938,315.7813 L487.5938,322.2969 L487.3438,322.2969 C486.9375,322.2969 486.7813,322.3125 486.625,322.4219 C486.375,322.5938 486.2188,322.8594 486.2188,323.1563 C486.2188,323.4219 486.3594,323.6719 486.5781,323.8281 C486.7188,323.9531 486.9531,324 487.3438,324 L495.3438,324 L495.3438,321.4219 C495.3438,320.9844 495.3125,320.8438 495.2344,320.6875 C495.0625,320.4375 494.7813,320.2813 494.5,320.2813 C494.2344,320.2813 493.9688,320.3906 493.7969,320.6406 C493.6875,320.7969 493.6563,320.9375 493.6563,321.4219 L493.6563,322.2969 L489.2969,322.2969 L489.2969,319.875 Z " fill="#000000"/><text fill="#000000" font-family="sans-serif" font-size="14" lengthAdjust="spacing" textLength="138" x="504.5" y="323.8467">&#1057;&#1087;&#1086;&#1089;&#1086;&#1073; &#1055;&#1086;&#1083;&#1091;&#1095;&#1077;&#1085;&#1080;&#1103;</text><line style="stroke:#181818;stroke-width:0.5;" x1="476.5" x2="644.5" y1="335" y2="335"/><text fill="#000000" font-family="sans-serif" font-size="14" lengthAdjust="spacing" textLength="58" x="481.5" y="351.9951">&#1057; &#1089;&#1086;&#1073;&#1086;&#1081;</text><text fill="#000000" font-family="sans-serif" font-size="14" lengthAdjust="spacing" textLength="48" x="481.5" y="368.292">&#1042; &#1079;&#1072;&#1083;&#1077;</text><line style="stroke:#181818;stroke-width:0.5;" x1="476.5" x2="644.5" y1="375.5938" y2="375.5938"/></g><!--class PaymentStatus--><g id="elem_PaymentStatus"><rect codeLine="67" fill="#F1F1F1" height="80.5938" id="PaymentStatus" rx="2.5" ry="2.5" style="stroke:#181818;stroke-width:0.5;" width="96" x="1101.5" y="303"/><ellipse cx="1121" cy="319" fill="#EB937F" rx="11" ry="11" style="stroke:#181818;stroke-width:1.0;"/><path d="M1119.7969,319.875 L1121.25,319.875 L1121.25,319.9844 C1121.25,320.3906 1121.2813,320.5469 1121.3594,320.7031 C1121.5156,320.9531 1121.7969,321.1094 1122.0938,321.1094 C1122.3438,321.1094 1122.6094,320.9688 1122.7656,320.75 C1122.8906,320.5938 1122.9219,320.4375 1122.9219,319.9844 L1122.9219,318.0625 C1122.9219,317.9063 1122.9219,317.8594 1122.9063,317.7031 C1122.8438,317.2344 1122.5313,316.9219 1122.0781,316.9219 C1121.8281,316.9219 1121.5625,317.0625 1121.3906,317.2813 C1121.2813,317.4531 1121.25,317.6094 1121.25,318.0625 L1121.25,318.1875 L1119.7969,318.1875 L1119.7969,315.7813 L1123.7813,315.7813 L1123.7813,316.6406 C1123.7813,317.0469 1123.8125,317.2188 1123.8906,317.375 C1124.0625,317.625 1124.3438,317.7813 1124.625,317.7813 C1124.8906,317.7813 1125.1563,317.6406 1125.3281,317.4219 C1125.4375,317.25 1125.4688,317.1094 1125.4688,316.6406 L1125.4688,314.0938 L1117.8438,314.0938 C1117.4063,314.0938 1117.2813,314.1094 1117.125,314.2031 C1116.875,314.3594 1116.7188,314.6563 1116.7188,314.9375 C1116.7188,315.2188 1116.8594,315.4688 1117.0781,315.6406 C1117.2344,315.75 1117.4219,315.7813 1117.8438,315.7813 L1118.0938,315.7813 L1118.0938,322.2969 L1117.8438,322.2969 C1117.4375,322.2969 1117.2813,322.3125 1117.125,322.4219 C1116.875,322.5938 1116.7188,322.8594 1116.7188,323.1563 C1116.7188,323.4219 1116.8594,323.6719 1117.0781,323.8281 C1117.2188,323.9531 1117.4531,324 1117.8438,324 L1125.8438,324 L1125.8438,321.4219 C1125.8438,320.9844 1125.8125,320.8438 1125.7344,320.6875 C1125.5625,320.4375 1125.2813,320.2813 1125,320.2813 C1124.7344,320.2813 1124.4688,320.3906 1124.2969,320.6406 C1124.1875,320.7969 1124.1563,320.9375 1124.1563,321.4219 L1124.1563,322.2969 L1119.7969,322.2969 L1119.7969,319.875 Z " fill="#000000"/><text fill="#000000" font-family="sans-serif" font-size="14" lengthAdjust="spacing" textLength="54" x="1136" y="323.8467">&#1054;&#1087;&#1083;&#1072;&#1090;&#1072;</text><line style="stroke:#181818;stroke-width:0.5;" x1="1102.5" x2="1196.5" y1="335" y2="335"/><text fill="#000000" font-family="sans-serif" font-size="14" lengthAdjust="spacing" textLength="84" x="1107.5" y="351.9951">&#1053;&#1077; &#1086;&#1087;&#1083;&#1072;&#1095;&#1077;&#1085;</text><text fill="#000000" font-family="sans-serif" font-size="14" lengthAdjust="spacing" textLength="63" x="1107.5" y="368.292">&#1054;&#1087;&#1083;&#1072;&#1095;&#1077;&#1085;</text><line style="stroke:#181818;stroke-width:0.5;" x1="1102.5" x2="1196.5" y1="375.5938" y2="375.5938"/></g><!--class PaymentType--><g id="elem_PaymentType"><rect codeLine="72" fill="#F1F1F1" height="96.8906" id="PaymentType" rx="2.5" ry="2.5" style="stroke:#181818;stroke-width:0.5;" width="128" x="1232.5" y="295"/><ellipse cx="1247.5" cy="311" fill="#EB937F" rx="11" ry="11" style="stroke:#181818;stroke-width:1.0;"/><path d="M1246.2969,311.875 L1247.75,311.875 L1247.75,311.9844 C1247.75,312.3906 1247.7813,312.5469 1247.8594,312.7031 C1248.0156,312.9531 1248.2969,313.1094 1248.5938,313.1094 C1248.8438,313.1094 1249.1094,312.9688 1249.2656,312.75 C1249.3906,312.5938 1249.4219,312.4375 1249.4219,311.9844 L1249.4219,310.0625 C1249.4219,309.9063 1249.4219,309.8594 1249.4063,309.7031 C1249.3438,309.2344 1249.0313,308.9219 1248.5781,308.9219 C1248.3281,308.9219 1248.0625,309.0625 1247.8906,309.2813 C1247.7813,309.4531 1247.75,309.6094 1247.75,310.0625 L1247.75,310.1875 L1246.2969,310.1875 L1246.2969,307.7813 L1250.2813,307.7813 L1250.2813,308.6406 C1250.2813,309.0469 1250.3125,309.2188 1250.3906,309.375 C1250.5625,309.625 1250.8438,309.7813 1251.125,309.7813 C1251.3906,309.7813 1251.6563,309.6406 1251.8281,309.4219 C1251.9375,309.25 1251.9688,309.1094 1251.9688,308.6406 L1251.9688,306.0938 L1244.3438,306.0938 C1243.9063,306.0938 1243.7813,306.1094 1243.625,306.2031 C1243.375,306.3594 1243.2188,306.6563 1243.2188,306.9375 C1243.2188,307.2188 1243.3594,307.4688 1243.5781,307.6406 C1243.7344,307.75 1243.9219,307.7813 1244.3438,307.7813 L1244.5938,307.7813 L1244.5938,314.2969 L1244.3438,314.2969 C1243.9375,314.2969 1243.7813,314.3125 1243.625,314.4219 C1243.375,314.5938 1243.2188,314.8594 1243.2188,315.1563 C1243.2188,315.4219 1243.3594,315.6719 1243.5781,315.8281 C1243.7188,315.9531 1243.9531,316 1244.3438,316 L1252.3438,316 L1252.3438,313.4219 C1252.3438,312.9844 1252.3125,312.8438 1252.2344,312.6875 C1252.0625,312.4375 1251.7813,312.2813 1251.5,312.2813 C1251.2344,312.2813 1250.9688,312.3906 1250.7969,312.6406 C1250.6875,312.7969 1250.6563,312.9375 1250.6563,313.4219 L1250.6563,314.2969 L1246.2969,314.2969 L1246.2969,311.875 Z " fill="#000000"/><text fill="#000000" font-family="sans-serif" font-size="14" lengthAdjust="spacing" textLength="96" x="1261.5" y="315.8467">&#1058;&#1080;&#1087; &#1087;&#1083;&#1072;&#1090;&#1077;&#1078;&#1072;</text><line style="stroke:#181818;stroke-width:0.5;" x1="1233.5" x2="1359.5" y1="327" y2="327"/><text fill="#000000" font-family="sans-serif" font-size="14" lengthAdjust="spacing" textLength="73" x="1238.5" y="343.9951">&#1053;&#1072;&#1083;&#1080;&#1095;&#1085;&#1099;&#1077;</text><text fill="#000000" font-family="sans-serif" font-size="14" lengthAdjust="spacing" textLength="45" x="1238.5" y="360.292">&#1050;&#1072;&#1088;&#1090;&#1072;</text><text fill="#000000" font-family="sans-serif" font-size="14" lengthAdjust="spacing" textLength="55" x="1238.5" y="376.5889">QR-&#1082;&#1086;&#1076;</text><line style="stroke:#181818;stroke-width:0.5;" x1="1233.5" x2="1359.5" y1="383.8906" y2="383.8906"/></g><!--class PaymentState--><g id="elem_PaymentState"><rect codeLine="78" fill="#F1F1F1" height="96.8906" id="PaymentState" rx="2.5" ry="2.5" style="stroke:#181818;stroke-width:0.5;" width="153" x="1396" y="295"/><ellipse cx="1411" cy="311" fill="#EB937F" rx="11" ry="11" style="stroke:#181818;stroke-width:1.0;"/><path d="M1409.7969,311.875 L1411.25,311.875 L1411.25,311.9844 C1411.25,312.3906 1411.2813,312.5469 1411.3594,312.7031 C1411.5156,312.9531 1411.7969,313.1094 1412.0938,313.1094 C1412.3438,313.1094 1412.6094,312.9688 1412.7656,312.75 C1412.8906,312.5938 1412.9219,312.4375 1412.9219,311.9844 L1412.9219,310.0625 C1412.9219,309.9063 1412.9219,309.8594 1412.9063,309.7031 C1412.8438,309.2344 1412.5313,308.9219 1412.0781,308.9219 C1411.8281,308.9219 1411.5625,309.0625 1411.3906,309.2813 C1411.2813,309.4531 1411.25,309.6094 1411.25,310.0625 L1411.25,310.1875 L1409.7969,310.1875 L1409.7969,307.7813 L1413.7813,307.7813 L1413.7813,308.6406 C1413.7813,309.0469 1413.8125,309.2188 1413.8906,309.375 C1414.0625,309.625 1414.3438,309.7813 1414.625,309.7813 C1414.8906,309.7813 1415.1563,309.6406 1415.3281,309.4219 C1415.4375,309.25 1415.4688,309.1094 1415.4688,308.6406 L1415.4688,306.0938 L1407.8438,306.0938 C1407.4063,306.0938 1407.2813,306.1094 1407.125,306.2031 C1406.875,306.3594 1406.7188,306.6563 1406.7188,306.9375 C1406.7188,307.2188 1406.8594,307.4688 1407.0781,307.6406 C1407.2344,307.75 1407.4219,307.7813 1407.8438,307.7813 L1408.0938,307.7813 L1408.0938,314.2969 L1407.8438,314.2969 C1407.4375,314.2969 1407.2813,314.3125 1407.125,314.4219 C1406.875,314.5938 1406.7188,314.8594 1406.7188,315.1563 C1406.7188,315.4219 1406.8594,315.6719 1407.0781,315.8281 C1407.2188,315.9531 1407.4531,316 1407.8438,316 L1415.8438,316 L1415.8438,313.4219 C1415.8438,312.9844 1415.8125,312.8438 1415.7344,312.6875 C1415.5625,312.4375 1415.2813,312.2813 1415,312.2813 C1414.7344,312.2813 1414.4688,312.3906 1414.2969,312.6406 C1414.1875,312.7969 1414.1563,312.9375 1414.1563,313.4219 L1414.1563,314.2969 L1409.7969,314.2969 L1409.7969,311.875 Z " fill="#000000"/><text fill="#000000" font-family="sans-serif" font-size="14" lengthAdjust="spacing" textLength="121" x="1425" y="315.8467">&#1057;&#1090;&#1072;&#1090;&#1091;&#1089; &#1087;&#1083;&#1072;&#1090;&#1077;&#1078;&#1072;</text><line style="stroke:#181818;stroke-width:0.5;" x1="1397" x2="1548" y1="327" y2="327"/><text fill="#000000" font-family="sans-serif" font-size="14" lengthAdjust="spacing" textLength="101" x="1402" y="343.9951">&#1048;&#1085;&#1080;&#1094;&#1080;&#1080;&#1088;&#1086;&#1074;&#1072;&#1085;</text><text fill="#000000" font-family="sans-serif" font-size="14" lengthAdjust="spacing" textLength="107" x="1402" y="360.292">&#1055;&#1086;&#1076;&#1090;&#1074;&#1077;&#1088;&#1078;&#1076;&#1105;&#1085;</text><text fill="#000000" font-family="sans-serif" font-size="14" lengthAdjust="spacing" textLength="74" x="1402" y="376.5889">&#1054;&#1090;&#1082;&#1083;&#1086;&#1085;&#1105;&#1085;</text><line style="stroke:#181818;stroke-width:0.5;" x1="1397" x2="1548" y1="383.8906" y2="383.8906"/></g><!--class ComboBurger--><g id="elem_ComboBurger"><rect codeLine="84" fill="#F1F1F1" height="96.8906" id="ComboBurger" rx="2.5" ry="2.5" style="stroke:#181818;stroke-width:0.5;" width="261" x="7" y="295"/><ellipse cx="81.75" cy="311" fill="#ADD1B2" rx="11" ry="11" style="stroke:#181818;stroke-width:1.0;"/><path d="M80.5469,311.875 L82,311.875 L82,311.9844 C82,312.3906 82.0313,312.5469 82.1094,312.7031 C82.2656,312.9531 82.5469,313.1094 82.8438,313.1094 C83.0938,313.1094 83.3594,312.9688 83.5156,312.75 C83.6406,312.5938 83.6719,312.4375 83.6719,311.9844 L83.6719,310.0625 C83.6719,309.9063 83.6719,309.8594 83.6563,309.7031 C83.5938,309.2344 83.2813,308.9219 82.8281,308.9219 C82.5781,308.9219 82.3125,309.0625 82.1406,309.2813 C82.0313,309.4531 82,309.6094 82,310.0625 L82,310.1875 L80.5469,310.1875 L80.5469,307.7813 L84.5313,307.7813 L84.5313,308.6406 C84.5313,309.0469 84.5625,309.2188 84.6406,309.375 C84.8125,309.625 85.0938,309.7813 85.375,309.7813 C85.6406,309.7813 85.9063,309.6406 86.0781,309.4219 C86.1875,309.25 86.2188,309.1094 86.2188,308.6406 L86.2188,306.0938 L78.5938,306.0938 C78.1563,306.0938 78.0313,306.1094 77.875,306.2031 C77.625,306.3594 77.4688,306.6563 77.4688,306.9375 C77.4688,307.2188 77.6094,307.4688 77.8281,307.6406 C77.9844,307.75 78.1719,307.7813 78.5938,307.7813 L78.8438,307.7813 L78.8438,314.2969 L78.5938,314.2969 C78.1875,314.2969 78.0313,314.3125 77.875,314.4219 C77.625,314.5938 77.4688,314.8594 77.4688,315.1563 C77.4688,315.4219 77.6094,315.6719 77.8281,315.8281 C77.9688,315.9531 78.2031,316 78.5938,316 L86.5938,316 L86.5938,313.4219 C86.5938,312.9844 86.5625,312.8438 86.4844,312.6875 C86.3125,312.4375 86.0313,312.2813 85.75,312.2813 C85.4844,312.2813 85.2188,312.3906 85.0469,312.6406 C84.9375,312.7969 84.9063,312.9375 84.9063,313.4219 L84.9063,314.2969 L80.5469,314.2969 L80.5469,311.875 Z " fill="#000000"/><text fill="#000000" font-family="sans-serif" font-size="14" lengthAdjust="spacing" textLength="103" x="102.25" y="315.8467">&#1050;&#1086;&#1084;&#1073;&#1086;&#1041;&#1091;&#1088;&#1075;&#1077;&#1088;</text><line style="stroke:#181818;stroke-width:0.5;" x1="8" x2="267" y1="327" y2="327"/><text fill="#000000" font-family="sans-serif" font-size="14" lengthAdjust="spacing" textLength="70" x="13" y="343.9951">&#1053;&#1072;&#1079;&#1074;&#1072;&#1085;&#1080;&#1077;</text><text fill="#000000" font-family="sans-serif" font-size="14" lengthAdjust="spacing" textLength="249" x="13" y="360.292">&#1048;&#1085;&#1075;&#1088;&#1077;&#1076;&#1080;&#1077;&#1085;&#1090;&#1099; [2..10] &#1048;&#1085;&#1075;&#1088;&#1077;&#1076;&#1080;&#1077;&#1085;&#1090;</text><text fill="#000000" font-family="sans-serif" font-size="14" lengthAdjust="spacing" textLength="63" x="13" y="376.5889">&#1053;&#1072;&#1094;&#1077;&#1085;&#1082;&#1072;</text><line style="stroke:#181818;stroke-width:0.5;" x1="8" x2="267" y1="383.8906" y2="383.8906"/></g><!--class Ingredient--><g id="elem_Ingredient"><rect codeLine="90" fill="#F1F1F1" height="194.6719" id="Ingredient" rx="2.5" ry="2.5" style="stroke:#181818;stroke-width:0.5;" width="240" x="17.5" y="24"/><ellipse cx="87.25" cy="40" fill="#ADD1B2" rx="11" ry="11" style="stroke:#181818;stroke-width:1.0;"/><path d="M86.0469,40.875 L87.5,40.875 L87.5,40.9844 C87.5,41.3906 87.5313,41.5469 87.6094,41.7031 C87.7656,41.9531 88.0469,42.1094 88.3438,42.1094 C88.5938,42.1094 88.8594,41.9688 89.0156,41.75 C89.1406,41.5938 89.1719,41.4375 89.1719,40.9844 L89.1719,39.0625 C89.1719,38.9063 89.1719,38.8594 89.1563,38.7031 C89.0938,38.2344 88.7813,37.9219 88.3281,37.9219 C88.0781,37.9219 87.8125,38.0625 87.6406,38.2813 C87.5313,38.4531 87.5,38.6094 87.5,39.0625 L87.5,39.1875 L86.0469,39.1875 L86.0469,36.7813 L90.0313,36.7813 L90.0313,37.6406 C90.0313,38.0469 90.0625,38.2188 90.1406,38.375 C90.3125,38.625 90.5938,38.7813 90.875,38.7813 C91.1406,38.7813 91.4063,38.6406 91.5781,38.4219 C91.6875,38.25 91.7188,38.1094 91.7188,37.6406 L91.7188,35.0938 L84.0938,35.0938 C83.6563,35.0938 83.5313,35.1094 83.375,35.2031 C83.125,35.3594 82.9688,35.6563 82.9688,35.9375 C82.9688,36.2188 83.1094,36.4688 83.3281,36.6406 C83.4844,36.75 83.6719,36.7813 84.0938,36.7813 L84.3438,36.7813 L84.3438,43.2969 L84.0938,43.2969 C83.6875,43.2969 83.5313,43.3125 83.375,43.4219 C83.125,43.5938 82.9688,43.8594 82.9688,44.1563 C82.9688,44.4219 83.1094,44.6719 83.3281,44.8281 C83.4688,44.9531 83.7031,45 84.0938,45 L92.0938,45 L92.0938,42.4219 C92.0938,41.9844 92.0625,41.8438 91.9844,41.6875 C91.8125,41.4375 91.5313,41.2813 91.25,41.2813 C90.9844,41.2813 90.7188,41.3906 90.5469,41.6406 C90.4375,41.7969 90.4063,41.9375 90.4063,42.4219 L90.4063,43.2969 L86.0469,43.2969 L86.0469,40.875 Z " fill="#000000"/><text fill="#000000" font-family="sans-serif" font-size="14" lengthAdjust="spacing" textLength="92" x="107.75" y="44.8467">&#1048;&#1085;&#1075;&#1088;&#1077;&#1076;&#1080;&#1077;&#1085;&#1090;</text><line style="stroke:#181818;stroke-width:0.5;" x1="18.5" x2="256.5" y1="56" y2="56"/><text fill="#000000" font-family="sans-serif" font-size="14" lengthAdjust="spacing" textLength="70" x="23.5" y="72.9951">&#1053;&#1072;&#1079;&#1074;&#1072;&#1085;&#1080;&#1077;</text><text fill="#000000" font-family="sans-serif" font-size="14" lengthAdjust="spacing" textLength="46" x="23.5" y="89.292">&#1041;&#1077;&#1083;&#1082;&#1080;</text><text fill="#000000" font-family="sans-serif" font-size="14" lengthAdjust="spacing" textLength="45" x="23.5" y="105.5889">&#1046;&#1080;&#1088;&#1099;</text><text fill="#000000" font-family="sans-serif" font-size="14" lengthAdjust="spacing" textLength="74" x="23.5" y="121.8857">&#1059;&#1075;&#1083;&#1077;&#1074;&#1086;&#1076;&#1099;</text><text fill="#000000" font-family="sans-serif" font-size="14" lengthAdjust="spacing" textLength="108" x="23.5" y="138.1826">&#1050;&#1072;&#1083;&#1086;&#1088;&#1080;&#1081;&#1085;&#1086;&#1089;&#1090;&#1100;</text><text fill="#000000" font-family="sans-serif" font-size="14" lengthAdjust="spacing" textLength="38" x="23.5" y="154.4795">&#1062;&#1077;&#1085;&#1072;</text><text fill="#000000" font-family="sans-serif" font-size="14" lengthAdjust="spacing" textLength="202" x="23.5" y="170.7764">&#1052;&#1072;&#1082;&#1089;&#1080;&#1084;&#1072;&#1083;&#1100;&#1085;&#1086;&#1077; &#1082;&#1086;&#1083;&#1080;&#1095;&#1077;&#1089;&#1090;&#1074;&#1086;</text><text fill="#000000" font-family="sans-serif" font-size="14" lengthAdjust="spacing" textLength="125" x="23.5" y="187.0732">&#1054;&#1073;&#1103;&#1079;&#1072;&#1090;&#1077;&#1083;&#1100;&#1085;&#1086;&#1089;&#1090;&#1100;</text><text fill="#000000" font-family="sans-serif" font-size="14" lengthAdjust="spacing" textLength="228" x="23.5" y="203.3701">&#1057;&#1086;&#1095;&#1077;&#1090;&#1072;&#1085;&#1080;&#1077; &#1089; [0..*] &#1048;&#1085;&#1075;&#1088;&#1077;&#1076;&#1080;&#1077;&#1085;&#1090;</text><line style="stroke:#181818;stroke-width:0.5;" x1="18.5" x2="256.5" y1="210.6719" y2="210.6719"/></g><!--class Payment--><g id="elem_Payment"><rect codeLine="102" fill="#F1F1F1" height="145.7813" id="Payment" rx="2.5" ry="2.5" style="stroke:#181818;stroke-width:0.5;" width="213" x="942" y="500.5"/><ellipse cx="1026.25" cy="516.5" fill="#ADD1B2" rx="11" ry="11" style="stroke:#181818;stroke-width:1.0;"/><path d="M1025.0469,517.375 L1026.5,517.375 L1026.5,517.4844 C1026.5,517.8906 1026.5313,518.0469 1026.6094,518.2031 C1026.7656,518.4531 1027.0469,518.6094 1027.3438,518.6094 C1027.5938,518.6094 1027.8594,518.4688 1028.0156,518.25 C1028.1406,518.0938 1028.1719,517.9375 1028.1719,517.4844 L1028.1719,515.5625 C1028.1719,515.4063 1028.1719,515.3594 1028.1563,515.2031 C1028.0938,514.7344 1027.7813,514.4219 1027.3281,514.4219 C1027.0781,514.4219 1026.8125,514.5625 1026.6406,514.7813 C1026.5313,514.9531 1026.5,515.1094 1026.5,515.5625 L1026.5,515.6875 L1025.0469,515.6875 L1025.0469,513.2813 L1029.0313,513.2813 L1029.0313,514.1406 C1029.0313,514.5469 1029.0625,514.7188 1029.1406,514.875 C1029.3125,515.125 1029.5938,515.2813 1029.875,515.2813 C1030.1406,515.2813 1030.4063,515.1406 1030.5781,514.9219 C1030.6875,514.75 1030.7188,514.6094 1030.7188,514.1406 L1030.7188,511.5938 L1023.0938,511.5938 C1022.6563,511.5938 1022.5313,511.6094 1022.375,511.7031 C1022.125,511.8594 1021.9688,512.1563 1021.9688,512.4375 C1021.9688,512.7188 1022.1094,512.9688 1022.3281,513.1406 C1022.4844,513.25 1022.6719,513.2813 1023.0938,513.2813 L1023.3438,513.2813 L1023.3438,519.7969 L1023.0938,519.7969 C1022.6875,519.7969 1022.5313,519.8125 1022.375,519.9219 C1022.125,520.0938 1021.9688,520.3594 1021.9688,520.6563 C1021.9688,520.9219 1022.1094,521.1719 1022.3281,521.3281 C1022.4688,521.4531 1022.7031,521.5 1023.0938,521.5 L1031.0938,521.5 L1031.0938,518.9219 C1031.0938,518.4844 1031.0625,518.3438 1030.9844,518.1875 C1030.8125,517.9375 1030.5313,517.7813 1030.25,517.7813 C1029.9844,517.7813 1029.7188,517.8906 1029.5469,518.1406 C1029.4375,518.2969 1029.4063,518.4375 1029.4063,518.9219 L1029.4063,519.7969 L1025.0469,519.7969 L1025.0469,517.375 Z " fill="#000000"/><text fill="#000000" font-family="sans-serif" font-size="14" lengthAdjust="spacing" textLength="36" x="1046.75" y="521.3467">&#1057;&#1095;&#1105;&#1090;</text><line style="stroke:#181818;stroke-width:0.5;" x1="943" x2="1154" y1="532.5" y2="532.5"/><text fill="#000000" font-family="sans-serif" font-size="14" lengthAdjust="spacing" textLength="102" x="948" y="549.4951">&#1053;&#1086;&#1084;&#1077;&#1088; &#1079;&#1072;&#1082;&#1072;&#1079;&#1072;</text><text fill="#000000" font-family="sans-serif" font-size="14" lengthAdjust="spacing" textLength="36" x="948" y="565.792">&#1044;&#1072;&#1090;&#1072;</text><text fill="#000000" font-family="sans-serif" font-size="14" lengthAdjust="spacing" textLength="48" x="948" y="582.0889">&#1057;&#1091;&#1084;&#1084;&#1072;</text><text fill="#000000" font-family="sans-serif" font-size="14" lengthAdjust="spacing" textLength="201" x="948" y="598.3857">&#1058;&#1080;&#1087; &#1087;&#1083;&#1072;&#1090;&#1077;&#1078;&#1072;: &#1058;&#1080;&#1087; &#1087;&#1083;&#1072;&#1090;&#1077;&#1078;&#1072;</text><text fill="#000000" font-family="sans-serif" font-size="14" lengthAdjust="spacing" textLength="174" x="948" y="614.6826">&#1057;&#1090;&#1072;&#1090;&#1091;&#1089; &#1086;&#1087;&#1083;&#1072;&#1090;&#1099;: &#1054;&#1087;&#1083;&#1072;&#1090;&#1072;</text><text fill="#000000" font-family="sans-serif" font-size="14" lengthAdjust="spacing" textLength="177" x="948" y="630.9795">&#1053;&#1086;&#1084;&#1077;&#1088; &#1087;&#1086;&#1076;&#1090;&#1074;&#1077;&#1088;&#1078;&#1076;&#1077;&#1085;&#1080;&#1103;</text><line style="stroke:#181818;stroke-width:0.5;" x1="943" x2="1154" y1="638.2813" y2="638.2813"/></g><!--class Receipt--><g id="elem_Receipt"><rect codeLine="111" fill="#F1F1F1" height="48" id="Receipt" rx="2.5" ry="2.5" style="stroke:#181818;stroke-width:0.5;" width="59" x="936" y="319.5"/><ellipse cx="951" cy="335.5" fill="#ADD1B2" rx="11" ry="11" style="stroke:#181818;stroke-width:1.0;"/><path d="M949.7969,336.375 L951.25,336.375 L951.25,336.4844 C951.25,336.8906 951.2813,337.0469 951.3594,337.2031 C951.5156,337.4531 951.7969,337.6094 952.0938,337.6094 C952.3438,337.6094 952.6094,337.4688 952.7656,337.25 C952.8906,337.0938 952.9219,336.9375 952.9219,336.4844 L952.9219,334.5625 C952.9219,334.4063 952.9219,334.3594 952.9063,334.2031 C952.8438,333.7344 952.5313,333.4219 952.0781,333.4219 C951.8281,333.4219 951.5625,333.5625 951.3906,333.7813 C951.2813,333.9531 951.25,334.1094 951.25,334.5625 L951.25,334.6875 L949.7969,334.6875 L949.7969,332.2813 L953.7813,332.2813 L953.7813,333.1406 C953.7813,333.5469 953.8125,333.7188 953.8906,333.875 C954.0625,334.125 954.3438,334.2813 954.625,334.2813 C954.8906,334.2813 955.1563,334.1406 955.3281,333.9219 C955.4375,333.75 955.4688,333.6094 955.4688,333.1406 L955.4688,330.5938 L947.8438,330.5938 C947.4063,330.5938 947.2813,330.6094 947.125,330.7031 C946.875,330.8594 946.7188,331.1563 946.7188,331.4375 C946.7188,331.7188 946.8594,331.9688 947.0781,332.1406 C947.2344,332.25 947.4219,332.2813 947.8438,332.2813 L948.0938,332.2813 L948.0938,338.7969 L947.8438,338.7969 C947.4375,338.7969 947.2813,338.8125 947.125,338.9219 C946.875,339.0938 946.7188,339.3594 946.7188,339.6563 C946.7188,339.9219 946.8594,340.1719 947.0781,340.3281 C947.2188,340.4531 947.4531,340.5 947.8438,340.5 L955.8438,340.5 L955.8438,337.9219 C955.8438,337.4844 955.8125,337.3438 955.7344,337.1875 C955.5625,336.9375 955.2813,336.7813 955,336.7813 C954.7344,336.7813 954.4688,336.8906 954.2969,337.1406 C954.1875,337.2969 954.1563,337.4375 954.1563,337.9219 L954.1563,338.7969 L949.7969,338.7969 L949.7969,336.375 Z " fill="#000000"/><text fill="#000000" font-family="sans-serif" font-size="14" lengthAdjust="spacing" textLength="27" x="965" y="340.3467">&#1063;&#1077;&#1082;</text><line style="stroke:#181818;stroke-width:0.5;" x1="937" x2="994" y1="351.5" y2="351.5"/><line style="stroke:#181818;stroke-width:0.5;" x1="937" x2="994" y1="359.5" y2="359.5"/></g><!--class SmsGateway--><g id="elem_SmsGateway"><rect codeLine="114" fill="#F1F1F1" height="48" id="SmsGateway" rx="2.5" ry="2.5" style="stroke:#181818;stroke-width:0.5;" width="109" x="1584" y="319.5"/><ellipse cx="1599" cy="335.5" fill="#ADD1B2" rx="11" ry="11" style="stroke:#181818;stroke-width:1.0;"/><path d="M1597.7969,336.375 L1599.25,336.375 L1599.25,336.4844 C1599.25,336.8906 1599.2813,337.0469 1599.3594,337.2031 C1599.5156,337.4531 1599.7969,337.6094 1600.0938,337.6094 C1600.3438,337.6094 1600.6094,337.4688 1600.7656,337.25 C1600.8906,337.0938 1600.9219,336.9375 1600.9219,336.4844 L1600.9219,334.5625 C1600.9219,334.4063 1600.9219,334.3594 1600.9063,334.2031 C1600.8438,333.7344 1600.5313,333.4219 1600.0781,333.4219 C1599.8281,333.4219 1599.5625,333.5625 1599.3906,333.7813 C1599.2813,333.9531 1599.25,334.1094 1599.25,334.5625 L1599.25,334.6875 L1597.7969,334.6875 L1597.7969,332.2813 L1601.7813,332.2813 L1601.7813,333.1406 C1601.7813,333.5469 1601.8125,333.7188 1601.8906,333.875 C1602.0625,334.125 1602.3438,334.2813 1602.625,334.2813 C1602.8906,334.2813 1603.1563,334.1406 1603.3281,333.9219 C1603.4375,333.75 1603.4688,333.6094 1603.4688,333.1406 L1603.4688,330.5938 L1595.8438,330.5938 C1595.4063,330.5938 1595.2813,330.6094 1595.125,330.7031 C1594.875,330.8594 1594.7188,331.1563 1594.7188,331.4375 C1594.7188,331.7188 1594.8594,331.9688 1595.0781,332.1406 C1595.2344,332.25 1595.4219,332.2813 1595.8438,332.2813 L1596.0938,332.2813 L1596.0938,338.7969 L1595.8438,338.7969 C1595.4375,338.7969 1595.2813,338.8125 1595.125,338.9219 C1594.875,339.0938 1594.7188,339.3594 1594.7188,339.6563 C1594.7188,339.9219 1594.8594,340.1719 1595.0781,340.3281 C1595.2188,340.4531 1595.4531,340.5 1595.8438,340.5 L1603.8438,340.5 L1603.8438,337.9219 C1603.8438,337.4844 1603.8125,337.3438 1603.7344,337.1875 C1603.5625,336.9375 1603.2813,336.7813 1603,336.7813 C1602.7344,336.7813 1602.4688,336.8906 1602.2969,337.1406 C1602.1875,337.2969 1602.1563,337.4375 1602.1563,337.9219 L1602.1563,338.7969 L1597.7969,338.7969 L1597.7969,336.375 Z " fill="#000000"/><text fill="#000000" font-family="sans-serif" font-size="14" lengthAdjust="spacing" textLength="77" x="1613" y="340.3467">&#1057;&#1052;&#1057; &#1096;&#1083;&#1102;&#1079;</text><line style="stroke:#181818;stroke-width:0.5;" x1="1585" x2="1692" y1="351.5" y2="351.5"/><line style="stroke:#181818;stroke-width:0.5;" x1="1585" x2="1692" y1="359.5" y2="359.5"/></g><!--class PermitionPayment--><g id="elem_PermitionPayment"><rect codeLine="117" fill="#F1F1F1" height="194.6719" id="PermitionPayment" rx="2.5" ry="2.5" style="stroke:#181818;stroke-width:0.5;" width="263" x="1129" y="24"/><ellipse cx="1206.25" cy="40" fill="#ADD1B2" rx="11" ry="11" style="stroke:#181818;stroke-width:1.0;"/><path d="M1205.0469,40.875 L1206.5,40.875 L1206.5,40.9844 C1206.5,41.3906 1206.5313,41.5469 1206.6094,41.7031 C1206.7656,41.9531 1207.0469,42.1094 1207.3438,42.1094 C1207.5938,42.1094 1207.8594,41.9688 1208.0156,41.75 C1208.1406,41.5938 1208.1719,41.4375 1208.1719,40.9844 L1208.1719,39.0625 C1208.1719,38.9063 1208.1719,38.8594 1208.1563,38.7031 C1208.0938,38.2344 1207.7813,37.9219 1207.3281,37.9219 C1207.0781,37.9219 1206.8125,38.0625 1206.6406,38.2813 C1206.5313,38.4531 1206.5,38.6094 1206.5,39.0625 L1206.5,39.1875 L1205.0469,39.1875 L1205.0469,36.7813 L1209.0313,36.7813 L1209.0313,37.6406 C1209.0313,38.0469 1209.0625,38.2188 1209.1406,38.375 C1209.3125,38.625 1209.5938,38.7813 1209.875,38.7813 C1210.1406,38.7813 1210.4063,38.6406 1210.5781,38.4219 C1210.6875,38.25 1210.7188,38.1094 1210.7188,37.6406 L1210.7188,35.0938 L1203.0938,35.0938 C1202.6563,35.0938 1202.5313,35.1094 1202.375,35.2031 C1202.125,35.3594 1201.9688,35.6563 1201.9688,35.9375 C1201.9688,36.2188 1202.1094,36.4688 1202.3281,36.6406 C1202.4844,36.75 1202.6719,36.7813 1203.0938,36.7813 L1203.3438,36.7813 L1203.3438,43.2969 L1203.0938,43.2969 C1202.6875,43.2969 1202.5313,43.3125 1202.375,43.4219 C1202.125,43.5938 1201.9688,43.8594 1201.9688,44.1563 C1201.9688,44.4219 1202.1094,44.6719 1202.3281,44.8281 C1202.4688,44.9531 1202.7031,45 1203.0938,45 L1211.0938,45 L1211.0938,42.4219 C1211.0938,41.9844 1211.0625,41.8438 1210.9844,41.6875 C1210.8125,41.4375 1210.5313,41.2813 1210.25,41.2813 C1209.9844,41.2813 1209.7188,41.3906 1209.5469,41.6406 C1209.4375,41.7969 1209.4063,41.9375 1209.4063,42.4219 L1209.4063,43.2969 L1205.0469,43.2969 L1205.0469,40.875 Z " fill="#000000"/><text fill="#000000" font-family="sans-serif" font-size="14" lengthAdjust="spacing" textLength="100" x="1226.75" y="44.8467">&#1054;&#1087;&#1083;&#1072;&#1090;&#1072; &#1089;&#1095;&#1105;&#1090;&#1072;</text><line style="stroke:#181818;stroke-width:0.5;" x1="1130" x2="1391" y1="56" y2="56"/><text fill="#000000" font-family="sans-serif" font-size="14" lengthAdjust="spacing" textLength="49" x="1135" y="72.9951">&#1053;&#1086;&#1084;&#1077;&#1088;</text><text fill="#000000" font-family="sans-serif" font-size="14" lengthAdjust="spacing" textLength="36" x="1135" y="89.292">&#1041;&#1072;&#1085;&#1082;</text><text fill="#000000" font-family="sans-serif" font-size="14" lengthAdjust="spacing" textLength="100" x="1135" y="105.5889">&#1053;&#1086;&#1084;&#1077;&#1088; &#1082;&#1072;&#1088;&#1090;&#1099;</text><text fill="#000000" font-family="sans-serif" font-size="14" lengthAdjust="spacing" textLength="67" x="1135" y="121.8857">&#1058;&#1077;&#1083;&#1077;&#1092;&#1086;&#1085;</text><text fill="#000000" font-family="sans-serif" font-size="14" lengthAdjust="spacing" textLength="60" x="1135" y="138.1826">&#1050;&#1086;&#1076; &#1089;&#1084;&#1089;</text><text fill="#000000" font-family="sans-serif" font-size="14" lengthAdjust="spacing" textLength="251" x="1135" y="154.4795">&#1057;&#1090;&#1072;&#1090;&#1091;&#1089; &#1087;&#1083;&#1072;&#1090;&#1077;&#1078;&#1072;: &#1057;&#1090;&#1072;&#1090;&#1091;&#1089; &#1087;&#1083;&#1072;&#1090;&#1077;&#1078;&#1072;</text><line style="stroke:#181818;stroke-width:0.5;" x1="1130" x2="1391" y1="161.7813" y2="161.7813"/><ellipse cx="1140" cy="175.4297" fill="#84BE84" rx="3" ry="3" style="stroke:#038048;stroke-width:1.0;"/><text fill="#000000" font-family="sans-serif" font-size="14" lengthAdjust="spacing" textLength="135" x="1149" y="178.7764">&#1054;&#1087;&#1083;&#1072;&#1090;&#1072; &#1087;&#1086; &#1082;&#1072;&#1088;&#1090;&#1077;()</text><ellipse cx="1140" cy="191.7266" fill="#84BE84" rx="3" ry="3" style="stroke:#038048;stroke-width:1.0;"/><text fill="#000000" font-family="sans-serif" font-size="14" lengthAdjust="spacing" textLength="146" x="1149" y="195.0732">&#1054;&#1087;&#1083;&#1072;&#1090;&#1072; &#1095;&#1077;&#1088;&#1077;&#1079; &#1057;&#1041;&#1055;()</text><ellipse cx="1140" cy="208.0234" fill="#84BE84" rx="3" ry="3" style="stroke:#038048;stroke-width:1.0;"/><text fill="#000000" font-family="sans-serif" font-size="14" lengthAdjust="spacing" textLength="151" x="1149" y="211.3701">&#1054;&#1087;&#1083;&#1072;&#1090;&#1072; &#1085;&#1072;&#1083;&#1080;&#1095;&#1085;&#1099;&#1084;&#1080;()</text></g><!--link Ingredient to ComboBurger--><g id="link_Ingredient_ComboBurger"><path codeLine="130" d="M97.5,219.195 C97.5,245.369 97.5,260.544 97.5,282.786 " fill="none" id="Ingredient-to-ComboBurger" style="stroke:#181818;stroke-width:1.0;"/><polygon fill="none" points="97.5,294.786,101.5,288.786,97.5,282.786,93.5,288.786,97.5,294.786" style="stroke:#181818;stroke-width:1.0;"/><text fill="#000000" font-family="sans-serif" font-size="13" lengthAdjust="spacing" textLength="23" x="70.8789" y="238.6746">0..*</text><text fill="#000000" font-family="sans-serif" font-size="13" lengthAdjust="spacing" textLength="32" x="57.625" y="283.9648">2..10</text></g><!--link Ingredient to Ingredient--><g id="link_Ingredient_Ingredient"><path codeLine="131" d="M137.5,23.542 C137.5,12.995 137.5,6 137.5,6 C137.5,6 262.75,6 262.75,6 C262.75,6 262.75,249 262.75,249 C262.75,249 177.5,249 177.5,249 C177.5,249 177.5,236.393 177.5,219.107 " fill="none" id="Ingredient-Ingredient" style="stroke:#181818;stroke-width:1.0;"/></g><!--link Product to Cart--><g id="link_Product_Cart"><path codeLine="132" d="M281,679.424 C281,715.546 281,747 281,747 C281,747 344.441,747 416.934,747 " fill="none" id="Product-to-Cart" style="stroke:#181818;stroke-width:1.0;"/><polygon fill="none" points="428.934,747,422.934,743,416.934,747,422.934,751,428.934,747" style="stroke:#181818;stroke-width:1.0;"/><text fill="#000000" font-family="sans-serif" font-size="13" lengthAdjust="spacing" textLength="32" x="254.2742" y="699.1171">1..50</text><text fill="#000000" font-family="sans-serif" font-size="13" lengthAdjust="spacing" textLength="24" x="397.0827" y="741.0029">0..1</text></g><!--link Product to Product--><g id="link_Product_Product"><path codeLine="133" d="M307.5,467.736 C307.5,450.418 307.5,438 307.5,438 C307.5,438 322,438 322,438 C322,438 322,709 322,709 C322,709 296.5,709 296.5,709 C296.5,709 296.5,708.582 296.5,691.264 " fill="none" id="Product-to-Product" style="stroke:#181818;stroke-width:1.0;"/><polygon fill="none" points="296.5,679.264,292.5,685.264,296.5,691.264,300.5,685.264,296.5,679.264" style="stroke:#181818;stroke-width:1.0;"/></g><!--link Order to Cart--><g id="link_Order_Cart"><path codeLine="134" d="M560.5,646.806 C560.5,676.739 560.5,692.82 560.5,720.797 " fill="none" id="Order-to-Cart" style="stroke:#181818;stroke-width:1.0;"/><polygon fill="none" points="560.5,738.797,566.5,720.797,554.5,720.797,560.5,738.797" style="stroke:#181818;stroke-width:1.0;"/></g><!--link Cart to CartStatus--><g id="link_Cart_CartStatus"><path codeLine="135" d="M560.5,852.284 C560.5,874.47 560.5,899.413 560.5,919.7565 " fill="none" id="Cart-CartStatus" style="stroke:#181818;stroke-width:1.0;"/></g><!--link PaymentStatus to Payment--><g id="link_PaymentStatus_Payment"><path codeLine="136" d="M1119.33,384.09 C1119.33,416.201 1119.33,449.878 1119.33,488.33 " fill="none" id="PaymentStatus-to-Payment" style="stroke:#181818;stroke-width:1.0;"/><polygon fill="#181818" points="1119.33,500.33,1123.33,494.33,1119.33,488.33,1115.33,494.33,1119.33,500.33" style="stroke:#181818;stroke-width:1.0;"/></g><!--link OrderStatus to Order--><g id="link_OrderStatus_Order"><path codeLine="137" d="M426.5,408.18 C426.5,436.879 426.5,470.787 426.5,500.401 " fill="none" id="OrderStatus-Order" style="stroke:#181818;stroke-width:1.0;"/></g><!--link Obtaining to Order--><g id="link_Obtaining_Order"><path codeLine="138" d="M560.5,384.09 C560.5,416.201 560.5,461.878 560.5,500.33 " fill="none" id="Obtaining-Order" style="stroke:#181818;stroke-width:1.0;"/></g><!--link MenuSection to Menu--><g id="link_MenuSection_Menu"><path codeLine="139" d="M186.5,836.287 C186.5,859.19 186.5,875.915 186.5,899.9704 " fill="none" id="MenuSection-to-Menu" style="stroke:#181818;stroke-width:1.0;"/><polygon fill="#181818" points="186.5,911.9704,190.5,905.9704,186.5,899.9704,182.5,905.9704,186.5,911.9704" style="stroke:#181818;stroke-width:1.0;"/><text fill="#000000" font-family="sans-serif" font-size="13" lengthAdjust="spacing" textLength="23" x="161.7391" y="855.7891">1..*</text><text fill="#000000" font-family="sans-serif" font-size="13" lengthAdjust="spacing" textLength="23" x="161.8109" y="900.8253">1..*</text></g><!--link Product to MenuSection--><g id="link_Product_MenuSection"><path codeLine="140" d="M186.5,679.299 C186.5,706.213 186.5,721.535 186.5,742.919 " fill="none" id="Product-to-MenuSection" style="stroke:#181818;stroke-width:1.0;"/><polygon fill="none" points="186.5,754.919,190.5,748.919,186.5,742.919,182.5,748.919,186.5,754.919" style="stroke:#181818;stroke-width:1.0;"/><text fill="#000000" font-family="sans-serif" font-size="13" lengthAdjust="spacing" textLength="23" x="162.7273" y="698.9837">1..*</text><text fill="#000000" font-family="sans-serif" font-size="13" lengthAdjust="spacing" textLength="23" x="161.5953" y="744.0671">1..*</text></g><!--link ComboBurger to Product--><g id="link_ComboBurger_Product"><path codeLine="141" d="M164.5,392.277 C164.5,414.298 164.5,423.234 164.5,449.536 " fill="none" id="ComboBurger-to-Product" style="stroke:#181818;stroke-width:1.0;"/><polygon fill="none" points="164.5,467.536,170.5,449.536,158.5,449.536,164.5,467.536" style="stroke:#181818;stroke-width:1.0;"/></g><!--link Client to Cart--><g id="link_Client_Cart"><path codeLine="142" d="M804.25,392.355 C804.25,509.362 804.25,796 804.25,796 C804.25,796 755.57,796 698.007,796 " fill="none" id="Client-to-Cart" style="stroke:#181818;stroke-width:1.0;"/><polygon fill="#181818" points="692.007,796,701.007,800,697.007,796,701.007,792,692.007,796" style="stroke:#181818;stroke-width:1.0;"/><text fill="#000000" font-family="sans-serif" font-size="13" lengthAdjust="spacing" textLength="75" x="728.25" y="646.3659">&#1060;&#1086;&#1088;&#1084;&#1080;&#1088;&#1091;&#1077;&#1090;</text><text fill="#000000" font-family="sans-serif" font-size="13" lengthAdjust="spacing" textLength="8" x="797.5602" y="412.0109">1</text><text fill="#000000" font-family="sans-serif" font-size="13" lengthAdjust="spacing" textLength="23" x="699.8277" y="792.6826">0..*</text></g><!--link Client to Order--><g id="link_Client_Order"><path codeLine="143" d="M694.25,392.277 C694.25,423.661 694.25,459.026 694.25,494.312 " fill="none" id="Client-to-Order" style="stroke:#181818;stroke-width:1.0;"/><polygon fill="#181818" points="694.25,500.312,698.25,491.312,694.25,495.312,690.25,491.312,694.25,500.312" style="stroke:#181818;stroke-width:1.0;"/><text fill="#000000" font-family="sans-serif" font-size="13" lengthAdjust="spacing" textLength="64" x="629.25" y="442.3609">&#1055;&#1086;&#1083;&#1091;&#1095;&#1072;&#1077;&#1090;</text><text fill="#000000" font-family="sans-serif" font-size="13" lengthAdjust="spacing" textLength="8" x="672.7789" y="411.9224">1</text><text fill="#000000" font-family="sans-serif" font-size="13" lengthAdjust="spacing" textLength="23" x="683.284" y="489.4535">0..*</text></g><!--link Client to Payment--><g id="link_Client_Payment"><path codeLine="144" d="M900.5,387 C932.811,387 959.667,387 959.667,387 C959.667,387 959.667,442.077 959.667,494.326 " fill="none" id="Client-to-Payment" style="stroke:#181818;stroke-width:1.0;"/><polygon fill="#181818" points="959.667,500.326,963.667,491.326,959.667,495.326,955.667,491.326,959.667,500.326" style="stroke:#181818;stroke-width:1.0;"/><text fill="#000000" font-family="sans-serif" font-size="13" lengthAdjust="spacing" textLength="80" x="878.667" y="410.1469">&#1054;&#1087;&#1083;&#1072;&#1095;&#1080;&#1074;&#1072;&#1077;&#1090;</text><text fill="#000000" font-family="sans-serif" font-size="13" lengthAdjust="spacing" textLength="8" x="908.5156" y="386.6067">1</text><text fill="#000000" font-family="sans-serif" font-size="13" lengthAdjust="spacing" textLength="23" x="926.7905" y="489.4689">0..*</text></g><!--link PaymentType to Payment--><g id="link_PaymentType_Payment"><path codeLine="145" d="M1232.15,390 C1187.93,390 1137.17,390 1137.17,390 C1137.17,390 1137.17,443.276 1137.17,494.449 " fill="none" id="PaymentType-to-Payment" style="stroke:#181818;stroke-width:1.0;"/><polygon fill="#181818" points="1137.17,500.449,1141.17,491.449,1137.17,495.449,1133.17,491.449,1137.17,500.449" style="stroke:#181818;stroke-width:1.0;"/></g><!--link Receipt to Payment--><g id="link_Receipt_Payment"><path codeLine="146" d="M977.333,367.679 C977.333,398.935 977.333,436.765 977.333,482.399 " fill="none" id="Receipt-to-Payment" style="stroke:#181818;stroke-width:1.0;"/><polygon fill="none" points="977.333,500.399,983.333,482.399,971.333,482.399,977.333,500.399" style="stroke:#181818;stroke-width:1.0;"/></g><!--link PermitionPayment to PaymentState--><g id="link_PermitionPayment_PaymentState"><path codeLine="147" d="M1376.25,219.092 C1376.25,278.875 1376.25,344 1376.25,344 C1376.25,344 1384.29,344 1395.73,344 " fill="none" id="PermitionPayment-PaymentState" style="stroke:#181818;stroke-width:1.0;"/></g><!--link PermitionPayment to SmsGateway--><g id="link_PermitionPayment_SmsGateway"><path codeLine="148" d="M1392.18,122 C1501.27,122 1638.5,122 1638.5,122 C1638.5,122 1638.5,261.966 1638.5,319.374 " fill="none" id="PermitionPayment-SmsGateway" style="stroke:#181818;stroke-width:1.0;"/></g><!--reverse link PermitionPayment to Payment--><g id="link_PermitionPayment_Payment"><path codeLine="149" d="M1215,231.129 C1215,364.151 1215,574 1215,574 C1215,574 1187.78,574 1155.36,574 " fill="none" id="PermitionPayment-backto-Payment" style="stroke:#181818;stroke-width:1.0;"/><polygon fill="none" points="1215,219.129,1211,225.129,1215,231.129,1219,225.129,1215,219.129" style="stroke:#181818;stroke-width:1.0;"/></g><!--reverse link PermitionPayment to Client--><g id="link_PermitionPayment_Client"><path codeLine="150" d="M1163.25,231.077 C1163.25,272.323 1163.25,299 1163.25,299 C1163.25,299 1010.51,299 900.573,299 " fill="none" id="PermitionPayment-backto-Client" style="stroke:#181818;stroke-width:1.0;"/><polygon fill="none" points="1163.25,219.077,1159.25,225.077,1163.25,231.077,1167.25,225.077,1163.25,219.077" style="stroke:#181818;stroke-width:1.0;"/></g><!--SRC=[fLPDRoD54BtthsZv144J9KXSSjW3AuGu89ODjnK7Rp8A5cixScoX290SPqMGijh8W60LXGqRLd2TP3tOww_yXPf_nAlgZscFnv4G1yiptTLLhrw_gfg3hskD_MghMjTFQesuVRWVwsQh_LLJgOyQxLhxKDz_KeiRRLqzq1KwfmcDAALPrgleRnLTuNb2QVQKvZHJT9brQOwN4KsoPvfjinEQOUyDpJMDAQ5hxCrme4U9eZuM9Z0zPTDvTiQds3mxmlv8VUyXF6WrTpix5iCL_DrGadK5mU_mCUHt70GoHI_f5c6FyeM-O1p38VsAdMvsgkXF809kd9lJW1VE1SeS-4Vqrc78dYbwZSSUPu2jX5FBpXJznHHm1Y_mnpif3HmloERHvlhwsfUwR5VHJx8mpSuqtKguDpR2ZI2QIOGyzK_ZHiVaVI4UdfTdVOM_MqrJOwFe3p4OSEfChrtto90kOgOIkyiHywEBeRVZdNQjsN2tl-hKAb3sfdnSlnA4kLzjUNMntw589B7w2ZryiB7WWbvbnm0mvOi8MON193k6yXoRCEmnT2mUiGnzbEnqIz-n6O3yhBKRjmpAtv0WItbeavup2Gpd5w4dAOGREdDAYi62BHnYuD3jdAvBSk2ZTngm0sWSLmwFubgZs6nz_HVLTUfo8zljQhjpO39UpP1Gy5fMfb9RnrpRg1qX_Mc-OIvDYiP54KfNXWcuaI2lu845dVW-0mH3Ky08O6F-xBBYZ4-T-Kki6Q7syUhZFsvNQurQOyz63-czBD9hC6YpZzzR130WGPzt-Q1wM4Ul39FYTZGnmh1wIJNEcqLnhxoDUIqu-u8xicryKkFENqh_U9-9wxL8EfLkXhjWBNx-CE8Req4PnhY4zsNlBuI17n0yk4Sb50rWUCFYX_50o1MknznAGxPDdJVhZviVTbfxhf3EfNIOpJvYTo79T5LJNz5dtrzVtznOrMZX1AZv_iPETOBZayPUAzxDPrh9uN8G_s-G-9bnmSg6a4RSkTp8OrNmFPbhJ6K2mYThung3SMZl91YGx1D58TOz1n82rOysLa-VOAGQ6JW5d6HzdxPjQ8N-57GtttNB5BcbIvSBNT5LG4zQS50a2m1kYneh6P0FuvsujcyJ-Hi6OquZtz-k7tmCgNzJFNHrVi65_2EuV6vwU41AtAhNUDuji1EW0x-6AbzvllltvGx62_Z7fWvP5uKl9TR-WDl9D3jITrHWSMGiSlhU0dN2bmzAwJll5Wr4BAo88O-JFbqkcx16WsQ2vWqRCAI2igcmmYewYfgw8YLO2Oixj8oYeDoK-uoho2ot3k1hio8Zn-_pkdrMPl16qNVtZ8ryBS1jFgFKOjUDeZKdRXME69oHLvNtVRyKVkamE4bkpJtoxW9sbtk-RG-hiCS9PfU6_OYkRFBHUuv1IGPNl3H1LzWRChR2-PJSOUvK75JO2KhpnXuA1moVSgovYZ89sCMbqW1vuIWfDSXhRtcxcJietpGv_Gi0]--></g></svg>