<?xml version="1.0" encoding="us-ascii" standalone="no"?><svg xmlns="http://www.w3.org/2000/svg" xmlns:xlink="http://www.w3.org/1999/xlink" contentStyleType="text/css" height="1016px" preserveAspectRatio="none" style="width:1684px;height:1016px;background:#FFFFFF;" version="1.1" viewBox="0 0 1684 1016" width="1684px" zoomAndPan="magnify"><defs/><g><!--class Client--><g id="elem_Client"><rect codeLine="3" fill="#F1F1F1" height="96.8906" id="Client" rx="2.5" ry="2.5" style="stroke:#181818;stroke-width:0.5;" width="216" x="671" y="294.77"/><ellipse cx="747.25" cy="310.77" fill="#ADD1B2" rx="11" ry="11" style="stroke:#181818;stroke-width:1.0;"/><path d="M751.3594,316.77 L743.6406,316.77 L743.6406,304.3794 L751.3594,304.3794 L751.3594,306.5356 L746.0938,306.5356 L746.0938,309.2075 L750.8594,309.2075 L750.8594,311.3638 L746.0938,311.3638 L746.0938,314.6138 L751.3594,314.6138 L751.3594,316.77 Z " fill="#000000"/><text fill="#000000" font-family="sans-serif" font-size="14" lengthAdjust="spacing" textLength="55" x="767.75" y="315.6167">&#1050;&#1083;&#1080;&#1077;&#1085;&#1090;</text><line style="stroke:#181818;stroke-width:0.5;" x1="672" x2="886" y1="326.77" y2="326.77"/><text fill="#000000" font-family="sans-serif" font-size="14" lengthAdjust="spacing" textLength="67" x="677" y="343.7651">&#1058;&#1077;&#1083;&#1077;&#1092;&#1086;&#1085;</text><text fill="#000000" font-family="sans-serif" font-size="14" lengthAdjust="spacing" textLength="204" x="677" y="360.062">&#1055;&#1088;&#1086;&#1092;&#1080;&#1083;&#1100; &#1083;&#1080;&#1095;&#1085;&#1086;&#1075;&#1086; &#1082;&#1072;&#1073;&#1080;&#1085;&#1077;&#1090;&#1072;</text><text fill="#000000" font-family="sans-serif" font-size="14" lengthAdjust="spacing" textLength="138" x="677" y="376.3589">&#1041;&#1072;&#1083;&#1083;&#1099; &#1083;&#1086;&#1103;&#1083;&#1100;&#1085;&#1086;&#1089;&#1090;&#1080;</text><line style="stroke:#181818;stroke-width:0.5;" x1="672" x2="886" y1="383.6606" y2="383.6606"/></g><!--class Product--><g id="elem_Product"><rect codeLine="9" fill="#F1F1F1" height="210.9688" id="Product" rx="2.5" ry="2.5" style="stroke:#181818;stroke-width:0.5;" width="245" x="60.5" y="467.95"/><ellipse cx="157.25" cy="483.95" fill="#ADD1B2" rx="11" ry="11" style="stroke:#181818;stroke-width:1.0;"/><path d="M161.3594,489.95 L153.6406,489.95 L153.6406,477.5594 L161.3594,477.5594 L161.3594,479.7156 L156.0938,479.7156 L156.0938,482.3875 L160.8594,482.3875 L160.8594,484.5438 L156.0938,484.5438 L156.0938,487.7938 L161.3594,487.7938 L161.3594,489.95 Z " fill="#000000"/><text fill="#000000" font-family="sans-serif" font-size="14" lengthAdjust="spacing" textLength="43" x="177.75" y="488.7967">&#1058;&#1086;&#1074;&#1072;&#1088;</text><line style="stroke:#181818;stroke-width:0.5;" x1="61.5" x2="304.5" y1="499.95" y2="499.95"/><text fill="#000000" font-family="sans-serif" font-size="14" lengthAdjust="spacing" textLength="69" x="66.5" y="516.9451">&#1053;&#1072;&#1079;&#1074;&#1072;&#1085;&#1080;&#1077;</text><text fill="#000000" font-family="sans-serif" font-size="14" lengthAdjust="spacing" textLength="72" x="66.5" y="533.242">&#1054;&#1087;&#1080;&#1089;&#1072;&#1085;&#1080;&#1077;</text><text fill="#000000" font-family="sans-serif" font-size="14" lengthAdjust="spacing" textLength="45" x="66.5" y="549.5389">&#1041;&#1077;&#1083;&#1082;&#1080;</text><text fill="#000000" font-family="sans-serif" font-size="14" lengthAdjust="spacing" textLength="44" x="66.5" y="565.8357">&#1046;&#1080;&#1088;&#1099;</text><text fill="#000000" font-family="sans-serif" font-size="14" lengthAdjust="spacing" textLength="71" x="66.5" y="582.1326">&#1059;&#1075;&#1083;&#1077;&#1074;&#1086;&#1076;&#1099;</text><text fill="#000000" font-family="sans-serif" font-size="14" lengthAdjust="spacing" textLength="106" x="66.5" y="598.4295">&#1050;&#1072;&#1083;&#1086;&#1088;&#1080;&#1081;&#1085;&#1086;&#1089;&#1090;&#1100;</text><text fill="#000000" font-family="sans-serif" font-size="14" lengthAdjust="spacing" textLength="94" x="66.5" y="614.7264">&#1060;&#1086;&#1090;&#1086;&#1075;&#1088;&#1072;&#1092;&#1080;&#1103;</text><text fill="#000000" font-family="sans-serif" font-size="14" lengthAdjust="spacing" textLength="37" x="66.5" y="631.0232">&#1062;&#1077;&#1085;&#1072;</text><text fill="#000000" font-family="sans-serif" font-size="14" lengthAdjust="spacing" textLength="233" x="66.5" y="647.3201">&#1048;&#1085;&#1075;&#1088;&#1077;&#1076;&#1080;&#1077;&#1085;&#1090;&#1099; [1..*] &#1048;&#1085;&#1075;&#1088;&#1077;&#1076;&#1080;&#1077;&#1085;&#1090;</text><text fill="#000000" font-family="sans-serif" font-size="14" lengthAdjust="spacing" textLength="163" x="66.5" y="663.617">&#1042;&#1088;&#1077;&#1084;&#1103; &#1087;&#1088;&#1080;&#1075;&#1086;&#1090;&#1086;&#1074;&#1083;&#1077;&#1085;&#1080;&#1103;</text><line style="stroke:#181818;stroke-width:0.5;" x1="61.5" x2="304.5" y1="670.9188" y2="670.9188"/></g><!--class Menu--><g id="elem_Menu"><rect codeLine="22" fill="#F1F1F1" height="96.8906" id="Menu" rx="2.5" ry="2.5" style="stroke:#181818;stroke-width:0.5;" width="284" x="41" y="912.11"/><ellipse cx="157.75" cy="928.11" fill="#ADD1B2" rx="11" ry="11" style="stroke:#181818;stroke-width:1.0;"/><path d="M161.8594,934.11 L154.1406,934.11 L154.1406,921.7194 L161.8594,921.7194 L161.8594,923.8756 L156.5938,923.8756 L156.5938,926.5475 L161.3594,926.5475 L161.3594,928.7038 L156.5938,928.7038 L156.5938,931.9538 L161.8594,931.9538 L161.8594,934.11 Z " fill="#000000"/><text fill="#000000" font-family="sans-serif" font-size="14" lengthAdjust="spacing" textLength="42" x="178.25" y="932.9567">&#1052;&#1077;&#1085;&#1102;</text><line style="stroke:#181818;stroke-width:0.5;" x1="42" x2="324" y1="944.11" y2="944.11"/><text fill="#000000" font-family="sans-serif" font-size="14" lengthAdjust="spacing" textLength="69" x="47" y="961.1051">&#1053;&#1072;&#1079;&#1074;&#1072;&#1085;&#1080;&#1077;</text><text fill="#000000" font-family="sans-serif" font-size="14" lengthAdjust="spacing" textLength="71" x="47" y="977.402">&#1058;&#1080;&#1087; &#1084;&#1077;&#1085;&#1102;</text><text fill="#000000" font-family="sans-serif" font-size="14" lengthAdjust="spacing" textLength="272" x="47" y="993.6989">&#1056;&#1072;&#1079;&#1076;&#1077;&#1083;&#1099; &#1084;&#1077;&#1085;&#1102; [1..*] &#1050;&#1072;&#1090;&#1077;&#1075;&#1086;&#1088;&#1080;&#1103; &#1084;&#1077;&#1085;&#1102;</text><line style="stroke:#181818;stroke-width:0.5;" x1="42" x2="324" y1="1001.0006" y2="1001.0006"/></g><!--class MenuSection--><g id="elem_MenuSection"><rect codeLine="28" fill="#F1F1F1" height="80.5938" id="MenuSection" rx="2.5" ry="2.5" style="stroke:#181818;stroke-width:0.5;" width="154" x="106" y="755.22"/><ellipse cx="121" cy="771.22" fill="#ADD1B2" rx="11" ry="11" style="stroke:#181818;stroke-width:1.0;"/><path d="M125.1094,777.22 L117.3906,777.22 L117.3906,764.8294 L125.1094,764.8294 L125.1094,766.9856 L119.8438,766.9856 L119.8438,769.6575 L124.6094,769.6575 L124.6094,771.8138 L119.8438,771.8138 L119.8438,775.0638 L125.1094,775.0638 L125.1094,777.22 Z " fill="#000000"/><text fill="#000000" font-family="sans-serif" font-size="14" lengthAdjust="spacing" textLength="122" x="135" y="776.0667">&#1050;&#1072;&#1090;&#1077;&#1075;&#1086;&#1088;&#1080;&#1103; &#1084;&#1077;&#1085;&#1102;</text><line style="stroke:#181818;stroke-width:0.5;" x1="107" x2="259" y1="787.22" y2="787.22"/><text fill="#000000" font-family="sans-serif" font-size="14" lengthAdjust="spacing" textLength="69" x="112" y="804.2151">&#1053;&#1072;&#1079;&#1074;&#1072;&#1085;&#1080;&#1077;</text><text fill="#000000" font-family="sans-serif" font-size="14" lengthAdjust="spacing" textLength="128" x="112" y="820.512">&#1058;&#1086;&#1074;&#1072;&#1088; [1..*] &#1058;&#1086;&#1074;&#1072;&#1088;</text><line style="stroke:#181818;stroke-width:0.5;" x1="107" x2="259" y1="827.8138" y2="827.8138"/></g><!--class Cart--><g id="elem_Cart"><rect codeLine="33" fill="#F1F1F1" height="113.1875" id="Cart" rx="2.5" ry="2.5" style="stroke:#181818;stroke-width:0.5;" width="257" x="423.5" y="738.92"/><ellipse cx="516.75" cy="754.92" fill="#ADD1B2" rx="11" ry="11" style="stroke:#181818;stroke-width:1.0;"/><path d="M520.8594,760.92 L513.1406,760.92 L513.1406,748.5294 L520.8594,748.5294 L520.8594,750.6856 L515.5938,750.6856 L515.5938,753.3575 L520.3594,753.3575 L520.3594,755.5138 L515.5938,755.5138 L515.5938,758.7638 L520.8594,758.7638 L520.8594,760.92 Z " fill="#000000"/><text fill="#000000" font-family="sans-serif" font-size="14" lengthAdjust="spacing" textLength="62" x="537.25" y="759.7667">&#1050;&#1086;&#1088;&#1079;&#1080;&#1085;&#1072;</text><line style="stroke:#181818;stroke-width:0.5;" x1="424.5" x2="679.5" y1="770.92" y2="770.92"/><text fill="#000000" font-family="sans-serif" font-size="14" lengthAdjust="spacing" textLength="139" x="429.5" y="787.9151">&#1058;&#1086;&#1074;&#1072;&#1088; [1..50] &#1058;&#1086;&#1074;&#1072;&#1088;</text><text fill="#000000" font-family="sans-serif" font-size="14" lengthAdjust="spacing" textLength="45" x="429.5" y="804.212">&#1057;&#1091;&#1084;&#1084;&#1072;</text><text fill="#000000" font-family="sans-serif" font-size="14" lengthAdjust="spacing" textLength="127" x="429.5" y="820.5089">&#1042;&#1088;&#1077;&#1084;&#1103; &#1087;&#1086;&#1083;&#1091;&#1095;&#1077;&#1085;&#1080;&#1103;</text><text fill="#000000" font-family="sans-serif" font-size="14" lengthAdjust="spacing" textLength="245" x="429.5" y="836.8057">&#1057;&#1090;&#1072;&#1090;&#1091;&#1089; &#1082;&#1086;&#1088;&#1079;&#1080;&#1085;&#1099;: &#1057;&#1090;&#1072;&#1090;&#1091;&#1089; &#1082;&#1086;&#1088;&#1079;&#1080;&#1085;&#1099;</text><line style="stroke:#181818;stroke-width:0.5;" x1="424.5" x2="679.5" y1="844.1075" y2="844.1075"/></g><!--class Order--><g id="elem_Order"><rect codeLine="40" fill="#F1F1F1" height="145.7813" id="Order" rx="2.5" ry="2.5" style="stroke:#181818;stroke-width:0.5;" width="291" x="406.5" y="500.55"/><ellipse cx="527.25" cy="516.55" fill="#ADD1B2" rx="11" ry="11" style="stroke:#181818;stroke-width:1.0;"/><path d="M531.3594,522.55 L523.6406,522.55 L523.6406,510.1594 L531.3594,510.1594 L531.3594,512.3156 L526.0938,512.3156 L526.0938,514.9875 L530.8594,514.9875 L530.8594,517.1438 L526.0938,517.1438 L526.0938,520.3938 L531.3594,520.3938 L531.3594,522.55 Z " fill="#000000"/><text fill="#000000" font-family="sans-serif" font-size="14" lengthAdjust="spacing" textLength="41" x="547.75" y="521.3967">&#1047;&#1072;&#1082;&#1072;&#1079;</text><line style="stroke:#181818;stroke-width:0.5;" x1="407.5" x2="696.5" y1="532.55" y2="532.55"/><text fill="#000000" font-family="sans-serif" font-size="14" lengthAdjust="spacing" textLength="47" x="412.5" y="549.5451">&#1053;&#1086;&#1084;&#1077;&#1088;</text><text fill="#000000" font-family="sans-serif" font-size="14" lengthAdjust="spacing" textLength="37" x="412.5" y="565.842">&#1044;&#1072;&#1090;&#1072;</text><text fill="#000000" font-family="sans-serif" font-size="14" lengthAdjust="spacing" textLength="215" x="412.5" y="582.1389">&#1057;&#1090;&#1072;&#1090;&#1091;&#1089; &#1079;&#1072;&#1082;&#1072;&#1079;&#1072;: &#1057;&#1090;&#1072;&#1090;&#1091;&#1089; &#1079;&#1072;&#1082;&#1072;&#1079;&#1072;</text><text fill="#000000" font-family="sans-serif" font-size="14" lengthAdjust="spacing" textLength="279" x="412.5" y="598.4357">&#1057;&#1087;&#1086;&#1089;&#1086;&#1073; &#1087;&#1086;&#1083;&#1091;&#1095;&#1077;&#1085;&#1080;&#1103;: &#1057;&#1087;&#1086;&#1089;&#1086;&#1073; &#1087;&#1086;&#1083;&#1091;&#1095;&#1077;&#1085;&#1080;&#1103;</text><text fill="#000000" font-family="sans-serif" font-size="14" lengthAdjust="spacing" textLength="123" x="412.5" y="614.7326">&#1057;&#1082;&#1080;&#1076;&#1082;&#1072; &#1079;&#1072; &#1073;&#1072;&#1083;&#1083;&#1099;</text><text fill="#000000" font-family="sans-serif" font-size="14" lengthAdjust="spacing" textLength="163" x="412.5" y="631.0295">&#1042;&#1088;&#1077;&#1084;&#1103; &#1087;&#1088;&#1080;&#1075;&#1086;&#1090;&#1086;&#1074;&#1083;&#1077;&#1085;&#1080;&#1103;</text><line style="stroke:#181818;stroke-width:0.5;" x1="407.5" x2="696.5" y1="638.3313" y2="638.3313"/></g><!--class CartStatus--><g id="elem_CartStatus"><rect codeLine="49" fill="#F1F1F1" height="80.5938" id="CartStatus" rx="2.5" ry="2.5" style="stroke:#181818;stroke-width:0.5;" width="150" x="477" y="920.26"/><ellipse cx="492" cy="936.26" fill="#EB937F" rx="11" ry="11" style="stroke:#181818;stroke-width:1.0;"/><path d="M496.1094,942.26 L488.3906,942.26 L488.3906,929.8694 L496.1094,929.8694 L496.1094,932.0256 L490.8438,932.0256 L490.8438,934.6975 L495.6094,934.6975 L495.6094,936.8538 L490.8438,936.8538 L490.8438,940.1038 L496.1094,940.1038 L496.1094,942.26 Z " fill="#000000"/><text fill="#000000" font-family="sans-serif" font-size="14" lengthAdjust="spacing" textLength="118" x="506" y="941.1067">&#1057;&#1090;&#1072;&#1090;&#1091;&#1089; &#1082;&#1086;&#1088;&#1079;&#1080;&#1085;&#1099;</text><line style="stroke:#181818;stroke-width:0.5;" x1="478" x2="626" y1="952.26" y2="952.26"/><text fill="#000000" font-family="sans-serif" font-size="14" lengthAdjust="spacing" textLength="100" x="483" y="969.2551">&#1060;&#1086;&#1088;&#1084;&#1080;&#1088;&#1091;&#1077;&#1090;&#1089;&#1103;</text><text fill="#000000" font-family="sans-serif" font-size="14" lengthAdjust="spacing" textLength="111" x="483" y="985.552">&#1057;&#1092;&#1086;&#1088;&#1084;&#1080;&#1088;&#1086;&#1074;&#1072;&#1085;&#1072;</text><line style="stroke:#181818;stroke-width:0.5;" x1="478" x2="626" y1="992.8538" y2="992.8538"/></g><!--class OrderStatus--><g id="elem_OrderStatus"><rect codeLine="54" fill="#F1F1F1" height="129.4844" id="OrderStatus" rx="2.5" ry="2.5" style="stroke:#181818;stroke-width:0.5;" width="135" x="298.5" y="278.47"/><ellipse cx="313.5" cy="294.47" fill="#EB937F" rx="11" ry="11" style="stroke:#181818;stroke-width:1.0;"/><path d="M317.6094,300.47 L309.8906,300.47 L309.8906,288.0794 L317.6094,288.0794 L317.6094,290.2356 L312.3438,290.2356 L312.3438,292.9075 L317.1094,292.9075 L317.1094,295.0638 L312.3438,295.0638 L312.3438,298.3138 L317.6094,298.3138 L317.6094,300.47 Z " fill="#000000"/><text fill="#000000" font-family="sans-serif" font-size="14" lengthAdjust="spacing" textLength="103" x="327.5" y="299.3167">&#1057;&#1090;&#1072;&#1090;&#1091;&#1089; &#1079;&#1072;&#1082;&#1072;&#1079;&#1072;</text><line style="stroke:#181818;stroke-width:0.5;" x1="299.5" x2="432.5" y1="310.47" y2="310.47"/><text fill="#000000" font-family="sans-serif" font-size="14" lengthAdjust="spacing" textLength="54" x="304.5" y="327.4651">&#1057;&#1086;&#1079;&#1076;&#1072;&#1085;</text><text fill="#000000" font-family="sans-serif" font-size="14" lengthAdjust="spacing" textLength="106" x="304.5" y="343.762">&#1055;&#1088;&#1086;&#1080;&#1079;&#1074;&#1086;&#1076;&#1080;&#1090;&#1089;&#1103;</text><text fill="#000000" font-family="sans-serif" font-size="14" lengthAdjust="spacing" textLength="43" x="304.5" y="360.0589">&#1043;&#1086;&#1090;&#1086;&#1074;</text><text fill="#000000" font-family="sans-serif" font-size="14" lengthAdjust="spacing" textLength="48" x="304.5" y="376.3557">&#1042;&#1099;&#1076;&#1072;&#1085;</text><text fill="#000000" font-family="sans-serif" font-size="14" lengthAdjust="spacing" textLength="66" x="304.5" y="392.6526">&#1054;&#1090;&#1084;&#1077;&#1085;&#1105;&#1085;</text><line style="stroke:#181818;stroke-width:0.5;" x1="299.5" x2="432.5" y1="399.9544" y2="399.9544"/></g><!--class Obtaining--><g id="elem_Obtaining"><rect codeLine="62" fill="#F1F1F1" height="80.5938" id="Obtaining" rx="2.5" ry="2.5" style="stroke:#181818;stroke-width:0.5;" width="168" x="468" y="302.91"/><ellipse cx="483" cy="318.91" fill="#EB937F" rx="11" ry="11" style="stroke:#181818;stroke-width:1.0;"/><path d="M487.1094,324.91 L479.3906,324.91 L479.3906,312.5194 L487.1094,312.5194 L487.1094,314.6756 L481.8438,314.6756 L481.8438,317.3475 L486.6094,317.3475 L486.6094,319.5037 L481.8438,319.5037 L481.8438,322.7537 L487.1094,322.7537 L487.1094,324.91 Z " fill="#000000"/><text fill="#000000" font-family="sans-serif" font-size="14" lengthAdjust="spacing" textLength="136" x="497" y="323.7567">&#1057;&#1087;&#1086;&#1089;&#1086;&#1073; &#1055;&#1086;&#1083;&#1091;&#1095;&#1077;&#1085;&#1080;&#1103;</text><line style="stroke:#181818;stroke-width:0.5;" x1="469" x2="635" y1="334.91" y2="334.91"/><text fill="#000000" font-family="sans-serif" font-size="14" lengthAdjust="spacing" textLength="58" x="474" y="351.9051">&#1057; &#1089;&#1086;&#1073;&#1086;&#1081;</text><text fill="#000000" font-family="sans-serif" font-size="14" lengthAdjust="spacing" textLength="48" x="474" y="368.202">&#1042; &#1079;&#1072;&#1083;&#1077;</text><line style="stroke:#181818;stroke-width:0.5;" x1="469" x2="635" y1="375.5037" y2="375.5037"/></g><!--class PaymentStatus--><g id="elem_PaymentStatus"><rect codeLine="67" fill="#F1F1F1" height="80.5938" id="PaymentStatus" rx="2.5" ry="2.5" style="stroke:#181818;stroke-width:0.5;" width="96" x="1086" y="302.91"/><ellipse cx="1105.5" cy="318.91" fill="#EB937F" rx="11" ry="11" style="stroke:#181818;stroke-width:1.0;"/><path d="M1109.6094,324.91 L1101.8906,324.91 L1101.8906,312.5194 L1109.6094,312.5194 L1109.6094,314.6756 L1104.3438,314.6756 L1104.3438,317.3475 L1109.1094,317.3475 L1109.1094,319.5037 L1104.3438,319.5037 L1104.3438,322.7537 L1109.6094,322.7537 L1109.6094,324.91 Z " fill="#000000"/><text fill="#000000" font-family="sans-serif" font-size="14" lengthAdjust="spacing" textLength="54" x="1120.5" y="323.7567">&#1054;&#1087;&#1083;&#1072;&#1090;&#1072;</text><line style="stroke:#181818;stroke-width:0.5;" x1="1087" x2="1181" y1="334.91" y2="334.91"/><text fill="#000000" font-family="sans-serif" font-size="14" lengthAdjust="spacing" textLength="84" x="1092" y="351.9051">&#1053;&#1077; &#1086;&#1087;&#1083;&#1072;&#1095;&#1077;&#1085;</text><text fill="#000000" font-family="sans-serif" font-size="14" lengthAdjust="spacing" textLength="63" x="1092" y="368.202">&#1054;&#1087;&#1083;&#1072;&#1095;&#1077;&#1085;</text><line style="stroke:#181818;stroke-width:0.5;" x1="1087" x2="1181" y1="375.5037" y2="375.5037"/></g><!--class PaymentType--><g id="elem_PaymentType"><rect codeLine="72" fill="#F1F1F1" height="96.8906" id="PaymentType" rx="2.5" ry="2.5" style="stroke:#181818;stroke-width:0.5;" width="128" x="1217" y="294.77"/><ellipse cx="1232" cy="310.77" fill="#EB937F" rx="11" ry="11" style="stroke:#181818;stroke-width:1.0;"/><path d="M1236.1094,316.77 L1228.3906,316.77 L1228.3906,304.3794 L1236.1094,304.3794 L1236.1094,306.5356 L1230.8438,306.5356 L1230.8438,309.2075 L1235.6094,309.2075 L1235.6094,311.3638 L1230.8438,311.3638 L1230.8438,314.6138 L1236.1094,314.6138 L1236.1094,316.77 Z " fill="#000000"/><text fill="#000000" font-family="sans-serif" font-size="14" lengthAdjust="spacing" textLength="96" x="1246" y="315.6167">&#1058;&#1080;&#1087; &#1087;&#1083;&#1072;&#1090;&#1077;&#1078;&#1072;</text><line style="stroke:#181818;stroke-width:0.5;" x1="1218" x2="1344" y1="326.77" y2="326.77"/><text fill="#000000" font-family="sans-serif" font-size="14" lengthAdjust="spacing" textLength="73" x="1223" y="343.7651">&#1053;&#1072;&#1083;&#1080;&#1095;&#1085;&#1099;&#1077;</text><text fill="#000000" font-family="sans-serif" font-size="14" lengthAdjust="spacing" textLength="44" x="1223" y="360.062">&#1050;&#1072;&#1088;&#1090;&#1072;</text><text fill="#000000" font-family="sans-serif" font-size="14" lengthAdjust="spacing" textLength="53" x="1223" y="376.3589">QR-&#1082;&#1086;&#1076;</text><line style="stroke:#181818;stroke-width:0.5;" x1="1218" x2="1344" y1="383.6606" y2="383.6606"/></g><!--class PaymentState--><g id="elem_PaymentState"><rect codeLine="78" fill="#F1F1F1" height="96.8906" id="PaymentState" rx="2.5" ry="2.5" style="stroke:#181818;stroke-width:0.5;" width="152" x="1380" y="294.77"/><ellipse cx="1395" cy="310.77" fill="#EB937F" rx="11" ry="11" style="stroke:#181818;stroke-width:1.0;"/><path d="M1399.1094,316.77 L1391.3906,316.77 L1391.3906,304.3794 L1399.1094,304.3794 L1399.1094,306.5356 L1393.8438,306.5356 L1393.8438,309.2075 L1398.6094,309.2075 L1398.6094,311.3638 L1393.8438,311.3638 L1393.8438,314.6138 L1399.1094,314.6138 L1399.1094,316.77 Z " fill="#000000"/><text fill="#000000" font-family="sans-serif" font-size="14" lengthAdjust="spacing" textLength="120" x="1409" y="315.6167">&#1057;&#1090;&#1072;&#1090;&#1091;&#1089; &#1087;&#1083;&#1072;&#1090;&#1077;&#1078;&#1072;</text><line style="stroke:#181818;stroke-width:0.5;" x1="1381" x2="1531" y1="326.77" y2="326.77"/><text fill="#000000" font-family="sans-serif" font-size="14" lengthAdjust="spacing" textLength="99" x="1386" y="343.7651">&#1048;&#1085;&#1080;&#1094;&#1080;&#1080;&#1088;&#1086;&#1074;&#1072;&#1085;</text><text fill="#000000" font-family="sans-serif" font-size="14" lengthAdjust="spacing" textLength="105" x="1386" y="360.062">&#1055;&#1086;&#1076;&#1090;&#1074;&#1077;&#1088;&#1078;&#1076;&#1105;&#1085;</text><text fill="#000000" font-family="sans-serif" font-size="14" lengthAdjust="spacing" textLength="73" x="1386" y="376.3589">&#1054;&#1090;&#1082;&#1083;&#1086;&#1085;&#1105;&#1085;</text><line style="stroke:#181818;stroke-width:0.5;" x1="1381" x2="1531" y1="383.6606" y2="383.6606"/></g><!--class ComboBurger--><g id="elem_ComboBurger"><rect codeLine="84" fill="#F1F1F1" height="96.8906" id="ComboBurger" rx="2.5" ry="2.5" style="stroke:#181818;stroke-width:0.5;" width="256" x="7" y="294.77"/><ellipse cx="81.75" cy="310.77" fill="#ADD1B2" rx="11" ry="11" style="stroke:#181818;stroke-width:1.0;"/><path d="M85.8594,316.77 L78.1406,316.77 L78.1406,304.3794 L85.8594,304.3794 L85.8594,306.5356 L80.5938,306.5356 L80.5938,309.2075 L85.3594,309.2075 L85.3594,311.3638 L80.5938,311.3638 L80.5938,314.6138 L85.8594,314.6138 L85.8594,316.77 Z " fill="#000000"/><text fill="#000000" font-family="sans-serif" font-size="14" lengthAdjust="spacing" textLength="98" x="102.25" y="315.6167">&#1050;&#1086;&#1084;&#1073;&#1086;&#1041;&#1091;&#1088;&#1075;&#1077;&#1088;</text><line style="stroke:#181818;stroke-width:0.5;" x1="8" x2="262" y1="326.77" y2="326.77"/><text fill="#000000" font-family="sans-serif" font-size="14" lengthAdjust="spacing" textLength="69" x="13" y="343.7651">&#1053;&#1072;&#1079;&#1074;&#1072;&#1085;&#1080;&#1077;</text><text fill="#000000" font-family="sans-serif" font-size="14" lengthAdjust="spacing" textLength="244" x="13" y="360.062">&#1048;&#1085;&#1075;&#1088;&#1077;&#1076;&#1080;&#1077;&#1085;&#1090;&#1099; [2..10] &#1048;&#1085;&#1075;&#1088;&#1077;&#1076;&#1080;&#1077;&#1085;&#1090;</text><text fill="#000000" font-family="sans-serif" font-size="14" lengthAdjust="spacing" textLength="62" x="13" y="376.3589">&#1053;&#1072;&#1094;&#1077;&#1085;&#1082;&#1072;</text><line style="stroke:#181818;stroke-width:0.5;" x1="8" x2="262" y1="383.6606" y2="383.6606"/></g><!--class Ingredient--><g id="elem_Ingredient"><rect codeLine="90" fill="#F1F1F1" height="194.6719" id="Ingredient" rx="2.5" ry="2.5" style="stroke:#181818;stroke-width:0.5;" width="236" x="17" y="23.8"/><ellipse cx="85.75" cy="39.8" fill="#ADD1B2" rx="11" ry="11" style="stroke:#181818;stroke-width:1.0;"/><path d="M89.8594,45.8 L82.1406,45.8 L82.1406,33.4094 L89.8594,33.4094 L89.8594,35.5656 L84.5938,35.5656 L84.5938,38.2375 L89.3594,38.2375 L89.3594,40.3937 L84.5938,40.3937 L84.5938,43.6437 L89.8594,43.6437 L89.8594,45.8 Z " fill="#000000"/><text fill="#000000" font-family="sans-serif" font-size="14" lengthAdjust="spacing" textLength="90" x="106.25" y="44.6467">&#1048;&#1085;&#1075;&#1088;&#1077;&#1076;&#1080;&#1077;&#1085;&#1090;</text><line style="stroke:#181818;stroke-width:0.5;" x1="18" x2="252" y1="55.8" y2="55.8"/><text fill="#000000" font-family="sans-serif" font-size="14" lengthAdjust="spacing" textLength="69" x="23" y="72.7951">&#1053;&#1072;&#1079;&#1074;&#1072;&#1085;&#1080;&#1077;</text><text fill="#000000" font-family="sans-serif" font-size="14" lengthAdjust="spacing" textLength="45" x="23" y="89.092">&#1041;&#1077;&#1083;&#1082;&#1080;</text><text fill="#000000" font-family="sans-serif" font-size="14" lengthAdjust="spacing" textLength="44" x="23" y="105.3889">&#1046;&#1080;&#1088;&#1099;</text><text fill="#000000" font-family="sans-serif" font-size="14" lengthAdjust="spacing" textLength="71" x="23" y="121.6857">&#1059;&#1075;&#1083;&#1077;&#1074;&#1086;&#1076;&#1099;</text><text fill="#000000" font-family="sans-serif" font-size="14" lengthAdjust="spacing" textLength="106" x="23" y="137.9826">&#1050;&#1072;&#1083;&#1086;&#1088;&#1080;&#1081;&#1085;&#1086;&#1089;&#1090;&#1100;</text><text fill="#000000" font-family="sans-serif" font-size="14" lengthAdjust="spacing" textLength="37" x="23" y="154.2795">&#1062;&#1077;&#1085;&#1072;</text><text fill="#000000" font-family="sans-serif" font-size="14" lengthAdjust="spacing" textLength="197" x="23" y="170.5764">&#1052;&#1072;&#1082;&#1089;&#1080;&#1084;&#1072;&#1083;&#1100;&#1085;&#1086;&#1077; &#1082;&#1086;&#1083;&#1080;&#1095;&#1077;&#1089;&#1090;&#1074;&#1086;</text><text fill="#000000" font-family="sans-serif" font-size="14" lengthAdjust="spacing" textLength="122" x="23" y="186.8732">&#1054;&#1073;&#1103;&#1079;&#1072;&#1090;&#1077;&#1083;&#1100;&#1085;&#1086;&#1089;&#1090;&#1100;</text><text fill="#000000" font-family="sans-serif" font-size="14" lengthAdjust="spacing" textLength="224" x="23" y="203.1701">&#1057;&#1086;&#1095;&#1077;&#1090;&#1072;&#1085;&#1080;&#1077; &#1089; [0..*] &#1048;&#1085;&#1075;&#1088;&#1077;&#1076;&#1080;&#1077;&#1085;&#1090;</text><line style="stroke:#181818;stroke-width:0.5;" x1="18" x2="252" y1="210.4719" y2="210.4719"/></g><!--class Payment--><g id="elem_Payment"><rect codeLine="102" fill="#F1F1F1" height="145.7813" id="Payment" rx="2.5" ry="2.5" style="stroke:#181818;stroke-width:0.5;" width="213" x="926.5" y="500.55"/><ellipse cx="1010.75" cy="516.55" fill="#ADD1B2" rx="11" ry="11" style="stroke:#181818;stroke-width:1.0;"/><path d="M1014.8594,522.55 L1007.1406,522.55 L1007.1406,510.1594 L1014.8594,510.1594 L1014.8594,512.3156 L1009.5938,512.3156 L1009.5938,514.9875 L1014.3594,514.9875 L1014.3594,517.1438 L1009.5938,517.1438 L1009.5938,520.3938 L1014.8594,520.3938 L1014.8594,522.55 Z " fill="#000000"/><text fill="#000000" font-family="sans-serif" font-size="14" lengthAdjust="spacing" textLength="36" x="1031.25" y="521.3967">&#1057;&#1095;&#1105;&#1090;</text><line style="stroke:#181818;stroke-width:0.5;" x1="927.5" x2="1138.5" y1="532.55" y2="532.55"/><text fill="#000000" font-family="sans-serif" font-size="14" lengthAdjust="spacing" textLength="99" x="932.5" y="549.5451">&#1053;&#1086;&#1084;&#1077;&#1088; &#1079;&#1072;&#1082;&#1072;&#1079;&#1072;</text><text fill="#000000" font-family="sans-serif" font-size="14" lengthAdjust="spacing" textLength="37" x="932.5" y="565.842">&#1044;&#1072;&#1090;&#1072;</text><text fill="#000000" font-family="sans-serif" font-size="14" lengthAdjust="spacing" textLength="45" x="932.5" y="582.1389">&#1057;&#1091;&#1084;&#1084;&#1072;</text><text fill="#000000" font-family="sans-serif" font-size="14" lengthAdjust="spacing" textLength="201" x="932.5" y="598.4357">&#1058;&#1080;&#1087; &#1087;&#1083;&#1072;&#1090;&#1077;&#1078;&#1072;: &#1058;&#1080;&#1087; &#1087;&#1083;&#1072;&#1090;&#1077;&#1078;&#1072;</text><text fill="#000000" font-family="sans-serif" font-size="14" lengthAdjust="spacing" textLength="173" x="932.5" y="614.7326">&#1057;&#1090;&#1072;&#1090;&#1091;&#1089; &#1086;&#1087;&#1083;&#1072;&#1090;&#1099;: &#1054;&#1087;&#1083;&#1072;&#1090;&#1072;</text><text fill="#000000" font-family="sans-serif" font-size="14" lengthAdjust="spacing" textLength="172" x="932.5" y="631.0295">&#1053;&#1086;&#1084;&#1077;&#1088; &#1087;&#1086;&#1076;&#1090;&#1074;&#1077;&#1088;&#1078;&#1076;&#1077;&#1085;&#1080;&#1103;</text><line style="stroke:#181818;stroke-width:0.5;" x1="927.5" x2="1138.5" y1="638.3313" y2="638.3313"/></g><!--class Receipt--><g id="elem_Receipt"><rect codeLine="111" fill="#F1F1F1" height="48" id="Receipt" rx="2.5" ry="2.5" style="stroke:#181818;stroke-width:0.5;" width="58" x="922" y="319.21"/><ellipse cx="937" cy="335.21" fill="#ADD1B2" rx="11" ry="11" style="stroke:#181818;stroke-width:1.0;"/><path d="M941.1094,341.21 L933.3906,341.21 L933.3906,328.8194 L941.1094,328.8194 L941.1094,330.9756 L935.8438,330.9756 L935.8438,333.6475 L940.6094,333.6475 L940.6094,335.8038 L935.8438,335.8038 L935.8438,339.0538 L941.1094,339.0538 L941.1094,341.21 Z " fill="#000000"/><text fill="#000000" font-family="sans-serif" font-size="14" lengthAdjust="spacing" textLength="26" x="951" y="340.0567">&#1063;&#1077;&#1082;</text><line style="stroke:#181818;stroke-width:0.5;" x1="923" x2="979" y1="351.21" y2="351.21"/><line style="stroke:#181818;stroke-width:0.5;" x1="923" x2="979" y1="359.21" y2="359.21"/></g><!--class SmsGateway--><g id="elem_SmsGateway"><rect codeLine="114" fill="#F1F1F1" height="48" id="SmsGateway" rx="2.5" ry="2.5" style="stroke:#181818;stroke-width:0.5;" width="110" x="1567" y="319.21"/><ellipse cx="1582" cy="335.21" fill="#ADD1B2" rx="11" ry="11" style="stroke:#181818;stroke-width:1.0;"/><path d="M1586.1094,341.21 L1578.3906,341.21 L1578.3906,328.8194 L1586.1094,328.8194 L1586.1094,330.9756 L1580.8438,330.9756 L1580.8438,333.6475 L1585.6094,333.6475 L1585.6094,335.8038 L1580.8438,335.8038 L1580.8438,339.0538 L1586.1094,339.0538 L1586.1094,341.21 Z " fill="#000000"/><text fill="#000000" font-family="sans-serif" font-size="14" lengthAdjust="spacing" textLength="78" x="1596" y="340.0567">&#1057;&#1052;&#1057; &#1096;&#1083;&#1102;&#1079;</text><line style="stroke:#181818;stroke-width:0.5;" x1="1568" x2="1676" y1="351.21" y2="351.21"/><line style="stroke:#181818;stroke-width:0.5;" x1="1568" x2="1676" y1="359.21" y2="359.21"/></g><!--class PermitionPayment--><g id="elem_PermitionPayment"><rect codeLine="117" fill="#F1F1F1" height="194.6719" id="PermitionPayment" rx="2.5" ry="2.5" style="stroke:#181818;stroke-width:0.5;" width="261" x="1113.5" y="23.8"/><ellipse cx="1189.75" cy="39.8" fill="#ADD1B2" rx="11" ry="11" style="stroke:#181818;stroke-width:1.0;"/><path d="M1193.8594,45.8 L1186.1406,45.8 L1186.1406,33.4094 L1193.8594,33.4094 L1193.8594,35.5656 L1188.5938,35.5656 L1188.5938,38.2375 L1193.3594,38.2375 L1193.3594,40.3937 L1188.5938,40.3937 L1188.5938,43.6437 L1193.8594,43.6437 L1193.8594,45.8 Z " fill="#000000"/><text fill="#000000" font-family="sans-serif" font-size="14" lengthAdjust="spacing" textLength="100" x="1210.25" y="44.6467">&#1054;&#1087;&#1083;&#1072;&#1090;&#1072; &#1089;&#1095;&#1105;&#1090;&#1072;</text><line style="stroke:#181818;stroke-width:0.5;" x1="1114.5" x2="1373.5" y1="55.8" y2="55.8"/><text fill="#000000" font-family="sans-serif" font-size="14" lengthAdjust="spacing" textLength="47" x="1119.5" y="72.7951">&#1053;&#1086;&#1084;&#1077;&#1088;</text><text fill="#000000" font-family="sans-serif" font-size="14" lengthAdjust="spacing" textLength="35" x="1119.5" y="89.092">&#1041;&#1072;&#1085;&#1082;</text><text fill="#000000" font-family="sans-serif" font-size="14" lengthAdjust="spacing" textLength="96" x="1119.5" y="105.3889">&#1053;&#1086;&#1084;&#1077;&#1088; &#1082;&#1072;&#1088;&#1090;&#1099;</text><text fill="#000000" font-family="sans-serif" font-size="14" lengthAdjust="spacing" textLength="67" x="1119.5" y="121.6857">&#1058;&#1077;&#1083;&#1077;&#1092;&#1086;&#1085;</text><text fill="#000000" font-family="sans-serif" font-size="14" lengthAdjust="spacing" textLength="59" x="1119.5" y="137.9826">&#1050;&#1086;&#1076; &#1089;&#1084;&#1089;</text><text fill="#000000" font-family="sans-serif" font-size="14" lengthAdjust="spacing" textLength="249" x="1119.5" y="154.2795">&#1057;&#1090;&#1072;&#1090;&#1091;&#1089; &#1087;&#1083;&#1072;&#1090;&#1077;&#1078;&#1072;: &#1057;&#1090;&#1072;&#1090;&#1091;&#1089; &#1087;&#1083;&#1072;&#1090;&#1077;&#1078;&#1072;</text><line style="stroke:#181818;stroke-width:0.5;" x1="1114.5" x2="1373.5" y1="161.5812" y2="161.5812"/><ellipse cx="1124.5" cy="175.2297" fill="#84BE84" rx="3" ry="3" style="stroke:#038048;stroke-width:1.0;"/><text fill="#000000" font-family="sans-serif" font-size="14" lengthAdjust="spacing" textLength="133" x="1133.5" y="178.5764">&#1054;&#1087;&#1083;&#1072;&#1090;&#1072; &#1087;&#1086; &#1082;&#1072;&#1088;&#1090;&#1077;()</text><ellipse cx="1124.5" cy="191.5266" fill="#84BE84" rx="3" ry="3" style="stroke:#038048;stroke-width:1.0;"/><text fill="#000000" font-family="sans-serif" font-size="14" lengthAdjust="spacing" textLength="145" x="1133.5" y="194.8732">&#1054;&#1087;&#1083;&#1072;&#1090;&#1072; &#1095;&#1077;&#1088;&#1077;&#1079; &#1057;&#1041;&#1055;()</text><ellipse cx="1124.5" cy="207.8234" fill="#84BE84" rx="3" ry="3" style="stroke:#038048;stroke-width:1.0;"/><text fill="#000000" font-family="sans-serif" font-size="14" lengthAdjust="spacing" textLength="150" x="1133.5" y="211.1701">&#1054;&#1087;&#1083;&#1072;&#1090;&#1072; &#1085;&#1072;&#1083;&#1080;&#1095;&#1085;&#1099;&#1084;&#1080;()</text></g><!--link Ingredient to ComboBurger--><g id="link_Ingredient_ComboBurger"><path codeLine="130" d="M95.67,218.86 C95.67,245.05 95.67,260.23 95.67,282.48 " fill="none" id="Ingredient-to-ComboBurger" style="stroke:#181818;stroke-width:1.0;"/><polygon fill="none" points="95.67,294.48,99.67,288.48,95.67,282.48,91.67,288.48,95.67,294.48" style="stroke:#181818;stroke-width:1.0;"/><text fill="#000000" font-family="sans-serif" font-size="13" lengthAdjust="spacing" textLength="23" x="68.9372" y="238.6592">0..*</text><text fill="#000000" font-family="sans-serif" font-size="13" lengthAdjust="spacing" textLength="32" x="55.8892" y="283.6481">2..10</text></g><!--link Ingredient to Ingredient--><g id="link_Ingredient_Ingredient"><path codeLine="131" d="M135,23.49 C135,12.97 135,6 135,6 C135,6 12,6 12,6 C12,6 12,249 12,249 C12,249 174.33,249 174.33,249 C174.33,249 174.33,236.2 174.33,218.7 " fill="none" id="Ingredient-Ingredient" style="stroke:#181818;stroke-width:1.0;"/></g><!--link Product to Cart--><g id="link_Product_Cart"><path codeLine="132" d="M275.17,679.26 C275.17,715.92 275.17,748 275.17,748 C275.17,748 339.02,748 411.31,748 " fill="none" id="Product-to-Cart" style="stroke:#181818;stroke-width:1.0;"/><polygon fill="none" points="423.31,748,417.31,744,411.31,748,417.31,752,423.31,748" style="stroke:#181818;stroke-width:1.0;"/><text fill="#000000" font-family="sans-serif" font-size="13" lengthAdjust="spacing" textLength="32" x="248.2877" y="698.9454">1..50</text><text fill="#000000" font-family="sans-serif" font-size="13" lengthAdjust="spacing" textLength="24" x="391.616" y="742.062">0..1</text></g><!--link Product to Product--><g id="link_Product_Product"><path codeLine="133" d="M302,467.72 C302,450.41 302,438 302,438 C302,438 315.25,438 315.25,438 C315.25,438 315.25,709 315.25,709 C315.25,709 290.33,709 290.33,709 C290.33,709 290.33,708.58 290.33,691.25 " fill="none" id="Product-to-Product" style="stroke:#181818;stroke-width:1.0;"/><polygon fill="none" points="290.33,679.25,286.33,685.25,290.33,691.25,294.33,685.25,290.33,679.25" style="stroke:#181818;stroke-width:1.0;"/></g><!--link Order to Cart--><g id="link_Order_Cart"><path codeLine="134" d="M552,646.77 C552,676.59 552,692.52 552,720.44 " fill="none" id="Order-to-Cart" style="stroke:#181818;stroke-width:1.0;"/><polygon fill="none" points="552,738.44,558,720.44,546,720.44,552,738.44" style="stroke:#181818;stroke-width:1.0;"/></g><!--link Cart to CartStatus--><g id="link_Cart_CartStatus"><path codeLine="135" d="M552,852.31 C552,874.5 552,899.45 552,919.8 " fill="none" id="Cart-CartStatus" style="stroke:#181818;stroke-width:1.0;"/></g><!--link PaymentStatus to Payment--><g id="link_PaymentStatus_Payment"><path codeLine="136" d="M1103.83,383.84 C1103.83,415.98 1103.83,449.71 1103.83,488.2 " fill="none" id="PaymentStatus-to-Payment" style="stroke:#181818;stroke-width:1.0;"/><polygon fill="#181818" points="1103.83,500.2,1107.83,494.2,1103.83,488.2,1099.83,494.2,1103.83,500.2" style="stroke:#181818;stroke-width:1.0;"/></g><!--link OrderStatus to Order--><g id="link_OrderStatus_Order"><path codeLine="137" d="M420,408.26 C420,436.98 420,470.87 420,500.45 " fill="none" id="OrderStatus-Order" style="stroke:#181818;stroke-width:1.0;"/></g><!--link Obtaining to Order--><g id="link_Obtaining_Order"><path codeLine="138" d="M552,383.84 C552,415.98 552,461.71 552,500.2 " fill="none" id="Obtaining-Order" style="stroke:#181818;stroke-width:1.0;"/></g><!--link MenuSection to Menu--><g id="link_MenuSection_Menu"><path codeLine="139" d="M183,836.31 C183,859.13 183,875.71 183,899.71 " fill="none" id="MenuSection-to-Menu" style="stroke:#181818;stroke-width:1.0;"/><polygon fill="#181818" points="183,911.71,187,905.71,183,899.71,179,905.71,183,911.71" style="stroke:#181818;stroke-width:1.0;"/><text fill="#000000" font-family="sans-serif" font-size="13" lengthAdjust="spacing" textLength="23" x="158.2391" y="855.7819">1..*</text><text fill="#000000" font-family="sans-serif" font-size="13" lengthAdjust="spacing" textLength="23" x="158.4547" y="901.2144">1..*</text></g><!--link Product to MenuSection--><g id="link_Product_MenuSection"><path codeLine="140" d="M183,679.27 C183,706.2 183,721.53 183,742.92 " fill="none" id="Product-to-MenuSection" style="stroke:#181818;stroke-width:1.0;"/><polygon fill="none" points="183,754.92,187,748.92,183,742.92,179,748.92,183,754.92" style="stroke:#181818;stroke-width:1.0;"/><text fill="#000000" font-family="sans-serif" font-size="13" lengthAdjust="spacing" textLength="23" x="159.2273" y="698.9561">1..*</text><text fill="#000000" font-family="sans-serif" font-size="13" lengthAdjust="spacing" textLength="23" x="158.0953" y="744.0318">1..*</text></g><!--link ComboBurger to Product--><g id="link_ComboBurger_Product"><path codeLine="141" d="M161.75,392.04 C161.75,414.21 161.75,423.36 161.75,449.84 " fill="none" id="ComboBurger-to-Product" style="stroke:#181818;stroke-width:1.0;"/><polygon fill="none" points="161.75,467.84,167.75,449.84,155.75,449.84,161.75,467.84" style="stroke:#181818;stroke-width:1.0;"/></g><!--link Client to Cart--><g id="link_Client_Cart"><path codeLine="142" d="M792.25,392.1 C792.25,509.18 792.25,796 792.25,796 C792.25,796 743.91,796 686.92,796 " fill="none" id="Client-to-Cart" style="stroke:#181818;stroke-width:1.0;"/><polygon fill="#181818" points="680.92,796,689.92,800,685.92,796,689.92,792,680.92,796" style="stroke:#181818;stroke-width:1.0;"/><text fill="#000000" font-family="sans-serif" font-size="13" lengthAdjust="spacing" textLength="76" x="715.25" y="645.7869">&#1060;&#1086;&#1088;&#1084;&#1080;&#1088;&#1091;&#1077;&#1090;</text><text fill="#000000" font-family="sans-serif" font-size="13" lengthAdjust="spacing" textLength="8" x="785.493" y="411.7525">1</text><text fill="#000000" font-family="sans-serif" font-size="13" lengthAdjust="spacing" textLength="23" x="688.5992" y="792.687">0..*</text></g><!--link Client to Order--><g id="link_Client_Order"><path codeLine="143" d="M684.25,392.04 C684.25,423.45 684.25,458.86 684.25,494.18 " fill="none" id="Client-to-Order" style="stroke:#181818;stroke-width:1.0;"/><polygon fill="#181818" points="684.25,500.18,688.25,491.18,684.25,495.18,680.25,491.18,684.25,500.18" style="stroke:#181818;stroke-width:1.0;"/><text fill="#000000" font-family="sans-serif" font-size="13" lengthAdjust="spacing" textLength="65" x="618.25" y="442.1769">&#1055;&#1086;&#1083;&#1091;&#1095;&#1072;&#1077;&#1090;</text><text fill="#000000" font-family="sans-serif" font-size="13" lengthAdjust="spacing" textLength="8" x="662.9805" y="411.6844">1</text><text fill="#000000" font-family="sans-serif" font-size="13" lengthAdjust="spacing" textLength="23" x="672.759" y="489.5557">0..*</text></g><!--link Client to Payment--><g id="link_Client_Payment"><path codeLine="144" d="M887.44,387 C918.6,387 944.33,387 944.33,387 C944.33,387 944.33,442.06 944.33,494.29 " fill="none" id="Client-to-Payment" style="stroke:#181818;stroke-width:1.0;"/><polygon fill="#181818" points="944.33,500.29,948.33,491.29,944.33,495.29,940.33,491.29,944.33,500.29" style="stroke:#181818;stroke-width:1.0;"/><text fill="#000000" font-family="sans-serif" font-size="13" lengthAdjust="spacing" textLength="83" x="860.33" y="411.2569">&#1054;&#1087;&#1083;&#1072;&#1095;&#1080;&#1074;&#1072;&#1077;&#1090;</text><text fill="#000000" font-family="sans-serif" font-size="13" lengthAdjust="spacing" textLength="8" x="894.9946" y="386.5092">1</text><text fill="#000000" font-family="sans-serif" font-size="13" lengthAdjust="spacing" textLength="23" x="911.4695" y="489.4244">0..*</text></g><!--link PaymentType to Payment--><g id="link_PaymentType_Payment"><path codeLine="145" d="M1216.65,389 C1172.43,389 1121.67,389 1121.67,389 C1121.67,389 1121.67,442.78 1121.67,494.28 " fill="none" id="PaymentType-to-Payment" style="stroke:#181818;stroke-width:1.0;"/><polygon fill="#181818" points="1121.67,500.28,1125.67,491.28,1121.67,495.28,1117.67,491.28,1121.67,500.28" style="stroke:#181818;stroke-width:1.0;"/></g><!--link Receipt to Payment--><g id="link_Receipt_Payment"><path codeLine="146" d="M962.17,367.41 C962.17,398.7 962.17,436.59 962.17,482.26 " fill="none" id="Receipt-to-Payment" style="stroke:#181818;stroke-width:1.0;"/><polygon fill="none" points="962.17,500.26,968.17,482.26,956.17,482.26,962.17,500.26" style="stroke:#181818;stroke-width:1.0;"/></g><!--link PermitionPayment to PaymentState--><g id="link_PermitionPayment_PaymentState"><path codeLine="147" d="M1359.75,218.89 C1359.75,278.77 1359.75,344 1359.75,344 C1359.75,344 1368.01,344 1379.69,344 " fill="none" id="PermitionPayment-PaymentState" style="stroke:#181818;stroke-width:1.0;"/></g><!--link PermitionPayment to SmsGateway--><g id="link_PermitionPayment_SmsGateway"><path codeLine="148" d="M1374.88,122 C1484.1,122 1622,122 1622,122 C1622,122 1622,261.78 1622,319.12 " fill="none" id="PermitionPayment-SmsGateway" style="stroke:#181818;stroke-width:1.0;"/></g><!--reverse link PermitionPayment to Payment--><g id="link_PermitionPayment_Payment"><path codeLine="149" d="M1199.5,230.84 C1199.5,363.97 1199.5,574 1199.5,574 C1199.5,574 1172.28,574 1139.86,574 " fill="none" id="PermitionPayment-backto-Payment" style="stroke:#181818;stroke-width:1.0;"/><polygon fill="none" points="1199.5,218.84,1195.5,224.84,1199.5,230.84,1203.5,224.84,1199.5,218.84" style="stroke:#181818;stroke-width:1.0;"/></g><!--reverse link PermitionPayment to Client--><g id="link_PermitionPayment_Client"><path codeLine="150" d="M1147.75,230.91 C1147.75,272.24 1147.75,299 1147.75,299 C1147.75,299 995.95,299 887.15,299 " fill="none" id="PermitionPayment-backto-Client" style="stroke:#181818;stroke-width:1.0;"/><polygon fill="none" points="1147.75,218.91,1143.75,224.91,1147.75,230.91,1151.75,224.91,1147.75,218.91" style="stroke:#181818;stroke-width:1.0;"/></g><!--SRC=[fLPDRoD54BtthsZv144J9KXSSjW3AuGu89ODjnK7Rp8A5cixScoX290SPqMGijh8W60LXGqRLd2TP3tOww_yXPf_nAlgZscFnv4G1yiptTLLhrw_gfg3hskD_MghMjTFQesuVRWVwsQh_LLJgOyQxLhxKDz_KeiRRLqzq1KwfmcDAALPrgleRnLTuNb2QVQKvZHJT9brQOwN4KsoPvfjinEQOUyDpJMDAQ5hxCrme4U9eZuM9Z0zPTDvTiQds3mxmlv8VUyXF6WrTpix5iCL_DrGadK5mU_mCUHt70GoHI_f5c6FyeM-O1p38VsAdMvsgkXF809kd9lJW1VE1SeS-4Vqrc78dYbwZSSUPu2jX5FBpXJznHHm1Y_mnpif3HmloERHvlhwsfUwR5VHJx8mpSuqtKguDpR2ZI2QIOGyzK_ZHiVaVI4UdfTdVOM_MqrJOwFe3p4OSEfChrtto90kOgOIkyiHywEBeRVZdNQjsN2tl-hKAb3sfdnSlnA4kLzjUNMntw589B7w2ZryiB7WWbvbnm0mvOi8MON193k6yXoRCEmnT2mUiGnzbEnqIz-n6O3yhBKRjmpAtv0WItbeavup2Gpd5w4dAOGREdDAYi62BHnYuD3jdAvBSk2ZTngm0sWSLmwFubgZs6nz_HVLTUfo8zljQhjpO39UpP1Gy5fMfb9RnrpRg1qX_Mc-OIvDYiP54KfNXWcuaI2lu845dVW-0mH3Ky08O6F-xBBYZ4-T-Kki6Q7syUhZFsvNQurQOyz63-czBD9hC6YpZzzR130WGPzt-Q1wM4Ul39FYTZGnmh1wIJNEcqLnhxoDUIqu-u8xicryKkFENqh_U9-9wxL8EfLkXhjWBNx-CE8Req4PnhY4zsNlBuI17n0yk4Sb50rWUCFYX_50o1MknznAGxPDdJVhZviVTbfxhf3EfNIOpJvYTo79T5LJNz5dtrzVtznOrMZX1AZv_iPETOBZayPUAzxDPrh9uN8G_s-G-9bnmSg6a4RSkTp8OrNmFPbhJ6K2mYThung3SMZl91YGx1D58TOz1n82rOysLa-VOAGQ6JW5d6HzdxPjQ8N-57GtttNB5BcbIvSBNT5LG4zQS50a2m1kYneh6P0FuvsujcyJ-Hi6OquZtz-k7tmCgNzJFNHrVi65_2EuV6vwU41AtAhNUDuji1EW0x-6AbzvllltvGx62_Z7fWvP5uKl9TR-WDl9D3jITrHWSMGiSlhU0dN2bmzAwJll5Wr4BAo88O-JFbqkcx16WsQ2vWqRCAI2igcmmYewYfgw8YLO2Oixj8oYeDoK-uoho2ot3k1hio8Zn-_pkdrMPl16qNVtZ8ryBS1jFgFKOjUDeZKdRXME69oHLvNtVRyKVkamE4bkpJtoxW9sbtk-RG-hiCS9PfU6_OYkRFBHUuv1IGPNl3H1LzWRChR2-PJSOUvK75JO2KhpnXuA1moVSgovYZ89sCMbqW1vuIWfDSXhRtcxcJietpGv_Gi0]--></g></svg>