<?xml version="1.0" encoding="us-ascii" standalone="no"?><svg xmlns="http://www.w3.org/2000/svg" xmlns:xlink="http://www.w3.org/1999/xlink" contentStyleType="text/css" height="821px" preserveAspectRatio="none" style="width:1524px;height:821px;background:#FFFFFF;" version="1.1" viewBox="0 0 1524 821" width="1524px" zoomAndPan="magnify"><defs/><g><!--cluster ??????? ?? ????????????--><g id="cluster_&#1057;&#1080;&#1089;&#1090;&#1077;&#1084;&#1072; &#1085;&#1072; &#1087;&#1088;&#1086;&#1080;&#1079;&#1074;&#1086;&#1076;&#1089;&#1090;&#1074;&#1077;"><rect fill="none" height="719" rx="2.5" ry="2.5" style="stroke:#181818;stroke-width:1.0;" width="1251" x="267" y="7"/><text fill="#000000" font-family="sans-serif" font-size="14" font-weight="bold" lengthAdjust="spacing" textLength="216" x="784.5" y="21.9951">&#1057;&#1080;&#1089;&#1090;&#1077;&#1084;&#1072; &#1085;&#1072; &#1087;&#1088;&#1086;&#1080;&#1079;&#1074;&#1086;&#1076;&#1089;&#1090;&#1074;&#1077;</text></g><g id="elem_add_pos"><ellipse cx="467.5966" cy="75.2193" fill="#F1F1F1" rx="154.0966" ry="33.2193" style="stroke:#181818;stroke-width:0.5;"/><text fill="#000000" font-family="sans-serif" font-size="14" lengthAdjust="spacing" textLength="279" x="328.0966" y="78.066">UC-21 &#1042;&#1085;&#1077;&#1089;&#1090;&#1080; &#1085;&#1086;&#1074;&#1091;&#1102; &#1087;&#1086;&#1079;&#1080;&#1094;&#1080;&#1102; &#1074; &#1084;&#1077;&#1085;&#1102;</text></g><g id="elem_upd_price"><ellipse cx="467.711" cy="164.9422" fill="#F1F1F1" rx="97.711" ry="21.9422" style="stroke:#181818;stroke-width:0.5;"/><text fill="#000000" font-family="sans-serif" font-size="14" lengthAdjust="spacing" textLength="159" x="388.211" y="167.7889">UC-22 &#1048;&#1079;&#1084;&#1077;&#1085;&#1080;&#1090;&#1100; &#1094;&#1077;&#1085;&#1091;</text></g><g id="elem_add_act"><ellipse cx="467.5234" cy="256.1047" fill="#F1F1F1" rx="156.0234" ry="33.6047" style="stroke:#181818;stroke-width:0.5;"/><text fill="#000000" font-family="sans-serif" font-size="14" lengthAdjust="spacing" textLength="283" x="326.0234" y="258.9514">UC-23 &#1042;&#1085;&#1077;&#1089;&#1090;&#1080; &#1080;&#1085;&#1092;&#1086;&#1088;&#1084;&#1072;&#1094;&#1080;&#1102; &#1086;&#1073; &#1072;&#1082;&#1094;&#1080;&#1103;&#1093;</text></g><g id="elem_add_spec"><ellipse cx="467.4646" cy="357.0929" fill="#F1F1F1" rx="148.4646" ry="32.0929" style="stroke:#181818;stroke-width:0.5;"/><text fill="#000000" font-family="sans-serif" font-size="14" lengthAdjust="spacing" textLength="203" x="365.9646" y="351.7912">UC-24 &#1042;&#1085;&#1077;&#1089;&#1090;&#1080; &#1080;&#1085;&#1092;&#1086;&#1088;&#1084;&#1072;&#1094;&#1080;&#1102;</text><text fill="#000000" font-family="sans-serif" font-size="14" lengthAdjust="spacing" textLength="229" x="352.9646" y="368.088">&#1086; &#1089;&#1087;&#1077;&#1094;&#1080;&#1072;&#1083;&#1100;&#1085;&#1099;&#1093; &#1087;&#1088;&#1077;&#1076;&#1083;&#1086;&#1078;&#1077;&#1085;&#1080;&#1103;&#1093;</text></g><g id="elem_add_comp"><ellipse cx="467.6285" cy="463.8257" fill="#F1F1F1" rx="184.6285" ry="39.3257" style="stroke:#181818;stroke-width:0.5;"/><text fill="#000000" font-family="sans-serif" font-size="14" lengthAdjust="spacing" textLength="342" x="296.6285" y="466.6724">UC-25 &#1053;&#1072;&#1089;&#1090;&#1088;&#1086;&#1080;&#1090;&#1100; &#1082;&#1086;&#1084;&#1087;&#1083;&#1077;&#1082;&#1089;&#1085;&#1099;&#1077; &#1087;&#1088;&#1077;&#1076;&#1083;&#1086;&#1078;&#1077;&#1085;&#1080;&#1103;</text></g><g id="elem_add_tech"><ellipse cx="467.5447" cy="574.9089" fill="#F1F1F1" rx="170.0447" ry="36.4089" style="stroke:#181818;stroke-width:0.5;"/><text fill="#000000" font-family="sans-serif" font-size="14" lengthAdjust="spacing" textLength="312" x="311.5447" y="577.7556">UC-26 &#1053;&#1072;&#1089;&#1090;&#1088;&#1086;&#1080;&#1090;&#1100; &#1090;&#1077;&#1093;&#1085;&#1086;&#1083;&#1086;&#1075;&#1080;&#1095;&#1077;&#1089;&#1082;&#1091;&#1102; &#1082;&#1072;&#1088;&#1090;&#1091;</text></g><g id="elem_apply"><ellipse cx="935.8456" cy="307.1691" fill="#F1F1F1" rx="176.3456" ry="37.6691" style="stroke:#181818;stroke-width:0.5;"/><text fill="#000000" font-family="sans-serif" font-size="14" lengthAdjust="spacing" textLength="217" x="827.3456" y="301.8674">UC-27 &#1055;&#1088;&#1080;&#1084;&#1077;&#1085;&#1080;&#1090;&#1100; &#1080;&#1079;&#1084;&#1077;&#1085;&#1077;&#1085;&#1080;&#1103;</text><text fill="#000000" font-family="sans-serif" font-size="14" lengthAdjust="spacing" textLength="294" x="788.8456" y="318.1642">&#1074; &#1089;&#1083;&#1077;&#1076;&#1091;&#1102;&#1097;&#1077;&#1084; &#1086;&#1090;&#1082;&#1088;&#1099;&#1090;&#1086;&#1084; &#1090;&#1086;&#1088;&#1075;&#1086;&#1074;&#1086;&#1084; &#1076;&#1085;&#1077;</text></g><g id="elem_status"><ellipse cx="467.3949" cy="677.979" fill="#F1F1F1" rx="145.3949" ry="31.479" style="stroke:#181818;stroke-width:0.5;"/><text fill="#000000" font-family="sans-serif" font-size="14" lengthAdjust="spacing" textLength="221" x="353.8949" y="673.5781">UC-29 &#1055;&#1086;&#1083;&#1091;&#1095;&#1080;&#1090;&#1100; &#1080;&#1085;&#1092;&#1086;&#1088;&#1084;&#1072;&#1094;&#1080;&#1102;</text><text fill="#000000" font-family="sans-serif" font-size="14" lengthAdjust="spacing" textLength="140" x="394.3949" y="689.875">&#1086; &#1089;&#1090;&#1072;&#1090;&#1091;&#1089;&#1077; &#1088;&#1086;&#1073;&#1086;&#1090;&#1086;&#1074;</text></g><g id="elem_chk_err"><ellipse cx="935.7938" cy="675.0588" fill="#F1F1F1" rx="145.7938" ry="31.5588" style="stroke:#181818;stroke-width:0.5;"/><text fill="#000000" font-family="sans-serif" font-size="14" lengthAdjust="spacing" textLength="222" x="821.7938" y="670.6579">UC-30 &#1055;&#1086;&#1083;&#1091;&#1095;&#1080;&#1090;&#1100; &#1080;&#1085;&#1092;&#1086;&#1088;&#1084;&#1072;&#1094;&#1080;&#1102;</text><text fill="#000000" font-family="sans-serif" font-size="14" lengthAdjust="spacing" textLength="135" x="865.2938" y="686.9548">&#1086; &#1085;&#1072;&#1083;&#1080;&#1095;&#1080;&#1080; &#1086;&#1096;&#1080;&#1073;&#1086;&#1082;</text></g><g id="elem_chk_num"><ellipse cx="1360.7717" cy="675.0543" fill="#F1F1F1" rx="120.7717" ry="26.5543" style="stroke:#181818;stroke-width:0.5;"/><text fill="#000000" font-family="sans-serif" font-size="14" lengthAdjust="spacing" textLength="209" x="1256.2717" y="677.901">UC-31 &#1059;&#1079;&#1085;&#1072;&#1090;&#1100; &#1085;&#1086;&#1084;&#1077;&#1088; &#1088;&#1086;&#1073;&#1086;&#1090;&#1072;</text></g><g id="elem_depo"><ellipse cx="936.2289" cy="560.8458" fill="#F1F1F1" rx="177.2289" ry="37.8458" style="stroke:#181818;stroke-width:0.5;"/><text fill="#000000" font-family="sans-serif" font-size="14" lengthAdjust="spacing" textLength="221" x="825.7289" y="555.544">UC-32 &#1055;&#1086;&#1083;&#1091;&#1095;&#1080;&#1090;&#1100; &#1080;&#1085;&#1092;&#1086;&#1088;&#1084;&#1072;&#1094;&#1080;&#1102;</text><text fill="#000000" font-family="sans-serif" font-size="14" lengthAdjust="spacing" textLength="296" x="788.2289" y="571.8409">&#1086; &#1080;&#1089;&#1095;&#1077;&#1088;&#1087;&#1072;&#1085;&#1080;&#1080; &#1079;&#1072;&#1087;&#1072;&#1089;&#1086;&#1074; &#1087;&#1086;&#1083;&#1091;&#1092;&#1072;&#1073;&#1088;&#1080;&#1082;&#1072;&#1090;&#1086;&#1074;</text></g><g id="elem_chk_time"><ellipse cx="1360.9321" cy="585.9864" fill="#F1F1F1" rx="122.9321" ry="26.9864" style="stroke:#181818;stroke-width:0.5;"/><text fill="#000000" font-family="sans-serif" font-size="14" lengthAdjust="spacing" textLength="151" x="1285.4321" y="580.6847">UC-33 &#1059;&#1079;&#1085;&#1072;&#1090;&#1100; &#1074;&#1088;&#1077;&#1084;&#1103;</text><text fill="#000000" font-family="sans-serif" font-size="14" lengthAdjust="spacing" textLength="164" x="1278.9321" y="596.9815">&#1076;&#1086; &#1080;&#1089;&#1095;&#1077;&#1088;&#1087;&#1072;&#1085;&#1080;&#1103; &#1079;&#1072;&#1087;&#1072;&#1089;&#1072;</text></g><g id="elem_chk_count"><ellipse cx="1360.8766" cy="495.0753" fill="#F1F1F1" rx="133.3766" ry="29.0753" style="stroke:#181818;stroke-width:0.5;"/><text fill="#000000" font-family="sans-serif" font-size="14" lengthAdjust="spacing" textLength="190" x="1262.8766" y="490.6744">UC-34 &#1059;&#1079;&#1085;&#1072;&#1090;&#1100; &#1082;&#1086;&#1083;&#1080;&#1095;&#1077;&#1089;&#1090;&#1074;&#1086;</text><text fill="#000000" font-family="sans-serif" font-size="14" lengthAdjust="spacing" textLength="90" x="1312.8766" y="506.9713">&#1087;&#1086;&#1087;&#1086;&#1083;&#1085;&#1077;&#1085;&#1080;&#1103;</text></g><g id="elem_chk_ing"><ellipse cx="1361.1446" cy="400.1289" fill="#F1F1F1" rx="141.1446" ry="30.6289" style="stroke:#181818;stroke-width:0.5;"/><text fill="#000000" font-family="sans-serif" font-size="14" lengthAdjust="spacing" textLength="252" x="1235.1446" y="402.9756">UC-35 &#1059;&#1079;&#1085;&#1072;&#1090;&#1100; &#1090;&#1080;&#1087; &#1087;&#1086;&#1083;&#1091;&#1092;&#1072;&#1073;&#1088;&#1080;&#1082;&#1072;&#1090;&#1072;</text></g><!--entity mgrr--><g id="elem_mgrr"><ellipse cx="113" cy="277.5" fill="#F1F1F1" rx="8" ry="8" style="stroke:#181818;stroke-width:0.5;"/><path d="M113,285.5 L113,312.5 M100,293.5 L126,293.5 M113,312.5 L100,327.5 M113,312.5 L126,327.5 " fill="none" style="stroke:#181818;stroke-width:0.5;"/><text fill="#000000" font-family="sans-serif" font-size="14" lengthAdjust="spacing" textLength="214" x="6" y="341.9951">&#1052;&#1077;&#1085;&#1077;&#1076;&#1078;&#1077;&#1088; &#1087;&#1086; &#1072;&#1089;&#1089;&#1086;&#1088;&#1090;&#1080;&#1084;&#1077;&#1085;&#1090;&#1091;</text></g><!--entity tech--><g id="elem_tech"><ellipse cx="113" cy="714.5" fill="#F1F1F1" rx="8" ry="8" style="stroke:#181818;stroke-width:0.5;"/><path d="M113,722.5 L113,749.5 M100,730.5 L126,730.5 M113,749.5 L100,764.5 M113,749.5 L126,764.5 " fill="none" style="stroke:#181818;stroke-width:0.5;"/><text fill="#000000" font-family="sans-serif" font-size="14" lengthAdjust="spacing" textLength="186" x="20" y="778.9951">&#1058;&#1077;&#1093;&#1085;&#1080;&#1082; &#1085;&#1072; &#1087;&#1088;&#1086;&#1080;&#1079;&#1074;&#1086;&#1076;&#1089;&#1090;&#1074;&#1077;</text></g><g id="elem_add_ing"><ellipse cx="467.6684" cy="780.1337" fill="#F1F1F1" rx="166.1684" ry="35.6337" style="stroke:#181818;stroke-width:0.5;"/><text fill="#000000" font-family="sans-serif" font-size="14" lengthAdjust="spacing" textLength="304" x="315.6684" y="782.9804">UC-28 &#1055;&#1086;&#1087;&#1086;&#1083;&#1085;&#1080;&#1090;&#1100; &#1079;&#1072;&#1087;&#1072;&#1089; &#1087;&#1086;&#1083;&#1091;&#1092;&#1072;&#1073;&#1088;&#1080;&#1082;&#1072;&#1090;&#1086;&#1074;</text></g><!--link mgrr to add_pos--><g id="link_mgrr_add_pos"><path d="M134.192,268.694 C158.264,226.862 202.441,161.034 259,125 C282.282,110.166 309.587,99.732 336.601,92.392 " fill="none" id="mgrr-add_pos" style="stroke:#181818;stroke-width:1.0;"/></g><!--link mgrr to upd_price--><g id="link_mgrr_upd_price"><path d="M157.723,268.817 C185.075,246.904 222.032,220.705 259,205 C296.312,189.148 340.073,179.529 377.765,173.714 " fill="none" id="mgrr-upd_price" style="stroke:#181818;stroke-width:1.0;"/></g><!--link mgrr to add_act--><g id="link_mgrr_add_act"><path d="M220.24,291.629 C257.235,286.277 299.146,280.213 337.766,274.625 " fill="none" id="mgrr-add_act" style="stroke:#181818;stroke-width:1.0;"/></g><!--link mgrr to add_spec--><g id="link_mgrr_add_spec"><path d="M220.24,322.069 C258.959,327.562 303.06,333.817 343.14,339.502 " fill="none" id="mgrr-add_spec" style="stroke:#181818;stroke-width:1.0;"/></g><!--link mgrr to add_comp--><g id="link_mgrr_add_comp"><path d="M160.532,345.094 C187.835,365.863 223.796,390.602 259,407 C283.637,418.476 311.028,428.033 337.619,435.834 " fill="none" id="mgrr-add_comp" style="stroke:#181818;stroke-width:1.0;"/></g><!--link mgrr to add_tech--><g id="link_mgrr_add_tech"><path d="M129.656,345.355 C151.406,393.752 195.4,476.08 259,521 C279.599,535.549 303.829,546.18 328.324,553.947 " fill="none" id="mgrr-add_tech" style="stroke:#181818;stroke-width:1.0;"/></g><!--link tech to add_ing--><g id="link_tech_add_ing"><path d="M206.155,753.4116 C240.119,756.8802 279.525,760.9047 317.242,764.7567 " fill="none" id="tech-add_ing" style="stroke:#181818;stroke-width:1.0;"/></g><!--link tech to status--><g id="link_tech_status"><path d="M206.155,726.7455 C252.256,718.1137 308.384,707.605 356.705,698.557 " fill="none" id="tech-status" style="stroke:#181818;stroke-width:1.0;"/></g><!--link add_pos to apply--><g id="link_add_pos_apply"><path d="M576.184,98.442 C601.571,105.571 628.169,114.393 652,125 C741.124,164.669 829.6038,226.4279 883.6888,267.0819 " fill="none" id="add_pos-to-apply" style="stroke:#181818;stroke-width:1.0;stroke-dasharray:7.0,7.0;"/><polygon fill="#181818" points="888.485,270.687,883.6942,262.0819,884.4882,267.6827,878.8874,268.4768,888.485,270.687" style="stroke:#181818;stroke-width:1.0;"/><text fill="#000000" font-family="sans-serif" font-size="13" lengthAdjust="spacing" textLength="45" x="683" y="137.0669">include</text></g><!--link upd_price to apply--><g id="link_upd_price_apply"><path d="M543.161,178.959 C576.691,185.82 616.593,194.808 652,205 C720.506,224.72 790.8172,250.2528 846.7582,271.8068 " fill="none" id="upd_price-to-apply" style="stroke:#181818;stroke-width:1.0;stroke-dasharray:7.0,7.0;"/><polygon fill="#181818" points="852.357,273.964,845.397,266.9957,847.6913,272.1663,842.5207,274.4607,852.357,273.964" style="stroke:#181818;stroke-width:1.0;"/><text fill="#000000" font-family="sans-serif" font-size="13" lengthAdjust="spacing" textLength="45" x="683" y="211.0669">include</text></g><!--link add_act to apply--><g id="link_add_act_apply"><path d="M606.887,271.129 C660.881,277.032 717.0845,283.1759 772.6875,289.2549 " fill="none" id="add_act-to-apply" style="stroke:#181818;stroke-width:1.0;stroke-dasharray:7.0,7.0;"/><polygon fill="#181818" points="778.652,289.907,770.14,284.9526,773.6816,289.3636,769.2706,292.9052,778.652,289.907" style="stroke:#181818;stroke-width:1.0;"/><text fill="#000000" font-family="sans-serif" font-size="13" lengthAdjust="spacing" textLength="45" x="683" y="275.0669">include</text></g><!--link add_spec to apply--><g id="link_add_spec_apply"><path d="M600.932,342.806 C656.019,336.902 714.4292,330.6415 771.8862,324.4825 " fill="none" id="add_spec-to-apply" style="stroke:#181818;stroke-width:1.0;stroke-dasharray:7.0,7.0;"/><polygon fill="#181818" points="777.852,323.843,768.4769,320.825,772.8805,324.3759,769.3296,328.7795,777.852,323.843" style="stroke:#181818;stroke-width:1.0;"/><text fill="#000000" font-family="sans-serif" font-size="13" lengthAdjust="spacing" textLength="45" x="683" y="326.0669">include</text></g><!--link add_comp to apply--><g id="link_add_comp_apply"><path d="M574.973,431.687 C600.28,423.797 627.146,415.248 652,407 C717.283,385.335 784.8388,361.4586 840.4358,341.4406 " fill="none" id="add_comp-to-apply" style="stroke:#181818;stroke-width:1.0;stroke-dasharray:7.0,7.0;"/><polygon fill="#181818" points="846.081,339.408,836.2581,338.6934,841.3766,341.1018,838.9682,346.2204,846.081,339.408" style="stroke:#181818;stroke-width:1.0;"/><text fill="#000000" font-family="sans-serif" font-size="13" lengthAdjust="spacing" textLength="45" x="683" y="379.0669">include</text></g><!--link add_tech to apply--><g id="link_add_tech_apply"><path d="M583.528,548.089 C606.792,540.74 630.648,531.761 652,521 C747.987,472.625 840.1741,394.8093 891.9661,347.5913 " fill="none" id="add_tech-to-apply" style="stroke:#181818;stroke-width:1.0;stroke-dasharray:7.0,7.0;"/><polygon fill="#181818" points="896.4,343.549,887.0542,346.6566,892.7051,346.9176,892.444,352.5684,896.4,343.549" style="stroke:#181818;stroke-width:1.0;"/><text fill="#000000" font-family="sans-serif" font-size="13" lengthAdjust="spacing" textLength="45" x="683" y="472.0669">include</text></g><!--reverse link status to chk_err--><g id="link_status_chk_err"><path d="M619.2269,677.0304 C675.4079,676.6694 733.635,676.295 789.855,675.933 " fill="none" id="status-backto-chk_err" style="stroke:#181818;stroke-width:1.0;stroke-dasharray:7.0,7.0;"/><polygon fill="#181818" points="613.227,677.069,622.2525,681.0111,618.2269,677.0369,622.2011,673.0113,613.227,677.069" style="stroke:#181818;stroke-width:1.0;"/><text fill="#000000" font-family="sans-serif" font-size="13" lengthAdjust="spacing" textLength="45" x="683" y="672.0669">extend</text></g><!--reverse link status to depo--><g id="link_status_depo"><path d="M569.0037,652.7933 C643.3067,634.1573 741.219,609.601 820.242,589.782 " fill="none" id="status-backto-depo" style="stroke:#181818;stroke-width:1.0;stroke-dasharray:7.0,7.0;"/><polygon fill="#181818" points="563.184,654.253,572.8867,655.9433,568.0338,653.0366,570.9405,648.1837,563.184,654.253" style="stroke:#181818;stroke-width:1.0;"/><text fill="#000000" font-family="sans-serif" font-size="13" lengthAdjust="spacing" textLength="45" x="683" y="611.0669">extend</text></g><!--reverse link chk_err to chk_num--><g id="link_chk_err_chk_num"><path d="M1087.4896,677.8098 C1122.9796,678.1988 1154.86,678.31 1190,678 C1206.23,677.857 1223.34,677.637 1240.19,677.379 " fill="none" id="chk_err-backto-chk_num" style="stroke:#181818;stroke-width:1.0;stroke-dasharray:7.0,7.0;"/><polygon fill="#181818" points="1081.49,677.744,1090.4456,681.8424,1086.4897,677.7988,1090.5333,673.8429,1081.49,677.744" style="stroke:#181818;stroke-width:1.0;"/><text fill="#000000" font-family="sans-serif" font-size="13" lengthAdjust="spacing" textLength="45" x="1144" y="674.0669">extend</text></g><!--reverse link depo to chk_num--><g id="link_depo_chk_num"><path d="M1052.8233,592.2162 C1127.2433,612.2712 1217.83,636.685 1283.86,654.479 " fill="none" id="depo-backto-chk_num" style="stroke:#181818;stroke-width:1.0;stroke-dasharray:7.0,7.0;"/><polygon fill="#181818" points="1047.03,590.655,1054.6792,596.859,1051.8578,591.956,1056.7608,589.1346,1047.03,590.655" style="stroke:#181818;stroke-width:1.0;"/><text fill="#000000" font-family="sans-serif" font-size="13" lengthAdjust="spacing" textLength="45" x="1144" y="614.0669">extend</text></g><!--reverse link depo to chk_ing--><g id="link_depo_chk_ing"><path d="M1024.8839,525.1635 C1081.1739,502.4455 1152.04,474.328 1220,449 C1240.87,441.221 1263.62,433.104 1284.6,425.767 " fill="none" id="depo-backto-chk_ing" style="stroke:#181818;stroke-width:1.0;stroke-dasharray:7.0,7.0;"/><polygon fill="#181818" points="1019.32,527.409,1029.163,527.75,1023.9566,525.5377,1026.1689,520.3314,1019.32,527.409" style="stroke:#181818;stroke-width:1.0;"/><text fill="#000000" font-family="sans-serif" font-size="13" lengthAdjust="spacing" textLength="45" x="1144" y="456.0669">extend</text></g><!--reverse link depo to chk_count--><g id="link_depo_chk_count"><path d="M1085.5483,537.822 C1141.9083,529.028 1199.67,520.016 1252.09,511.837 " fill="none" id="depo-backto-chk_count" style="stroke:#181818;stroke-width:1.0;stroke-dasharray:7.0,7.0;"/><polygon fill="#181818" points="1079.62,538.747,1089.1291,541.3117,1084.5602,537.9762,1087.8957,533.4073,1079.62,538.747" style="stroke:#181818;stroke-width:1.0;"/><text fill="#000000" font-family="sans-serif" font-size="13" lengthAdjust="spacing" textLength="45" x="1144" y="518.0669">extend</text></g><!--reverse link depo to chk_time--><g id="link_depo_chk_time"><path d="M1112.9095,571.3961 C1158.1595,574.0711 1200.07,576.548 1241.87,579.019 " fill="none" id="depo-backto-chk_time" style="stroke:#181818;stroke-width:1.0;stroke-dasharray:7.0,7.0;"/><polygon fill="#181818" points="1106.92,571.042,1115.6683,575.5661,1111.9113,571.3371,1116.1404,567.5801,1106.92,571.042" style="stroke:#181818;stroke-width:1.0;"/><text fill="#000000" font-family="sans-serif" font-size="13" lengthAdjust="spacing" textLength="45" x="1144" y="569.0669">extend</text></g><!--SRC=[bLJDJjj04BxlKwno8WUYba3_LFNIHwXwHfQp3HQ9OpcEL5HL2W5AAn18FVLGLBLzWH0IY98GNc7tZVhDs5dR8HRqODcUsVdccvrlfg4-H39goT2hxqIoveNAZRoMBzgxdXyueTEKWUFkEdNrBjfhA4bknwytb73Sg1NAalwfH_eMpr1Vwv7fIdsdvrBtpRxPrtFJDJqzrZCwOthce2ITjcpMmz26_q7G4G36UYBnwYFUTFKS_pTwWFSGG3ryZJWqKkwE49ssSfssaawjjktvTNAKthzTttWXzI-4W82U4YGodahWz6428Hbxp84vXEaIQP0KZXwiWv8GjZRG-ereIZm2z_v3n3xb60MjjcNqLEhlT3jyTamuI0K2Pp6N6sJvWWU_0vdSqbd9edK2e8MUgopUXjG_4CKda_e0G647fHm9NAyDgYwH6EFu8VM6Qblad-jBT4rF-F_S7ENXse5oBTxcmtW26a3_xt08_y2TcbESEZ57yJMINAR8UPqKSY-Xsse6Dk6Mr1Uig5xSWRYl4tpEa68AZ0cI0LwF2k3puAGY2_vi5JXrdcKvPvmhc8-fO2JYvf5ikYpe53W86diMzJcao0BBjegrCqlcXNa9z1seLCAGaCqtKXow0G8JP3XXSSw83ztl5Sc73IWG86dsTkH4dLHtB-D98AqVfyaBsWJmFjK28YF9bt3917Wg5WdSdTrj5OQB3DKdZyz0quCIwGh7f9Uv-OeFvD2JFBxVQLfyJCvVtDOjKpkD9sV62oR3i9_6rrJGii4R_q6EvfnwswKbmOjedDaPT0aFx8ri1P7NjCDQhIwLC61bpgZhmvMPpNasSpyFxROwlftfwkOIzeILcgYKzz9SCEt5Chmt28IPMPxLhJmYx-sxujB1Jj0Yb-lhSYrPU-NKObTNENyAUsd9GgjboKJ3lsIYaIqB7jo52UHJIwn_8ImLMQcyIMRobVHyjz6fAP6XjTg_e5ZiPRh5RgPUxEOoLhf5Ci6lAnMvbWnR6NxrCL9-BUjbfLj7UjP6OemoaNpyKJwwq28Vgw_GIxBFE3__0m00]--></g></svg>