<?xml version="1.0" encoding="us-ascii" standalone="no"?><svg xmlns="http://www.w3.org/2000/svg" xmlns:xlink="http://www.w3.org/1999/xlink" contentStyleType="text/css" height="654px" preserveAspectRatio="none" style="width:1742px;height:654px;background:#FFFFFF;" version="1.1" viewBox="0 0 1742 654" width="1742px" zoomAndPan="magnify"><defs/><g><!--cluster ??????? ? ???? ?????????--><g id="cluster_&#1057;&#1080;&#1089;&#1090;&#1077;&#1084;&#1072; &#1074; &#1079;&#1072;&#1083;&#1077; &#1088;&#1077;&#1089;&#1090;&#1086;&#1088;&#1072;&#1085;&#1072;"><rect fill="none" height="570" rx="2.5" ry="2.5" style="stroke:#181818;stroke-width:1.0;" width="1451" x="285" y="78.5"/><text fill="#000000" font-family="sans-serif" font-size="14" font-weight="bold" lengthAdjust="spacing" textLength="219" x="901" y="93.4951">&#1057;&#1080;&#1089;&#1090;&#1077;&#1084;&#1072; &#1074; &#1079;&#1072;&#1083;&#1077; &#1088;&#1077;&#1089;&#1090;&#1086;&#1088;&#1072;&#1085;&#1072;</text></g><g id="elem_order"><ellipse cx="471.9738" cy="239.3948" fill="#F1F1F1" rx="99.9738" ry="22.3948" style="stroke:#181818;stroke-width:0.5;"/><text fill="#000000" font-family="sans-serif" font-size="14" lengthAdjust="spacing" textLength="164" x="389.9738" y="242.2414">UC-1 &#1054;&#1092;&#1086;&#1088;&#1084;&#1080;&#1090;&#1100; &#1079;&#1072;&#1082;&#1072;&#1079;</text></g><g id="elem_loyal"><ellipse cx="471.9104" cy="344.5821" fill="#F1F1F1" rx="143.4104" ry="31.0821" style="stroke:#181818;stroke-width:0.5;"/><text fill="#000000" font-family="sans-serif" font-size="14" lengthAdjust="spacing" textLength="216" x="360.9104" y="340.1812">UC-2 &#1088;&#1077;&#1075;&#1080;&#1089;&#1090;&#1088;&#1072;&#1094;&#1080;&#1103; &#1074; &#1089;&#1080;&#1089;&#1090;&#1077;&#1084;&#1077;</text><text fill="#000000" font-family="sans-serif" font-size="14" lengthAdjust="spacing" textLength="89" x="424.4104" y="356.4781">&#1083;&#1086;&#1103;&#1083;&#1100;&#1085;&#1086;&#1089;&#1090;&#1080;</text></g><g id="elem_menu"><ellipse cx="471.9293" cy="139.5859" fill="#F1F1F1" rx="118.4293" ry="26.0859" style="stroke:#181818;stroke-width:0.5;"/><text fill="#000000" font-family="sans-serif" font-size="14" lengthAdjust="spacing" textLength="204" x="369.9293" y="142.4325">UC-3 &#1054;&#1079;&#1085;&#1072;&#1082;&#1086;&#1084;&#1080;&#1090;&#1100;&#1089;&#1103; &#1089; &#1084;&#1077;&#1085;&#1102;</text></g><g id="elem_add_basket"><ellipse cx="896.0569" cy="144.5114" fill="#F1F1F1" rx="143.0569" ry="31.0114" style="stroke:#181818;stroke-width:0.5;"/><text fill="#000000" font-family="sans-serif" font-size="14" lengthAdjust="spacing" textLength="256" x="768.0569" y="147.3581">UC-4 &#1044;&#1086;&#1073;&#1072;&#1074;&#1080;&#1090;&#1100; &#1087;&#1086;&#1079;&#1080;&#1094;&#1080;&#1080; &#1074; &#1082;&#1086;&#1088;&#1079;&#1080;&#1085;&#1091;</text></g><g id="elem_take_type"><ellipse cx="896.1669" cy="324.5334" fill="#F1F1F1" rx="140.6669" ry="30.5334" style="stroke:#181818;stroke-width:0.5;"/><text fill="#000000" font-family="sans-serif" font-size="14" lengthAdjust="spacing" textLength="251" x="770.6669" y="327.3801">UC-5 &#1059;&#1082;&#1072;&#1079;&#1072;&#1090;&#1100; &#1074; &#1079;&#1072;&#1083;&#1077; &#1080;&#1083;&#1080; &#1085;&#1072; &#1074;&#1099;&#1085;&#1086;&#1089;</text></g><g id="elem_pay"><ellipse cx="896.1701" cy="234.634" fill="#F1F1F1" rx="108.6701" ry="24.134" style="stroke:#181818;stroke-width:0.5;"/><text fill="#000000" font-family="sans-serif" font-size="14" lengthAdjust="spacing" textLength="183" x="804.6701" y="237.4807">UC-6 &#1087;&#1088;&#1086;&#1080;&#1079;&#1074;&#1077;&#1089;&#1090;&#1080; &#1086;&#1087;&#1083;&#1072;&#1090;&#1091;</text></g><g id="elem_pay_nal"><ellipse cx="1256.5329" cy="154.3066" fill="#F1F1F1" rx="104.5329" ry="23.3066" style="stroke:#181818;stroke-width:0.5;"/><text fill="#000000" font-family="sans-serif" font-size="14" lengthAdjust="spacing" textLength="174" x="1169.5329" y="157.1533">UC-7 &#1054;&#1087;&#1083;&#1072;&#1090;&#1072; &#1095;&#1077;&#1088;&#1077;&#1079; &#1057;&#1041;&#1055;</text></g><g id="elem_pay_bunus"><ellipse cx="1256.7229" cy="311.5446" fill="#F1F1F1" rx="93.2229" ry="21.0446" style="stroke:#181818;stroke-width:0.5;"/><text fill="#000000" font-family="sans-serif" font-size="14" lengthAdjust="spacing" textLength="149" x="1182.2229" y="314.3913">UC-8 &#1057;&#1087;&#1080;&#1089;&#1072;&#1090;&#1100; &#1073;&#1072;&#1083;&#1083;&#1099;</text></g><g id="elem_pay_card"><ellipse cx="1256.6693" cy="234.6339" fill="#F1F1F1" rx="93.6693" ry="21.1339" style="stroke:#181818;stroke-width:0.5;"/><text fill="#000000" font-family="sans-serif" font-size="14" lengthAdjust="spacing" textLength="150" x="1181.6693" y="237.4805">UC-9 &#1054;&#1087;&#1083;&#1072;&#1090;&#1072; &#1082;&#1072;&#1088;&#1090;&#1086;&#1081;</text></g><g id="elem_talon"><ellipse cx="1595.6144" cy="234.3229" fill="#F1F1F1" rx="124.6144" ry="27.3229" style="stroke:#181818;stroke-width:0.5;"/><text fill="#000000" font-family="sans-serif" font-size="14" lengthAdjust="spacing" textLength="166" x="1509.6144" y="229.922">UC-10 &#1055;&#1086;&#1083;&#1091;&#1095;&#1080;&#1090;&#1100; &#1090;&#1072;&#1083;&#1086;&#1085;</text><text fill="#000000" font-family="sans-serif" font-size="14" lengthAdjust="spacing" textLength="133" x="1526.1144" y="246.2189">&#1089; &#1085;&#1086;&#1084;&#1077;&#1088;&#1086;&#1084; &#1079;&#1072;&#1082;&#1072;&#1079;&#1072;</text></g><g id="elem_back"><ellipse cx="471.9298" cy="550.586" fill="#F1F1F1" rx="145.9298" ry="31.586" style="stroke:#181818;stroke-width:0.5;"/><text fill="#000000" font-family="sans-serif" font-size="14" lengthAdjust="spacing" textLength="262" x="340.9298" y="553.4326">UC-14 &#1054;&#1092;&#1086;&#1088;&#1084;&#1080;&#1090;&#1100; &#1086;&#1090;&#1082;&#1072;&#1079; &#1086;&#1090; &#1087;&#1086;&#1082;&#1091;&#1087;&#1082;&#1080;</text></g><g id="elem_pay_back"><ellipse cx="896.2481" cy="609.3496" fill="#F1F1F1" rx="102.2481" ry="22.8496" style="stroke:#181818;stroke-width:0.5;"/><text fill="#000000" font-family="sans-serif" font-size="14" lengthAdjust="spacing" textLength="169" x="811.7481" y="612.1963">UC-15 &#1042;&#1077;&#1088;&#1085;&#1091;&#1090;&#1100; &#1076;&#1077;&#1085;&#1100;&#1075;&#1080;</text></g><g id="elem_eq_back"><ellipse cx="1256.2877" cy="522.3575" fill="#F1F1F1" rx="107.2877" ry="23.8575" style="stroke:#181818;stroke-width:0.5;"/><text fill="#000000" font-family="sans-serif" font-size="14" lengthAdjust="spacing" textLength="180" x="1166.2877" y="525.2042">UC-16 &#1042;&#1077;&#1088;&#1085;&#1091;&#1090;&#1100; &#1085;&#1072; &#1082;&#1072;&#1088;&#1090;&#1091;</text></g><g id="elem_nal_back"><ellipse cx="1256.2599" cy="603.352" fill="#F1F1F1" rx="97.2599" ry="21.852" style="stroke:#181818;stroke-width:0.5;"/><text fill="#000000" font-family="sans-serif" font-size="14" lengthAdjust="spacing" textLength="158" x="1177.2599" y="606.1987">UC-17 &#1042;&#1077;&#1088;&#1085;&#1091;&#1090;&#1100; &#1074; &#1057;&#1041;&#1055;</text></g><g id="elem_error"><ellipse cx="472.0147" cy="447.6029" fill="#F1F1F1" rx="171.0147" ry="36.6029" style="stroke:#181818;stroke-width:0.5;"/><text fill="#000000" font-family="sans-serif" font-size="14" lengthAdjust="spacing" textLength="314" x="315.0147" y="450.4496">UC-18 &#1055;&#1086;&#1083;&#1091;&#1095;&#1080;&#1090;&#1100; &#1089;&#1080;&#1075;&#1085;&#1072;&#1083;&#1100;&#1085;&#1091;&#1102; &#1080;&#1085;&#1092;&#1086;&#1088;&#1084;&#1072;&#1094;&#1080;&#1102;</text></g><g id="elem_chk_out"><ellipse cx="895.7938" cy="519.5588" fill="#F1F1F1" rx="145.7938" ry="31.5588" style="stroke:#181818;stroke-width:0.5;"/><text fill="#000000" font-family="sans-serif" font-size="14" lengthAdjust="spacing" textLength="222" x="781.7938" y="515.1579">UC-19 &#1055;&#1086;&#1083;&#1091;&#1095;&#1080;&#1090;&#1100; &#1080;&#1085;&#1092;&#1086;&#1088;&#1084;&#1072;&#1094;&#1080;&#1102;</text><text fill="#000000" font-family="sans-serif" font-size="14" lengthAdjust="spacing" textLength="190" x="797.7938" y="531.4548">&#1074;&#1099;&#1074;&#1086;&#1076;&#1077; &#1080;&#1079; &#1084;&#1077;&#1085;&#1102; &#1087;&#1086;&#1079;&#1080;&#1094;&#1080;&#1080;</text></g><g id="elem_chk_err"><ellipse cx="895.8949" cy="421.479" fill="#F1F1F1" rx="145.3949" ry="31.479" style="stroke:#181818;stroke-width:0.5;"/><text fill="#000000" font-family="sans-serif" font-size="14" lengthAdjust="spacing" textLength="221" x="782.3949" y="417.0781">UC-20 &#1055;&#1086;&#1083;&#1091;&#1095;&#1080;&#1090;&#1100; &#1080;&#1085;&#1092;&#1086;&#1088;&#1084;&#1072;&#1094;&#1080;&#1102;</text><text fill="#000000" font-family="sans-serif" font-size="14" lengthAdjust="spacing" textLength="117" x="834.3949" y="433.375">&#1086; &#1089;&#1073;&#1086;&#1077; &#1089;&#1080;&#1089;&#1090;&#1077;&#1084;&#1099;</text></g><!--entity clt--><g id="elem_clt"><ellipse cx="122" cy="210" fill="#F1F1F1" rx="8" ry="8" style="stroke:#181818;stroke-width:0.5;"/><path d="M122,218 L122,245 M109,226 L135,226 M122,245 L109,260 M122,245 L135,260 " fill="none" style="stroke:#181818;stroke-width:0.5;"/><text fill="#000000" font-family="sans-serif" font-size="14" lengthAdjust="spacing" textLength="90" x="77" y="274.4951">&#1055;&#1086;&#1089;&#1077;&#1090;&#1080;&#1090;&#1077;&#1083;&#1100;</text></g><!--entity mgr--><g id="elem_mgr"><ellipse cx="122" cy="489" fill="#F1F1F1" rx="8" ry="8" style="stroke:#181818;stroke-width:0.5;"/><path d="M122,497 L122,524 M109,505 L135,505 M122,524 L109,539 M122,524 L135,539 " fill="none" style="stroke:#181818;stroke-width:0.5;"/><text fill="#000000" font-family="sans-serif" font-size="14" lengthAdjust="spacing" textLength="232" x="6" y="553.4951">&#1052;&#1077;&#1085;&#1077;&#1076;&#1078;&#1077;&#1088; &#1085;&#1072; &#1075;&#1086;&#1089;&#1090;&#1077;&#1087;&#1088;&#1080;&#1080;&#1084;&#1089;&#1090;&#1074;&#1077;</text></g><g id="elem_show_talon"><ellipse cx="471.9443" cy="32.6889" fill="#F1F1F1" rx="111.4443" ry="24.6889" style="stroke:#181818;stroke-width:0.5;"/><text fill="#000000" font-family="sans-serif" font-size="14" lengthAdjust="spacing" textLength="189" x="377.4443" y="35.5355">UC-11 &#1055;&#1088;&#1077;&#1076;&#1098;&#1103;&#1074;&#1080;&#1090;&#1100; &#1090;&#1072;&#1083;&#1086;&#1085;</text></g><g id="elem_take_order"><ellipse cx="896.0118" cy="27.4024" fill="#F1F1F1" rx="95.0118" ry="21.4024" style="stroke:#181818;stroke-width:0.5;"/><text fill="#000000" font-family="sans-serif" font-size="14" lengthAdjust="spacing" textLength="153" x="819.5118" y="30.249">UC-12 &#1047;&#1072;&#1073;&#1088;&#1072;&#1090;&#1100; &#1079;&#1072;&#1082;&#1072;&#1079;</text></g><g id="elem_cons"><ellipse cx="121.9604" cy="393.4921" fill="#F1F1F1" rx="95.4604" ry="21.4921" style="stroke:#181818;stroke-width:0.5;"/><text fill="#000000" font-family="sans-serif" font-size="14" lengthAdjust="spacing" textLength="154" x="44.9604" y="396.3388">UC-13 &#1050;&#1086;&#1085;&#1089;&#1091;&#1083;&#1100;&#1090;&#1072;&#1094;&#1080;&#1103;</text></g><!--link clt to menu--><g id="link_clt_menu"><path d="M167.074,226.835 C225.509,210.043 329.365,180.2 399.199,160.132 " fill="none" id="clt-menu" style="stroke:#181818;stroke-width:1.0;"/></g><!--link clt to order--><g id="link_clt_order"><path d="M167.074,239.5 C218.285,239.5 304.38,239.5 371.888,239.5 " fill="none" id="clt-order" style="stroke:#181818;stroke-width:1.0;"/></g><!--link clt to show_talon--><g id="link_clt_show_talon"><path d="M155.904,201.224 C184.946,169.542 229.89,125.362 277,97.5 C313.077,76.163 357.114,60.686 394.107,50.2 " fill="none" id="clt-show_talon" style="stroke:#181818;stroke-width:1.0;"/></g><!--link clt to back--><g id="link_clt_back"><path d="M167.26,273.755 C191.443,294.653 220.039,323.301 238,354.5 C271.725,413.079 228.92,453.99 277,501.5 C294.05,518.348 316.002,529.673 338.976,537.229 " fill="none" id="clt-back" style="stroke:#181818;stroke-width:1.0;"/></g><!--link clt to cons--><g id="link_clt_cons"><path d="M122,277.756 C122,309.118 122,340.481 122,371.844 " fill="none" id="clt-cons" style="stroke:#181818;stroke-width:1.0;"/></g><!--link cons to mgr--><g id="link_cons_mgr"><path d="M122,415.229 C122,436.957 122,458.686 122,480.414 " fill="none" id="cons-mgr" style="stroke:#181818;stroke-width:1.0;"/></g><!--link mgr to error--><g id="link_mgr_error"><path d="M238.396,494.957 C273.514,487.792 312.239,479.891 347.849,472.626 " fill="none" id="mgr-error" style="stroke:#181818;stroke-width:1.0;"/></g><!--link loyal to order--><g id="link_loyal_order"><path d="M472,313.281 C472,296.838 472,283.043 472,268.098 " fill="none" id="loyal-to-order" style="stroke:#181818;stroke-width:1.0;stroke-dasharray:7.0,7.0;"/><polygon fill="#181818" points="472,262.098,468,271.098,472,267.098,476,271.098,472,262.098" style="stroke:#181818;stroke-width:1.0;"/><text fill="#000000" font-family="sans-serif" font-size="13" lengthAdjust="spacing" textLength="45" x="438" y="292.3169">extend</text></g><!--link show_talon to take_order--><g id="link_show_talon_take_order"><path d="M583.6,31.19 C651.123,30.39 730.5334,29.4491 794.8184,28.6871 " fill="none" id="show_talon-to-take_order" style="stroke:#181818;stroke-width:1.0;stroke-dasharray:7.0,7.0;"/><polygon fill="#181818" points="800.818,28.616,791.7712,24.723,795.8184,28.6753,791.866,32.7224,800.818,28.616" style="stroke:#181818;stroke-width:1.0;"/><text fill="#000000" font-family="sans-serif" font-size="13" lengthAdjust="spacing" textLength="45" x="674" y="26.5669">include</text></g><!--reverse link order to menu--><g id="link_order_menu"><path d="M472,210.808 C472,195.595 472,181.517 472,165.635 " fill="none" id="order-backto-menu" style="stroke:#181818;stroke-width:1.0;stroke-dasharray:7.0,7.0;"/><polygon fill="#181818" points="472,216.808,476,207.808,472,211.808,468,207.808,472,216.808" style="stroke:#181818;stroke-width:1.0;"/><text fill="#000000" font-family="sans-serif" font-size="13" lengthAdjust="spacing" textLength="45" x="438" y="195.8169">extend</text></g><!--link order to add_basket--><g id="link_order_add_basket"><path d="M543.633,223.599 C612.733,208.043 712.7375,185.5307 790.2055,168.0917 " fill="none" id="order-to-add_basket" style="stroke:#181818;stroke-width:1.0;stroke-dasharray:7.0,7.0;"/><polygon fill="#181818" points="796.059,166.774,786.4003,164.8482,791.1811,167.8721,788.1572,172.6529,796.059,166.774" style="stroke:#181818;stroke-width:1.0;"/><text fill="#000000" font-family="sans-serif" font-size="13" lengthAdjust="spacing" textLength="45" x="674" y="181.5669">include</text></g><!--link order to take_type--><g id="link_order_take_type"><path d="M546.99,254.403 C615.068,268.116 710.7891,287.3963 786.6611,302.6783 " fill="none" id="order-to-take_type" style="stroke:#181818;stroke-width:1.0;stroke-dasharray:7.0,7.0;"/><polygon fill="#181818" points="792.543,303.863,784.51,298.1647,787.6414,302.8757,782.9304,306.0072,792.543,303.863" style="stroke:#181818;stroke-width:1.0;"/><text fill="#000000" font-family="sans-serif" font-size="13" lengthAdjust="spacing" textLength="45" x="674" y="277.5669">include</text></g><!--link order to pay--><g id="link_order_pay"><path d="M571.94,238.328 C636.62,237.561 715.0904,236.6322 781.4344,235.8452 " fill="none" id="order-to-pay" style="stroke:#181818;stroke-width:1.0;stroke-dasharray:7.0,7.0;"/><polygon fill="#181818" points="787.434,235.774,778.3872,231.881,782.4344,235.8333,778.4821,239.8805,787.434,235.774" style="stroke:#181818;stroke-width:1.0;"/><text fill="#000000" font-family="sans-serif" font-size="13" lengthAdjust="spacing" textLength="45" x="674" y="232.5669">include</text></g><!--reverse link pay to pay_nal--><g id="link_pay_pay_nal"><path d="M978.885,216.2273 C1040.446,202.4903 1120.78,184.562 1181.73,170.962 " fill="none" id="pay-backto-pay_nal" style="stroke:#181818;stroke-width:1.0;stroke-dasharray:7.0,7.0;"/><polygon fill="#181818" points="973.029,217.534,982.6841,219.4779,977.909,216.4451,980.9418,211.6699,973.029,217.534" style="stroke:#181818;stroke-width:1.0;"/><text fill="#000000" font-family="sans-serif" font-size="13" lengthAdjust="spacing" textLength="45" x="1073" y="180.5669">extend</text></g><!--reverse link pay to pay_card--><g id="link_pay_pay_card"><path d="M1010.562,234.5 C1060.99,234.5 1114.48,234.5 1162.88,234.5 " fill="none" id="pay-backto-pay_card" style="stroke:#181818;stroke-width:1.0;stroke-dasharray:7.0,7.0;"/><polygon fill="#181818" points="1004.562,234.5,1013.562,238.5,1009.562,234.5,1013.562,230.5,1004.562,234.5" style="stroke:#181818;stroke-width:1.0;"/><text fill="#000000" font-family="sans-serif" font-size="13" lengthAdjust="spacing" textLength="45" x="1073" y="230.5669">extend</text></g><!--reverse link pay to pay_bunus--><g id="link_pay_pay_bunus"><path d="M980.2142,252.3729 C1044.0262,266.0779 1127.77,284.065 1188.54,297.118 " fill="none" id="pay-backto-pay_bunus" style="stroke:#181818;stroke-width:1.0;stroke-dasharray:7.0,7.0;"/><polygon fill="#181818" points="974.348,251.113,982.3074,256.9137,979.2365,252.1629,983.9873,249.092,974.348,251.113" style="stroke:#181818;stroke-width:1.0;"/><text fill="#000000" font-family="sans-serif" font-size="13" lengthAdjust="spacing" textLength="45" x="1073" y="268.5669">extend</text></g><!--link pay_nal to talon--><g id="link_pay_nal_talon"><path d="M1328.97,171.466 C1381.91,184.033 1448.3922,199.8162 1504.1922,213.0622 " fill="none" id="pay_nal-to-talon" style="stroke:#181818;stroke-width:1.0;stroke-dasharray:7.0,7.0;"/><polygon fill="#181818" points="1510.03,214.448,1502.1972,208.4775,1505.1652,213.2932,1500.3495,216.2612,1510.03,214.448" style="stroke:#181818;stroke-width:1.0;"/><text fill="#000000" font-family="sans-serif" font-size="13" lengthAdjust="spacing" textLength="45" x="1395" y="182.5669">include</text></g><!--link pay_card to talon--><g id="link_pay_card_talon"><path d="M1350.03,234.5 C1387.35,234.5 1424.95,234.5 1464.91,234.5 " fill="none" id="pay_card-to-talon" style="stroke:#181818;stroke-width:1.0;stroke-dasharray:7.0,7.0;"/><polygon fill="#181818" points="1470.91,234.5,1461.91,230.5,1465.91,234.5,1461.91,238.5,1470.91,234.5" style="stroke:#181818;stroke-width:1.0;"/><text fill="#000000" font-family="sans-serif" font-size="13" lengthAdjust="spacing" textLength="45" x="1395" y="230.5669">include</text></g><!--link pay_bunus to talon--><g id="link_pay_bunus_talon"><path d="M1322.48,296.654 C1375.36,284.57 1444.6107,268.7473 1502.5107,255.5193 " fill="none" id="pay_bunus-to-talon" style="stroke:#181818;stroke-width:1.0;stroke-dasharray:7.0,7.0;"/><polygon fill="#181818" points="1508.36,254.183,1498.6952,252.288,1503.4856,255.2966,1500.477,260.087,1508.36,254.183" style="stroke:#181818;stroke-width:1.0;"/><text fill="#000000" font-family="sans-serif" font-size="13" lengthAdjust="spacing" textLength="45" x="1395" y="266.5669">include</text></g><!--link mgr to back--><g id="link_mgr_back"><path d="M238.396,529.111 C270.052,532.022 304.638,535.202 337.232,538.199 " fill="none" id="mgr-back" style="stroke:#181818;stroke-width:1.0;"/></g><!--link mgr to pay_back--><g id="link_mgr_pay_back"><path d="M179.974,556.681 C207.946,573.2287 242.902,590.7864 277,599.5 C460.758,646.4592 685.368,633.3413 806.823,620.7192 " fill="none" id="mgr-pay_back" style="stroke:#181818;stroke-width:1.0;"/></g><!--link back to pay_back--><g id="link_back_pay_back"><path d="M595.06,567.5652 C663.584,577.1456 741.4828,588.0367 803.0858,596.6494 " fill="none" id="back-to-pay_back" style="stroke:#181818;stroke-width:1.0;stroke-dasharray:7.0,7.0;"/><polygon fill="#181818" points="809.028,597.4802,800.6685,592.2726,804.0762,596.7879,799.5608,600.1955,809.028,597.4802" style="stroke:#181818;stroke-width:1.0;"/><text fill="#000000" font-family="sans-serif" font-size="13" lengthAdjust="spacing" textLength="45" x="674" y="575.5669">include</text></g><!--reverse link pay_back to nal_back--><g id="link_pay_back_nal_back"><path d="M1003.8152,607.7123 C1054.3492,606.8666 1109.24,605.9479 1159.14,605.1127 " fill="none" id="pay_back-backto-nal_back" style="stroke:#181818;stroke-width:1.0;stroke-dasharray:7.0,7.0;"/><polygon fill="#181818" points="997.816,607.8127,1006.8817,611.6615,1002.8153,607.729,1006.7478,603.6627,997.816,607.8127" style="stroke:#181818;stroke-width:1.0;"/><text fill="#000000" font-family="sans-serif" font-size="13" lengthAdjust="spacing" textLength="45" x="1073" y="601.5669">extend</text></g><!--reverse link pay_back to eq_back--><g id="link_pay_back_eq_back"><path d="M971.9527,591.3104 C1034.2107,576.201 1119.59,555.483 1182.9,540.119 " fill="none" id="pay_back-backto-eq_back" style="stroke:#181818;stroke-width:1.0;stroke-dasharray:7.0,7.0;"/><polygon fill="#181818" points="966.122,592.7255,975.8115,594.4901,970.981,591.5463,973.9247,586.7157,966.122,592.7255" style="stroke:#181818;stroke-width:1.0;"/><text fill="#000000" font-family="sans-serif" font-size="13" lengthAdjust="spacing" textLength="45" x="1073" y="551.5669">extend</text></g><!--reverse link error to chk_err--><g id="link_error_chk_err"><path d="M642.4466,437.06 C681.8546,434.632 717.607,432.429 755.788,430.077 " fill="none" id="error-backto-chk_err" style="stroke:#181818;stroke-width:1.0;stroke-dasharray:7.0,7.0;"/><polygon fill="#181818" points="636.458,437.429,645.6869,440.868,641.4485,437.1215,645.195,432.8831,636.458,437.429" style="stroke:#181818;stroke-width:1.0;"/><text fill="#000000" font-family="sans-serif" font-size="13" lengthAdjust="spacing" textLength="45" x="674" y="428.5669">extend</text></g><!--reverse link error to chk_out--><g id="link_error_chk_out"><path d="M612.1485,471.2411 C668.3045,480.8221 727.091,490.852 780.997,500.049 " fill="none" id="error-backto-chk_out" style="stroke:#181818;stroke-width:1.0;stroke-dasharray:7.0,7.0;"/><polygon fill="#181818" points="606.234,470.232,614.4331,475.6887,611.1628,471.0729,615.7785,467.8026,606.234,470.232" style="stroke:#181818;stroke-width:1.0;"/><text fill="#000000" font-family="sans-serif" font-size="13" lengthAdjust="spacing" textLength="45" x="674" y="479.5669">extend</text></g><!--SRC=[ZLJRQXDX4BxVfnXorLuqjBNs8CKR7q6y3jlDRnkotOsR3Hf4g4OgsDAY2898Y_W2JMnCR4wlyEyR-Sti_dj8Kf6ofFFFVD-SnrNFGmfz2cg7Ho5LQu5omfhlMSrwpMlOWNrC3TkfsuVgQTXs5R7QzWvTPTbEw0TKqjTw6htL_UYT7kBhwr5qNYAxIOuRfZRVyJx1Twj_m_A48DoG_iL8mSoY4pt4trZadkuBm_5XO5cjfdBifgBcaV-o4jgkxx6gzEp9siO6wMi0GHjzZ2u1Gm3HEO7XHe_qL4zAAJgqwwhY1rKLfEXDqbzXs0N3ZU3q0E8Tla66StolcI8UaFx6j0Yomscoe-WKNYzBbfKM1kd-m5kSs9ZpxCNK8zqd3bTKKtRBPIZHwzHRCK3ILz5xCHmdcIsBqFNRjcimc-80XHN_afd4np6WILbKVOihXA8X3KGHzs6OiHuhhsL8aVOLF4_4zzG40yGbE8d9K9AB36jNgvK3krbNeM7O8lq5o2uOJ9Fq30y32AVSUAdHdUIADz1rvbeNjXlAi3qa_JEkWcbShi10ZvXF1gmNdSN9PMmDksrujadcRWh8W6SkhW7XOGOEfkuKS1KlA_GEroGnWwVe0uyr2Z4WDF-JlYu23rfUAnsZNJQPSIzC-5s9VHIT5L6E7LGDQA_eZzEFJdYCz9zyfVBRiKwycg3j8BhvpR2uSnFfPbzgCCuD5uOovJp0ygUKMqj6SWfIGSc_SL_li1ypl0xdof3dGXS_YsyqEsQwbK4wv-dDSEf54RQz09lawf7l6BfLXEuiG7iBtL91u6SRkBkaXDWYHCZB8Ai3rGN9o9gwn2kNsmVdg5xnM-aoREmjiYuZi6HyUx2yZUTwaExQtFOKNI65z1oi_w-hAIVMXMc_S2Tu92qSSbfRenM-2Qkf9BSg4xFpdBrnzHE9LlYIhbhn3sI-xVZOJcfkMIjooLQf_DYGqoDIhqBbLQqyFPNP8ZleR5Rp7BTLLI19dlRBIRmvZaGbyEn6vU45a_Jkt6k1cIxeHDulbqN3roBllQZatRvVA_TYJXtp9P597OgU4yf_62IioorCCvAc6SciBJedFsdYyUk22tcKFCpwpQUHCqbsEsTXnVidscIMSzev9NOg3ttp5m00]--></g></svg>