<?xml version="1.0" encoding="us-ascii" standalone="no"?><svg xmlns="http://www.w3.org/2000/svg" xmlns:xlink="http://www.w3.org/1999/xlink" contentStyleType="text/css" height="653px" preserveAspectRatio="none" style="width:1719px;height:653px;background:#FFFFFF;" version="1.1" viewBox="0 0 1719 653" width="1719px" zoomAndPan="magnify"><defs/><g><!--cluster ??????? ? ???? ?????????--><g id="cluster_&#1057;&#1080;&#1089;&#1090;&#1077;&#1084;&#1072; &#1074; &#1079;&#1072;&#1083;&#1077; &#1088;&#1077;&#1089;&#1090;&#1086;&#1088;&#1072;&#1085;&#1072;"><rect fill="none" height="564" rx="2.5" ry="2.5" style="stroke:#181818;stroke-width:1.0;" width="1433.5" x="280" y="78.22"/><text fill="#000000" font-family="sans-serif" font-size="14" font-weight="bold" lengthAdjust="spacing" textLength="214" x="889.75" y="93.2151">&#1057;&#1080;&#1089;&#1090;&#1077;&#1084;&#1072; &#1074; &#1079;&#1072;&#1083;&#1077; &#1088;&#1077;&#1089;&#1090;&#1086;&#1088;&#1072;&#1085;&#1072;</text></g><g id="elem_order"><ellipse cx="464.1126" cy="238.2225" fill="#F1F1F1" rx="98.1626" ry="22.0325" style="stroke:#181818;stroke-width:0.5;"/><text fill="#000000" font-family="sans-serif" font-size="14" lengthAdjust="spacing" textLength="160" x="384.1126" y="241.0692">UC-1 &#1054;&#1092;&#1086;&#1088;&#1084;&#1080;&#1090;&#1100; &#1079;&#1072;&#1082;&#1072;&#1079;</text></g><g id="elem_loyal"><ellipse cx="464.1125" cy="342.2185" fill="#F1F1F1" rx="141.4425" ry="30.6885" style="stroke:#181818;stroke-width:0.5;"/><text fill="#000000" font-family="sans-serif" font-size="14" lengthAdjust="spacing" textLength="211" x="355.6125" y="337.8176">UC-2 &#1088;&#1077;&#1075;&#1080;&#1089;&#1090;&#1088;&#1072;&#1094;&#1080;&#1103; &#1074; &#1089;&#1080;&#1089;&#1090;&#1077;&#1084;&#1077;</text><text fill="#000000" font-family="sans-serif" font-size="14" lengthAdjust="spacing" textLength="87" x="417.6125" y="354.1145">&#1083;&#1086;&#1103;&#1083;&#1100;&#1085;&#1086;&#1089;&#1090;&#1080;</text></g><g id="elem_menu"><ellipse cx="464.1137" cy="139.2187" fill="#F1F1F1" rx="116.0937" ry="25.6187" style="stroke:#181818;stroke-width:0.5;"/><text fill="#000000" font-family="sans-serif" font-size="14" lengthAdjust="spacing" textLength="199" x="364.6137" y="142.0654">UC-3 &#1054;&#1079;&#1085;&#1072;&#1082;&#1086;&#1084;&#1080;&#1090;&#1100;&#1089;&#1103; &#1089; &#1084;&#1077;&#1085;&#1102;</text></g><g id="elem_add_basket"><ellipse cx="883.4146" cy="144.2189" fill="#F1F1F1" rx="141.1446" ry="30.6289" style="stroke:#181818;stroke-width:0.5;"/><text fill="#000000" font-family="sans-serif" font-size="14" lengthAdjust="spacing" textLength="252" x="757.4146" y="147.0656">UC-4 &#1044;&#1086;&#1073;&#1072;&#1074;&#1080;&#1090;&#1100; &#1087;&#1086;&#1079;&#1080;&#1094;&#1080;&#1080; &#1074; &#1082;&#1086;&#1088;&#1079;&#1080;&#1085;&#1091;</text></g><g id="elem_take_type"><ellipse cx="883.4109" cy="322.2162" fill="#F1F1F1" rx="138.2809" ry="30.0562" style="stroke:#181818;stroke-width:0.5;"/><text fill="#000000" font-family="sans-serif" font-size="14" lengthAdjust="spacing" textLength="246" x="760.4109" y="325.0629">UC-5 &#1059;&#1082;&#1072;&#1079;&#1072;&#1090;&#1100; &#1074; &#1079;&#1072;&#1083;&#1077; &#1080;&#1083;&#1080; &#1085;&#1072; &#1074;&#1099;&#1085;&#1086;&#1089;</text></g><g id="elem_pay"><ellipse cx="883.4077" cy="233.2175" fill="#F1F1F1" rx="107.2877" ry="23.8575" style="stroke:#181818;stroke-width:0.5;"/><text fill="#000000" font-family="sans-serif" font-size="14" lengthAdjust="spacing" textLength="180" x="793.4077" y="236.0642">UC-6 &#1087;&#1088;&#1086;&#1080;&#1079;&#1074;&#1077;&#1089;&#1090;&#1080; &#1086;&#1087;&#1083;&#1072;&#1090;&#1091;</text></g><g id="elem_pay_nal"><ellipse cx="1238.1451" cy="312.215" fill="#F1F1F1" rx="104.0751" ry="23.215" style="stroke:#181818;stroke-width:0.5;"/><text fill="#000000" font-family="sans-serif" font-size="14" lengthAdjust="spacing" textLength="173" x="1151.6451" y="315.0617">UC-7 &#1054;&#1087;&#1083;&#1072;&#1090;&#1072; &#1095;&#1077;&#1088;&#1077;&#1079; &#1057;&#1041;&#1055;</text></g><g id="elem_pay_bunus"><ellipse cx="1238.1529" cy="233.2246" fill="#F1F1F1" rx="93.2229" ry="21.0446" style="stroke:#181818;stroke-width:0.5;"/><text fill="#000000" font-family="sans-serif" font-size="14" lengthAdjust="spacing" textLength="149" x="1163.6529" y="236.0713">UC-8 &#1057;&#1087;&#1080;&#1089;&#1072;&#1090;&#1100; &#1073;&#1072;&#1083;&#1083;&#1099;</text></g><g id="elem_pay_card"><ellipse cx="1238.1471" cy="156.2154" fill="#F1F1F1" rx="92.7771" ry="20.9554" style="stroke:#181818;stroke-width:0.5;"/><text fill="#000000" font-family="sans-serif" font-size="14" lengthAdjust="spacing" textLength="148" x="1164.1471" y="159.0621">UC-9 &#1054;&#1087;&#1083;&#1072;&#1090;&#1072; &#1082;&#1072;&#1088;&#1090;&#1086;&#1081;</text></g><g id="elem_talon"><ellipse cx="1573.5893" cy="233.2219" fill="#F1F1F1" rx="123.9093" ry="27.1819" style="stroke:#181818;stroke-width:0.5;"/><text fill="#000000" font-family="sans-serif" font-size="14" lengthAdjust="spacing" textLength="164" x="1488.5893" y="228.821">UC-10 &#1055;&#1086;&#1083;&#1091;&#1095;&#1080;&#1090;&#1100; &#1090;&#1072;&#1083;&#1086;&#1085;</text><text fill="#000000" font-family="sans-serif" font-size="14" lengthAdjust="spacing" textLength="129" x="1506.0893" y="245.1179">&#1089; &#1085;&#1086;&#1084;&#1077;&#1088;&#1086;&#1084; &#1079;&#1072;&#1082;&#1072;&#1079;&#1072;</text></g><g id="elem_back"><ellipse cx="464.1069" cy="546.2214" fill="#F1F1F1" rx="143.0569" ry="31.0114" style="stroke:#181818;stroke-width:0.5;"/><text fill="#000000" font-family="sans-serif" font-size="14" lengthAdjust="spacing" textLength="256" x="336.1069" y="549.0681">UC-14 &#1054;&#1092;&#1086;&#1088;&#1084;&#1080;&#1090;&#1100; &#1086;&#1090;&#1082;&#1072;&#1079; &#1086;&#1090; &#1087;&#1086;&#1082;&#1091;&#1087;&#1082;&#1080;</text></g><g id="elem_pay_back"><ellipse cx="883.4138" cy="604.2248" fill="#F1F1F1" rx="99.9738" ry="22.3948" style="stroke:#181818;stroke-width:0.5;"/><text fill="#000000" font-family="sans-serif" font-size="14" lengthAdjust="spacing" textLength="164" x="801.4138" y="607.0714">UC-15 &#1042;&#1077;&#1088;&#1085;&#1091;&#1090;&#1100; &#1076;&#1077;&#1085;&#1100;&#1075;&#1080;</text></g><g id="elem_eq_back"><ellipse cx="1238.1529" cy="517.2166" fill="#F1F1F1" rx="104.5329" ry="23.3066" style="stroke:#181818;stroke-width:0.5;"/><text fill="#000000" font-family="sans-serif" font-size="14" lengthAdjust="spacing" textLength="174" x="1151.1529" y="520.0633">UC-16 &#1042;&#1077;&#1088;&#1085;&#1091;&#1090;&#1100; &#1085;&#1072; &#1082;&#1072;&#1088;&#1090;&#1091;</text></g><g id="elem_nal_back"><ellipse cx="1238.1504" cy="597.2221" fill="#F1F1F1" rx="95.4604" ry="21.4921" style="stroke:#181818;stroke-width:0.5;"/><text fill="#000000" font-family="sans-serif" font-size="14" lengthAdjust="spacing" textLength="154" x="1161.1504" y="600.0688">UC-17 &#1042;&#1077;&#1088;&#1085;&#1091;&#1090;&#1100; &#1074; &#1057;&#1041;&#1055;</text></g><g id="elem_error"><ellipse cx="464.1058" cy="444.2212" fill="#F1F1F1" rx="168.1058" ry="36.0212" style="stroke:#181818;stroke-width:0.5;"/><text fill="#000000" font-family="sans-serif" font-size="14" lengthAdjust="spacing" textLength="308" x="310.1058" y="447.0678">UC-18 &#1055;&#1086;&#1083;&#1091;&#1095;&#1080;&#1090;&#1100; &#1089;&#1080;&#1075;&#1085;&#1072;&#1083;&#1100;&#1085;&#1091;&#1102; &#1080;&#1085;&#1092;&#1086;&#1088;&#1084;&#1072;&#1094;&#1080;&#1102;</text></g><g id="elem_chk_out"><ellipse cx="883.4122" cy="418.2204" fill="#F1F1F1" rx="144.2022" ry="31.2404" style="stroke:#181818;stroke-width:0.5;"/><text fill="#000000" font-family="sans-serif" font-size="14" lengthAdjust="spacing" textLength="218" x="771.4122" y="413.8196">UC-19 &#1055;&#1086;&#1083;&#1091;&#1095;&#1080;&#1090;&#1100; &#1080;&#1085;&#1092;&#1086;&#1088;&#1084;&#1072;&#1094;&#1080;&#1102;</text><text fill="#000000" font-family="sans-serif" font-size="14" lengthAdjust="spacing" textLength="187" x="786.9122" y="430.1164">&#1074;&#1099;&#1074;&#1086;&#1076;&#1077; &#1080;&#1079; &#1084;&#1077;&#1085;&#1102; &#1087;&#1086;&#1079;&#1080;&#1094;&#1080;&#1080;</text></g><g id="elem_chk_err"><ellipse cx="883.4122" cy="515.2204" fill="#F1F1F1" rx="144.2022" ry="31.2404" style="stroke:#181818;stroke-width:0.5;"/><text fill="#000000" font-family="sans-serif" font-size="14" lengthAdjust="spacing" textLength="218" x="771.4122" y="510.8196">UC-20 &#1055;&#1086;&#1083;&#1091;&#1095;&#1080;&#1090;&#1100; &#1080;&#1085;&#1092;&#1086;&#1088;&#1084;&#1072;&#1094;&#1080;&#1102;</text><text fill="#000000" font-family="sans-serif" font-size="14" lengthAdjust="spacing" textLength="116" x="822.4122" y="527.1164">&#1086; &#1089;&#1073;&#1086;&#1077; &#1089;&#1080;&#1089;&#1090;&#1077;&#1084;&#1099;</text></g><!--entity clt--><g id="elem_clt"><ellipse cx="119.5" cy="208.57" fill="#F1F1F1" rx="8" ry="8" style="stroke:#181818;stroke-width:0.5;"/><path d="M119.5,216.57 L119.5,243.57 M106.5,224.57 L132.5,224.57 M119.5,243.57 L106.5,258.57 M119.5,243.57 L132.5,258.57 " fill="none" style="stroke:#181818;stroke-width:0.5;"/><text fill="#000000" font-family="sans-serif" font-size="14" lengthAdjust="spacing" textLength="89" x="75" y="273.0651">&#1055;&#1086;&#1089;&#1077;&#1090;&#1080;&#1090;&#1077;&#1083;&#1100;</text></g><!--entity mgr--><g id="elem_mgr"><ellipse cx="119.5" cy="475.57" fill="#F1F1F1" rx="8" ry="8" style="stroke:#181818;stroke-width:0.5;"/><path d="M119.5,483.57 L119.5,510.57 M106.5,491.57 L132.5,491.57 M119.5,510.57 L106.5,525.57 M119.5,510.57 L132.5,525.57 " fill="none" style="stroke:#181818;stroke-width:0.5;"/><text fill="#000000" font-family="sans-serif" font-size="14" lengthAdjust="spacing" textLength="227" x="6" y="540.0651">&#1052;&#1077;&#1085;&#1077;&#1076;&#1078;&#1077;&#1088; &#1085;&#1072; &#1075;&#1086;&#1089;&#1090;&#1077;&#1087;&#1088;&#1080;&#1080;&#1084;&#1089;&#1090;&#1074;&#1077;</text></g><g id="elem_show_talon"><ellipse cx="464.1135" cy="33.2187" fill="#F1F1F1" rx="109.5935" ry="24.3187" style="stroke:#181818;stroke-width:0.5;"/><text fill="#000000" font-family="sans-serif" font-size="14" lengthAdjust="spacing" textLength="185" x="371.6135" y="36.0654">UC-11 &#1055;&#1088;&#1077;&#1076;&#1098;&#1103;&#1074;&#1080;&#1090;&#1100; &#1090;&#1072;&#1083;&#1086;&#1085;</text></g><g id="elem_take_order"><ellipse cx="883.4063" cy="27.2233" fill="#F1F1F1" rx="94.1163" ry="21.2233" style="stroke:#181818;stroke-width:0.5;"/><text fill="#000000" font-family="sans-serif" font-size="14" lengthAdjust="spacing" textLength="151" x="807.9063" y="30.0699">UC-12 &#1047;&#1072;&#1073;&#1088;&#1072;&#1090;&#1100; &#1079;&#1072;&#1082;&#1072;&#1079;</text></g><g id="elem_cons"><ellipse cx="119.4963" cy="371.2233" fill="#F1F1F1" rx="94.1163" ry="21.2233" style="stroke:#181818;stroke-width:0.5;"/><text fill="#000000" font-family="sans-serif" font-size="14" lengthAdjust="spacing" textLength="151" x="43.9963" y="374.0699">UC-13 &#1050;&#1086;&#1085;&#1089;&#1091;&#1083;&#1100;&#1090;&#1072;&#1094;&#1080;&#1103;</text></g><!--link clt to menu--><g id="link_clt_menu"><path d="M164.24,225.58 C221.79,208.95 323.64,179.52 392.25,159.69 " fill="none" id="clt-menu" style="stroke:#181818;stroke-width:1.0;"/></g><!--link clt to order--><g id="link_clt_order"><path d="M164.24,238.22 C214.75,238.22 299.4,238.22 365.74,238.22 " fill="none" id="clt-order" style="stroke:#181818;stroke-width:1.0;"/></g><!--link clt to show_talon--><g id="link_clt_show_talon"><path d="M153.08,199.88 C181.62,168.44 225.67,124.76 272,97.22 C307.34,76.21 350.5,61.01 386.85,50.7 " fill="none" id="clt-show_talon" style="stroke:#181818;stroke-width:1.0;"/></g><!--link clt to back--><g id="link_clt_back"><path d="M164.48,264.81 C188.21,281.36 216.03,304.71 233,332.22 C272.79,396.72 218.82,444.22 272,498.22 C288.56,515.04 310.08,526.28 332.68,533.72 " fill="none" id="clt-back" style="stroke:#181818;stroke-width:1.0;"/></g><!--link clt to cons--><g id="link_clt_cons"><path d="M119.5,276.53 C119.5,300.9 119.5,325.28 119.5,349.66 " fill="none" id="clt-cons" style="stroke:#181818;stroke-width:1.0;"/></g><!--link cons to mgr--><g id="link_cons_mgr"><path d="M119.5,392.86 C119.5,417.49 119.5,442.12 119.5,466.75 " fill="none" id="cons-mgr" style="stroke:#181818;stroke-width:1.0;"/></g><!--link mgr to error--><g id="link_mgr_error"><path d="M233.16,485.16 C265.34,479.43 300.66,473.14 333.75,467.25 " fill="none" id="mgr-error" style="stroke:#181818;stroke-width:1.0;"/></g><!--link loyal to order--><g id="link_loyal_order"><path d="M464.11,311.3 C464.11,295.01 464.11,281.41 464.11,266.6 " fill="none" id="loyal-to-order" style="stroke:#181818;stroke-width:1.0;stroke-dasharray:7.0,7.0;"/><polygon fill="#181818" points="464.11,260.6,460.11,269.6,464.11,265.6,468.11,269.6,464.11,260.6" style="stroke:#181818;stroke-width:1.0;"/><text fill="#000000" font-family="sans-serif" font-size="13" lengthAdjust="spacing" textLength="44" x="430.61" y="290.4569">extend</text></g><!--link show_talon to take_order--><g id="link_show_talon_take_order"><path d="M573.93,31.66 C640.7,30.7 719.3206,29.5666 783.0406,28.6466 " fill="none" id="show_talon-to-take_order" style="stroke:#181818;stroke-width:1.0;stroke-dasharray:7.0,7.0;"/><polygon fill="#181818" points="789.04,28.56,779.9832,24.6903,784.0405,28.6322,780.0987,32.6895,789.04,28.56" style="stroke:#181818;stroke-width:1.0;"/><text fill="#000000" font-family="sans-serif" font-size="13" lengthAdjust="spacing" textLength="45" x="663.21" y="26.2869">include</text></g><!--reverse link order to menu--><g id="link_order_menu"><path d="M464.11,209.76 C464.11,194.69 464.11,180.82 464.11,165.09 " fill="none" id="order-backto-menu" style="stroke:#181818;stroke-width:1.0;stroke-dasharray:7.0,7.0;"/><polygon fill="#181818" points="464.11,215.76,468.11,206.76,464.11,210.76,460.11,206.76,464.11,215.76" style="stroke:#181818;stroke-width:1.0;"/><text fill="#000000" font-family="sans-serif" font-size="13" lengthAdjust="spacing" textLength="44" x="430.61" y="195.0769">extend</text></g><!--link order to add_basket--><g id="link_order_add_basket"><path d="M534.48,222.59 C602.74,207.22 701.7367,184.9185 778.4967,167.6285 " fill="none" id="order-to-add_basket" style="stroke:#181818;stroke-width:1.0;stroke-dasharray:7.0,7.0;"/><polygon fill="#181818" points="784.35,166.31,774.691,164.3854,779.4722,167.4087,776.4489,172.1899,784.35,166.31" style="stroke:#181818;stroke-width:1.0;"/><text fill="#000000" font-family="sans-serif" font-size="13" lengthAdjust="spacing" textLength="45" x="663.21" y="181.2869">include</text></g><!--link order to take_type--><g id="link_order_take_type"><path d="M538.27,252.95 C605.48,266.48 699.8381,285.4655 774.8181,300.5655 " fill="none" id="order-to-take_type" style="stroke:#181818;stroke-width:1.0;stroke-dasharray:7.0,7.0;"/><polygon fill="#181818" points="780.7,301.75,772.6668,296.0519,775.7984,300.7629,771.0874,303.8945,780.7,301.75" style="stroke:#181818;stroke-width:1.0;"/><text fill="#000000" font-family="sans-serif" font-size="13" lengthAdjust="spacing" textLength="45" x="663.21" y="276.2869">include</text></g><!--link order to pay--><g id="link_order_pay"><path d="M562.42,237.05 C626.36,236.29 704.0404,235.3621 769.7804,234.5721 " fill="none" id="order-to-pay" style="stroke:#181818;stroke-width:1.0;stroke-dasharray:7.0,7.0;"/><polygon fill="#181818" points="775.78,234.5,766.7326,230.6084,770.7804,234.5601,766.8287,238.6079,775.78,234.5" style="stroke:#181818;stroke-width:1.0;"/><text fill="#000000" font-family="sans-serif" font-size="13" lengthAdjust="spacing" textLength="45" x="663.21" y="231.2869">include</text></g><!--reverse link pay to pay_nal--><g id="link_pay_pay_nal"><path d="M965.9351,251.4807 C1026.0651,264.9407 1103.81,282.36 1163.42,295.71 " fill="none" id="pay-backto-pay_nal" style="stroke:#181818;stroke-width:1.0;stroke-dasharray:7.0,7.0;"/><polygon fill="#181818" points="960.08,250.17,967.9889,256.0394,964.9592,251.2622,969.7364,248.2326,960.08,250.17" style="stroke:#181818;stroke-width:1.0;"/><text fill="#000000" font-family="sans-serif" font-size="13" lengthAdjust="spacing" textLength="44" x="1058.62" y="268.2869">extend</text></g><!--reverse link pay to pay_card--><g id="link_pay_pay_card"><path d="M967.2519,215.14 C1029.5819,201.53 1110.65,183.83 1170.15,170.85 " fill="none" id="pay-backto-pay_card" style="stroke:#181818;stroke-width:1.0;stroke-dasharray:7.0,7.0;"/><polygon fill="#181818" points="961.39,216.42,971.0361,218.408,966.2749,215.3534,969.3295,210.5921,961.39,216.42" style="stroke:#181818;stroke-width:1.0;"/><text fill="#000000" font-family="sans-serif" font-size="13" lengthAdjust="spacing" textLength="44" x="1058.62" y="181.2869">extend</text></g><!--reverse link pay to pay_bunus--><g id="link_pay_pay_bunus"><path d="M996.72,233.22 C1045.71,233.22 1097.31,233.22 1144.5,233.22 " fill="none" id="pay-backto-pay_bunus" style="stroke:#181818;stroke-width:1.0;stroke-dasharray:7.0,7.0;"/><polygon fill="#181818" points="990.72,233.22,999.72,237.22,995.72,233.22,999.72,229.22,990.72,233.22" style="stroke:#181818;stroke-width:1.0;"/><text fill="#000000" font-family="sans-serif" font-size="13" lengthAdjust="spacing" textLength="44" x="1058.62" y="229.2869">extend</text></g><!--link pay_nal to talon--><g id="link_pay_nal_talon"><path d="M1310.68,295.27 C1362.63,282.96 1427.3018,267.6439 1482.0618,254.6639 " fill="none" id="pay_nal-to-talon" style="stroke:#181818;stroke-width:1.0;stroke-dasharray:7.0,7.0;"/><polygon fill="#181818" points="1487.9,253.28,1478.2201,251.4636,1483.0348,254.4332,1480.0652,259.2479,1487.9,253.28" style="stroke:#181818;stroke-width:1.0;"/><text fill="#000000" font-family="sans-serif" font-size="13" lengthAdjust="spacing" textLength="45" x="1373.68" y="266.2869">include</text></g><!--link pay_card to talon--><g id="link_pay_card_talon"><path d="M1304.23,171.25 C1356.35,183.28 1424.0538,198.9204 1480.9738,212.0604 " fill="none" id="pay_card-to-talon" style="stroke:#181818;stroke-width:1.0;stroke-dasharray:7.0,7.0;"/><polygon fill="#181818" points="1486.82,213.41,1478.9504,207.4881,1481.9481,212.2853,1477.1509,215.2831,1486.82,213.41" style="stroke:#181818;stroke-width:1.0;"/><text fill="#000000" font-family="sans-serif" font-size="13" lengthAdjust="spacing" textLength="45" x="1373.68" y="183.2869">include</text></g><!--link pay_bunus to talon--><g id="link_pay_bunus_talon"><path d="M1331.59,233.22 C1368.02,233.22 1404.39,233.22 1443.36,233.22 " fill="none" id="pay_bunus-to-talon" style="stroke:#181818;stroke-width:1.0;stroke-dasharray:7.0,7.0;"/><polygon fill="#181818" points="1449.36,233.22,1440.36,229.22,1444.36,233.22,1440.36,237.22,1449.36,233.22" style="stroke:#181818;stroke-width:1.0;"/><text fill="#000000" font-family="sans-serif" font-size="13" lengthAdjust="spacing" textLength="45" x="1373.68" y="229.2869">include</text></g><!--link mgr to back--><g id="link_mgr_back"><path d="M233.16,518.7 C266.7,522.72 303.66,527.14 337.95,531.24 " fill="none" id="mgr-back" style="stroke:#181818;stroke-width:1.0;"/></g><!--link mgr to pay_back--><g id="link_mgr_pay_back"><path d="M170.34,543.87 C198.51,563.29 235.35,584.86 272,595.22 C454.06,646.66 679,630.74 798.51,616.39 " fill="none" id="mgr-pay_back" style="stroke:#181818;stroke-width:1.0;"/></g><!--link back to pay_back--><g id="link_back_pay_back"><path d="M585.53,562.96 C653.42,572.39 730.6471,583.1241 791.6671,591.6041 " fill="none" id="back-to-pay_back" style="stroke:#181818;stroke-width:1.0;stroke-dasharray:7.0,7.0;"/><polygon fill="#181818" points="797.61,592.43,789.2463,587.2292,792.6576,591.7418,788.1451,595.1531,797.61,592.43" style="stroke:#181818;stroke-width:1.0;"/><text fill="#000000" font-family="sans-serif" font-size="13" lengthAdjust="spacing" textLength="45" x="663.21" y="571.2869">include</text></g><!--reverse link pay_back to nal_back--><g id="link_pay_back_nal_back"><path d="M989.1388,602.1411 C1039.0688,601.1511 1093.38,600.07 1142.7,599.09 " fill="none" id="pay_back-backto-nal_back" style="stroke:#181818;stroke-width:1.0;stroke-dasharray:7.0,7.0;"/><polygon fill="#181818" points="983.14,602.26,992.2175,606.0808,988.139,602.1609,992.0589,598.0824,983.14,602.26" style="stroke:#181818;stroke-width:1.0;"/><text fill="#000000" font-family="sans-serif" font-size="13" lengthAdjust="spacing" textLength="44" x="1058.62" y="595.2869">extend</text></g><!--reverse link pay_back to eq_back--><g id="link_pay_back_eq_back"><path d="M957.8353,586.1128 C1019.4453,570.9128 1104.29,549.99 1166.76,534.58 " fill="none" id="pay_back-backto-eq_back" style="stroke:#181818;stroke-width:1.0;stroke-dasharray:7.0,7.0;"/><polygon fill="#181818" points="952.01,587.55,961.7061,589.2778,956.8644,586.3523,959.7899,581.5107,952.01,587.55" style="stroke:#181818;stroke-width:1.0;"/><text fill="#000000" font-family="sans-serif" font-size="13" lengthAdjust="spacing" textLength="44" x="1058.62" y="546.2869">extend</text></g><!--reverse link error to chk_err--><g id="link_error_chk_err"><path d="M602.7751,467.6456 C658.0651,477.0456 715.82,486.88 768.99,495.92 " fill="none" id="error-backto-chk_err" style="stroke:#181818;stroke-width:1.0;stroke-dasharray:7.0,7.0;"/><polygon fill="#181818" points="596.86,466.64,605.0623,472.0919,601.7893,467.478,606.4031,464.2051,596.86,466.64" style="stroke:#181818;stroke-width:1.0;"/><text fill="#000000" font-family="sans-serif" font-size="13" lengthAdjust="spacing" textLength="44" x="663.71" y="475.2869">extend</text></g><!--reverse link error to chk_out--><g id="link_error_chk_out"><path d="M632.1384,433.817 C671.1484,431.387 706.52,429.18 744.36,426.82 " fill="none" id="error-backto-chk_out" style="stroke:#181818;stroke-width:1.0;stroke-dasharray:7.0,7.0;"/><polygon fill="#181818" points="626.15,434.19,635.3813,437.6227,631.1403,433.8791,634.8839,429.6382,626.15,434.19" style="stroke:#181818;stroke-width:1.0;"/><text fill="#000000" font-family="sans-serif" font-size="13" lengthAdjust="spacing" textLength="44" x="663.71" y="425.2869">extend</text></g><!--SRC=[ZLJRQXDX4BxVfnXorLuqjBNs8CKR7q6y3jlDRnkotOsR3Hf4g4OgsDAY2898Y_W2JMnCR4wlyEyR-Sti_dj8Kf6ofFFFVD-SnrNFGmfz2cg7Ho5LQu5omfhlMSrwpMlOWNrC3TkfsuVgQTXs5R7QzWvTPTbEw0TKqjTw6htL_UYT7kBhwr5qNYAxIOuRfZRVyJx1Twj_m_A48DoG_iL8mSoY4pt4trZadkuBm_5XO5cjfdBifgBcaV-o4jgkxx6gzEp9siO6wMi0GHjzZ2u1Gm3HEO7XHe_qL4zAAJgqwwhY1rKLfEXDqbzXs0N3ZU3q0E8Tla66StolcI8UaFx6j0Yomscoe-WKNYzBbfKM1kd-m5kSs9ZpxCNK8zqd3bTKKtRBPIZHwzHRCK3ILz5xCHmdcIsBqFNRjcimc-80XHN_afd4np6WILbKVOihXA8X3KGHzs6OiHuhhsL8aVOLF4_4zzG40yGbE8d9K9AB36jNgvK3krbNeM7O8lq5o2uOJ9Fq30y32AVSUAdHdUIADz1rvbeNjXlAi3qa_JEkWcbShi10ZvXF1gmNdSN9PMmDksrujadcRWh8W6SkhW7XOGOEfkuKS1KlA_GEroGnWwVe0uyr2Z4WDF-JlYu23rfUAnsZNJQPSIzC-5s9VHIT5L6E7LGDQA_eZzEFJdYCz9zyfVBRiKwycg3j8BhvpR2uSnFfPbzgCCuD5uOovJp0ygUKMqj6SWfIGSc_SL_li1ypl0xdof3dGXS_YsyqEsQwbK4wv-dDSEf54RQz09lawf7l6BfLXEuiG7iBtL91u6SRkBkaXDWYHCZB8Ai3rGN9o9gwn2kNsmVdg5xnM-aoREmjiYuZi6HyUx2yZUTwaExQtFOKNI65z1oi_w-hAIVMXMc_S2Tu92qSSbfRenM-2Qkf9BSg4xFpdBrnzHE9LlYIhbhn3sI-xVZOJcfkMIjooLQf_DYGqoDIhqBbLQqyFPNP8ZleR5Rp7BTLLI19dlRBIRmvZaGbyEn6vU45a_Jkt6k1cIxeHDulbqN3roBllQZatRvVA_TYJXtp9P597OgU4yf_62IioorCCvAc6SciBJedFsdYyUk22tcKFCpwpQUHCqbsEsTXnVidscIMSzev9NOg3ttp5m00]--></g></svg>