<?xml version="1.0" encoding="us-ascii" standalone="no"?><svg xmlns="http://www.w3.org/2000/svg" xmlns:xlink="http://www.w3.org/1999/xlink" contentStyleType="text/css" height="814px" preserveAspectRatio="none" style="width:1504px;height:814px;background:#FFFFFF;" version="1.1" viewBox="0 0 1504 814" width="1504px" zoomAndPan="magnify"><defs/><g><!--cluster ??????? ?? ????????????--><g id="cluster_&#1057;&#1080;&#1089;&#1090;&#1077;&#1084;&#1072; &#1085;&#1072; &#1087;&#1088;&#1086;&#1080;&#1079;&#1074;&#1086;&#1076;&#1089;&#1090;&#1074;&#1077;"><rect fill="none" height="711" rx="2.5" ry="2.5" style="stroke:#181818;stroke-width:1.0;" width="1235.09" x="263" y="7"/><text fill="#000000" font-family="sans-serif" font-size="14" font-weight="bold" lengthAdjust="spacing" textLength="211" x="775.045" y="21.9951">&#1057;&#1080;&#1089;&#1090;&#1077;&#1084;&#1072; &#1085;&#1072; &#1087;&#1088;&#1086;&#1080;&#1079;&#1074;&#1086;&#1076;&#1089;&#1090;&#1074;&#1077;</text></g><g id="elem_add_pos"><ellipse cx="460.7127" cy="75.0005" fill="#F1F1F1" rx="152.6527" ry="32.9305" style="stroke:#181818;stroke-width:0.5;"/><text fill="#000000" font-family="sans-serif" font-size="14" lengthAdjust="spacing" textLength="276" x="322.7127" y="77.8472">UC-21 &#1042;&#1085;&#1077;&#1089;&#1090;&#1080; &#1085;&#1086;&#1074;&#1091;&#1102; &#1087;&#1086;&#1079;&#1080;&#1094;&#1080;&#1102; &#1074; &#1084;&#1077;&#1085;&#1102;</text></g><g id="elem_upd_price"><ellipse cx="460.7099" cy="165.002" fill="#F1F1F1" rx="97.2599" ry="21.852" style="stroke:#181818;stroke-width:0.5;"/><text fill="#000000" font-family="sans-serif" font-size="14" lengthAdjust="spacing" textLength="158" x="381.7099" y="167.8487">UC-22 &#1048;&#1079;&#1084;&#1077;&#1085;&#1080;&#1090;&#1100; &#1094;&#1077;&#1085;&#1091;</text></g><g id="elem_add_act"><ellipse cx="460.7066" cy="254.9993" fill="#F1F1F1" rx="154.0966" ry="33.2193" style="stroke:#181818;stroke-width:0.5;"/><text fill="#000000" font-family="sans-serif" font-size="14" lengthAdjust="spacing" textLength="279" x="321.2066" y="257.846">UC-23 &#1042;&#1085;&#1077;&#1089;&#1090;&#1080; &#1080;&#1085;&#1092;&#1086;&#1088;&#1084;&#1072;&#1094;&#1080;&#1102; &#1086;&#1073; &#1072;&#1082;&#1094;&#1080;&#1103;&#1093;</text></g><g id="elem_add_spec"><ellipse cx="460.7105" cy="355.0001" fill="#F1F1F1" rx="146.4005" ry="31.6801" style="stroke:#181818;stroke-width:0.5;"/><text fill="#000000" font-family="sans-serif" font-size="14" lengthAdjust="spacing" textLength="203" x="359.2105" y="349.6983">UC-24 &#1042;&#1085;&#1077;&#1089;&#1090;&#1080; &#1080;&#1085;&#1092;&#1086;&#1088;&#1084;&#1072;&#1094;&#1080;&#1102;</text><text fill="#000000" font-family="sans-serif" font-size="14" lengthAdjust="spacing" textLength="224" x="348.7105" y="365.9952">&#1086; &#1089;&#1087;&#1077;&#1094;&#1080;&#1072;&#1083;&#1100;&#1085;&#1099;&#1093; &#1087;&#1088;&#1077;&#1076;&#1083;&#1086;&#1078;&#1077;&#1085;&#1080;&#1103;&#1093;</text></g><g id="elem_add_comp"><ellipse cx="460.7063" cy="460.0013" fill="#F1F1F1" rx="181.7063" ry="38.7413" style="stroke:#181818;stroke-width:0.5;"/><text fill="#000000" font-family="sans-serif" font-size="14" lengthAdjust="spacing" textLength="336" x="292.7063" y="462.8479">UC-25 &#1053;&#1072;&#1089;&#1090;&#1088;&#1086;&#1080;&#1090;&#1100; &#1082;&#1086;&#1084;&#1087;&#1083;&#1077;&#1082;&#1089;&#1085;&#1099;&#1077; &#1087;&#1088;&#1077;&#1076;&#1083;&#1086;&#1078;&#1077;&#1085;&#1080;&#1103;</text></g><g id="elem_add_tech"><ellipse cx="460.7084" cy="569.0037" fill="#F1F1F1" rx="166.1684" ry="35.6337" style="stroke:#181818;stroke-width:0.5;"/><text fill="#000000" font-family="sans-serif" font-size="14" lengthAdjust="spacing" textLength="304" x="308.7084" y="571.8504">UC-26 &#1053;&#1072;&#1089;&#1090;&#1088;&#1086;&#1080;&#1090;&#1100; &#1090;&#1077;&#1093;&#1085;&#1086;&#1083;&#1086;&#1075;&#1080;&#1095;&#1077;&#1089;&#1082;&#1091;&#1102; &#1082;&#1072;&#1088;&#1090;&#1091;</text></g><g id="elem_apply"><ellipse cx="923.9988" cy="309.9998" fill="#F1F1F1" rx="171.9488" ry="36.7898" style="stroke:#181818;stroke-width:0.5;"/><text fill="#000000" font-family="sans-serif" font-size="14" lengthAdjust="spacing" textLength="213" x="817.4988" y="304.698">UC-27 &#1055;&#1088;&#1080;&#1084;&#1077;&#1085;&#1080;&#1090;&#1100; &#1080;&#1079;&#1084;&#1077;&#1085;&#1077;&#1085;&#1080;&#1103;</text><text fill="#000000" font-family="sans-serif" font-size="14" lengthAdjust="spacing" textLength="284" x="781.9988" y="320.9949">&#1074; &#1089;&#1083;&#1077;&#1076;&#1091;&#1102;&#1097;&#1077;&#1084; &#1086;&#1090;&#1082;&#1088;&#1099;&#1090;&#1086;&#1084; &#1090;&#1086;&#1088;&#1075;&#1086;&#1074;&#1086;&#1084; &#1076;&#1085;&#1077;</text></g><g id="elem_status"><ellipse cx="460.7122" cy="671.0004" fill="#F1F1F1" rx="144.2022" ry="31.2404" style="stroke:#181818;stroke-width:0.5;"/><text fill="#000000" font-family="sans-serif" font-size="14" lengthAdjust="spacing" textLength="218" x="348.7122" y="666.5996">UC-29 &#1055;&#1086;&#1083;&#1091;&#1095;&#1080;&#1090;&#1100; &#1080;&#1085;&#1092;&#1086;&#1088;&#1084;&#1072;&#1094;&#1080;&#1102;</text><text fill="#000000" font-family="sans-serif" font-size="14" lengthAdjust="spacing" textLength="137" x="389.2122" y="682.8964">&#1086; &#1089;&#1090;&#1072;&#1090;&#1091;&#1089;&#1077; &#1088;&#1086;&#1073;&#1086;&#1090;&#1086;&#1074;</text></g><g id="elem_chk_err"><ellipse cx="924.0022" cy="424.0004" fill="#F1F1F1" rx="144.2022" ry="31.2404" style="stroke:#181818;stroke-width:0.5;"/><text fill="#000000" font-family="sans-serif" font-size="14" lengthAdjust="spacing" textLength="218" x="812.0022" y="419.5996">UC-30 &#1055;&#1086;&#1083;&#1091;&#1095;&#1080;&#1090;&#1100; &#1080;&#1085;&#1092;&#1086;&#1088;&#1084;&#1072;&#1094;&#1080;&#1102;</text><text fill="#000000" font-family="sans-serif" font-size="14" lengthAdjust="spacing" textLength="135" x="853.5022" y="435.8964">&#1086; &#1085;&#1072;&#1083;&#1080;&#1095;&#1080;&#1080; &#1086;&#1096;&#1080;&#1073;&#1086;&#1082;</text></g><g id="elem_chk_num"><ellipse cx="1343.3393" cy="398.9959" fill="#F1F1F1" rx="118.4293" ry="26.0859" style="stroke:#181818;stroke-width:0.5;"/><text fill="#000000" font-family="sans-serif" font-size="14" lengthAdjust="spacing" textLength="204" x="1241.3393" y="401.8425">UC-31 &#1059;&#1079;&#1085;&#1072;&#1090;&#1100; &#1085;&#1086;&#1084;&#1077;&#1088; &#1088;&#1086;&#1073;&#1086;&#1090;&#1072;</text></g><g id="elem_depo"><ellipse cx="924.0029" cy="583.9966" fill="#F1F1F1" rx="174.5829" ry="37.3166" style="stroke:#181818;stroke-width:0.5;"/><text fill="#000000" font-family="sans-serif" font-size="14" lengthAdjust="spacing" textLength="218" x="815.0029" y="578.6948">UC-32 &#1055;&#1086;&#1083;&#1091;&#1095;&#1080;&#1090;&#1100; &#1080;&#1085;&#1092;&#1086;&#1088;&#1084;&#1072;&#1094;&#1080;&#1102;</text><text fill="#000000" font-family="sans-serif" font-size="14" lengthAdjust="spacing" textLength="290" x="779.0029" y="594.9917">&#1086; &#1080;&#1089;&#1095;&#1077;&#1088;&#1087;&#1072;&#1085;&#1080;&#1080; &#1079;&#1072;&#1087;&#1072;&#1089;&#1086;&#1074; &#1087;&#1086;&#1083;&#1091;&#1092;&#1072;&#1073;&#1088;&#1080;&#1082;&#1072;&#1090;&#1086;&#1074;</text></g><g id="elem_chk_time"><ellipse cx="1343.3403" cy="675.0001" fill="#F1F1F1" rx="122.2003" ry="26.8401" style="stroke:#181818;stroke-width:0.5;"/><text fill="#000000" font-family="sans-serif" font-size="14" lengthAdjust="spacing" textLength="145" x="1270.8403" y="669.6983">UC-33 &#1059;&#1079;&#1085;&#1072;&#1090;&#1100; &#1074;&#1088;&#1077;&#1084;&#1103;</text><text fill="#000000" font-family="sans-serif" font-size="14" lengthAdjust="spacing" textLength="162" x="1262.3403" y="685.9952">&#1076;&#1086; &#1080;&#1089;&#1095;&#1077;&#1088;&#1087;&#1072;&#1085;&#1080;&#1103; &#1079;&#1072;&#1087;&#1072;&#1089;&#1072;</text></g><g id="elem_chk_count"><ellipse cx="1343.3429" cy="584.0006" fill="#F1F1F1" rx="132.2529" ry="28.8506" style="stroke:#181818;stroke-width:0.5;"/><text fill="#000000" font-family="sans-serif" font-size="14" lengthAdjust="spacing" textLength="187" x="1246.8429" y="579.5997">UC-34 &#1059;&#1079;&#1085;&#1072;&#1090;&#1100; &#1082;&#1086;&#1083;&#1080;&#1095;&#1077;&#1089;&#1090;&#1074;&#1086;</text><text fill="#000000" font-family="sans-serif" font-size="14" lengthAdjust="spacing" textLength="89" x="1295.8429" y="595.8966">&#1087;&#1086;&#1087;&#1086;&#1083;&#1085;&#1077;&#1085;&#1080;&#1103;</text></g><g id="elem_chk_ing"><ellipse cx="1343.3378" cy="490.0016" fill="#F1F1F1" rx="138.7578" ry="30.1516" style="stroke:#181818;stroke-width:0.5;"/><text fill="#000000" font-family="sans-serif" font-size="14" lengthAdjust="spacing" textLength="247" x="1219.8378" y="492.8482">UC-35 &#1059;&#1079;&#1085;&#1072;&#1090;&#1100; &#1090;&#1080;&#1087; &#1087;&#1086;&#1083;&#1091;&#1092;&#1072;&#1073;&#1088;&#1080;&#1082;&#1072;&#1090;&#1072;</text></g><!--entity mgrr--><g id="elem_mgrr"><ellipse cx="111" cy="275.35" fill="#F1F1F1" rx="8" ry="8" style="stroke:#181818;stroke-width:0.5;"/><path d="M111,283.35 L111,310.35 M98,291.35 L124,291.35 M111,310.35 L98,325.35 M111,310.35 L124,325.35 " fill="none" style="stroke:#181818;stroke-width:0.5;"/><text fill="#000000" font-family="sans-serif" font-size="14" lengthAdjust="spacing" textLength="210" x="6" y="339.8451">&#1052;&#1077;&#1085;&#1077;&#1076;&#1078;&#1077;&#1088; &#1087;&#1086; &#1072;&#1089;&#1089;&#1086;&#1088;&#1090;&#1080;&#1084;&#1077;&#1085;&#1090;&#1091;</text></g><!--entity tech--><g id="elem_tech"><ellipse cx="111" cy="707.35" fill="#F1F1F1" rx="8" ry="8" style="stroke:#181818;stroke-width:0.5;"/><path d="M111,715.35 L111,742.35 M98,723.35 L124,723.35 M111,742.35 L98,757.35 M111,742.35 L124,757.35 " fill="none" style="stroke:#181818;stroke-width:0.5;"/><text fill="#000000" font-family="sans-serif" font-size="14" lengthAdjust="spacing" textLength="181" x="20.5" y="771.8451">&#1058;&#1077;&#1093;&#1085;&#1080;&#1082; &#1085;&#1072; &#1087;&#1088;&#1086;&#1080;&#1079;&#1074;&#1086;&#1076;&#1089;&#1090;&#1074;&#1077;</text></g><g id="elem_add_ing"><ellipse cx="460.7063" cy="773.0033" fill="#F1F1F1" rx="164.7163" ry="35.3433" style="stroke:#181818;stroke-width:0.5;"/><text fill="#000000" font-family="sans-serif" font-size="14" lengthAdjust="spacing" textLength="301" x="310.2063" y="775.8499">UC-28 &#1055;&#1086;&#1087;&#1086;&#1083;&#1085;&#1080;&#1090;&#1100; &#1079;&#1072;&#1087;&#1072;&#1089; &#1087;&#1086;&#1083;&#1091;&#1092;&#1072;&#1073;&#1088;&#1080;&#1082;&#1072;&#1090;&#1086;&#1074;</text></g><!--link mgrr to add_pos--><g id="link_mgrr_add_pos"><path d="M132.42,266.66 C156.32,225.55 199.76,161.44 255,126 C278.2,111.11 305.44,100.57 332.36,93.11 " fill="none" id="mgrr-add_pos" style="stroke:#181818;stroke-width:1.0;"/></g><!--link mgrr to upd_price--><g id="link_mgrr_upd_price"><path d="M156.02,266.4 C182.88,244.85 218.91,219.32 255,204 C291.3,188.58 333.8,179.22 370.64,173.56 " fill="none" id="mgrr-upd_price" style="stroke:#181818;stroke-width:1.0;"/></g><!--link mgrr to add_act--><g id="link_mgrr_add_act"><path d="M216.32,290 C252.53,284.79 293.55,278.89 331.46,273.44 " fill="none" id="mgrr-add_act" style="stroke:#181818;stroke-width:1.0;"/></g><!--link mgrr to add_spec--><g id="link_mgrr_add_spec"><path d="M216.32,320 C254.53,325.49 298.1,331.76 337.72,337.45 " fill="none" id="mgrr-add_spec" style="stroke:#181818;stroke-width:1.0;"/></g><!--link mgrr to add_comp--><g id="link_mgrr_add_comp"><path d="M158.82,343.46 C185.62,363.88 220.65,387.98 255,404 C279.13,415.25 305.94,424.61 332,432.25 " fill="none" id="mgrr-add_comp" style="stroke:#181818;stroke-width:1.0;"/></g><!--link mgrr to add_tech--><g id="link_mgrr_add_tech"><path d="M127.62,343.24 C149.13,391.03 192.44,471.87 255,516 C275.4,530.38 299.41,540.87 323.66,548.51 " fill="none" id="mgrr-add_tech" style="stroke:#181818;stroke-width:1.0;"/></g><!--link tech to add_ing--><g id="link_tech_add_ing"><path d="M202,746.31 C235.4,749.77 274.23,753.79 311.46,757.65 " fill="none" id="tech-add_ing" style="stroke:#181818;stroke-width:1.0;"/></g><!--link tech to status--><g id="link_tech_status"><path d="M202,719.91 C247.47,711.28 303.01,700.74 350.87,691.66 " fill="none" id="tech-status" style="stroke:#181818;stroke-width:1.0;"/></g><!--link add_pos to apply--><g id="link_add_pos_apply"><path d="M567.33,98.97 C592.47,106.25 618.83,115.25 642.41,126 C731.46,166.59 819.7086,229.4991 873.1286,270.4591 " fill="none" id="add_pos-to-apply" style="stroke:#181818;stroke-width:1.0;stroke-dasharray:7.0,7.0;"/><polygon fill="#181818" points="877.89,274.11,873.1817,265.4594,873.9221,271.0676,868.3139,271.808,877.89,274.11" style="stroke:#181818;stroke-width:1.0;"/><text fill="#000000" font-family="sans-serif" font-size="13" lengthAdjust="spacing" textLength="45" x="673.41" y="138.0669">include</text></g><!--link upd_price to apply--><g id="link_upd_price_apply"><path d="M537.51,178.75 C570.08,185.32 608.4,193.96 642.41,204 C712.08,224.55 783.5839,251.9151 839.2939,274.6251 " fill="none" id="upd_price-to-apply" style="stroke:#181818;stroke-width:1.0;stroke-dasharray:7.0,7.0;"/><polygon fill="#181818" points="844.85,276.89,838.0258,269.7886,840.2199,275.0026,835.0059,277.1967,844.85,276.89" style="stroke:#181818;stroke-width:1.0;"/><text fill="#000000" font-family="sans-serif" font-size="13" lengthAdjust="spacing" textLength="45" x="673.41" y="210.0669">include</text></g><!--link add_act to apply--><g id="link_add_act_apply"><path d="M596.37,271.05 C651.68,277.65 710.0022,284.5992 766.8322,291.3792 " fill="none" id="add_act-to-apply" style="stroke:#181818;stroke-width:1.0;stroke-dasharray:7.0,7.0;"/><polygon fill="#181818" points="772.79,292.09,764.3272,287.052,767.8252,291.4977,763.3795,294.9957,772.79,292.09" style="stroke:#181818;stroke-width:1.0;"/><text fill="#000000" font-family="sans-serif" font-size="13" lengthAdjust="spacing" textLength="45" x="673.41" y="277.0669">include</text></g><!--link add_spec to apply--><g id="link_add_spec_apply"><path d="M594.82,342.01 C648.58,336.77 705.0283,331.2624 760.9083,325.8124 " fill="none" id="add_spec-to-apply" style="stroke:#181818;stroke-width:1.0;stroke-dasharray:7.0,7.0;"/><polygon fill="#181818" points="766.88,325.23,757.5342,322.1225,761.9036,325.7153,758.3108,330.0847,766.88,325.23" style="stroke:#181818;stroke-width:1.0;"/><text fill="#000000" font-family="sans-serif" font-size="13" lengthAdjust="spacing" textLength="45" x="673.41" y="328.0669">include</text></g><!--link add_comp to apply--><g id="link_add_comp_apply"><path d="M565.99,428.12 C591.05,420.34 617.72,411.96 642.41,404 C705.61,383.62 770.8272,361.7851 825.5572,343.2451 " fill="none" id="add_comp-to-apply" style="stroke:#181818;stroke-width:1.0;stroke-dasharray:7.0,7.0;"/><polygon fill="#181818" points="831.24,341.32,821.4324,340.4191,826.5043,342.9242,823.9992,347.9961,831.24,341.32" style="stroke:#181818;stroke-width:1.0;"/><text fill="#000000" font-family="sans-serif" font-size="13" lengthAdjust="spacing" textLength="45" x="673.41" y="378.0669">include</text></g><!--link add_tech to apply--><g id="link_add_tech_apply"><path d="M582.94,544.59 C603.79,537.34 624.48,528 642.41,516 C687.86,485.56 687.1,464.13 719.41,420 C733.61,400.6 730.58,389.93 749.41,375 C768.57,359.8 786.0923,350.1363 809.0723,340.9063 " fill="none" id="add_tech-to-apply" style="stroke:#181818;stroke-width:1.0;stroke-dasharray:7.0,7.0;"/><polygon fill="#181818" points="814.64,338.67,804.7976,338.3126,810.0003,340.5336,807.7793,345.7362,814.64,338.67" style="stroke:#181818;stroke-width:1.0;"/><text fill="#000000" font-family="sans-serif" font-size="13" lengthAdjust="spacing" textLength="45" x="673.41" y="416.0669">include</text></g><!--reverse link status to chk_err--><g id="link_status_chk_err"><path d="M575.0421,648.4421 C599.8521,641.4021 619.81,633.85 642.41,622 C662.24,611.6 702.67,571.86 719.41,557 C733.05,544.89 734.87,540 749.41,529 C787.2,500.42 833.19,472.89 868.34,453.19 " fill="none" id="status-backto-chk_err" style="stroke:#181818;stroke-width:1.0;stroke-dasharray:7.0,7.0;"/><polygon fill="#181818" points="569.27,650.08,579.0201,651.4713,574.0801,648.7151,576.8363,643.7751,569.27,650.08" style="stroke:#181818;stroke-width:1.0;"/><text fill="#000000" font-family="sans-serif" font-size="13" lengthAdjust="spacing" textLength="44" x="673.91" y="553.0669">extend</text></g><!--reverse link status to depo--><g id="link_status_depo"><path d="M577.3491,649.5842 C623.1091,641.0842 670.89,632.16 719.41,623 C743.19,618.5 768.53,613.68 792.96,609.01 " fill="none" id="status-backto-depo" style="stroke:#181818;stroke-width:1.0;stroke-dasharray:7.0,7.0;"/><polygon fill="#181818" points="571.45,650.68,581.0292,652.9691,576.3659,649.7669,579.5681,645.1036,571.45,650.68" style="stroke:#181818;stroke-width:1.0;"/><text fill="#000000" font-family="sans-serif" font-size="13" lengthAdjust="spacing" textLength="44" x="673.91" y="619.0669">extend</text></g><!--reverse link chk_err to chk_num--><g id="link_chk_err_chk_num"><path d="M1069.3692,415.3504 C1122.9992,412.1304 1177.64,408.86 1228.65,405.81 " fill="none" id="chk_err-backto-chk_num" style="stroke:#181818;stroke-width:1.0;stroke-dasharray:7.0,7.0;"/><polygon fill="#181818" points="1063.38,415.71,1072.6036,419.1634,1068.371,415.4103,1072.1241,411.1778,1063.38,415.71" style="stroke:#181818;stroke-width:1.0;"/><text fill="#000000" font-family="sans-serif" font-size="13" lengthAdjust="spacing" textLength="44" x="1129.58" y="406.0669">extend</text></g><!--reverse link depo to chk_num--><g id="link_depo_chk_num"><path d="M992.1318,545.8685 C1047.8818,515.0685 1127.42,473.38 1204.58,442 C1225,433.69 1247.66,426.01 1268.61,419.52 " fill="none" id="depo-backto-chk_num" style="stroke:#181818;stroke-width:1.0;stroke-dasharray:7.0,7.0;"/><polygon fill="#181818" points="986.88,548.77,996.692,547.919,991.2565,546.3521,992.8234,540.9166,986.88,548.77" style="stroke:#181818;stroke-width:1.0;"/><text fill="#000000" font-family="sans-serif" font-size="13" lengthAdjust="spacing" textLength="44" x="1129.58" y="452.0669">extend</text></g><!--reverse link depo to chk_ing--><g id="link_depo_chk_ing"><path d="M1051.2833,555.5513 C1114.8433,541.2313 1185.94,525.22 1245.58,511.79 " fill="none" id="depo-backto-chk_ing" style="stroke:#181818;stroke-width:1.0;stroke-dasharray:7.0,7.0;"/><polygon fill="#181818" points="1045.43,556.87,1055.0891,558.7941,1050.3077,555.7711,1053.3308,550.9897,1045.43,556.87" style="stroke:#181818;stroke-width:1.0;"/><text fill="#000000" font-family="sans-serif" font-size="13" lengthAdjust="spacing" textLength="44" x="1129.58" y="525.0669">extend</text></g><!--reverse link depo to chk_count--><g id="link_depo_chk_count"><path d="M1104.96,584 C1142.31,584 1175.19,584 1210.63,584 " fill="none" id="depo-backto-chk_count" style="stroke:#181818;stroke-width:1.0;stroke-dasharray:7.0,7.0;"/><polygon fill="#181818" points="1098.96,584,1107.96,588,1103.96,584,1107.96,580,1098.96,584" style="stroke:#181818;stroke-width:1.0;"/><text fill="#000000" font-family="sans-serif" font-size="13" lengthAdjust="spacing" textLength="44" x="1129.58" y="580.0669">extend</text></g><!--reverse link depo to chk_time--><g id="link_depo_chk_time"><path d="M1053.5324,612.0277 C1120.1524,626.5477 1195.07,642.89 1255.19,656 " fill="none" id="depo-backto-chk_time" style="stroke:#181818;stroke-width:1.0;stroke-dasharray:7.0,7.0;"/><polygon fill="#181818" points="1047.67,610.75,1055.6117,616.5748,1052.5553,611.8148,1057.3154,608.7583,1047.67,610.75" style="stroke:#181818;stroke-width:1.0;"/><text fill="#000000" font-family="sans-serif" font-size="13" lengthAdjust="spacing" textLength="44" x="1129.58" y="626.0669">extend</text></g><!--SRC=[bLJDJjj04BxlKwno8WUYba3_LFNIHwXwHfQp3HQ9OpcEL5HL2W5AAn18FVLGLBLzWH0IY98GNc7tZVhDs5dR8HRqODcUsVdccvrlfg4-H39goT2hxqIoveNAZRoMBzgxdXyueTEKWUFkEdNrBjfhA4bknwytb73Sg1NAalwfH_eMpr1Vwv7fIdsdvrBtpRxPrtFJDJqzrZCwOthce2ITjcpMmz26_q7G4G36UYBnwYFUTFKS_pTwWFSGG3ryZJWqKkwE49ssSfssaawjjktvTNAKthzTttWXzI-4W82U4YGodahWz6428Hbxp84vXEaIQP0KZXwiWv8GjZRG-ereIZm2z_v3n3xb60MjjcNqLEhlT3jyTamuI0K2Pp6N6sJvWWU_0vdSqbd9edK2e8MUgopUXjG_4CKda_e0G647fHm9NAyDgYwH6EFu8VM6Qblad-jBT4rF-F_S7ENXse5oBTxcmtW26a3_xt08_y2TcbESEZ57yJMINAR8UPqKSY-Xsse6Dk6Mr1Uig5xSWRYl4tpEa68AZ0cI0LwF2k3puAGY2_vi5JXrdcKvPvmhc8-fO2JYvf5ikYpe53W86diMzJcao0BBjegrCqlcXNa9z1seLCAGaCqtKXow0G8JP3XXSSw83ztl5Sc73IWG86dsTkH4dLHtB-D98AqVfyaBsWJmFjK28YF9bt3917Wg5WdSdTrj5OQB3DKdZyz0quCIwGh7f9Uv-OeFvD2JFBxVQLfyJCvVtDOjKpkD9sV62oR3i9_6rrJGii4R_q6EvfnwswKbmOjedDaPT0aFx8ri1P7NjCDQhIwLC61bpgZhmvMPpNasSpyFxROwlftfwkOIzeILcgYKzz9SCEt5Chmt28IPMPxLhJmYx-sxujB1Jj0Yb-lhSYrPU-NKObTNENyAUsd9GgjboKJ3lsIYaIqB7jo52UHJIwn_8ImLMQcyIMRobVHyjz6fAP6XjTg_e5ZiPRh5RgPUxEOoLhf5Ci6lAnMvbWnR6NxrCL9-BUjbfLj7UjP6OemoaNpyKJwwq28Vgw_GIxBFE3__0m00]--></g></svg>