<?xml version="1.0" encoding="us-ascii" standalone="no"?><svg xmlns="http://www.w3.org/2000/svg" xmlns:xlink="http://www.w3.org/1999/xlink" contentStyleType="text/css" height="1040px" preserveAspectRatio="none" style="width:1726px;height:1040px;background:#FFFFFF;" version="1.1" viewBox="0 0 1726 1040" width="1726px" zoomAndPan="magnify"><defs/><g><rect fill="none" height="1021.8359" style="stroke:#181818;stroke-width:0.5;" width="1356.5" x="346.5" y="6"/><text fill="#000000" font-family="sans-serif" font-size="13" font-weight="bold" lengthAdjust="spacing" textLength="199" x="922.75" y="18.0669">&#1057;&#1080;&#1089;&#1090;&#1077;&#1084;&#1072; "&#1056;&#1086;&#1073;&#1086;&#1090; &#1080; &#1058;&#1086;&#1095;&#1082;&#1072;"</text><rect fill="#FFFFFF" height="125.3984" style="stroke:#181818;stroke-width:1.0;" width="10" x="393.5" y="118.5625"/><rect fill="#FFFFFF" height="88.9375" style="stroke:#181818;stroke-width:1.0;" width="10" x="393.5" y="521.7578"/><rect fill="#FFFFFF" height="203.9297" style="stroke:#181818;stroke-width:1.0;" width="10" x="393.5" y="680.0938"/><rect fill="#FFFFFF" height="89.1328" style="stroke:#181818;stroke-width:1.0;" width="10" x="868.5" y="213.9609"/><rect fill="#FFFFFF" height="89.1328" style="stroke:#181818;stroke-width:1.0;" width="10" x="868.5" y="462.625"/><rect fill="#FFFFFF" height="145.6641" style="stroke:#181818;stroke-width:1.0;" width="10" x="868.5" y="709.2266"/><rect fill="#FFFFFF" height="219.5313" style="stroke:#181818;stroke-width:1.0;" width="10" x="1177.5" y="273.0938"/><rect fill="#FFFFFF" height="28" style="stroke:#181818;stroke-width:1.0;" width="10" x="1182.5" y="398.4922"/><rect fill="#FFFFFF" height="87.3984" style="stroke:#181818;stroke-width:1.0;" width="10" x="1389" y="738.3594"/><rect fill="#FFFFFF" height="29.1328" style="stroke:#181818;stroke-width:1.0;" width="10" x="1676" y="332.2266"/><rect fill="#FFFFFF" height="29.1328" style="stroke:#181818;stroke-width:1.0;" width="10" x="1676" y="767.4922"/><rect fill="none" height="428" style="stroke:#000000;stroke-width:1.5;" width="1689" x="20" y="175.6953"/><rect fill="none" height="399.1406" style="stroke:#000000;stroke-width:1.5;" width="1709" x="10" y="617.6953"/><rect fill="none" height="250.1953" style="stroke:#000000;stroke-width:1.5;" width="1689" x="20" y="641.8281"/><line style="stroke:#181818;stroke-width:0.5;stroke-dasharray:5.0,5.0;" x1="60" x2="60" y1="87.4297" y2="1033.8359"/><line style="stroke:#181818;stroke-width:0.5;stroke-dasharray:5.0,5.0;" x1="398.5" x2="398.5" y1="87.4297" y2="1033.8359"/><line style="stroke:#181818;stroke-width:0.5;stroke-dasharray:5.0,5.0;" x1="873.5" x2="873.5" y1="87.4297" y2="1033.8359"/><line style="stroke:#181818;stroke-width:0.5;stroke-dasharray:5.0,5.0;" x1="1182" x2="1182" y1="87.4297" y2="1033.8359"/><line style="stroke:#181818;stroke-width:0.5;stroke-dasharray:5.0,5.0;" x1="1394" x2="1394" y1="87.4297" y2="1033.8359"/><line style="stroke:#181818;stroke-width:0.5;stroke-dasharray:5.0,5.0;" x1="1681" x2="1681" y1="87.4297" y2="1033.8359"/><text fill="#000000" font-family="sans-serif" font-size="14" lengthAdjust="spacing" textLength="55" x="30" y="84.1279">&#1050;&#1083;&#1080;&#1077;&#1085;&#1090;</text><ellipse cx="60.5" cy="19.6328" fill="#E2E2F0" rx="8" ry="8" style="stroke:#181818;stroke-width:0.5;"/><path d="M60.5,27.6328 L60.5,54.6328 M47.5,35.6328 L73.5,35.6328 M60.5,54.6328 L47.5,69.6328 M60.5,54.6328 L73.5,69.6328 " fill="none" style="stroke:#181818;stroke-width:0.5;"/><rect fill="#E2E2F0" height="30.2969" rx="2.5" ry="2.5" style="stroke:#181818;stroke-width:0.5;" width="96" x="350.5" y="56.1328"/><text fill="#000000" font-family="sans-serif" font-size="14" lengthAdjust="spacing" textLength="82" x="357.5" y="76.1279">mobile app</text><text fill="#000000" font-family="sans-serif" font-size="14" lengthAdjust="spacing" textLength="64" x="838.5" y="84.1279">REST API</text><path d="M853,43.1328 L853,67.1328 M853,55.1328 L870,55.1328 " fill="none" style="stroke:#181818;stroke-width:0.5;"/><ellipse cx="882" cy="55.1328" fill="#E2E2F0" rx="12" ry="12" style="stroke:#181818;stroke-width:0.5;"/><rect fill="#E2E2F0" height="30.2969" rx="2.5" ry="2.5" style="stroke:#181818;stroke-width:0.5;" width="229" x="1068" y="56.1328"/><text fill="#000000" font-family="sans-serif" font-size="14" lengthAdjust="spacing" textLength="215" x="1075" y="76.1279">&#1052;&#1086;&#1076;&#1091;&#1083;&#1100; &#1091;&#1087;&#1088;&#1072;&#1074;&#1083;&#1077;&#1085;&#1080;&#1103; &#1079;&#1072;&#1082;&#1072;&#1079;&#1086;&#1084;</text><rect fill="#E2E2F0" height="30.2969" rx="2.5" ry="2.5" style="stroke:#181818;stroke-width:0.5;" width="174" x="1307" y="56.1328"/><text fill="#000000" font-family="sans-serif" font-size="14" lengthAdjust="spacing" textLength="160" x="1314" y="76.1279">&#1052;&#1086;&#1076;&#1091;&#1083;&#1100; &#1088;&#1077;&#1075;&#1080;&#1089;&#1090;&#1088;&#1072;&#1094;&#1080;&#1080;</text><text fill="#000000" font-family="sans-serif" font-size="14" lengthAdjust="spacing" textLength="21" x="1667.5" y="84.1279">DB</text><path d="M1663,35.1328 C1663,25.1328 1681,25.1328 1681,25.1328 C1681,25.1328 1699,25.1328 1699,35.1328 L1699,61.1328 C1699,71.1328 1681,71.1328 1681,71.1328 C1681,71.1328 1663,71.1328 1663,61.1328 L1663,35.1328 " fill="#E2E2F0" style="stroke:#181818;stroke-width:1.5;"/><path d="M1663,35.1328 C1663,45.1328 1681,45.1328 1681,45.1328 C1681,45.1328 1699,45.1328 1699,35.1328 " fill="none" style="stroke:#181818;stroke-width:1.5;"/><rect fill="#FFFFFF" height="125.3984" style="stroke:#181818;stroke-width:1.0;" width="10" x="393.5" y="118.5625"/><rect fill="#FFFFFF" height="88.9375" style="stroke:#181818;stroke-width:1.0;" width="10" x="393.5" y="521.7578"/><rect fill="#FFFFFF" height="203.9297" style="stroke:#181818;stroke-width:1.0;" width="10" x="393.5" y="680.0938"/><rect fill="#FFFFFF" height="89.1328" style="stroke:#181818;stroke-width:1.0;" width="10" x="868.5" y="213.9609"/><rect fill="#FFFFFF" height="89.1328" style="stroke:#181818;stroke-width:1.0;" width="10" x="868.5" y="462.625"/><rect fill="#FFFFFF" height="145.6641" style="stroke:#181818;stroke-width:1.0;" width="10" x="868.5" y="709.2266"/><rect fill="#FFFFFF" height="219.5313" style="stroke:#181818;stroke-width:1.0;" width="10" x="1177.5" y="273.0938"/><rect fill="#FFFFFF" height="28" style="stroke:#181818;stroke-width:1.0;" width="10" x="1182.5" y="398.4922"/><rect fill="#FFFFFF" height="87.3984" style="stroke:#181818;stroke-width:1.0;" width="10" x="1389" y="738.3594"/><rect fill="#FFFFFF" height="29.1328" style="stroke:#181818;stroke-width:1.0;" width="10" x="1676" y="332.2266"/><rect fill="#FFFFFF" height="29.1328" style="stroke:#181818;stroke-width:1.0;" width="10" x="1676" y="767.4922"/><polygon fill="#181818" points="381.5,114.5625,391.5,118.5625,381.5,122.5625,385.5,118.5625" style="stroke:#181818;stroke-width:1.0;"/><line style="stroke:#181818;stroke-width:1.0;" x1="60.5" x2="387.5" y1="118.5625" y2="118.5625"/><text fill="#000000" font-family="sans-serif" font-size="13" font-weight="bold" lengthAdjust="spacing" textLength="21" x="67.5" y="113.4966">[1]</text><text fill="#000000" font-family="sans-serif" font-size="13" lengthAdjust="spacing" textLength="108" x="92.5" y="113.4966">&#1086;&#1092;&#1086;&#1088;&#1084;&#1080;&#1090;&#1100; &#1079;&#1072;&#1082;&#1072;&#1079;</text><line style="stroke:#181818;stroke-width:1.0;" x1="403.5" x2="445.5" y1="147.6953" y2="147.6953"/><line style="stroke:#181818;stroke-width:1.0;" x1="445.5" x2="445.5" y1="147.6953" y2="160.6953"/><line style="stroke:#181818;stroke-width:1.0;" x1="404.5" x2="445.5" y1="160.6953" y2="160.6953"/><polygon fill="#181818" points="414.5,156.6953,404.5,160.6953,414.5,164.6953,410.5,160.6953" style="stroke:#181818;stroke-width:1.0;"/><text fill="#000000" font-family="sans-serif" font-size="13" font-weight="bold" lengthAdjust="spacing" textLength="21" x="410.5" y="142.6294">[2]</text><text fill="#000000" font-family="sans-serif" font-size="13" lengthAdjust="spacing" textLength="323" x="435.5" y="142.6294">&#1055;&#1088;&#1086;&#1074;&#1077;&#1088;&#1080;&#1090;&#1100;, &#1074;&#1099;&#1073;&#1088;&#1072;&#1085; &#1083;&#1080; &#1089;&#1087;&#1086;&#1089;&#1086;&#1073; &#1087;&#1086;&#1083;&#1091;&#1095;&#1077;&#1085;&#1080;&#1103; &#1079;&#1072;&#1082;&#1072;&#1079;&#1072;</text><path d="M20,175.6953 L86,175.6953 L86,182.8281 L76,192.8281 L20,192.8281 L20,175.6953 " fill="#EEEEEE" style="stroke:#000000;stroke-width:1.5;"/><rect fill="none" height="428" style="stroke:#000000;stroke-width:1.5;" width="1689" x="20" y="175.6953"/><text fill="#000000" font-family="sans-serif" font-size="13" font-weight="bold" lengthAdjust="spacing" textLength="21" x="35" y="188.7622">alt</text><text fill="#000000" font-family="sans-serif" font-size="11" font-weight="bold" lengthAdjust="spacing" textLength="258" x="101" y="187.9058">[&#1085;&#1077; &#1074;&#1099;&#1073;&#1088;&#1072;&#1085; &#1089;&#1087;&#1086;&#1089;&#1086;&#1073; &#1087;&#1086;&#1083;&#1091;&#1095;&#1077;&#1085;&#1080;&#1103; &#1079;&#1072;&#1082;&#1072;&#1079;&#1072;]</text><polygon fill="#181818" points="856.5,209.9609,866.5,213.9609,856.5,217.9609,860.5,213.9609" style="stroke:#181818;stroke-width:1.0;"/><line style="stroke:#181818;stroke-width:1.0;" x1="403.5" x2="862.5" y1="213.9609" y2="213.9609"/><text fill="#000000" font-family="sans-serif" font-size="13" font-weight="bold" lengthAdjust="spacing" textLength="20" x="410.5" y="208.895">[3]</text><text fill="#000000" font-family="sans-serif" font-size="13" lengthAdjust="spacing" textLength="167" x="434.5" y="208.895">HTTP POST /cart/obtaining</text><polygon fill="#181818" points="1165.5,269.0938,1175.5,273.0938,1165.5,277.0938,1169.5,273.0938" style="stroke:#181818;stroke-width:1.0;"/><line style="stroke:#181818;stroke-width:1.0;" x1="878.5" x2="1171.5" y1="273.0938" y2="273.0938"/><text fill="#000000" font-family="sans-serif" font-size="13" font-weight="bold" lengthAdjust="spacing" textLength="21" x="885.5" y="268.0278">[4]</text><text fill="#000000" font-family="sans-serif" font-size="13" lengthAdjust="spacing" textLength="255" x="910.5" y="268.0278">&#1080;&#1079;&#1084;&#1077;&#1085;&#1077;&#1085;&#1080;&#1077; &#1089;&#1087;&#1086;&#1089;&#1086;&#1073;&#1072; &#1087;&#1086;&#1083;&#1091;&#1095;&#1077;&#1085;&#1080;&#1103; &#1079;&#1072;&#1082;&#1072;&#1079;&#1072;</text><polygon fill="#181818" points="1664,328.2266,1674,332.2266,1664,336.2266,1668,332.2266" style="stroke:#181818;stroke-width:1.0;"/><line style="stroke:#181818;stroke-width:1.0;" x1="1187.5" x2="1670" y1="332.2266" y2="332.2266"/><text fill="#000000" font-family="sans-serif" font-size="13" font-weight="bold" lengthAdjust="spacing" textLength="21" x="1194.5" y="327.1606">[5]</text><text fill="#000000" font-family="sans-serif" font-size="13" lengthAdjust="spacing" textLength="46" x="1219.5" y="327.1606">&#1079;&#1072;&#1087;&#1088;&#1086;&#1089;</text><polygon fill="#181818" points="1198.5,357.3594,1188.5,361.3594,1198.5,365.3594,1194.5,361.3594" style="stroke:#181818;stroke-width:1.0;"/><line style="stroke:#181818;stroke-width:1.0;stroke-dasharray:2.0,2.0;" x1="1192.5" x2="1680" y1="361.3594" y2="361.3594"/><text fill="#000000" font-family="sans-serif" font-size="13" font-weight="bold" lengthAdjust="spacing" textLength="21" x="1204.5" y="356.2935">[6]</text><text fill="#000000" font-family="sans-serif" font-size="13" lengthAdjust="spacing" textLength="39" x="1229.5" y="356.2935">&#1054;&#1090;&#1074;&#1077;&#1090;</text><line style="stroke:#181818;stroke-width:1.0;" x1="1192.5" x2="1234.5" y1="390.4922" y2="390.4922"/><line style="stroke:#181818;stroke-width:1.0;" x1="1234.5" x2="1234.5" y1="390.4922" y2="403.4922"/><line style="stroke:#181818;stroke-width:1.0;" x1="1193.5" x2="1234.5" y1="403.4922" y2="403.4922"/><polygon fill="#181818" points="1203.5,399.4922,1193.5,403.4922,1203.5,407.4922,1199.5,403.4922" style="stroke:#181818;stroke-width:1.0;"/><text fill="#000000" font-family="sans-serif" font-size="13" font-weight="bold" lengthAdjust="spacing" textLength="21" x="1199.5" y="385.4263">[7]</text><text fill="#000000" font-family="sans-serif" font-size="13" lengthAdjust="spacing" textLength="120" x="1224.5" y="385.4263">&#1086;&#1073;&#1088;&#1072;&#1073;&#1086;&#1090;&#1082;&#1072; &#1086;&#1090;&#1074;&#1077;&#1090;&#1072;</text><polygon fill="#181818" points="889.5,458.625,879.5,462.625,889.5,466.625,885.5,462.625" style="stroke:#181818;stroke-width:1.0;"/><line style="stroke:#181818;stroke-width:1.0;" x1="883.5" x2="1176.5" y1="462.625" y2="462.625"/><text fill="#000000" font-family="sans-serif" font-size="13" font-weight="bold" lengthAdjust="spacing" textLength="21" x="895.5" y="457.5591">[8]</text><text fill="#000000" font-family="sans-serif" font-size="13" lengthAdjust="spacing" textLength="231" x="920.5" y="457.5591">&#1089;&#1087;&#1086;&#1089;&#1086;&#1073; &#1087;&#1086;&#1083;&#1091;&#1095;&#1077;&#1085;&#1080;&#1103; &#1079;&#1072;&#1082;&#1072;&#1079;&#1072; &#1080;&#1079;&#1084;&#1077;&#1085;&#1105;&#1085;</text><polygon fill="#181818" points="414.5,517.7578,404.5,521.7578,414.5,525.7578,410.5,521.7578" style="stroke:#181818;stroke-width:1.0;"/><line style="stroke:#181818;stroke-width:1.0;" x1="408.5" x2="867.5" y1="521.7578" y2="521.7578"/><text fill="#000000" font-family="sans-serif" font-size="13" font-weight="bold" lengthAdjust="spacing" textLength="21" x="420.5" y="516.6919">[9]</text><text fill="#000000" font-family="sans-serif" font-size="13" lengthAdjust="spacing" textLength="421" x="445.5" y="516.6919">HTTP 201 &#1048;&#1085;&#1092;&#1086;&#1088;&#1084;&#1072;&#1094;&#1080;&#1103; &#1086; &#1089;&#1087;&#1086;&#1089;&#1086;&#1073;&#1077; &#1087;&#1086;&#1083;&#1091;&#1095;&#1077;&#1085;&#1080;&#1103; &#1079;&#1072;&#1082;&#1072;&#1079;&#1072; &#1086;&#1073;&#1085;&#1086;&#1074;&#1083;&#1077;&#1085;&#1072;</text><line style="stroke:#000000;stroke-width:1.0;stroke-dasharray:2.0,2.0;" x1="20" x2="1709" y1="560.7578" y2="560.7578"/><text fill="#000000" font-family="sans-serif" font-size="11" font-weight="bold" lengthAdjust="spacing" textLength="234" x="25" y="570.9683">[&#1089;&#1087;&#1086;&#1089;&#1086;&#1073; &#1087;&#1086;&#1083;&#1091;&#1095;&#1077;&#1085;&#1080;&#1103; &#1079;&#1072;&#1082;&#1072;&#1079;&#1072; &#1091;&#1082;&#1072;&#1079;&#1072;&#1085;]</text><polygon fill="#181818" points="71.5,591.6953,61.5,595.6953,71.5,599.6953,67.5,595.6953" style="stroke:#181818;stroke-width:1.0;"/><line style="stroke:#181818;stroke-width:1.0;" x1="65.5" x2="392.5" y1="595.6953" y2="595.6953"/><text fill="#000000" font-family="sans-serif" font-size="13" font-weight="bold" lengthAdjust="spacing" textLength="31" x="77.5" y="590.6294">[10]</text><text fill="#000000" font-family="sans-serif" font-size="13" lengthAdjust="spacing" textLength="274" x="112.5" y="590.6294">&#1087;&#1088;&#1077;&#1076;&#1083;&#1072;&#1075;&#1072;&#1077;&#1090; &#1074;&#1086;&#1081;&#1090;&#1080; &#1074; &#1089;&#1080;&#1089;&#1090;&#1077;&#1084;&#1091; &#1083;&#1086;&#1103;&#1083;&#1100;&#1085;&#1086;&#1089;&#1090;&#1080;</text><path d="M10,617.6953 L76,617.6953 L76,624.8281 L66,634.8281 L10,634.8281 L10,617.6953 " fill="#EEEEEE" style="stroke:#000000;stroke-width:1.5;"/><rect fill="none" height="399.1406" style="stroke:#000000;stroke-width:1.5;" width="1709" x="10" y="617.6953"/><text fill="#000000" font-family="sans-serif" font-size="13" font-weight="bold" lengthAdjust="spacing" textLength="21" x="25" y="630.7622">alt</text><text fill="#000000" font-family="sans-serif" font-size="11" font-weight="bold" lengthAdjust="spacing" textLength="196" x="91" y="629.9058">[&#1042;&#1093;&#1086;&#1076; &#1074; &#1089;&#1080;&#1089;&#1090;&#1077;&#1084;&#1091; &#1083;&#1086;&#1103;&#1083;&#1100;&#1085;&#1086;&#1089;&#1090;&#1080;]</text><path d="M20,641.8281 L98,641.8281 L98,648.9609 L88,658.9609 L20,658.9609 L20,641.8281 " fill="#EEEEEE" style="stroke:#000000;stroke-width:1.5;"/><rect fill="none" height="250.1953" style="stroke:#000000;stroke-width:1.5;" width="1689" x="20" y="641.8281"/><text fill="#000000" font-family="sans-serif" font-size="13" font-weight="bold" lengthAdjust="spacing" textLength="33" x="35" y="654.895">loop</text><text fill="#000000" font-family="sans-serif" font-size="11" font-weight="bold" lengthAdjust="spacing" textLength="49" x="113" y="654.0386">[max 3]</text><polygon fill="#181818" points="381.5,676.0938,391.5,680.0938,381.5,684.0938,385.5,680.0938" style="stroke:#181818;stroke-width:1.0;"/><line style="stroke:#181818;stroke-width:1.0;" x1="60.5" x2="387.5" y1="680.0938" y2="680.0938"/><text fill="#000000" font-family="sans-serif" font-size="13" font-weight="bold" lengthAdjust="spacing" textLength="30" x="67.5" y="675.0278">[11]</text><text fill="#000000" font-family="sans-serif" font-size="13" lengthAdjust="spacing" textLength="253" x="101.5" y="675.0278">&#1042;&#1099;&#1073;&#1080;&#1088;&#1072;&#1077;&#1090; &#1074;&#1093;&#1086;&#1076; &#1074; &#1089;&#1080;&#1089;&#1090;&#1077;&#1084;&#1091; &#1083;&#1086;&#1103;&#1083;&#1100;&#1085;&#1086;&#1089;&#1090;&#1080;</text><polygon fill="#181818" points="856.5,705.2266,866.5,709.2266,856.5,713.2266,860.5,709.2266" style="stroke:#181818;stroke-width:1.0;"/><line style="stroke:#181818;stroke-width:1.0;" x1="403.5" x2="862.5" y1="709.2266" y2="709.2266"/><text fill="#000000" font-family="sans-serif" font-size="13" font-weight="bold" lengthAdjust="spacing" textLength="30" x="410.5" y="704.1606">[12]</text><text fill="#000000" font-family="sans-serif" font-size="13" lengthAdjust="spacing" textLength="138" x="444.5" y="704.1606">HTTP POST auth/login</text><polygon fill="#181818" points="1377,734.3594,1387,738.3594,1377,742.3594,1381,738.3594" style="stroke:#181818;stroke-width:1.0;"/><line style="stroke:#181818;stroke-width:1.0;" x1="878.5" x2="1383" y1="738.3594" y2="738.3594"/><text fill="#000000" font-family="sans-serif" font-size="13" font-weight="bold" lengthAdjust="spacing" textLength="29" x="885.5" y="733.2935">[13]</text><text fill="#000000" font-family="sans-serif" font-size="13" lengthAdjust="spacing" textLength="173" x="918.5" y="733.2935">&#1072;&#1091;&#1090;&#1077;&#1085;&#1090;&#1080;&#1092;&#1080;&#1082;&#1072;&#1094;&#1080;&#1103; &#1082;&#1083;&#1080;&#1077;&#1085;&#1090;&#1072;</text><polygon fill="#181818" points="1664,763.4922,1674,767.4922,1664,771.4922,1668,767.4922" style="stroke:#181818;stroke-width:1.0;"/><line style="stroke:#181818;stroke-width:1.0;" x1="1399" x2="1670" y1="767.4922" y2="767.4922"/><text fill="#000000" font-family="sans-serif" font-size="13" font-weight="bold" lengthAdjust="spacing" textLength="30" x="1406" y="762.4263">[14]</text><text fill="#000000" font-family="sans-serif" font-size="13" lengthAdjust="spacing" textLength="224" x="1440" y="762.4263">&#1087;&#1088;&#1086;&#1074;&#1077;&#1088;&#1082;&#1072; &#1087;&#1086;&#1083;&#1100;&#1079;&#1086;&#1074;&#1072;&#1090;&#1077;&#1083;&#1103; &#1080; &#1087;&#1072;&#1088;&#1086;&#1083;&#1103;</text><polygon fill="#181818" points="1410,792.625,1400,796.625,1410,800.625,1406,796.625" style="stroke:#181818;stroke-width:1.0;"/><line style="stroke:#181818;stroke-width:1.0;stroke-dasharray:2.0,2.0;" x1="1404" x2="1680" y1="796.625" y2="796.625"/><text fill="#000000" font-family="sans-serif" font-size="13" font-weight="bold" lengthAdjust="spacing" textLength="30" x="1416" y="791.5591">[15]</text><text fill="#000000" font-family="sans-serif" font-size="13" lengthAdjust="spacing" textLength="39" x="1450" y="791.5591">&#1054;&#1090;&#1074;&#1077;&#1090;</text><polygon fill="#181818" points="889.5,821.7578,879.5,825.7578,889.5,829.7578,885.5,825.7578" style="stroke:#181818;stroke-width:1.0;"/><line style="stroke:#181818;stroke-width:1.0;" x1="883.5" x2="1393" y1="825.7578" y2="825.7578"/><text fill="#000000" font-family="sans-serif" font-size="13" font-weight="bold" lengthAdjust="spacing" textLength="30" x="895.5" y="820.6919">[16]</text><text fill="#000000" font-family="sans-serif" font-size="13" lengthAdjust="spacing" textLength="57" x="929.5" y="820.6919">&#1086;&#1090;&#1074;&#1077;&#1090; &#1086;&#1082;</text><polygon fill="#181818" points="414.5,850.8906,404.5,854.8906,414.5,858.8906,410.5,854.8906" style="stroke:#181818;stroke-width:1.0;"/><line style="stroke:#181818;stroke-width:1.0;" x1="408.5" x2="872.5" y1="854.8906" y2="854.8906"/><text fill="#000000" font-family="sans-serif" font-size="13" font-weight="bold" lengthAdjust="spacing" textLength="30" x="420.5" y="849.8247">[17]</text><text fill="#000000" font-family="sans-serif" font-size="13" lengthAdjust="spacing" textLength="323" x="454.5" y="849.8247">HTTP 200 &#1059;&#1089;&#1087;&#1077;&#1096;&#1085;&#1072;&#1103; &#1072;&#1091;&#1090;&#1077;&#1085;&#1090;&#1080;&#1092;&#1080;&#1082;&#1072;&#1094;&#1080;&#1103; JWT tocken</text><polygon fill="#181818" points="71.5,880.0234,61.5,884.0234,71.5,888.0234,67.5,884.0234" style="stroke:#181818;stroke-width:1.0;"/><line style="stroke:#181818;stroke-width:1.0;" x1="65.5" x2="397.5" y1="884.0234" y2="884.0234"/><text fill="#000000" font-family="sans-serif" font-size="13" font-weight="bold" lengthAdjust="spacing" textLength="30" x="77.5" y="878.9575">[18]</text><text fill="#000000" font-family="sans-serif" font-size="13" lengthAdjust="spacing" textLength="127" x="111.5" y="878.9575">&#1042;&#1099; &#1091;&#1089;&#1087;&#1077;&#1096;&#1085;&#1086; &#1074;&#1086;&#1096;&#1083;&#1080;</text><line style="stroke:#000000;stroke-width:1.0;stroke-dasharray:2.0,2.0;" x1="10" x2="1719" y1="900.0234" y2="900.0234"/><text fill="#000000" font-family="sans-serif" font-size="11" font-weight="bold" lengthAdjust="spacing" textLength="248" x="15" y="910.2339">[&#1056;&#1077;&#1075;&#1080;&#1089;&#1090;&#1088;&#1072;&#1094;&#1080;&#1103; &#1074; &#1089;&#1080;&#1089;&#1090;&#1077;&#1084;&#1077; &#1083;&#1086;&#1103;&#1083;&#1100;&#1085;&#1086;&#1089;&#1090;&#1080;]</text><rect fill="none" height="39.1016" style="stroke:#000000;stroke-width:1.5;" width="342" x="27" y="913.8281"/><path d="M27,913.8281 L95,913.8281 L95,920.8281 L85,930.8281 L27,930.8281 L27,913.8281 " fill="#EEEEEE" style="stroke:#000000;stroke-width:2.0;"/><text fill="#000000" font-family="sans-serif" font-size="13" font-weight="bold" lengthAdjust="spacing" textLength="23" x="40" y="927.895">ref</text><text fill="#000000" font-family="sans-serif" font-size="12" lengthAdjust="spacing" textLength="334" x="31" y="945.9668">&#1042;&#1099;&#1073;&#1080;&#1088;&#1072;&#1077;&#1090; &#1088;&#1077;&#1075;&#1080;&#1089;&#1090;&#1088;&#1072;&#1094;&#1080;&#1102; &#1074; &#1089;&#1080;&#1089;&#1090;&#1077;&#1084;&#1077; &#1083;&#1086;&#1103;&#1083;&#1100;&#1085;&#1086;&#1089;&#1090;&#1080; UC-2</text><line style="stroke:#000000;stroke-width:1.0;stroke-dasharray:2.0,2.0;" x1="10" x2="1719" y1="958.9297" y2="958.9297"/><text fill="#000000" font-family="sans-serif" font-size="11" font-weight="bold" lengthAdjust="spacing" textLength="382" x="15" y="969.1401">[&#1055;&#1088;&#1086;&#1087;&#1091;&#1089;&#1090;&#1080;&#1090;&#1100; &#1074;&#1093;&#1086;&#1076; &#1080; &#1088;&#1077;&#1075;&#1080;&#1089;&#1090;&#1088;&#1072;&#1094;&#1080;&#1102; &#1074; &#1089;&#1080;&#1089;&#1090;&#1077;&#1084;&#1077; &#1083;&#1086;&#1103;&#1083;&#1100;&#1085;&#1086;&#1089;&#1090;&#1080;]</text><rect fill="none" height="39.1016" style="stroke:#000000;stroke-width:1.5;" width="159" x="27" y="972.7344"/><path d="M27,972.7344 L95,972.7344 L95,979.7344 L85,989.7344 L27,989.7344 L27,972.7344 " fill="#EEEEEE" style="stroke:#000000;stroke-width:2.0;"/><text fill="#000000" font-family="sans-serif" font-size="13" font-weight="bold" lengthAdjust="spacing" textLength="23" x="40" y="986.8013">ref</text><text fill="#000000" font-family="sans-serif" font-size="12" lengthAdjust="spacing" textLength="151" x="31" y="1004.873">&#1055;&#1077;&#1088;&#1077;&#1093;&#1086;&#1076; &#1082; &#1086;&#1087;&#1083;&#1072;&#1090;&#1077; UC-6</text><!--SRC=[fLLDRzD04BtxLupCiKGjHU9GeKeKa80B5GHnG1pis6qjKZjo7LHkQLgW4X4LFI64A1z_m0sDC4dZ_8NTVyIRiPCuDBIDE2Ixziw-cNdpPcnLeY0aKtrIFPMeZkhhfadM5bMgdkj7XXria_gc4hsZcpWzLJ5ilwfK7QjKDqabfBvZzrPrLMpIbIYq_AsQ5V9LB95NyMgM7n6Pcu7jLLsoQZM1nmhikkzOuIio7zrzNAPRg_Vp8s_Yhga-mz-9tbKztI8i0zrGiMeZO8IBq0v8_S8BH80rLQU24eIE6vw7qy3jdrbYZAVV8Fqa2w0URHYE5LahrfPBvfqLUUlOXkix14AC3SznQIq88dw0TU3NDsqNBDwqbvyjF3SD8sEFIikSwDpS4e6ZFVmQO321mrOXP0CckINiZc2J8haELh6yIggjtwbZIRfFN2RIEse0j1sk0_4MAUsY25FuY0sh6X7UToPnPeCOHkXnBlVAvLLQVOYIpLV0xtnWHvRdU_uwsvLA-FVOMYeWkIS0EHLaGKSeHU-GrCN-FU0A82Cxji2o1Mi1E4ReHlNG9_K5CcNocePZ5w-CWqbp2aJ0x85a8vVWIWoBD_EaP-6haB7-eFeZp9oON192u-B2DL8VOJTKXmYHyT99aZeNEsMpleWdwumXRuPRXOvdIW1DacyHVbxzJDDWS22zSm8lCJeePkAWBG3-1eCO26tsDPeOUfSrc-e3RZkEJmuIRgPSBqOcqKFzcllpilUhGL2ZJMkRha_fjaDMEZ0Qe_1c0_-Nu7aqp5U3TSyV5HDln6KCDflP00N-7YJG7HUpEvwkN1RSAUXuK6ZvxhWRMZBDsW1Xs1x397mMYpcUfuX-Y8pWbWgwPcrqvN12XICDBf3w8Vhew7qM3liwBvy7JyiK1PKNhfzBx6-9W7zeg02PYaAmxMNiuWvFKovY9azyLCxCOmvZibxS1jFg5Rfh5Bn4m-QVhJC2c3RkzVjBmjEJswL5YHT-yd2pEJtW98KWcUaZbIN_v_1iFaUYZiuGlyiL7N07CWx7TsCSd-_y0G00]--></g></svg>