<?xml version="1.0" encoding="us-ascii" standalone="no"?><svg xmlns="http://www.w3.org/2000/svg" xmlns:xlink="http://www.w3.org/1999/xlink" contentStyleType="text/css" height="1468px" preserveAspectRatio="none" style="width:1478px;height:1468px;background:#FFFFFF;" version="1.1" viewBox="0 0 1478 1468" width="1478px" zoomAndPan="magnify"><defs/><g><rect fill="none" height="1456.9375" style="stroke:#181818;stroke-width:0.5;" width="964" x="374.5" y="6"/><text fill="#000000" font-family="sans-serif" font-size="13" font-weight="bold" lengthAdjust="spacing" textLength="199" x="754.5" y="18.0669">&#1057;&#1080;&#1089;&#1090;&#1077;&#1084;&#1072; "&#1056;&#1086;&#1073;&#1086;&#1090; &#1080; &#1058;&#1086;&#1095;&#1082;&#1072;"</text><rect fill="#FFFFFF" height="59.1328" style="stroke:#181818;stroke-width:1.0;" width="10" x="421.5" y="120.1563"/><rect fill="#FFFFFF" height="74.2656" style="stroke:#181818;stroke-width:1.0;" width="10" x="421.5" y="266.6875"/><rect fill="#FFFFFF" height="59.1328" style="stroke:#181818;stroke-width:1.0;" width="10" x="421.5" y="370.0859"/><rect fill="#FFFFFF" height="59.1328" style="stroke:#181818;stroke-width:1.0;" width="10" x="421.5" y="809.8125"/><rect fill="#FFFFFF" height="476.5625" style="stroke:#181818;stroke-width:1.0;" width="10" x="421.5" y="898.0781"/><rect fill="#FFFFFF" height="147.3984" style="stroke:#181818;stroke-width:1.0;" width="10" x="654.5" y="149.2891"/><rect fill="#FFFFFF" height="89.1328" style="stroke:#181818;stroke-width:1.0;" width="10" x="654.5" y="399.2188"/><rect fill="#FFFFFF" height="264.0625" style="stroke:#181818;stroke-width:1.0;" width="10" x="654.5" y="575.75"/><rect fill="#FFFFFF" height="29.1328" style="stroke:#181818;stroke-width:1.0;" width="10" x="654.5" y="927.2109"/><rect fill="#FFFFFF" height="97.2656" style="stroke:#181818;stroke-width:1.0;" width="10" x="654.5" y="1277.375"/><rect fill="#FFFFFF" height="292.7656" style="stroke:#181818;stroke-width:1.0;" width="10" x="808.5" y="1014.6094"/><rect fill="#FFFFFF" height="63.2656" style="stroke:#181818;stroke-width:1.0;" width="10" x="813.5" y="1081.7422"/><rect fill="#FFFFFF" height="29.1328" style="stroke:#181818;stroke-width:1.0;" width="10" x="1015.5" y="208.4219"/><rect fill="#FFFFFF" height="586.2578" style="stroke:#181818;stroke-width:1.0;" width="10" x="1015.5" y="458.3516"/><rect fill="#FFFFFF" height="112.5313" style="stroke:#181818;stroke-width:1.0;" width="10" x="1020.5" y="575.75"/><rect fill="#FFFFFF" height="63.2656" style="stroke:#181818;stroke-width:1.0;" width="10" x="1020.5" y="717.4141"/><rect fill="#FFFFFF" height="30" style="stroke:#181818;stroke-width:1.0;" width="10" x="1193.5" y="1174.1406"/><rect fill="#FFFFFF" height="29.1328" style="stroke:#181818;stroke-width:1.0;" width="10" x="1311.5" y="751.5469"/><rect fill="#FFFFFF" height="29.1328" style="stroke:#181818;stroke-width:1.0;" width="10" x="1311.5" y="1115.875"/><rect fill="#FFFFFF" height="29.1328" style="stroke:#181818;stroke-width:1.0;" width="10" x="1432.5" y="517.4844"/><rect fill="#FFFFFF" height="29.1328" style="stroke:#181818;stroke-width:1.0;" width="10" x="1432.5" y="644.1484"/><rect fill="none" height="90.5313" style="stroke:#000000;stroke-width:1.5;" width="497.5" x="975" y="590.75"/><line style="stroke:#181818;stroke-width:0.5;stroke-dasharray:5.0,5.0;" x1="35" x2="35" y1="89.0234" y2="1383.6406"/><line style="stroke:#181818;stroke-width:0.5;stroke-dasharray:5.0,5.0;" x1="426.5" x2="426.5" y1="89.0234" y2="1383.6406"/><line style="stroke:#181818;stroke-width:0.5;stroke-dasharray:5.0,5.0;" x1="659.5" x2="659.5" y1="89.0234" y2="1383.6406"/><line style="stroke:#181818;stroke-width:0.5;stroke-dasharray:5.0,5.0;" x1="813" x2="813" y1="89.0234" y2="1383.6406"/><line style="stroke:#181818;stroke-width:0.5;stroke-dasharray:5.0,5.0;" x1="1020" x2="1020" y1="89.0234" y2="1383.6406"/><line style="stroke:#181818;stroke-width:0.5;stroke-dasharray:5.0,5.0;" x1="1198" x2="1198" y1="89.0234" y2="1383.6406"/><line style="stroke:#181818;stroke-width:0.5;stroke-dasharray:5.0,5.0;" x1="1316.5" x2="1316.5" y1="89.0234" y2="1383.6406"/><line style="stroke:#181818;stroke-width:0.5;stroke-dasharray:5.0,5.0;" x1="1437.5" x2="1437.5" y1="89.0234" y2="1383.6406"/><text fill="#000000" font-family="sans-serif" font-size="14" lengthAdjust="spacing" textLength="55" x="5" y="85.7217">&#1050;&#1083;&#1080;&#1077;&#1085;&#1090;</text><ellipse cx="35.5" cy="21.2266" fill="#E2E2F0" rx="8" ry="8" style="stroke:#181818;stroke-width:0.5;"/><path d="M35.5,29.2266 L35.5,56.2266 M22.5,37.2266 L48.5,37.2266 M35.5,56.2266 L22.5,71.2266 M35.5,56.2266 L48.5,71.2266 " fill="none" style="stroke:#181818;stroke-width:0.5;"/><text fill="#000000" font-family="sans-serif" font-size="14" lengthAdjust="spacing" textLength="55" x="5" y="1395.6357">&#1050;&#1083;&#1080;&#1077;&#1085;&#1090;</text><ellipse cx="35.5" cy="1407.4375" fill="#E2E2F0" rx="8" ry="8" style="stroke:#181818;stroke-width:0.5;"/><path d="M35.5,1415.4375 L35.5,1442.4375 M22.5,1423.4375 L48.5,1423.4375 M35.5,1442.4375 L22.5,1457.4375 M35.5,1442.4375 L48.5,1457.4375 " fill="none" style="stroke:#181818;stroke-width:0.5;"/><rect fill="#E2E2F0" height="30.2969" rx="2.5" ry="2.5" style="stroke:#181818;stroke-width:0.5;" width="96" x="378.5" y="57.7266"/><text fill="#000000" font-family="sans-serif" font-size="14" lengthAdjust="spacing" textLength="82" x="385.5" y="77.7217">mobile app</text><rect fill="#E2E2F0" height="30.2969" rx="2.5" ry="2.5" style="stroke:#181818;stroke-width:0.5;" width="96" x="378.5" y="1382.6406"/><text fill="#000000" font-family="sans-serif" font-size="14" lengthAdjust="spacing" textLength="82" x="385.5" y="1402.6357">mobile app</text><text fill="#000000" font-family="sans-serif" font-size="14" lengthAdjust="spacing" textLength="64" x="624.5" y="85.7217">REST API</text><path d="M639,44.7266 L639,68.7266 M639,56.7266 L656,56.7266 " fill="none" style="stroke:#181818;stroke-width:0.5;"/><ellipse cx="668" cy="56.7266" fill="#E2E2F0" rx="12" ry="12" style="stroke:#181818;stroke-width:0.5;"/><text fill="#000000" font-family="sans-serif" font-size="14" lengthAdjust="spacing" textLength="64" x="624.5" y="1395.6357">REST API</text><path d="M639,1402.9375 L639,1426.9375 M639,1414.9375 L656,1414.9375 " fill="none" style="stroke:#181818;stroke-width:0.5;"/><ellipse cx="668" cy="1414.9375" fill="#E2E2F0" rx="12" ry="12" style="stroke:#181818;stroke-width:0.5;"/><rect fill="#E2E2F0" height="62.8906" rx="2.5" ry="2.5" style="stroke:#181818;stroke-width:0.5;" width="103" x="762" y="25.1328"/><text fill="#000000" font-family="sans-serif" font-size="14" lengthAdjust="spacing" textLength="57" x="785" y="45.1279">&#1052;&#1086;&#1076;&#1091;&#1083;&#1100;</text><text fill="#000000" font-family="sans-serif" font-size="14" lengthAdjust="spacing" textLength="89" x="769" y="61.4248">&#1091;&#1087;&#1088;&#1072;&#1074;&#1083;&#1077;&#1085;&#1080;&#1103;</text><text fill="#000000" font-family="sans-serif" font-size="14" lengthAdjust="spacing" textLength="61" x="783" y="77.7217">&#1079;&#1072;&#1082;&#1072;&#1079;&#1086;&#1084;</text><rect fill="#E2E2F0" height="62.8906" rx="2.5" ry="2.5" style="stroke:#181818;stroke-width:0.5;" width="103" x="762" y="1382.6406"/><text fill="#000000" font-family="sans-serif" font-size="14" lengthAdjust="spacing" textLength="57" x="785" y="1402.6357">&#1052;&#1086;&#1076;&#1091;&#1083;&#1100;</text><text fill="#000000" font-family="sans-serif" font-size="14" lengthAdjust="spacing" textLength="89" x="769" y="1418.9326">&#1091;&#1087;&#1088;&#1072;&#1074;&#1083;&#1077;&#1085;&#1080;&#1103;</text><text fill="#000000" font-family="sans-serif" font-size="14" lengthAdjust="spacing" textLength="61" x="783" y="1435.2295">&#1079;&#1072;&#1082;&#1072;&#1079;&#1086;&#1084;</text><rect fill="#E2E2F0" height="46.5938" rx="2.5" ry="2.5" style="stroke:#181818;stroke-width:0.5;" width="71" x="985" y="41.4297"/><text fill="#000000" font-family="sans-serif" font-size="14" lengthAdjust="spacing" textLength="57" x="992" y="61.4248">&#1052;&#1086;&#1076;&#1091;&#1083;&#1100;</text><text fill="#000000" font-family="sans-serif" font-size="14" lengthAdjust="spacing" textLength="55" x="993" y="77.7217">&#1086;&#1087;&#1083;&#1072;&#1090;&#1099;</text><rect fill="#E2E2F0" height="46.5938" rx="2.5" ry="2.5" style="stroke:#181818;stroke-width:0.5;" width="71" x="985" y="1382.6406"/><text fill="#000000" font-family="sans-serif" font-size="14" lengthAdjust="spacing" textLength="57" x="992" y="1402.6357">&#1052;&#1086;&#1076;&#1091;&#1083;&#1100;</text><text fill="#000000" font-family="sans-serif" font-size="14" lengthAdjust="spacing" textLength="55" x="993" y="1418.9326">&#1086;&#1087;&#1083;&#1072;&#1090;&#1099;</text><rect fill="#E2E2F0" height="62.8906" rx="2.5" ry="2.5" style="stroke:#181818;stroke-width:0.5;" width="103" x="1147" y="25.1328"/><text fill="#000000" font-family="sans-serif" font-size="14" lengthAdjust="spacing" textLength="57" x="1170" y="45.1279">&#1052;&#1086;&#1076;&#1091;&#1083;&#1100;</text><text fill="#000000" font-family="sans-serif" font-size="14" lengthAdjust="spacing" textLength="89" x="1154" y="61.4248">&#1091;&#1087;&#1088;&#1072;&#1074;&#1083;&#1077;&#1085;&#1080;&#1103;</text><text fill="#000000" font-family="sans-serif" font-size="14" lengthAdjust="spacing" textLength="74" x="1161.5" y="77.7217">&#1088;&#1086;&#1073;&#1086;&#1090;&#1072;&#1084;&#1080;</text><rect fill="#E2E2F0" height="62.8906" rx="2.5" ry="2.5" style="stroke:#181818;stroke-width:0.5;" width="103" x="1147" y="1382.6406"/><text fill="#000000" font-family="sans-serif" font-size="14" lengthAdjust="spacing" textLength="57" x="1170" y="1402.6357">&#1052;&#1086;&#1076;&#1091;&#1083;&#1100;</text><text fill="#000000" font-family="sans-serif" font-size="14" lengthAdjust="spacing" textLength="89" x="1154" y="1418.9326">&#1091;&#1087;&#1088;&#1072;&#1074;&#1083;&#1077;&#1085;&#1080;&#1103;</text><text fill="#000000" font-family="sans-serif" font-size="14" lengthAdjust="spacing" textLength="74" x="1161.5" y="1435.2295">&#1088;&#1086;&#1073;&#1086;&#1090;&#1072;&#1084;&#1080;</text><text fill="#000000" font-family="sans-serif" font-size="14" lengthAdjust="spacing" textLength="21" x="1303" y="85.7217">DB</text><path d="M1298.5,36.7266 C1298.5,26.7266 1316.5,26.7266 1316.5,26.7266 C1316.5,26.7266 1334.5,26.7266 1334.5,36.7266 L1334.5,62.7266 C1334.5,72.7266 1316.5,72.7266 1316.5,72.7266 C1316.5,72.7266 1298.5,72.7266 1298.5,62.7266 L1298.5,36.7266 " fill="#E2E2F0" style="stroke:#181818;stroke-width:1.5;"/><path d="M1298.5,36.7266 C1298.5,46.7266 1316.5,46.7266 1316.5,46.7266 C1316.5,46.7266 1334.5,46.7266 1334.5,36.7266 " fill="none" style="stroke:#181818;stroke-width:1.5;"/><text fill="#000000" font-family="sans-serif" font-size="14" lengthAdjust="spacing" textLength="21" x="1303" y="1395.6357">DB</text><path d="M1298.5,1408.9375 C1298.5,1398.9375 1316.5,1398.9375 1316.5,1398.9375 C1316.5,1398.9375 1334.5,1398.9375 1334.5,1408.9375 L1334.5,1434.9375 C1334.5,1444.9375 1316.5,1444.9375 1316.5,1444.9375 C1316.5,1444.9375 1298.5,1444.9375 1298.5,1434.9375 L1298.5,1408.9375 " fill="#E2E2F0" style="stroke:#181818;stroke-width:1.5;"/><path d="M1298.5,1408.9375 C1298.5,1418.9375 1316.5,1418.9375 1316.5,1418.9375 C1316.5,1418.9375 1334.5,1418.9375 1334.5,1408.9375 " fill="none" style="stroke:#181818;stroke-width:1.5;"/><rect fill="#E2E2F0" height="30.2969" rx="2.5" ry="2.5" style="stroke:#181818;stroke-width:0.5;" width="50" x="1412.5" y="57.7266"/><text fill="#000000" font-family="sans-serif" font-size="14" lengthAdjust="spacing" textLength="36" x="1419.5" y="77.7217">&#1041;&#1072;&#1085;&#1082;</text><rect fill="#E2E2F0" height="30.2969" rx="2.5" ry="2.5" style="stroke:#181818;stroke-width:0.5;" width="50" x="1412.5" y="1382.6406"/><text fill="#000000" font-family="sans-serif" font-size="14" lengthAdjust="spacing" textLength="36" x="1419.5" y="1402.6357">&#1041;&#1072;&#1085;&#1082;</text><rect fill="#FFFFFF" height="59.1328" style="stroke:#181818;stroke-width:1.0;" width="10" x="421.5" y="120.1563"/><rect fill="#FFFFFF" height="74.2656" style="stroke:#181818;stroke-width:1.0;" width="10" x="421.5" y="266.6875"/><rect fill="#FFFFFF" height="59.1328" style="stroke:#181818;stroke-width:1.0;" width="10" x="421.5" y="370.0859"/><rect fill="#FFFFFF" height="59.1328" style="stroke:#181818;stroke-width:1.0;" width="10" x="421.5" y="809.8125"/><rect fill="#FFFFFF" height="476.5625" style="stroke:#181818;stroke-width:1.0;" width="10" x="421.5" y="898.0781"/><rect fill="#FFFFFF" height="147.3984" style="stroke:#181818;stroke-width:1.0;" width="10" x="654.5" y="149.2891"/><rect fill="#FFFFFF" height="89.1328" style="stroke:#181818;stroke-width:1.0;" width="10" x="654.5" y="399.2188"/><rect fill="#FFFFFF" height="264.0625" style="stroke:#181818;stroke-width:1.0;" width="10" x="654.5" y="575.75"/><rect fill="#FFFFFF" height="29.1328" style="stroke:#181818;stroke-width:1.0;" width="10" x="654.5" y="927.2109"/><rect fill="#FFFFFF" height="97.2656" style="stroke:#181818;stroke-width:1.0;" width="10" x="654.5" y="1277.375"/><rect fill="#FFFFFF" height="292.7656" style="stroke:#181818;stroke-width:1.0;" width="10" x="808.5" y="1014.6094"/><rect fill="#FFFFFF" height="63.2656" style="stroke:#181818;stroke-width:1.0;" width="10" x="813.5" y="1081.7422"/><rect fill="#FFFFFF" height="29.1328" style="stroke:#181818;stroke-width:1.0;" width="10" x="1015.5" y="208.4219"/><rect fill="#FFFFFF" height="586.2578" style="stroke:#181818;stroke-width:1.0;" width="10" x="1015.5" y="458.3516"/><rect fill="#FFFFFF" height="112.5313" style="stroke:#181818;stroke-width:1.0;" width="10" x="1020.5" y="575.75"/><rect fill="#FFFFFF" height="63.2656" style="stroke:#181818;stroke-width:1.0;" width="10" x="1020.5" y="717.4141"/><rect fill="#FFFFFF" height="30" style="stroke:#181818;stroke-width:1.0;" width="10" x="1193.5" y="1174.1406"/><rect fill="#FFFFFF" height="29.1328" style="stroke:#181818;stroke-width:1.0;" width="10" x="1311.5" y="751.5469"/><rect fill="#FFFFFF" height="29.1328" style="stroke:#181818;stroke-width:1.0;" width="10" x="1311.5" y="1115.875"/><rect fill="#FFFFFF" height="29.1328" style="stroke:#181818;stroke-width:1.0;" width="10" x="1432.5" y="517.4844"/><rect fill="#FFFFFF" height="29.1328" style="stroke:#181818;stroke-width:1.0;" width="10" x="1432.5" y="644.1484"/><polygon fill="#181818" points="409.5,116.1563,419.5,120.1563,409.5,124.1563,413.5,120.1563" style="stroke:#181818;stroke-width:1.0;"/><line style="stroke:#181818;stroke-width:1.0;" x1="35.5" x2="415.5" y1="120.1563" y2="120.1563"/><text fill="#000000" font-family="sans-serif" font-size="13" font-weight="bold" lengthAdjust="spacing" textLength="21" x="42.5" y="115.0903">[1]</text><text fill="#000000" font-family="sans-serif" font-size="13" lengthAdjust="spacing" textLength="120" x="67.5" y="115.0903">&#1086;&#1087;&#1083;&#1072;&#1090;&#1072; &#1095;&#1077;&#1088;&#1077;&#1079; &#1057;&#1041;&#1055;</text><polygon fill="#181818" points="642.5,145.2891,652.5,149.2891,642.5,153.2891,646.5,149.2891" style="stroke:#181818;stroke-width:1.0;"/><line style="stroke:#181818;stroke-width:1.0;" x1="431.5" x2="648.5" y1="149.2891" y2="149.2891"/><text fill="#000000" font-family="sans-serif" font-size="13" font-weight="bold" lengthAdjust="spacing" textLength="21" x="438.5" y="144.2231">[2]</text><text fill="#000000" font-family="sans-serif" font-size="13" lengthAdjust="spacing" textLength="120" x="463.5" y="144.2231">&#1086;&#1087;&#1083;&#1072;&#1090;&#1072; &#1095;&#1077;&#1088;&#1077;&#1079; &#1057;&#1041;&#1055;</text><polygon fill="#181818" points="1003.5,204.4219,1013.5,208.4219,1003.5,212.4219,1007.5,208.4219" style="stroke:#181818;stroke-width:1.0;"/><line style="stroke:#181818;stroke-width:1.0;" x1="664.5" x2="1009.5" y1="208.4219" y2="208.4219"/><text fill="#000000" font-family="sans-serif" font-size="13" font-weight="bold" lengthAdjust="spacing" textLength="20" x="671.5" y="203.356">[3]</text><text fill="#000000" font-family="sans-serif" font-size="13" lengthAdjust="spacing" textLength="191" x="695.5" y="203.356">&#1047;&#1072;&#1087;&#1088;&#1086;&#1089; &#1085;&#1072; &#1086;&#1087;&#1083;&#1072;&#1090;&#1091; &#1095;&#1077;&#1088;&#1077;&#1079; &#1057;&#1041;&#1055;</text><polygon fill="#181818" points="675.5,233.5547,665.5,237.5547,675.5,241.5547,671.5,237.5547" style="stroke:#181818;stroke-width:1.0;"/><line style="stroke:#181818;stroke-width:1.0;" x1="669.5" x2="1019.5" y1="237.5547" y2="237.5547"/><text fill="#000000" font-family="sans-serif" font-size="13" font-weight="bold" lengthAdjust="spacing" textLength="21" x="681.5" y="232.4888">[4]</text><text fill="#000000" font-family="sans-serif" font-size="13" lengthAdjust="spacing" textLength="175" x="706.5" y="232.4888">&#1089;&#1087;&#1080;&#1089;&#1086;&#1082; &#1076;&#1086;&#1089;&#1090;&#1091;&#1087;&#1085;&#1099;&#1093; &#1073;&#1072;&#1085;&#1082;&#1086;&#1074;</text><polygon fill="#181818" points="442.5,262.6875,432.5,266.6875,442.5,270.6875,438.5,266.6875" style="stroke:#181818;stroke-width:1.0;"/><line style="stroke:#181818;stroke-width:1.0;" x1="436.5" x2="653.5" y1="266.6875" y2="266.6875"/><text fill="#000000" font-family="sans-serif" font-size="13" font-weight="bold" lengthAdjust="spacing" textLength="21" x="448.5" y="261.6216">[5]</text><text fill="#000000" font-family="sans-serif" font-size="13" lengthAdjust="spacing" textLength="149" x="473.5" y="261.6216">&#1079;&#1072;&#1087;&#1091;&#1089;&#1090;&#1080;&#1090;&#1100; &#1087;&#1083;&#1072;&#1075;&#1080;&#1085; &#1057;&#1041;&#1055;</text><polygon fill="#181818" points="46.5,336.9531,36.5,340.9531,46.5,344.9531,42.5,340.9531" style="stroke:#181818;stroke-width:1.0;"/><line style="stroke:#181818;stroke-width:1.0;" x1="40.5" x2="425.5" y1="340.9531" y2="340.9531"/><text fill="#000000" font-family="sans-serif" font-size="13" font-weight="bold" lengthAdjust="spacing" textLength="21" x="52.5" y="328.3208">[6]</text><text fill="#000000" font-family="sans-serif" font-size="13" lengthAdjust="spacing" textLength="123" x="77.5" y="320.7544">&#1087;&#1088;&#1077;&#1076;&#1083;&#1086;&#1078;&#1077;&#1085; &#1074;&#1099;&#1073;&#1086;&#1088;</text><text fill="#000000" font-family="sans-serif" font-size="13" lengthAdjust="spacing" textLength="131" x="77.5" y="335.8872">&#1073;&#1072;&#1085;&#1082;&#1086;&#1074; &#1076;&#1083;&#1103; &#1086;&#1087;&#1083;&#1072;&#1090;&#1099;</text><polygon fill="#181818" points="409.5,366.0859,419.5,370.0859,409.5,374.0859,413.5,370.0859" style="stroke:#181818;stroke-width:1.0;"/><line style="stroke:#181818;stroke-width:1.0;" x1="35.5" x2="415.5" y1="370.0859" y2="370.0859"/><text fill="#000000" font-family="sans-serif" font-size="13" font-weight="bold" lengthAdjust="spacing" textLength="21" x="42.5" y="365.02">[7]</text><text fill="#000000" font-family="sans-serif" font-size="13" lengthAdjust="spacing" textLength="86" x="67.5" y="365.02">&#1074;&#1099;&#1073;&#1088;&#1072;&#1083; &#1073;&#1072;&#1085;&#1082;</text><polygon fill="#181818" points="642.5,395.2188,652.5,399.2188,642.5,403.2188,646.5,399.2188" style="stroke:#181818;stroke-width:1.0;"/><line style="stroke:#181818;stroke-width:1.0;" x1="431.5" x2="648.5" y1="399.2188" y2="399.2188"/><text fill="#000000" font-family="sans-serif" font-size="13" font-weight="bold" lengthAdjust="spacing" textLength="21" x="438.5" y="394.1528">[8]</text><text fill="#000000" font-family="sans-serif" font-size="13" lengthAdjust="spacing" textLength="120" x="463.5" y="394.1528">&#1086;&#1087;&#1083;&#1072;&#1090;&#1072; &#1095;&#1077;&#1088;&#1077;&#1079; &#1057;&#1041;&#1055;</text><polygon fill="#181818" points="1003.5,454.3516,1013.5,458.3516,1003.5,462.3516,1007.5,458.3516" style="stroke:#181818;stroke-width:1.0;"/><line style="stroke:#181818;stroke-width:1.0;" x1="664.5" x2="1009.5" y1="458.3516" y2="458.3516"/><text fill="#000000" font-family="sans-serif" font-size="13" font-weight="bold" lengthAdjust="spacing" textLength="21" x="671.5" y="453.2856">[9]</text><text fill="#000000" font-family="sans-serif" font-size="13" lengthAdjust="spacing" textLength="85" x="696.5" y="453.2856">&#1073;&#1072;&#1085;&#1082; &#1074;&#1099;&#1073;&#1088;&#1072;&#1085;</text><polygon fill="#181818" points="1420.5,513.4844,1430.5,517.4844,1420.5,521.4844,1424.5,517.4844" style="stroke:#181818;stroke-width:1.0;"/><line style="stroke:#181818;stroke-width:1.0;" x1="1025.5" x2="1426.5" y1="517.4844" y2="517.4844"/><text fill="#000000" font-family="sans-serif" font-size="13" font-weight="bold" lengthAdjust="spacing" textLength="31" x="1032.5" y="512.4185">[10]</text><text fill="#000000" font-family="sans-serif" font-size="13" lengthAdjust="spacing" textLength="272" x="1067.5" y="512.4185">&#1088;&#1077;&#1075;&#1080;&#1089;&#1090;&#1088;&#1080;&#1088;&#1091;&#1077;&#1090; &#1079;&#1072;&#1087;&#1088;&#1086;&#1089; &#1085;&#1072; &#1087;&#1083;&#1072;&#1090;&#1105;&#1078; &#1074; &#1073;&#1072;&#1085;&#1082;&#1077;</text><polygon fill="#181818" points="1036.5,542.6172,1026.5,546.6172,1036.5,550.6172,1032.5,546.6172" style="stroke:#181818;stroke-width:1.0;"/><line style="stroke:#181818;stroke-width:1.0;" x1="1030.5" x2="1436.5" y1="546.6172" y2="546.6172"/><text fill="#000000" font-family="sans-serif" font-size="13" font-weight="bold" lengthAdjust="spacing" textLength="30" x="1042.5" y="541.5513">[11]</text><text fill="#000000" font-family="sans-serif" font-size="13" lengthAdjust="spacing" textLength="349" x="1076.5" y="541.5513">&#1074;&#1086;&#1079;&#1074;&#1088;&#1072;&#1097;&#1072;&#1077;&#1090; &#1076;&#1072;&#1085;&#1085;&#1099;&#1077; &#1079;&#1072;&#1088;&#1077;&#1075;&#1080;&#1089;&#1090;&#1088;&#1080;&#1088;&#1086;&#1074;&#1072;&#1085;&#1085;&#1086;&#1075;&#1086; &#1087;&#1083;&#1072;&#1090;&#1077;&#1078;&#1072;</text><polygon fill="#181818" points="675.5,571.75,665.5,575.75,675.5,579.75,671.5,575.75" style="stroke:#181818;stroke-width:1.0;"/><line style="stroke:#181818;stroke-width:1.0;" x1="669.5" x2="1019.5" y1="575.75" y2="575.75"/><text fill="#000000" font-family="sans-serif" font-size="13" font-weight="bold" lengthAdjust="spacing" textLength="30" x="681.5" y="570.6841">[12]</text><text fill="#000000" font-family="sans-serif" font-size="13" lengthAdjust="spacing" textLength="265" x="715.5" y="570.6841">&#1076;&#1072;&#1085;&#1085;&#1099;&#1077; &#1079;&#1072;&#1088;&#1077;&#1075;&#1080;&#1089;&#1090;&#1088;&#1080;&#1088;&#1086;&#1074;&#1072;&#1085;&#1085;&#1086;&#1075;&#1086; &#1087;&#1083;&#1072;&#1090;&#1077;&#1078;&#1072;</text><path d="M975,590.75 L1053,590.75 L1053,597.8828 L1043,607.8828 L975,607.8828 L975,590.75 " fill="#EEEEEE" style="stroke:#000000;stroke-width:1.5;"/><rect fill="none" height="90.5313" style="stroke:#000000;stroke-width:1.5;" width="497.5" x="975" y="590.75"/><text fill="#000000" font-family="sans-serif" font-size="13" font-weight="bold" lengthAdjust="spacing" textLength="33" x="990" y="603.8169">loop</text><text fill="#000000" font-family="sans-serif" font-size="11" font-weight="bold" lengthAdjust="spacing" textLength="195" x="1068" y="602.9604">[60 &#1089;&#1077;&#1082;&#1091;&#1085;&#1076; &#1082;&#1072;&#1078;&#1076;&#1091;&#1102; &#1089;&#1077;&#1082;&#1091;&#1085;&#1076;&#1091;]</text><polygon fill="#181818" points="1420.5,640.1484,1430.5,644.1484,1420.5,648.1484,1424.5,644.1484" style="stroke:#181818;stroke-width:1.0;"/><line style="stroke:#181818;stroke-width:1.0;" x1="1030.5" x2="1426.5" y1="644.1484" y2="644.1484"/><text fill="#000000" font-family="sans-serif" font-size="13" font-weight="bold" lengthAdjust="spacing" textLength="29" x="1037.5" y="631.5161">[13]</text><text fill="#000000" font-family="sans-serif" font-size="13" lengthAdjust="spacing" textLength="212" x="1070.5" y="623.9497">&#1079;&#1072;&#1087;&#1088;&#1086;&#1089; &#1087;&#1086;&#1076;&#1090;&#1074;&#1077;&#1088;&#1078;&#1076;&#1077;&#1085;&#1080;&#1103; &#1086;&#1087;&#1083;&#1072;&#1090;&#1099;</text><text fill="#000000" font-family="sans-serif" font-size="13" lengthAdjust="spacing" textLength="209" x="1070.5" y="639.0825">&#1079;&#1072;&#1088;&#1077;&#1075;&#1080;&#1089;&#1090;&#1088;&#1080;&#1088;&#1086;&#1074;&#1072;&#1085;&#1085;&#1086;&#1075;&#1086; &#1087;&#1083;&#1072;&#1090;&#1077;&#1078;&#1072;</text><polygon fill="#181818" points="1041.5,669.2813,1031.5,673.2813,1041.5,677.2813,1037.5,673.2813" style="stroke:#181818;stroke-width:1.0;"/><line style="stroke:#181818;stroke-width:1.0;" x1="1035.5" x2="1436.5" y1="673.2813" y2="673.2813"/><text fill="#000000" font-family="sans-serif" font-size="13" font-weight="bold" lengthAdjust="spacing" textLength="30" x="1047.5" y="668.2153">[14]</text><text fill="#000000" font-family="sans-serif" font-size="13" lengthAdjust="spacing" textLength="37" x="1081.5" y="668.2153">&#1086;&#1090;&#1074;&#1077;&#1090;</text><line style="stroke:#181818;stroke-width:1.0;" x1="1025.5" x2="1072.5" y1="704.4141" y2="704.4141"/><line style="stroke:#181818;stroke-width:1.0;" x1="1072.5" x2="1072.5" y1="704.4141" y2="717.4141"/><line style="stroke:#181818;stroke-width:1.0;" x1="1031.5" x2="1072.5" y1="717.4141" y2="717.4141"/><polygon fill="#181818" points="1041.5,713.4141,1031.5,717.4141,1041.5,721.4141,1037.5,717.4141" style="stroke:#181818;stroke-width:1.0;"/><text fill="#000000" font-family="sans-serif" font-size="13" font-weight="bold" lengthAdjust="spacing" textLength="30" x="1037.5" y="699.3481">[15]</text><text fill="#000000" font-family="sans-serif" font-size="13" lengthAdjust="spacing" textLength="120" x="1071.5" y="699.3481">&#1086;&#1073;&#1088;&#1072;&#1073;&#1086;&#1090;&#1082;&#1072; &#1086;&#1090;&#1074;&#1077;&#1090;&#1072;</text><polygon fill="#181818" points="1299.5,747.5469,1309.5,751.5469,1299.5,755.5469,1303.5,751.5469" style="stroke:#181818;stroke-width:1.0;"/><line style="stroke:#181818;stroke-width:1.0;" x1="1030.5" x2="1305.5" y1="751.5469" y2="751.5469"/><text fill="#000000" font-family="sans-serif" font-size="13" font-weight="bold" lengthAdjust="spacing" textLength="30" x="1037.5" y="746.481">[16]</text><text fill="#000000" font-family="sans-serif" font-size="13" lengthAdjust="spacing" textLength="45" x="1071.5" y="746.481">update</text><polygon fill="#181818" points="1036.5,776.6797,1026.5,780.6797,1036.5,784.6797,1032.5,780.6797" style="stroke:#181818;stroke-width:1.0;"/><line style="stroke:#181818;stroke-width:1.0;" x1="1030.5" x2="1315.5" y1="780.6797" y2="780.6797"/><text fill="#000000" font-family="sans-serif" font-size="13" font-weight="bold" lengthAdjust="spacing" textLength="30" x="1042.5" y="775.6138">[17]</text><text fill="#000000" font-family="sans-serif" font-size="13" lengthAdjust="spacing" textLength="37" x="1076.5" y="775.6138">&#1086;&#1090;&#1074;&#1077;&#1090;</text><polygon fill="#181818" points="442.5,805.8125,432.5,809.8125,442.5,813.8125,438.5,809.8125" style="stroke:#181818;stroke-width:1.0;"/><line style="stroke:#181818;stroke-width:1.0;" x1="436.5" x2="653.5" y1="809.8125" y2="809.8125"/><text fill="#000000" font-family="sans-serif" font-size="13" font-weight="bold" lengthAdjust="spacing" textLength="30" x="448.5" y="804.7466">[18]</text><text fill="#000000" font-family="sans-serif" font-size="13" lengthAdjust="spacing" textLength="170" x="482.5" y="804.7466">&#1074;&#1099;&#1079;&#1086;&#1074; &#1087;&#1088;&#1080;&#1083;&#1086;&#1078;&#1077;&#1085;&#1080;&#1103; &#1073;&#1072;&#1085;&#1082;&#1072;</text><polygon fill="#181818" points="46.5,864.9453,36.5,868.9453,46.5,872.9453,42.5,868.9453" style="stroke:#181818;stroke-width:1.0;"/><line style="stroke:#181818;stroke-width:1.0;" x1="40.5" x2="425.5" y1="868.9453" y2="868.9453"/><text fill="#000000" font-family="sans-serif" font-size="13" font-weight="bold" lengthAdjust="spacing" textLength="30" x="52.5" y="863.8794">[19]</text><text fill="#000000" font-family="sans-serif" font-size="13" lengthAdjust="spacing" textLength="328" x="86.5" y="863.8794">&#1087;&#1086;&#1082;&#1072;&#1079;&#1072;&#1090;&#1100; &#1092;&#1086;&#1088;&#1084;&#1091; &#1087;&#1086;&#1076;&#1090;&#1074;&#1077;&#1088;&#1078;&#1076;&#1077;&#1085;&#1080;&#1103; &#1087;&#1083;&#1072;&#1090;&#1077;&#1078;&#1072; &#1073;&#1072;&#1085;&#1082;&#1072;</text><polygon fill="#181818" points="409.5,894.0781,419.5,898.0781,409.5,902.0781,413.5,898.0781" style="stroke:#181818;stroke-width:1.0;"/><line style="stroke:#181818;stroke-width:1.0;" x1="35.5" x2="415.5" y1="898.0781" y2="898.0781"/><text fill="#000000" font-family="sans-serif" font-size="13" font-weight="bold" lengthAdjust="spacing" textLength="31" x="42.5" y="893.0122">[20]</text><text fill="#000000" font-family="sans-serif" font-size="13" lengthAdjust="spacing" textLength="221" x="77.5" y="893.0122">&#1086;&#1087;&#1083;&#1072;&#1095;&#1080;&#1074;&#1072;&#1077;&#1090; &#1074; &#1087;&#1088;&#1080;&#1083;&#1086;&#1078;&#1077;&#1085;&#1080;&#1080; &#1073;&#1072;&#1085;&#1082;&#1072;</text><polygon fill="#181818" points="675.5,923.2109,665.5,927.2109,675.5,931.2109,671.5,927.2109" style="stroke:#181818;stroke-width:1.0;"/><line style="stroke:#181818;stroke-width:1.0;" x1="669.5" x2="1014.5" y1="927.2109" y2="927.2109"/><text fill="#000000" font-family="sans-serif" font-size="13" font-weight="bold" lengthAdjust="spacing" textLength="30" x="681.5" y="922.145">[21]</text><text fill="#000000" font-family="sans-serif" font-size="13" lengthAdjust="spacing" textLength="98" x="715.5" y="922.145">&#1079;&#1072;&#1082;&#1072;&#1079; &#1086;&#1087;&#1083;&#1072;&#1095;&#1077;&#1085;</text><polygon fill="#181818" points="442.5,952.3438,432.5,956.3438,442.5,960.3438,438.5,956.3438" style="stroke:#181818;stroke-width:1.0;"/><line style="stroke:#181818;stroke-width:1.0;" x1="436.5" x2="658.5" y1="956.3438" y2="956.3438"/><text fill="#000000" font-family="sans-serif" font-size="13" font-weight="bold" lengthAdjust="spacing" textLength="30" x="448.5" y="951.2778">[22]</text><text fill="#000000" font-family="sans-serif" font-size="13" lengthAdjust="spacing" textLength="117" x="482.5" y="951.2778">&#1091;&#1089;&#1087;&#1077;&#1096;&#1085;&#1072;&#1103; &#1086;&#1087;&#1083;&#1072;&#1090;&#1072;</text><polygon fill="#181818" points="46.5,981.4766,36.5,985.4766,46.5,989.4766,42.5,985.4766" style="stroke:#181818;stroke-width:1.0;"/><line style="stroke:#181818;stroke-width:1.0;" x1="40.5" x2="420.5" y1="985.4766" y2="985.4766"/><text fill="#000000" font-family="sans-serif" font-size="13" font-weight="bold" lengthAdjust="spacing" textLength="29" x="52.5" y="980.4106">[23]</text><text fill="#000000" font-family="sans-serif" font-size="13" lengthAdjust="spacing" textLength="117" x="85.5" y="980.4106">&#1091;&#1089;&#1087;&#1077;&#1096;&#1085;&#1072;&#1103; &#1086;&#1087;&#1083;&#1072;&#1090;&#1072;</text><polygon fill="#181818" points="829.5,1010.6094,819.5,1014.6094,829.5,1018.6094,825.5,1014.6094" style="stroke:#181818;stroke-width:1.0;"/><line style="stroke:#181818;stroke-width:1.0;" x1="823.5" x2="1014.5" y1="1014.6094" y2="1014.6094"/><text fill="#000000" font-family="sans-serif" font-size="13" font-weight="bold" lengthAdjust="spacing" textLength="30" x="835.5" y="1009.5435">[24]</text><text fill="#000000" font-family="sans-serif" font-size="13" lengthAdjust="spacing" textLength="98" x="869.5" y="1009.5435">&#1079;&#1072;&#1082;&#1072;&#1079; &#1086;&#1087;&#1083;&#1072;&#1095;&#1077;&#1085;</text><line style="stroke:#181818;stroke-width:1.0;" x1="818.5" x2="865.5" y1="1068.7422" y2="1068.7422"/><line style="stroke:#181818;stroke-width:1.0;" x1="865.5" x2="865.5" y1="1068.7422" y2="1081.7422"/><line style="stroke:#181818;stroke-width:1.0;" x1="824.5" x2="865.5" y1="1081.7422" y2="1081.7422"/><polygon fill="#181818" points="834.5,1077.7422,824.5,1081.7422,834.5,1085.7422,830.5,1081.7422" style="stroke:#181818;stroke-width:1.0;"/><text fill="#000000" font-family="sans-serif" font-size="13" font-weight="bold" lengthAdjust="spacing" textLength="30" x="830.5" y="1063.6763">[25]</text><text fill="#000000" font-family="sans-serif" font-size="13" lengthAdjust="spacing" textLength="149" x="864.5" y="1063.6763">&#1086;&#1073;&#1088;&#1072;&#1073;&#1086;&#1090;&#1082;&#1072; &#1089;&#1086;&#1086;&#1073;&#1097;&#1077;&#1085;&#1080;&#1103;</text><polygon fill="#181818" points="1299.5,1111.875,1309.5,1115.875,1299.5,1119.875,1303.5,1115.875" style="stroke:#181818;stroke-width:1.0;"/><line style="stroke:#181818;stroke-width:1.0;" x1="823.5" x2="1305.5" y1="1115.875" y2="1115.875"/><text fill="#000000" font-family="sans-serif" font-size="13" font-weight="bold" lengthAdjust="spacing" textLength="30" x="830.5" y="1110.8091">[26]</text><text fill="#000000" font-family="sans-serif" font-size="13" lengthAdjust="spacing" textLength="45" x="864.5" y="1110.8091">update</text><polygon fill="#181818" points="829.5,1141.0078,819.5,1145.0078,829.5,1149.0078,825.5,1145.0078" style="stroke:#181818;stroke-width:1.0;"/><line style="stroke:#181818;stroke-width:1.0;stroke-dasharray:2.0,2.0;" x1="823.5" x2="1315.5" y1="1145.0078" y2="1145.0078"/><text fill="#000000" font-family="sans-serif" font-size="13" font-weight="bold" lengthAdjust="spacing" textLength="30" x="835.5" y="1139.9419">[27]</text><text fill="#000000" font-family="sans-serif" font-size="13" lengthAdjust="spacing" textLength="37" x="869.5" y="1139.9419">&#1086;&#1090;&#1074;&#1077;&#1090;</text><polygon fill="#181818" points="1181.5,1170.1406,1191.5,1174.1406,1181.5,1178.1406,1185.5,1174.1406" style="stroke:#181818;stroke-width:1.0;"/><line style="stroke:#181818;stroke-width:1.0;" x1="818.5" x2="1187.5" y1="1174.1406" y2="1174.1406"/><text fill="#000000" font-family="sans-serif" font-size="13" font-weight="bold" lengthAdjust="spacing" textLength="30" x="825.5" y="1169.0747">[28]</text><text fill="#000000" font-family="sans-serif" font-size="13" lengthAdjust="spacing" textLength="155" x="859.5" y="1169.0747">&#1079;&#1072;&#1082;&#1072;&#1079; &#1085;&#1072; &#1087;&#1088;&#1086;&#1080;&#1079;&#1074;&#1086;&#1076;&#1089;&#1090;&#1074;&#1086;</text><rect fill="none" height="39.1016" style="stroke:#000000;stroke-width:1.5;" width="217" x="1144" y="1212.1406"/><path d="M1144,1212.1406 L1212,1212.1406 L1212,1219.1406 L1202,1229.1406 L1144,1229.1406 L1144,1212.1406 " fill="#EEEEEE" style="stroke:#000000;stroke-width:2.0;"/><text fill="#000000" font-family="sans-serif" font-size="13" font-weight="bold" lengthAdjust="spacing" textLength="23" x="1157" y="1226.2075">ref</text><text fill="#000000" font-family="sans-serif" font-size="12" lengthAdjust="spacing" textLength="209" x="1148" y="1244.2793">&#1060;&#1086;&#1088;&#1084;&#1080;&#1088;&#1091;&#1077;&#1084; &#1079;&#1072;&#1076;&#1072;&#1095;&#1091; &#1076;&#1083;&#1103; &#1088;&#1086;&#1073;&#1086;&#1090;&#1086;&#1074;</text><polygon fill="#181818" points="675.5,1273.375,665.5,1277.375,675.5,1281.375,671.5,1277.375" style="stroke:#181818;stroke-width:1.0;"/><line style="stroke:#181818;stroke-width:1.0;" x1="669.5" x2="807.5" y1="1277.375" y2="1277.375"/><text fill="#000000" font-family="sans-serif" font-size="13" font-weight="bold" lengthAdjust="spacing" textLength="30" x="681.5" y="1272.3091">[29]</text><text fill="#000000" font-family="sans-serif" font-size="13" lengthAdjust="spacing" textLength="91" x="715.5" y="1272.3091">&#1085;&#1086;&#1084;&#1077;&#1088; &#1079;&#1072;&#1082;&#1072;&#1079;&#1072;</text><polygon fill="#181818" points="442.5,1332.5078,432.5,1336.5078,442.5,1340.5078,438.5,1336.5078" style="stroke:#181818;stroke-width:1.0;"/><line style="stroke:#181818;stroke-width:1.0;" x1="436.5" x2="653.5" y1="1336.5078" y2="1336.5078"/><text fill="#000000" font-family="sans-serif" font-size="13" font-weight="bold" lengthAdjust="spacing" textLength="30" x="448.5" y="1331.4419">[30]</text><text fill="#000000" font-family="sans-serif" font-size="13" lengthAdjust="spacing" textLength="91" x="482.5" y="1331.4419">&#1085;&#1086;&#1084;&#1077;&#1088; &#1079;&#1072;&#1082;&#1072;&#1079;&#1072;</text><polygon fill="#181818" points="46.5,1361.6406,36.5,1365.6406,46.5,1369.6406,42.5,1365.6406" style="stroke:#181818;stroke-width:1.0;"/><line style="stroke:#181818;stroke-width:1.0;" x1="40.5" x2="420.5" y1="1365.6406" y2="1365.6406"/><text fill="#000000" font-family="sans-serif" font-size="13" font-weight="bold" lengthAdjust="spacing" textLength="29" x="52.5" y="1360.5747">[31]</text><text fill="#000000" font-family="sans-serif" font-size="13" lengthAdjust="spacing" textLength="91" x="85.5" y="1360.5747">&#1085;&#1086;&#1084;&#1077;&#1088; &#1079;&#1072;&#1082;&#1072;&#1079;&#1072;</text><!--SRC=[hLNBRjDG4DtxAwx2ighK5OiALQA21Ji4x2WBEpPIHEf4ReBehab0fMf5rHKIGk8XFi2aSMBbuVp2t3_Yp5pVnaxIY5SMiNKzSsRcp9cvRhNLY5I5Fj64KafefhiLvHwfQhqMX2t7QxnHz8rItT5TV9rI3DklbD5FodHNKQheEzvEQKnnHTrfHMvur7GZTiMZLQlMccxOKgfosF1gzK2vpQR0umdiTkYxqR6gF7duz9cw__XH_gbMygtGPyGRw1vDzCL1YETSdr1CVMICV97RvK588vmW1pmpcWfE8_A3Q1CItkV0Y7LNduj7qpt-yyWuoTd0bocbWXHLexhZkorttpqALEN1lfpwdXE4lWAdIs6ku3gZiHXvRlZASTkjHjW-z0AqvfwtztpdHSLn7DCJjRt7z6rjxQf51UWBcf0WcOH6tB4h-kB0oXZNVizuUnl_DNO14-Bo4ObnpPdkA6GO5q1qRmq8_FA8kqftO0hXm6MiQC0Ox8N3cJxNxnH8awhnlS-EY-Yskf54xudsKlXUA1EShY7LsIBnchXAhOOY-CubiG7CCnfojnJrzRaqwWIjByJct2RwibZQUSx6Ak628IAOt1Jm7tZEaOhuixomd5AM1PiAsBKPIBod-WIK9ZoAevLUsNAkQAYuJbjquZ1Q7f-BGieZX4POVGORWHk8CLf5YM2l1cRoZ17UhYcx2GZ38SKIP560PUVVSPrwez5KTtTOOGcDKV-C1agcVyZJgZ-KlkYU8pGlCracR2wJtaLaxXTmx8INT64MpTzHiU0xo-DqBKNO2la4s2IjCB9S3MR1Z6K2hJTmSslVO-Ds4nidS7nlNIG3xtiS0x-bIMFPZSmmC2FfOcmC1LOvyMtJnaCkspUMETLlUSveYYMnYTaIIUKewyVFjk8KAVQjKjSbpHVJ0cv9WZTtHH4mCHENHyEWzMI19Vez3rD91xVHiDd5PY7tqkOySYs8PTbbLG-oOFdupFAwy2lf8WfQxIWiQaBK8CRsoKvyTosdPzQ9w3pbLI4jxGXG1k2Ngl4QpdBhqG_JUhkQQ6gG1bmTwy5isyAroVkVxqNWE0nHJCQsZETgoW8gf0LERVAbpjrcl2pQzMQ_0000]--></g></svg>