<?xml version="1.0" encoding="us-ascii" standalone="no"?><svg xmlns="http://www.w3.org/2000/svg" xmlns:xlink="http://www.w3.org/1999/xlink" contentStyleType="text/css" height="1111px" preserveAspectRatio="none" style="width:1067px;height:1111px;background:#FFFFFF;" version="1.1" viewBox="0 0 1067 1111" width="1067px" zoomAndPan="magnify"><defs/><g><rect fill="none" height="1092.1563" style="stroke:#181818;stroke-width:0.5;" width="771" x="283.5" y="6"/><text fill="#000000" font-family="sans-serif" font-size="13" font-weight="bold" lengthAdjust="spacing" textLength="199" x="567" y="18.0669">&#1057;&#1080;&#1089;&#1090;&#1077;&#1084;&#1072; "&#1056;&#1086;&#1073;&#1086;&#1090; &#1080; &#1058;&#1086;&#1095;&#1082;&#1072;"</text><rect fill="#FFFFFF" height="59.1328" style="stroke:#181818;stroke-width:1.0;" width="10" x="330.5" y="118.5625"/><rect fill="#FFFFFF" height="59.1328" style="stroke:#181818;stroke-width:1.0;" width="10" x="330.5" y="407.4922"/><rect fill="#FFFFFF" height="161.2656" style="stroke:#181818;stroke-width:1.0;" width="10" x="330.5" y="699.2266"/><rect fill="#FFFFFF" height="28" style="stroke:#181818;stroke-width:1.0;" width="10" x="335.5" y="766.3594"/><rect fill="#FFFFFF" height="75.1328" style="stroke:#181818;stroke-width:1.0;" width="10" x="330.5" y="1020.0234"/><rect fill="#FFFFFF" height="89.1328" style="stroke:#181818;stroke-width:1.0;" width="10" x="534.5" y="147.6953"/><rect fill="#FFFFFF" height="89.1328" style="stroke:#181818;stroke-width:1.0;" width="10" x="534.5" y="348.3594"/><rect fill="#FFFFFF" height="89.1328" style="stroke:#181818;stroke-width:1.0;" width="10" x="534.5" y="640.0938"/><rect fill="#FFFFFF" height="219.5313" style="stroke:#181818;stroke-width:1.0;" width="10" x="534.5" y="830.4922"/><rect fill="#FFFFFF" height="171.5313" style="stroke:#181818;stroke-width:1.0;" width="10" x="808.5" y="206.8281"/><rect fill="#FFFFFF" height="159.5313" style="stroke:#181818;stroke-width:1.0;" width="10" x="808.5" y="510.5625"/><rect fill="#FFFFFF" height="63.2656" style="stroke:#181818;stroke-width:1.0;" width="10" x="813.5" y="547.6953"/><rect fill="#FFFFFF" height="101.2656" style="stroke:#181818;stroke-width:1.0;" width="10" x="808.5" y="889.625"/><rect fill="#FFFFFF" height="28" style="stroke:#181818;stroke-width:1.0;" width="10" x="813.5" y="926.7578"/><rect fill="#FFFFFF" height="53.2656" style="stroke:#181818;stroke-width:1.0;" width="10" x="1027.5" y="265.9609"/><rect fill="#FFFFFF" height="144.3359" style="stroke:#181818;stroke-width:1.0;" width="10" x="1027.5" y="466.625"/><rect fill="none" height="806.1953" style="stroke:#000000;stroke-width:1.5;" width="1050.5" x="10" y="280.9609"/><line style="stroke:#181818;stroke-width:0.5;stroke-dasharray:5.0,5.0;" x1="50" x2="50" y1="87.4297" y2="1104.1563"/><line style="stroke:#181818;stroke-width:0.5;stroke-dasharray:5.0,5.0;" x1="335.5" x2="335.5" y1="87.4297" y2="1104.1563"/><line style="stroke:#181818;stroke-width:0.5;stroke-dasharray:5.0,5.0;" x1="539.5" x2="539.5" y1="87.4297" y2="1104.1563"/><line style="stroke:#181818;stroke-width:0.5;stroke-dasharray:5.0,5.0;" x1="813.5" x2="813.5" y1="87.4297" y2="1104.1563"/><line style="stroke:#181818;stroke-width:0.5;stroke-dasharray:5.0,5.0;" x1="1032.5" x2="1032.5" y1="87.4297" y2="1104.1563"/><text fill="#000000" font-family="sans-serif" font-size="14" lengthAdjust="spacing" textLength="55" x="20" y="84.1279">&#1050;&#1083;&#1080;&#1077;&#1085;&#1090;</text><ellipse cx="50.5" cy="19.6328" fill="#E2E2F0" rx="8" ry="8" style="stroke:#181818;stroke-width:0.5;"/><path d="M50.5,27.6328 L50.5,54.6328 M37.5,35.6328 L63.5,35.6328 M50.5,54.6328 L37.5,69.6328 M50.5,54.6328 L63.5,69.6328 " fill="none" style="stroke:#181818;stroke-width:0.5;"/><rect fill="#E2E2F0" height="30.2969" rx="2.5" ry="2.5" style="stroke:#181818;stroke-width:0.5;" width="96" x="287.5" y="56.1328"/><text fill="#000000" font-family="sans-serif" font-size="14" lengthAdjust="spacing" textLength="82" x="294.5" y="76.1279">mobile app</text><text fill="#000000" font-family="sans-serif" font-size="14" lengthAdjust="spacing" textLength="64" x="504.5" y="84.1279">REST API</text><path d="M519,43.1328 L519,67.1328 M519,55.1328 L536,55.1328 " fill="none" style="stroke:#181818;stroke-width:0.5;"/><ellipse cx="548" cy="55.1328" fill="#E2E2F0" rx="12" ry="12" style="stroke:#181818;stroke-width:0.5;"/><rect fill="#E2E2F0" height="30.2969" rx="2.5" ry="2.5" style="stroke:#181818;stroke-width:0.5;" width="174" x="726.5" y="56.1328"/><text fill="#000000" font-family="sans-serif" font-size="14" lengthAdjust="spacing" textLength="160" x="733.5" y="76.1279">&#1052;&#1086;&#1076;&#1091;&#1083;&#1100; &#1088;&#1077;&#1075;&#1080;&#1089;&#1090;&#1088;&#1072;&#1094;&#1080;&#1080;</text><text fill="#000000" font-family="sans-serif" font-size="14" lengthAdjust="spacing" textLength="21" x="1019" y="84.1279">DB</text><path d="M1014.5,35.1328 C1014.5,25.1328 1032.5,25.1328 1032.5,25.1328 C1032.5,25.1328 1050.5,25.1328 1050.5,35.1328 L1050.5,61.1328 C1050.5,71.1328 1032.5,71.1328 1032.5,71.1328 C1032.5,71.1328 1014.5,71.1328 1014.5,61.1328 L1014.5,35.1328 " fill="#E2E2F0" style="stroke:#181818;stroke-width:1.5;"/><path d="M1014.5,35.1328 C1014.5,45.1328 1032.5,45.1328 1032.5,45.1328 C1032.5,45.1328 1050.5,45.1328 1050.5,35.1328 " fill="none" style="stroke:#181818;stroke-width:1.5;"/><rect fill="#FFFFFF" height="59.1328" style="stroke:#181818;stroke-width:1.0;" width="10" x="330.5" y="118.5625"/><rect fill="#FFFFFF" height="59.1328" style="stroke:#181818;stroke-width:1.0;" width="10" x="330.5" y="407.4922"/><rect fill="#FFFFFF" height="161.2656" style="stroke:#181818;stroke-width:1.0;" width="10" x="330.5" y="699.2266"/><rect fill="#FFFFFF" height="28" style="stroke:#181818;stroke-width:1.0;" width="10" x="335.5" y="766.3594"/><rect fill="#FFFFFF" height="75.1328" style="stroke:#181818;stroke-width:1.0;" width="10" x="330.5" y="1020.0234"/><rect fill="#FFFFFF" height="89.1328" style="stroke:#181818;stroke-width:1.0;" width="10" x="534.5" y="147.6953"/><rect fill="#FFFFFF" height="89.1328" style="stroke:#181818;stroke-width:1.0;" width="10" x="534.5" y="348.3594"/><rect fill="#FFFFFF" height="89.1328" style="stroke:#181818;stroke-width:1.0;" width="10" x="534.5" y="640.0938"/><rect fill="#FFFFFF" height="219.5313" style="stroke:#181818;stroke-width:1.0;" width="10" x="534.5" y="830.4922"/><rect fill="#FFFFFF" height="171.5313" style="stroke:#181818;stroke-width:1.0;" width="10" x="808.5" y="206.8281"/><rect fill="#FFFFFF" height="159.5313" style="stroke:#181818;stroke-width:1.0;" width="10" x="808.5" y="510.5625"/><rect fill="#FFFFFF" height="63.2656" style="stroke:#181818;stroke-width:1.0;" width="10" x="813.5" y="547.6953"/><rect fill="#FFFFFF" height="101.2656" style="stroke:#181818;stroke-width:1.0;" width="10" x="808.5" y="889.625"/><rect fill="#FFFFFF" height="28" style="stroke:#181818;stroke-width:1.0;" width="10" x="813.5" y="926.7578"/><rect fill="#FFFFFF" height="53.2656" style="stroke:#181818;stroke-width:1.0;" width="10" x="1027.5" y="265.9609"/><rect fill="#FFFFFF" height="144.3359" style="stroke:#181818;stroke-width:1.0;" width="10" x="1027.5" y="466.625"/><polygon fill="#181818" points="318.5,114.5625,328.5,118.5625,318.5,122.5625,322.5,118.5625" style="stroke:#181818;stroke-width:1.0;"/><line style="stroke:#181818;stroke-width:1.0;" x1="50.5" x2="324.5" y1="118.5625" y2="118.5625"/><text fill="#000000" font-family="sans-serif" font-size="13" font-weight="bold" lengthAdjust="spacing" textLength="21" x="57.5" y="113.4966">[1]</text><text fill="#000000" font-family="sans-serif" font-size="13" lengthAdjust="spacing" textLength="85" x="82.5" y="113.4966">&#1056;&#1077;&#1075;&#1080;&#1089;&#1090;&#1088;&#1072;&#1094;&#1080;&#1103;</text><polygon fill="#181818" points="522.5,143.6953,532.5,147.6953,522.5,151.6953,526.5,147.6953" style="stroke:#181818;stroke-width:1.0;"/><line style="stroke:#181818;stroke-width:1.0;" x1="340.5" x2="528.5" y1="147.6953" y2="147.6953"/><text fill="#000000" font-family="sans-serif" font-size="13" font-weight="bold" lengthAdjust="spacing" textLength="21" x="347.5" y="142.6294">[2]</text><text fill="#000000" font-family="sans-serif" font-size="13" lengthAdjust="spacing" textLength="103" x="372.5" y="142.6294">HTTP POST/user</text><polygon fill="#181818" points="796.5,202.8281,806.5,206.8281,796.5,210.8281,800.5,206.8281" style="stroke:#181818;stroke-width:1.0;"/><line style="stroke:#181818;stroke-width:1.0;" x1="544.5" x2="802.5" y1="206.8281" y2="206.8281"/><text fill="#000000" font-family="sans-serif" font-size="13" font-weight="bold" lengthAdjust="spacing" textLength="20" x="551.5" y="201.7622">[3]</text><text fill="#000000" font-family="sans-serif" font-size="13" lengthAdjust="spacing" textLength="201" x="575.5" y="201.7622">&#1089;&#1086;&#1079;&#1076;&#1072;&#1090;&#1100; &#1085;&#1086;&#1074;&#1086;&#1075;&#1086; &#1087;&#1086;&#1083;&#1100;&#1079;&#1086;&#1074;&#1072;&#1090;&#1077;&#1083;&#1103;</text><polygon fill="#181818" points="1015.5,261.9609,1025.5,265.9609,1015.5,269.9609,1019.5,265.9609" style="stroke:#181818;stroke-width:1.0;"/><line style="stroke:#181818;stroke-width:1.0;" x1="818.5" x2="1021.5" y1="265.9609" y2="265.9609"/><text fill="#000000" font-family="sans-serif" font-size="13" font-weight="bold" lengthAdjust="spacing" textLength="21" x="825.5" y="260.895">[4]</text><text fill="#000000" font-family="sans-serif" font-size="13" lengthAdjust="spacing" textLength="165" x="850.5" y="260.895">&#1079;&#1072;&#1087;&#1088;&#1086;&#1089; &#1087;&#1088;&#1086;&#1074;&#1077;&#1088;&#1082;&#1072; &#1083;&#1086;&#1075;&#1080;&#1085;&#1072;</text><path d="M10,280.9609 L76,280.9609 L76,288.0938 L66,298.0938 L10,298.0938 L10,280.9609 " fill="#EEEEEE" style="stroke:#000000;stroke-width:1.5;"/><rect fill="none" height="806.1953" style="stroke:#000000;stroke-width:1.5;" width="1050.5" x="10" y="280.9609"/><text fill="#000000" font-family="sans-serif" font-size="13" font-weight="bold" lengthAdjust="spacing" textLength="21" x="25" y="294.0278">alt</text><text fill="#000000" font-family="sans-serif" font-size="11" font-weight="bold" lengthAdjust="spacing" textLength="275" x="91" y="293.1714">[&#1055;&#1086;&#1083;&#1100;&#1079;&#1086;&#1074;&#1072;&#1090;&#1077;&#1083;&#1100; &#1089; &#1090;&#1072;&#1082;&#1080;&#1084; &#1083;&#1086;&#1075;&#1080;&#1085;&#1086;&#1084; &#1085;&#1072;&#1081;&#1076;&#1077;&#1085;]</text><polygon fill="#181818" points="829.5,315.2266,819.5,319.2266,829.5,323.2266,825.5,319.2266" style="stroke:#181818;stroke-width:1.0;"/><line style="stroke:#181818;stroke-width:1.0;" x1="823.5" x2="1031.5" y1="319.2266" y2="319.2266"/><text fill="#000000" font-family="sans-serif" font-size="13" font-weight="bold" lengthAdjust="spacing" textLength="21" x="835.5" y="314.1606">[5]</text><text fill="#000000" font-family="sans-serif" font-size="13" lengthAdjust="spacing" textLength="39" x="860.5" y="314.1606">&#1054;&#1090;&#1074;&#1077;&#1090;</text><polygon fill="#181818" points="555.5,344.3594,545.5,348.3594,555.5,352.3594,551.5,348.3594" style="stroke:#181818;stroke-width:1.0;"/><line style="stroke:#181818;stroke-width:1.0;" x1="549.5" x2="807.5" y1="348.3594" y2="348.3594"/><text fill="#000000" font-family="sans-serif" font-size="13" font-weight="bold" lengthAdjust="spacing" textLength="21" x="561.5" y="343.2935">[6]</text><text fill="#000000" font-family="sans-serif" font-size="13" lengthAdjust="spacing" textLength="169" x="586.5" y="343.2935">&#1045;&#1089;&#1090;&#1100; &#1090;&#1072;&#1082;&#1086;&#1081; &#1087;&#1086;&#1083;&#1100;&#1079;&#1086;&#1074;&#1072;&#1090;&#1077;&#1083;&#1100;</text><polygon fill="#181818" points="351.5,403.4922,341.5,407.4922,351.5,411.4922,347.5,407.4922" style="stroke:#181818;stroke-width:1.0;"/><line style="stroke:#181818;stroke-width:1.0;" x1="345.5" x2="533.5" y1="407.4922" y2="407.4922"/><text fill="#000000" font-family="sans-serif" font-size="13" font-weight="bold" lengthAdjust="spacing" textLength="21" x="357.5" y="402.4263">[7]</text><text fill="#000000" font-family="sans-serif" font-size="13" lengthAdjust="spacing" textLength="61" x="382.5" y="402.4263">HTTP 401</text><polygon fill="#181818" points="61.5,462.625,51.5,466.625,61.5,470.625,57.5,466.625" style="stroke:#181818;stroke-width:1.0;"/><line style="stroke:#181818;stroke-width:1.0;" x1="55.5" x2="334.5" y1="466.625" y2="466.625"/><text fill="#000000" font-family="sans-serif" font-size="13" font-weight="bold" lengthAdjust="spacing" textLength="21" x="67.5" y="461.5591">[8]</text><text fill="#000000" font-family="sans-serif" font-size="13" lengthAdjust="spacing" textLength="77" x="92.5" y="461.5591">&#1057;&#1086;&#1086;&#1073;&#1097;&#1077;&#1085;&#1080;&#1077;</text><line style="stroke:#000000;stroke-width:1.0;stroke-dasharray:2.0,2.0;" x1="10" x2="1060.5" y1="475.625" y2="475.625"/><text fill="#000000" font-family="sans-serif" font-size="11" font-weight="bold" lengthAdjust="spacing" textLength="295" x="15" y="485.8354">[&#1055;&#1086;&#1083;&#1100;&#1079;&#1086;&#1074;&#1072;&#1090;&#1077;&#1083;&#1100; &#1089; &#1090;&#1072;&#1082;&#1080;&#1084; &#1083;&#1086;&#1075;&#1080;&#1085;&#1086;&#1084; &#1085;&#1077; &#1085;&#1072;&#1081;&#1076;&#1077;&#1085;]</text><polygon fill="#181818" points="829.5,506.5625,819.5,510.5625,829.5,514.5625,825.5,510.5625" style="stroke:#181818;stroke-width:1.0;"/><line style="stroke:#181818;stroke-width:1.0;" x1="823.5" x2="1026.5" y1="510.5625" y2="510.5625"/><text fill="#000000" font-family="sans-serif" font-size="13" font-weight="bold" lengthAdjust="spacing" textLength="21" x="835.5" y="505.4966">[9]</text><text fill="#000000" font-family="sans-serif" font-size="13" lengthAdjust="spacing" textLength="39" x="860.5" y="505.4966">&#1054;&#1090;&#1074;&#1077;&#1090;</text><line style="stroke:#181818;stroke-width:1.0;" x1="818.5" x2="865.5" y1="534.6953" y2="534.6953"/><line style="stroke:#181818;stroke-width:1.0;" x1="865.5" x2="865.5" y1="534.6953" y2="547.6953"/><line style="stroke:#181818;stroke-width:1.0;" x1="824.5" x2="865.5" y1="547.6953" y2="547.6953"/><polygon fill="#181818" points="834.5,543.6953,824.5,547.6953,834.5,551.6953,830.5,547.6953" style="stroke:#181818;stroke-width:1.0;"/><text fill="#000000" font-family="sans-serif" font-size="13" font-weight="bold" lengthAdjust="spacing" textLength="31" x="830.5" y="529.6294">[10]</text><text fill="#000000" font-family="sans-serif" font-size="13" lengthAdjust="spacing" textLength="151" x="865.5" y="529.6294">&#1089;&#1086;&#1079;&#1076;&#1072;&#1090;&#1100; &#1087;&#1086;&#1083;&#1100;&#1079;&#1086;&#1074;&#1072;&#1090;&#1077;&#1083;&#1103;</text><polygon fill="#181818" points="1015.5,577.8281,1025.5,581.8281,1015.5,585.8281,1019.5,581.8281" style="stroke:#181818;stroke-width:1.0;"/><line style="stroke:#181818;stroke-width:1.0;" x1="823.5" x2="1021.5" y1="581.8281" y2="581.8281"/><text fill="#000000" font-family="sans-serif" font-size="13" font-weight="bold" lengthAdjust="spacing" textLength="30" x="830.5" y="576.7622">[11]</text><text fill="#000000" font-family="sans-serif" font-size="13" lengthAdjust="spacing" textLength="64" x="864.5" y="576.7622">insert into</text><polygon fill="#181818" points="829.5,606.9609,819.5,610.9609,829.5,614.9609,825.5,610.9609" style="stroke:#181818;stroke-width:1.0;"/><line style="stroke:#181818;stroke-width:1.0;" x1="823.5" x2="1031.5" y1="610.9609" y2="610.9609"/><text fill="#000000" font-family="sans-serif" font-size="13" font-weight="bold" lengthAdjust="spacing" textLength="30" x="835.5" y="605.895">[12]</text><text fill="#000000" font-family="sans-serif" font-size="13" lengthAdjust="spacing" textLength="41" x="869.5" y="605.895">userID</text><polygon fill="#181818" points="555.5,636.0938,545.5,640.0938,555.5,644.0938,551.5,640.0938" style="stroke:#181818;stroke-width:1.0;"/><line style="stroke:#181818;stroke-width:1.0;" x1="549.5" x2="807.5" y1="640.0938" y2="640.0938"/><text fill="#000000" font-family="sans-serif" font-size="13" font-weight="bold" lengthAdjust="spacing" textLength="29" x="561.5" y="635.0278">[13]</text><text fill="#000000" font-family="sans-serif" font-size="13" lengthAdjust="spacing" textLength="145" x="594.5" y="635.0278">&#1087;&#1086;&#1083;&#1100;&#1079;&#1086;&#1074;&#1072;&#1090;&#1077;&#1083;&#1100; &#1089;&#1086;&#1079;&#1076;&#1072;&#1085;</text><polygon fill="#181818" points="351.5,695.2266,341.5,699.2266,351.5,703.2266,347.5,699.2266" style="stroke:#181818;stroke-width:1.0;"/><line style="stroke:#181818;stroke-width:1.0;" x1="345.5" x2="533.5" y1="699.2266" y2="699.2266"/><text fill="#000000" font-family="sans-serif" font-size="13" font-weight="bold" lengthAdjust="spacing" textLength="30" x="357.5" y="694.1606">[14]</text><text fill="#000000" font-family="sans-serif" font-size="13" lengthAdjust="spacing" textLength="61" x="391.5" y="694.1606">HTTP 200</text><line style="stroke:#181818;stroke-width:1.0;" x1="345.5" x2="387.5" y1="758.3594" y2="758.3594"/><line style="stroke:#181818;stroke-width:1.0;" x1="387.5" x2="387.5" y1="758.3594" y2="771.3594"/><line style="stroke:#181818;stroke-width:1.0;" x1="346.5" x2="387.5" y1="771.3594" y2="771.3594"/><polygon fill="#181818" points="356.5,767.3594,346.5,771.3594,356.5,775.3594,352.5,771.3594" style="stroke:#181818;stroke-width:1.0;"/><text fill="#000000" font-family="sans-serif" font-size="13" font-weight="bold" lengthAdjust="spacing" textLength="30" x="352.5" y="753.2935">[15]</text><text fill="#000000" font-family="sans-serif" font-size="13" lengthAdjust="spacing" textLength="122" x="386.5" y="753.2935">&#1054;&#1073;&#1088;&#1072;&#1073;&#1086;&#1090;&#1082;&#1072; &#1086;&#1090;&#1074;&#1077;&#1090;&#1072;</text><polygon fill="#181818" points="522.5,826.4922,532.5,830.4922,522.5,834.4922,526.5,830.4922" style="stroke:#181818;stroke-width:1.0;"/><line style="stroke:#181818;stroke-width:1.0;" x1="340.5" x2="528.5" y1="830.4922" y2="830.4922"/><text fill="#000000" font-family="sans-serif" font-size="13" font-weight="bold" lengthAdjust="spacing" textLength="30" x="347.5" y="825.4263">[16]</text><text fill="#000000" font-family="sans-serif" font-size="13" lengthAdjust="spacing" textLength="100" x="381.5" y="825.4263">HTTP auth/login</text><polygon fill="#181818" points="796.5,885.625,806.5,889.625,796.5,893.625,800.5,889.625" style="stroke:#181818;stroke-width:1.0;"/><line style="stroke:#181818;stroke-width:1.0;" x1="544.5" x2="802.5" y1="889.625" y2="889.625"/><text fill="#000000" font-family="sans-serif" font-size="13" font-weight="bold" lengthAdjust="spacing" textLength="30" x="551.5" y="884.5591">[17]</text><text fill="#000000" font-family="sans-serif" font-size="13" lengthAdjust="spacing" textLength="211" x="585.5" y="884.5591">&#1040;&#1091;&#1090;&#1077;&#1085;&#1090;&#1080;&#1092;&#1080;&#1082;&#1072;&#1094;&#1080;&#1103; &#1087;&#1086;&#1083;&#1100;&#1079;&#1086;&#1074;&#1072;&#1090;&#1077;&#1083;&#1103;</text><line style="stroke:#181818;stroke-width:1.0;" x1="823.5" x2="865.5" y1="918.7578" y2="918.7578"/><line style="stroke:#181818;stroke-width:1.0;" x1="865.5" x2="865.5" y1="918.7578" y2="931.7578"/><line style="stroke:#181818;stroke-width:1.0;" x1="824.5" x2="865.5" y1="931.7578" y2="931.7578"/><polygon fill="#181818" points="834.5,927.7578,824.5,931.7578,834.5,935.7578,830.5,931.7578" style="stroke:#181818;stroke-width:1.0;"/><text fill="#000000" font-family="sans-serif" font-size="13" font-weight="bold" lengthAdjust="spacing" textLength="30" x="830.5" y="913.6919">[18]</text><text fill="#000000" font-family="sans-serif" font-size="13" lengthAdjust="spacing" textLength="131" x="864.5" y="913.6919">&#1054;&#1073;&#1088;&#1072;&#1073;&#1086;&#1090;&#1082;&#1072; &#1079;&#1072;&#1087;&#1088;&#1086;&#1089;&#1072;</text><polygon fill="#181818" points="555.5,986.8906,545.5,990.8906,555.5,994.8906,551.5,990.8906" style="stroke:#181818;stroke-width:1.0;"/><line style="stroke:#181818;stroke-width:1.0;" x1="549.5" x2="812.5" y1="990.8906" y2="990.8906"/><text fill="#000000" font-family="sans-serif" font-size="13" font-weight="bold" lengthAdjust="spacing" textLength="30" x="561.5" y="985.8247">[19]</text><text fill="#000000" font-family="sans-serif" font-size="13" lengthAdjust="spacing" textLength="39" x="595.5" y="985.8247">&#1054;&#1090;&#1074;&#1077;&#1090;</text><polygon fill="#181818" points="351.5,1016.0234,341.5,1020.0234,351.5,1024.0234,347.5,1020.0234" style="stroke:#181818;stroke-width:1.0;"/><line style="stroke:#181818;stroke-width:1.0;" x1="345.5" x2="533.5" y1="1020.0234" y2="1020.0234"/><text fill="#000000" font-family="sans-serif" font-size="13" font-weight="bold" lengthAdjust="spacing" textLength="31" x="357.5" y="1014.9575">[20]</text><text fill="#000000" font-family="sans-serif" font-size="13" lengthAdjust="spacing" textLength="140" x="392.5" y="1014.9575">HTTP 200 JWT Tocken</text><polygon fill="#181818" points="61.5,1075.1563,51.5,1079.1563,61.5,1083.1563,57.5,1079.1563" style="stroke:#181818;stroke-width:1.0;"/><line style="stroke:#181818;stroke-width:1.0;" x1="55.5" x2="329.5" y1="1079.1563" y2="1079.1563"/><text fill="#000000" font-family="sans-serif" font-size="13" font-weight="bold" lengthAdjust="spacing" textLength="30" x="67.5" y="1074.0903">[21]</text><text fill="#000000" font-family="sans-serif" font-size="13" lengthAdjust="spacing" textLength="222" x="101.5" y="1074.0903">&#1042;&#1099; &#1091;&#1089;&#1087;&#1077;&#1096;&#1085;&#1086; &#1079;&#1072;&#1088;&#1077;&#1075;&#1080;&#1089;&#1090;&#1088;&#1080;&#1088;&#1086;&#1074;&#1072;&#1083;&#1080;&#1089;&#1100;</text><!--SRC=[dLHTQnD157tVNt5P7qDe59-252mLh2y6k-23-32RNTl1T3TiDg1l9XK_CA08leZKZr-msePkctRp5-xy8y_CJfeqoIBuaCpipDmxvvnxxeXs6YVaybUUSCvZlbH3bqIFsXqPHgdZno-8VtAk1cg8tGlESFO75_oR2pKapeb_OVQMppbpwKQQYAZN5OaEnP3AjkoAA2Lo3s9VTa8ItQv9Zn6v-r4WafVaFhgtwz7TrexTajTYNVw6-qxK8K_KYDGhm3Wk0M6UgJU0dPl09Dnp0f6ABT4BoTtUCek1xuHHGE3XxCiWf6TndEeFqK_Zg7_WXo1_nzzyqdZgEav9ckgR6b-jrYHGNRbDVNImMnwI-j1zpsjHw-6kjz7lXOdUhDVnB_KHOD97r00KJla46OOWmPVu_8FVCHV4Kqn03VjwCJD2Jymj4ecGGISAV8Fdb3EU0acX1bHE43B62Fq99TGfSwJF7D59YR-lJGqL1uHvXgYSBnRZ2ls9S3u3MBZ12NnB0vSV8KRVDiJg79bLWRyOaKQpn0MVLL4RwT2vHbPh8-FjnatBssfSbgIfJLXeswdt6fQsgXKwxA3Q_qrqlCosLfjJDhJcf2tVYf9MLV6gVasI4VoHOaZZHLsrQtQshIRhb9rMafj10FHAIMyr6jSbdNdx26h2qsKhbmOgPcIrWQoFLwoErjdVwCHxCbhhTVwa3Wr4F2NebjUG-tpMEV-KwKhrLMmBrWUwakvSgELALMf13nvxvCNjvs5KuRJFwWE1mW1On-gTzegvVEdboMtpPVhXnDh8l3Fekhy0]--></g></svg>